<?xml version="1.0" standalone="no"?>
<!DOCTYPE svg PUBLIC "-//W3C//DTD SVG 1.1//EN" "http://www.w3.org/Graphics/SVG/1.1/DTD/svg11.dtd" >
<svg>
<metadata>
Created by FontForge 20090622 at Thu Oct 25 08:36:02 2018
 By deploy user
Copyright (c) 2011 by Wolfgang Homola, distributed by TypeTogether. All rights reserved.
</metadata>
<defs>
<font id="Soleil" horiz-adv-x="550" >
  <font-face 
    font-family="Soleil"
    font-weight="400"
    font-stretch="normal"
    units-per-em="1000"
    panose-1="2 0 5 3 3 0 0 2 0 4"
    ascent="753"
    descent="-247"
    x-height="500"
    cap-height="700"
    bbox="-210 -328 1258 1081"
    underline-thickness="50"
    underline-position="-50"
    unicode-range="U+000D-U+FB06"
  />
<missing-glyph 
d="M298 191v-65h-59v65h59zM60 0v664h430v-664h-430zM434 611h-318v-558h318v558zM213 416v-5h-51v2q0 47 32 79t78 32t78 -32t32 -69q0 -33 -15 -59q-13 -22 -28 -33t-43 -24v-64h-54v93q46 15 67.5 34t21.5 51q0 24 -16.5 40.5t-42.5 16.5q-27 0 -43 -17t-16 -45z" />
    <glyph glyph-name="ff" unicode="ff" horiz-adv-x="674" 
d="M366 740l-26 -76q-31 14 -62 14q-38 0 -58 -16q-26 -21 -26 -99v-63h115v-80h-115v-420h-91v420h-57v80h57v72q0 85 31 131q41 59 133 59q48 0 99 -22zM703 740l-26 -76q-31 14 -62 14q-38 0 -58 -16q-26 -21 -26 -99v-63h135v-80h-135v-420h-91v420h-57v80h57v72
q0 85 31 131q41 59 133 59q48 0 99 -22z" />
    <glyph glyph-name="fi" unicode="fi" horiz-adv-x="596" 
d="M329 500v-80h-135v-420h-91v420h-57v80h57v72q0 85 31 131q41 59 133 59q36 0 74 -13l-14 -79q-26 8 -49 8q-38 0 -58 -16q-26 -21 -26 -99v-63h135zM512 500v-500h-91v500h91zM512 700v-102h-91v102h91z" />
    <glyph glyph-name="fl" unicode="fl" horiz-adv-x="596" 
d="M329 500v-80h-135v-420h-91v420h-57v80h57v72q0 85 31 131q41 59 133 59q36 0 74 -13l-14 -79q-26 8 -49 8q-38 0 -58 -16q-26 -21 -26 -99v-63h135zM421 750h91v-750h-91v750z" />
    <glyph glyph-name="ffi" unicode="ffi" horiz-adv-x="933" 
d="M366 740l-26 -76q-31 14 -62 14q-38 0 -58 -16q-26 -21 -26 -99v-63h115v-80h-115v-420h-91v420h-57v80h57v72q0 85 31 131q41 59 133 59q48 0 99 -22zM666 500v-80h-135v-420h-91v420h-57v80h57v72q0 85 31 131q41 59 133 59q36 0 74 -13l-14 -79q-26 8 -49 8
q-38 0 -58 -16q-26 -21 -26 -99v-63h135zM849 500v-500h-91v500h91zM849 700v-102h-91v102h91z" />
    <glyph glyph-name="ffl" unicode="ffl" horiz-adv-x="933" 
d="M366 740l-26 -76q-31 14 -62 14q-38 0 -58 -16q-26 -21 -26 -99v-63h115v-80h-115v-420h-91v420h-57v80h57v72q0 85 31 131q41 59 133 59q48 0 99 -22zM666 500v-80h-135v-420h-91v420h-57v80h57v72q0 85 31 131q41 59 133 59q36 0 74 -13l-14 -79q-26 8 -49 8
q-38 0 -58 -16q-26 -21 -26 -99v-63h135zM758 750h91v-750h-91v750z" />
    <glyph glyph-name="f_k" unicode="fk" horiz-adv-x="851" 
d="M329 500v-80h-135v-420h-91v420h-57v80h57v72q0 85 31 131q41 59 133 59q36 0 74 -13l-14 -79q-26 8 -49 8q-38 0 -58 -16q-26 -21 -26 -99v-63h135zM653 296l192 -296h-111l-143 224l-79 -92v-132h-91v750h91v-500l2 -1l202 251h112z" />
    <glyph glyph-name="f_b" unicode="fb" horiz-adv-x="963" 
d="M329 500v-80h-135v-420h-91v420h-57v80h57v72q0 85 31 131q41 59 133 59q36 0 74 -13l-14 -79q-26 8 -49 8q-38 0 -58 -16q-26 -21 -26 -99v-63h135zM421 0v750h91v-317q26 38 68.5 58.5t90.5 20.5q108 0 178 -76q72 -77 72 -187q0 -103 -71 -183q-70 -78 -181 -78
q-93 0 -157 66v-54h-91zM512 333v-185q24 -35 64 -55.5t81 -20.5q81 0 126 54t45 125q0 72 -47 125q-46 52 -122 52q-46 0 -88 -26t-59 -69z" />
    <glyph glyph-name="f_h" unicode="fh" horiz-adv-x="943" 
d="M329 500v-80h-135v-420h-91v420h-57v80h57v72q0 85 31 131q41 59 133 59q36 0 74 -13l-14 -79q-26 8 -49 8q-38 0 -58 -16q-26 -21 -26 -99v-63h135zM421 750h91v-332q58 94 163 94q99 0 145 -63q45 -61 45 -189v-260h-91v250q0 98 -26 138q-27 40 -87 40q-41 0 -81 -26
t-68 -70v-332h-91v750z" />
    <glyph glyph-name="f_t" unicode="ft" horiz-adv-x="683" 
d="M366 740l-26 -76q-31 14 -62 14q-38 0 -58 -16q-26 -21 -26 -99v-63h125v-80h-125v-420h-91v420h-57v80h57v72q0 85 31 131q41 59 133 59q48 0 99 -22zM657 500v-80h-140v-226q0 -29 1 -39q2 -43 18.5 -63.5t51.5 -20.5q26 0 56 14l25 -73q-41 -22 -93 -22
q-100 0 -134 78q-16 36 -16 104v248h-57v80h57v120h91v-120h140z" />
    <glyph glyph-name="f_j" unicode="fj" horiz-adv-x="604" 
d="M329 500v-80h-135v-420h-91v420h-57v80h57v72q0 85 31 131q41 59 133 59q36 0 74 -13l-14 -79q-26 8 -49 8q-38 0 -58 -16q-26 -21 -26 -99v-63h135zM520 700v-102h-91v102h91zM429 500h91v-544q0 -58 -14 -95q-32 -83 -133 -83q-56 0 -96 22l26 74q26 -14 56 -14
q42 0 56 26t14 88v526z" />
    <glyph glyph-name="f_f_j" unicode="ffj" horiz-adv-x="941" 
d="M366 740l-26 -76q-31 14 -62 14q-38 0 -58 -16q-26 -21 -26 -99v-63h115v-80h-115v-420h-91v420h-57v80h57v72q0 85 31 131q41 59 133 59q48 0 99 -22zM666 500v-80h-135v-420h-91v420h-57v80h57v72q0 85 31 131q41 59 133 59q36 0 74 -13l-14 -79q-26 8 -49 8
q-38 0 -58 -16q-26 -21 -26 -99v-63h135zM857 700v-102h-91v102h91zM766 500h91v-544q0 -58 -14 -95q-32 -83 -133 -83q-56 0 -96 22l26 74q26 -14 56 -14q42 0 56 26t14 88v526z" />
    <glyph glyph-name="f_f_k" unicode="ffk" horiz-adv-x="1188" 
d="M366 740l-26 -76q-31 14 -62 14q-38 0 -58 -16q-26 -21 -26 -99v-63h115v-80h-115v-420h-91v420h-57v80h57v72q0 85 31 131q41 59 133 59q48 0 99 -22zM666 500v-80h-135v-420h-91v420h-57v80h57v72q0 85 31 131q41 59 133 59q36 0 74 -13l-14 -79q-26 8 -49 8
q-38 0 -58 -16q-26 -21 -26 -99v-63h135zM990 296l192 -296h-111l-143 224l-79 -92v-132h-91v750h91v-500l2 -1l202 251h112z" />
    <glyph glyph-name="f_f_b" unicode="ffb" horiz-adv-x="1300" 
d="M366 740l-26 -76q-31 14 -62 14q-38 0 -58 -16q-26 -21 -26 -99v-63h115v-80h-115v-420h-91v420h-57v80h57v72q0 85 31 131q41 59 133 59q48 0 99 -22zM666 500v-80h-135v-420h-91v420h-57v80h57v72q0 85 31 131q41 59 133 59q36 0 74 -13l-14 -79q-26 8 -49 8
q-38 0 -58 -16q-26 -21 -26 -99v-63h135zM758 0v750h91v-317q26 38 68.5 58.5t90.5 20.5q108 0 178 -76q72 -77 72 -187q0 -103 -71 -183q-71 -78 -181 -78q-92 0 -157 66v-54h-91zM849 333v-185q24 -35 64 -55.5t81 -20.5q81 0 126 54t45 125q0 72 -47 125q-46 52 -122 52
q-46 0 -88 -26t-59 -69z" />
    <glyph glyph-name="f_f_h" unicode="ffh" horiz-adv-x="1280" 
d="M366 740l-26 -76q-31 14 -62 14q-38 0 -58 -16q-26 -21 -26 -99v-63h115v-80h-115v-420h-91v420h-57v80h57v72q0 85 31 131q41 59 133 59q48 0 99 -22zM666 500v-80h-135v-420h-91v420h-57v80h57v72q0 85 31 131q41 59 133 59q36 0 74 -13l-14 -79q-26 8 -49 8
q-38 0 -58 -16q-26 -21 -26 -99v-63h135zM758 750h91v-332q58 94 163 94q98 0 145 -63q45 -61 45 -189v-260h-91v250q0 98 -26 138q-27 40 -87 40q-41 0 -81 -26t-68 -70v-332h-91v750z" />
    <glyph glyph-name="f_f_t" unicode="fft" horiz-adv-x="1020" 
d="M366 740l-26 -76q-31 14 -62 14q-38 0 -58 -16q-26 -21 -26 -99v-63h115v-80h-115v-420h-91v420h-57v80h57v72q0 85 31 131q41 59 133 59q48 0 99 -22zM703 740l-26 -76q-31 14 -62 14q-38 0 -58 -16q-26 -21 -26 -99v-63h125v-80h-125v-420h-91v420h-57v80h57v72
q0 85 31 131q41 59 133 59q48 0 99 -22zM994 500v-80h-140v-226q0 -29 1 -39q2 -43 18.5 -63.5t51.5 -20.5q26 0 56 14l25 -73q-41 -22 -93 -22q-99 0 -134 78q-16 36 -16 104v248h-57v80h57v120h91v-120h140z" />
    <glyph glyph-name="f_iacute" unicode="f&#xed;" horiz-adv-x="596" 
d="M329 500v-80h-135v-420h-91v420h-57v80h57v72q0 85 31 131q41 59 133 59q36 0 74 -13l-14 -79q-26 8 -49 8q-38 0 -58 -16q-26 -21 -26 -99v-63h135zM544 782l67 -50l-138 -169l-62 48zM512 500v-500h-91v500h91z" />
    <glyph glyph-name="t_t" unicode="tt" horiz-adv-x="692" 
d="M666 500v-80h-140v-226q0 -29 1 -39q2 -43 18.5 -63.5t51.5 -20.5q26 0 56 14l25 -73q-41 -22 -93 -22q-100 0 -134 78q-16 36 -16 104v248h-67v80h67v120h91v-120h140zM320 500v-80h-140v-226q0 -29 1 -39q2 -43 18.5 -63.5t51.5 -20.5q26 0 56 14l25 -73
q-41 -22 -93 -22q-99 0 -134 78q-16 36 -16 104v248h-67v80h67v120h91v-120h140z" />
    <glyph glyph-name=".notdef" 
d="M298 191v-65h-59v65h59zM60 0v664h430v-664h-430zM434 611h-318v-558h318v558zM213 416v-5h-51v2q0 47 32 79t78 32t78 -32t32 -69q0 -33 -15 -59q-13 -22 -28 -33t-43 -24v-64h-54v93q46 15 67.5 34t21.5 51q0 24 -16.5 40.5t-42.5 16.5q-27 0 -43 -17t-16 -45z" />
    <glyph glyph-name=".null" horiz-adv-x="0" 
 />
    <glyph glyph-name="nonmarkingreturn" horiz-adv-x="333" 
 />
    <glyph glyph-name="NULL" horiz-adv-x="0" 
 />
    <glyph glyph-name="NULL" horiz-adv-x="0" 
 />
    <glyph glyph-name="CR.001" unicode="&#xd;" horiz-adv-x="500" 
 />
    <glyph glyph-name="space" unicode=" " horiz-adv-x="250" 
 />
    <glyph glyph-name="exclam" unicode="!" horiz-adv-x="317" 
d="M105 700h107v-111l-9 -379h-89l-9 379v111zM211 116v-116h-105v116h105z" />
    <glyph glyph-name="quotedbl" unicode="&#x22;" horiz-adv-x="477" 
d="M179 700l-9 -265h-81l-9 265h99zM397 700l-9 -265h-81l-9 265h99z" />
    <glyph glyph-name="numbersign" unicode="#" horiz-adv-x="720" 
d="M65 189v74h134l24 138h-90v74h102l33 189h81l-33 -189h130l33 189h81l-33 -189h128v-74h-140l-24 -138h96v-74h-108l-32 -189h-81l32 189h-130l-32 -189h-81l32 189h-122zM434 401h-130l-24 -138h130z" />
    <glyph glyph-name="dollar" unicode="$" 
d="M30 88l65 61q78 -80 171 -80q57 0 100 29q43 28 43 87q0 40 -30 70q-11 11 -36 23q-25 14 -39 18q-11 5 -47 18l-55 21q-20 7 -48 24q-40 24 -59.5 56.5t-22.5 86.5q0 72 50 119q50 48 129 54v95h64v-97q83 -9 164 -65l-57 -67q-59 53 -144 53q-48 0 -82 -24.5t-34 -67.5
q0 -30 27 -57q13 -11 32 -20l37 -17l44 -15l58 -21q20 -8 52 -26t48 -37q43 -45 43 -114q0 -84 -53 -138t-140 -66v-97h-64v94q-116 5 -216 100z" />
    <glyph glyph-name="percent" unicode="%" horiz-adv-x="850" 
d="M377 546q0 -67 -46 -113t-113 -46q-68 0 -114 46t-46 113t46 113q47 47 114 47q66 0 113 -47q46 -46 46 -113zM219 635q-37 0 -61.5 -25t-24.5 -63t24.5 -63.5t61.5 -25.5q35 0 59 25.5t24 63.5q0 37 -24 62.5t-59 25.5zM792 153q0 -67 -46 -113t-113 -46q-68 0 -114 46
t-46 113t46 113q47 47 114 47q66 0 113 -47q46 -46 46 -113zM634 242q-37 0 -61.5 -25t-24.5 -63t24.5 -63.5t61.5 -25.5q35 0 59 25.5t24 63.5q0 37 -24 62.5t-59 25.5zM151 28l497 684l55 -40l-497 -684z" />
    <glyph glyph-name="ampersand" unicode="&#x26;" horiz-adv-x="680" 
d="M428 282l267 -237l-56 -63l-124 110q-77 -104 -220 -104q-91 0 -162 65q-69 66 -69 152q0 61 31.5 110.5t86.5 79.5q-67 71 -67 146q0 73 60 122q61 49 138 49q64 0 114 -34.5t66 -91.5l-84 -24q-18 66 -100 66q-45 0 -74 -25.5t-29 -66.5q0 -38 24 -69q27 -33 83 -82
l-54 -64l-18 16q-40 -19 -63 -53.5t-23 -77.5q0 -56 44 -95q45 -39 107 -39q95 0 148 74l-81 73z" />
    <glyph glyph-name="quotesingle" unicode="'" horiz-adv-x="259" 
d="M179 700l-9 -265h-81l-9 265h99z" />
    <glyph glyph-name="parenleft" unicode="(" horiz-adv-x="345" 
d="M315 781l38 -65q-209 -137 -209 -412t209 -412l-38 -65q-265 165 -265 477t265 477z" />
    <glyph glyph-name="parenright" unicode=")" horiz-adv-x="345" 
d="M-8 716l38 65q265 -165 265 -477t-265 -477l-38 65q209 137 209 412t-209 412z" />
    <glyph glyph-name="asterisk" unicode="*" horiz-adv-x="490" 
d="M394 635l26 -82l-119 -29l84 -97l-70 -50l-70 113l-70 -113l-70 50l83 97l-118 29l26 82l116 -48l-10 125h86l-9 -125z" />
    <glyph glyph-name="plus" unicode="+" 
d="M236 561h78v-211h211v-78h-211v-210h-78v210h-211v78h211v211z" />
    <glyph glyph-name="comma" unicode="," horiz-adv-x="250" 
d="M88 116h102l-66 -250h-87z" />
    <glyph glyph-name="hyphen" unicode="-" horiz-adv-x="460" 
d="M360 320v-82h-260v82h260z" />
    <glyph glyph-name="period" unicode="." horiz-adv-x="250" 
d="M177 116v-116h-105v116h105z" />
    <glyph glyph-name="slash" unicode="/" horiz-adv-x="363" 
d="M292 762l71 -27l-292 -788l-71 27z" />
    <glyph glyph-name="zero" unicode="0" 
d="M101 584q62 92 174 92q111 0 173 -92t62 -252q0 -161 -62 -253q-61 -91 -173 -91q-113 0 -174 91t-61 253q0 161 61 252zM378 525q-36 65 -103 65t-103 -65q-36 -64 -36 -193q0 -128 36 -193t103 -65t103 65q36 64 36 193t-36 193z" />
    <glyph glyph-name="one" unicode="1" horiz-adv-x="344" 
d="M249 664v-664h-94v550q-7 -4 -100 -44v88q64 31 133 70h61z" />
    <glyph glyph-name="two" unicode="2" horiz-adv-x="509" 
d="M480 84v-84h-422v85q168 175 234 274q61 88 61 141q0 41 -32.5 66.5t-76.5 25.5q-43 0 -73.5 -29.5t-31.5 -73.5l-93 19q6 74 67 120q61 48 135 48q80 0 141 -50q61 -49 61 -126q0 -82 -71 -183q-75 -106 -195 -233h296z" />
    <glyph glyph-name="three" unicode="3" horiz-adv-x="519" 
d="M154 292v96q59 1 95 10q40 11 64.5 37.5t24.5 61.5q0 41 -31 68t-80 27q-38 0 -67.5 -19t-41.5 -53l-80 33q21 56 72 89.5t119 33.5q93 0 148 -49q57 -48 57 -129q0 -45 -22.5 -83t-60.5 -58q52 -18 84.5 -63t32.5 -101q0 -95 -64 -150t-158 -55q-68 0 -125 29t-86 82
l74 41q41 -68 130 -68q58 0 95.5 30t37.5 83q0 50 -41 82t-100 32q-48 0 -77 -7z" />
    <glyph glyph-name="four" unicode="4" horiz-adv-x="538" 
d="M418 167v-167h-92v167h-300v101l295 396h97v-413h99v-84h-99zM326 532l-200 -281h200v281z" />
    <glyph glyph-name="five" unicode="5" horiz-adv-x="499" 
d="M91 664h342v-84h-253q-8 -142 -12 -186q39 19 98 19q82 0 143 -59q60 -59 60 -145q0 -95 -63 -158q-62 -63 -158 -63q-62 0 -124 30q-60 32 -87 81l75 42q38 -69 124 -69q62 0 99.5 38t37.5 96q0 54 -38 88.5t-96 34.5q-63 0 -103 -42l-68 37q12 118 23 340z" />
    <glyph glyph-name="six" unicode="6" horiz-adv-x="534" 
d="M367 701l38 -84q-106 -48 -169 -109t-87 -149q61 61 150 61q86 0 140 -62q55 -61 55 -152q0 -93 -60 -156q-60 -62 -151 -62q-109 0 -177 78q-66 78 -66 187q0 152 92 271q93 119 235 177zM279 336q-45 0 -84 -22.5t-60 -61.5q0 -76 34 -128t106 -52q55 0 89 38.5
t34 97.5q0 57 -32.5 92.5t-86.5 35.5z" />
    <glyph glyph-name="seven" unicode="7" horiz-adv-x="452" 
d="M10 664h422v-69q-144 -300 -276 -617l-87 39l87 197l108 230l64 134h-318v86z" />
    <glyph glyph-name="eight" unicode="8" horiz-adv-x="562" 
d="M56 183q0 112 103 167q-83 50 -83 144q0 76 57 129q58 53 148 53t148 -53q57 -53 57 -129q0 -94 -83 -144q103 -55 103 -167q0 -83 -63 -139q-64 -56 -162 -56t-162 56q-63 56 -63 139zM152 187q0 -50 37 -82.5t92 -32.5t92 32.5t37 82.5q0 47 -38 82q-37 34 -91 34
t-91 -34q-38 -35 -38 -82zM170 490q0 -43 32.5 -73t78.5 -30t78.5 30t32.5 73q0 44 -32 73t-79 29t-79 -29t-32 -73z" />
    <glyph glyph-name="nine" unicode="9" horiz-adv-x="534" 
d="M167 -37l-38 84q106 48 169 109t87 149q-61 -61 -150 -61q-85 0 -141 62q-54 62 -54 152q0 94 60 155q60 63 151 63q110 0 176 -78q67 -77 67 -187q0 -153 -93 -271q-91 -118 -234 -177zM255 328q45 0 84 22.5t60 61.5q0 75 -35 128q-34 52 -105 52q-55 0 -89 -38.5
t-34 -97.5q0 -57 32.5 -92.5t86.5 -35.5z" />
    <glyph glyph-name="colon" unicode=":" horiz-adv-x="250" 
d="M177 500v-116h-105v116h105zM177 116v-116h-105v116h105z" />
    <glyph glyph-name="semicolon" unicode=";" horiz-adv-x="250" 
d="M192 500v-116h-105v116h105zM88 116h102l-66 -250h-87z" />
    <glyph glyph-name="less" unicode="&#x3c;" 
d="M525 72l-501 200v78l501 200v-78l-404 -161l404 -161v-78z" />
    <glyph glyph-name="equal" unicode="=" 
d="M54 350v78h441v-78h-441zM54 194v78h441v-78h-441z" />
    <glyph glyph-name="greater" unicode="&#x3e;" 
d="M25 550l501 -200v-78l-501 -200v78l404 161l-404 161v78z" />
    <glyph glyph-name="question" unicode="?" horiz-adv-x="541" 
d="M314 324v-114h-97v166q70 23 108 51q52 36 52 101q0 42 -30 72t-75 30q-49 0 -78 -30t-29 -82v-8h-91v4q0 87 58 142q59 56 140 56q83 0 139 -56q57 -56 57 -125q0 -83 -41 -129q-40 -45 -113 -78zM318 116v-116h-105v116h105z" />
    <glyph glyph-name="at" unicode="@" horiz-adv-x="800" 
d="M521 -33l25 -70q-71 -36 -151 -36q-142 0 -241 101q-99 100 -99 243t99 244t241 101q156 0 253 -91q98 -92 98 -234q0 -89 -39 -151q-39 -61 -114 -61q-71 0 -97 81q-17 -32 -48 -49t-68 -17q-71 0 -117 49t-46 123q0 70 45 121q45 52 120 52q57 0 103 -43v32h71v-154
q0 -52 6.5 -81t15.5 -37t23 -8q32 0 49.5 40.5t17.5 103.5q0 112 -74 180t-198 68q-110 0 -187 -78q-76 -76 -76 -190t76 -191q77 -78 187 -78q64 0 125 30zM485 175v72q-19 27 -45 43t-50 16q-48 0 -74 -30t-26 -77q0 -44 27 -74.5t71 -30.5q27 0 55 22.5t42 58.5z" />
    <glyph glyph-name="A" unicode="A" horiz-adv-x="653" 
d="M370 700l268 -700h-111l-55 149h-298l-54 -149h-105l271 700h84zM324 554h-1l-117 -319h235z" />
    <glyph glyph-name="B" unicode="B" horiz-adv-x="611" 
d="M253 0h-158v700h167q118 0 186 -44q74 -48 74 -145q0 -103 -107 -145q136 -40 136 -167q0 -59 -30 -103t-84 -68q-66 -28 -184 -28zM449 198q0 55 -38.5 86.5t-107.5 31.5h-112v-232h53q102 0 148 21q57 27 57 93zM426 506q0 59 -40 84q-41 26 -147 26h-48v-216h67
q168 0 168 106z" />
    <glyph glyph-name="C" unicode="C" horiz-adv-x="674" 
d="M591 123l51 -71q-94 -64 -206 -64q-161 0 -268 100q-108 100 -108 262q0 155 109 258q110 104 267 104q101 0 188 -54l-45 -74q-67 42 -143 42q-119 0 -197 -78q-77 -79 -77 -198q0 -126 76 -201t198 -75q82 0 155 49z" />
    <glyph glyph-name="D" unicode="D" horiz-adv-x="720" 
d="M274 0h-179v700h189q55 0 107.5 -11.5t101.5 -38t86 -65.5t59 -99t22 -133q0 -92 -32.5 -163t-90.5 -111q-112 -79 -263 -79zM558 344q0 131 -76 200.5t-216 69.5h-75v-528h33q166 0 250 61.5t84 196.5z" />
    <glyph glyph-name="E" unicode="E" horiz-adv-x="580" 
d="M515 86v-86h-420v700h420v-86h-324v-210h324v-86h-324v-232h324z" />
    <glyph glyph-name="F" unicode="F" horiz-adv-x="495" 
d="M450 385v-86h-259v-299h-96v700h355v-86h-259v-229h259z" />
    <glyph glyph-name="G" unicode="G" horiz-adv-x="803" 
d="M627 147v155h-178v86h274v-266q-50 -64 -125.5 -99t-161.5 -35q-164 0 -270 100t-106 262q0 155 109 258q110 104 267 104q78 0 148.5 -33t122.5 -91l-68 -56q-39 43 -92.5 68.5t-110.5 25.5q-119 0 -197 -78q-77 -79 -77 -198q0 -126 76 -201t198 -75q115 0 191 73z" />
    <glyph glyph-name="H" unicode="H" horiz-adv-x="752" 
d="M657 700v-700h-96v318h-370v-318h-96v700h96v-296h370v296h96z" />
    <glyph glyph-name="I" unicode="I" horiz-adv-x="286" 
d="M191 700v-700h-96v700h96z" />
    <glyph glyph-name="J" unicode="J" horiz-adv-x="341" 
d="M155 700h96v-523q0 -86 -32 -133q-39 -56 -134 -56q-50 0 -101 22l26 78q31 -14 61 -14q51 0 67 24q17 23 17 92v510z" />
    <glyph glyph-name="K" unicode="K" horiz-adv-x="621" 
d="M485 700h117l-233 -276l247 -424h-112l-200 346l-113 -135v-211h-96v700h96v-357z" />
    <glyph glyph-name="L" unicode="L" horiz-adv-x="500" 
d="M495 86v-86h-400v700h96v-614h304z" />
    <glyph glyph-name="M" unicode="M" horiz-adv-x="923" 
d="M732 0v591l-239 -591h-67l-235 591v-591h-96v700h152l213 -547l216 547h152v-700h-96z" />
    <glyph glyph-name="N" unicode="N" horiz-adv-x="755" 
d="M660 700v-700h-85l-384 522v-522h-96v700h84l385 -522v522h96z" />
    <glyph glyph-name="O" unicode="O" horiz-adv-x="840" 
d="M604 153q74 80 74 197q0 116 -74 196t-184 80q-111 0 -185 -80q-73 -79 -73 -196q0 -118 73 -197t185 -79q111 0 184 79zM676 606q104 -106 104 -256t-104 -257q-104 -105 -256 -105t-256 105q-104 107 -104 257t104 256q103 106 256 106t256 -106z" />
    <glyph glyph-name="P" unicode="P" horiz-adv-x="581" 
d="M551 491q0 -56 -22 -98t-59 -66t-79 -35.5t-87 -11.5h-113v-280h-96v700h209q45 0 87 -11.5t79 -35t59 -65.5t22 -97zM449 488q0 58 -41 92t-109 34h-108v-248h88q170 0 170 122z" />
    <glyph glyph-name="Q" unicode="Q" horiz-adv-x="840" 
d="M780 350q0 -155 -107 -259l95 -94l-61 -61l-103 101q-83 -49 -184 -49q-152 0 -256 105q-104 107 -104 257t104 256q103 106 256 106t256 -106q104 -106 104 -256zM678 350q0 116 -74 196t-184 80q-111 0 -185 -80q-73 -79 -73 -196q0 -118 73 -197t185 -79q66 0 119 29
l-98 98l61 61l105 -105q71 77 71 193z" />
    <glyph glyph-name="R" unicode="R" horiz-adv-x="613" 
d="M371 302l222 -302h-120l-210 296h-72v-296h-96v700h208q59 0 110 -19q53 -20 90 -67q39 -46 39 -115q0 -80 -47.5 -130.5t-123.5 -66.5zM440 496q0 53 -39 85.5t-103 32.5h-107v-232h87q76 0 119 29t43 85z" />
    <glyph glyph-name="S" unicode="S" horiz-adv-x="609" 
d="M517 640l-59 -70q-27 24 -67.5 40t-79.5 16q-57 0 -91 -26t-34 -71q0 -30 28 -58q12 -10 34 -20l38 -17l46 -16q42 -15 76 -31q35 -16 65 -38q71 -49 71 -143q0 -56 -23 -100t-60 -68.5t-78.5 -37t-84.5 -12.5q-146 0 -253 105l68 64q47 -46 89 -64.5t97 -18.5
q63 0 103 31.5t40 89.5q0 56 -49 85q-34 20 -107 47q-83 30 -133 65q-64 48 -64 127q0 93 60 143q61 50 151 50q122 0 217 -72z" />
    <glyph glyph-name="T" unicode="T" horiz-adv-x="488" 
d="M468 700v-86h-176v-614h-96v614h-176v86h448z" />
    <glyph glyph-name="U" unicode="U" horiz-adv-x="722" 
d="M536 700h96v-371q0 -171 -66.5 -256t-206.5 -85q-269 0 -269 341v371h96v-396q0 -113 45.5 -171.5t129.5 -58.5t129.5 58.5t45.5 171.5v396z" />
    <glyph glyph-name="V" unicode="V" horiz-adv-x="633" 
d="M523 700h105l-271 -700h-84l-268 700h111l203 -554h1z" />
    <glyph glyph-name="W" unicode="W" horiz-adv-x="886" 
d="M400 700h90l140 -528h2l147 528h102l-200 -700h-96l-140 533h-2l-152 -533h-94l-192 700h106l140 -528h2z" />
    <glyph glyph-name="X" unicode="X" horiz-adv-x="651" 
d="M523 700h119l-254 -346l258 -354h-121l-203 277l-196 -277h-121l257 356l-249 344h123l194 -269z" />
    <glyph glyph-name="Y" unicode="Y" horiz-adv-x="555" 
d="M324 299v-299h-96v304l-223 396h119l156 -294h3l155 294h112z" />
    <glyph glyph-name="Z" unicode="Z" horiz-adv-x="547" 
d="M502 700v-52l-329 -562h354v-86h-487v51l331 563h-323v86h454z" />
    <glyph glyph-name="bracketleft" unicode="[" horiz-adv-x="311" 
d="M301 -93v-77h-211v920h211v-77h-129v-766h129z" />
    <glyph glyph-name="backslash" unicode="\" horiz-adv-x="363" 
d="M71 762l292 -788l-71 -27l-292 788z" />
    <glyph glyph-name="bracketright" unicode="]" horiz-adv-x="311" 
d="M221 750v-920h-211v77h129v766h-129v77h211z" />
    <glyph glyph-name="asciicircum" unicode="^" 
d="M323 681l151 -331h-78l-121 254l-121 -254h-78l151 331h96z" />
    <glyph glyph-name="underscore" unicode="_" 
d="M550 -172v-63h-550v63h550z" />
    <glyph glyph-name="grave" unicode="`" horiz-adv-x="360" 
d="M246 608l-55 -42l-134 160l66 51z" />
    <glyph glyph-name="a" unicode="a" horiz-adv-x="546" 
d="M468 304v-304h-87v53q-59 -65 -150 -65q-78 0 -127.5 39.5t-49.5 112.5q0 61 34 99q58 67 189 67q45 0 100 -11v18q0 120 -118 120q-79 0 -159 -44l-27 76q99 47 197 47q103 0 150.5 -52t47.5 -156zM377 124v103q-44 10 -90 10q-144 0 -144 -90q0 -41 26.5 -62t72.5 -21
q64 0 135 60z" />
    <glyph glyph-name="b" unicode="b" horiz-adv-x="626" 
d="M84 0v750h91v-317q26 38 68.5 58.5t90.5 20.5q108 0 178 -76q72 -77 72 -187q0 -103 -71 -183q-71 -78 -181 -78q-92 0 -157 66v-54h-91zM175 333v-185q24 -35 64 -55.5t81 -20.5q81 0 126 54t45 125q0 72 -47 125q-46 52 -122 52q-46 0 -88 -26t-59 -69z" />
    <glyph glyph-name="c" unicode="c" horiz-adv-x="475" 
d="M406 107l45 -70q-59 -49 -153 -49q-110 0 -183 73t-73 189q0 110 76 186t185 76q77 0 141 -43l-43 -75q-44 34 -102 34q-68 0 -116 -52t-48 -126q0 -80 48 -129q49 -49 117 -49q59 0 106 35z" />
    <glyph glyph-name="d" unicode="d" horiz-adv-x="626" 
d="M292 -12q-107 0 -179 76q-71 77 -71 186q0 104 70 183t182 79q93 0 157 -67v305h91v-750h-91v67q-26 -38 -68.5 -58.5t-90.5 -20.5zM304 72q44 0 86.5 26t60.5 68v186q-24 35 -64 55.5t-81 20.5q-82 0 -127 -54q-44 -55 -44 -126t47 -124q46 -52 122 -52z" />
    <glyph glyph-name="e" unicode="e" horiz-adv-x="560" 
d="M514 227h-381q5 -69 48 -115t113 -46q106 0 149 81l66 -42q-73 -117 -219 -117q-116 0 -182 74t-66 188q0 110 71 186q72 76 177 76q98 0 163 -66q65 -67 65 -167q0 -29 -4 -52zM291 434q-57 0 -96.5 -36.5t-54.5 -97.5h284q-3 54 -41 94q-37 40 -92 40z" />
    <glyph glyph-name="f" unicode="f" horiz-adv-x="337" 
d="M366 740l-26 -76q-31 14 -62 14q-38 0 -58 -16q-26 -21 -26 -99v-63h135v-80h-135v-420h-91v420h-57v80h57v72q0 85 31 131q41 59 133 59q48 0 99 -22z" />
    <glyph glyph-name="g" unicode="g" horiz-adv-x="620" 
d="M451 500h91v-472q0 -79 -26 -131q-62 -119 -226 -119q-131 0 -221 66l35 78q36 -26 87.5 -43t96.5 -17q74 0 118.5 37.5t44.5 110.5v69q-26 -38 -69 -58.5t-91 -20.5q-106 0 -178 74q-71 74 -71 182q0 103 70 179q71 77 182 77q93 0 157 -67v55zM451 177v175
q-24 35 -64 55.5t-81 20.5q-82 0 -127 -52q-44 -53 -44 -122q0 -70 47 -120t121 -50q44 0 87 26t61 67z" />
    <glyph glyph-name="h" unicode="h" horiz-adv-x="606" 
d="M84 750h91v-332q58 94 163 94q98 0 145 -63q45 -61 45 -189v-260h-91v250q0 98 -26 138q-27 40 -87 40q-41 0 -81 -26t-68 -70v-332h-91v750z" />
    <glyph glyph-name="i" unicode="i" horiz-adv-x="259" 
d="M175 500v-500h-91v500h91zM175 700v-102h-91v102h91z" />
    <glyph glyph-name="j" unicode="j" horiz-adv-x="267" 
d="M92 500h91v-544q0 -58 -14 -95q-32 -83 -133 -83q-56 0 -96 22l26 74q26 -14 56 -14q42 0 56 26t14 88v526zM183 700v-102h-91v102h91z" />
    <glyph glyph-name="k" unicode="k" horiz-adv-x="514" 
d="M316 296l192 -296h-111l-143 224l-79 -92v-132h-91v750h91v-500l2 -1l202 251h112z" />
    <glyph glyph-name="l" unicode="l" horiz-adv-x="259" 
d="M84 750h91v-750h-91v750z" />
    <glyph glyph-name="m" unicode="m" horiz-adv-x="919" 
d="M841 260v-260h-91v250q0 100 -24 138q-27 40 -86 40q-35 0 -72.5 -23t-65.5 -60q6 -37 6 -85v-260h-91v250q0 106 -27 143q-26 35 -77 35q-35 0 -72.5 -26t-65.5 -66v-336h-91v500h91v-76q28 40 71 64t86 24q94 0 139 -69l12 -23q65 92 174 92q93 0 138 -59
q46 -59 46 -193z" />
    <glyph glyph-name="n" unicode="n" horiz-adv-x="606" 
d="M84 0v500h91v-82q58 94 163 94q98 0 145 -63q45 -61 45 -189v-260h-91v250q0 98 -26 138q-27 40 -87 40q-41 0 -81 -26t-68 -70v-332h-91z" />
    <glyph glyph-name="o" unicode="o" horiz-adv-x="594" 
d="M115 436q73 76 182 76t182 -76t73 -186t-73 -186t-182 -76t-182 76t-73 186t73 186zM413 124q46 52 46 126t-46 126t-116 52t-116 -52t-46 -126t46 -126t116 -52t116 52z" />
    <glyph glyph-name="p" unicode="p" horiz-adv-x="626" 
d="M84 -250v750h91v-67q26 38 68.5 58.5t90.5 20.5q108 0 178 -76q72 -77 72 -187q0 -103 -71 -183q-71 -78 -181 -78q-92 0 -157 66v-304h-91zM175 333v-185q24 -35 64 -55.5t81 -20.5q81 0 126 54t45 125q0 72 -47 125q-46 52 -122 52q-46 0 -88 -26t-59 -69z" />
    <glyph glyph-name="q" unicode="q" horiz-adv-x="626" 
d="M451 500h91v-750h-91v317q-26 -38 -68.5 -58.5t-90.5 -20.5q-107 0 -179 76q-71 77 -71 186q0 104 70 183t182 79q93 0 157 -67v55zM451 166v186q-24 35 -64 55.5t-81 20.5q-82 0 -127 -54q-44 -55 -44 -126t47 -124q46 -52 122 -52q44 0 86.5 26t60.5 68z" />
    <glyph glyph-name="r" unicode="r" horiz-adv-x="357" 
d="M84 500h91v-83q53 95 129 95q26 0 54 -6l-17 -97q-20 10 -47 10q-71 0 -119 -84v-335h-91v500z" />
    <glyph glyph-name="s" unicode="s" horiz-adv-x="451" 
d="M382 457l-54 -58q-43 37 -99 37q-34 0 -54.5 -18t-20.5 -48q0 -18 16 -33q20 -19 80 -43t96 -51q50 -35 50 -98q0 -79 -52 -118t-129 -39q-112 0 -172 78l64 51q50 -53 109 -53q40 0 65 20.5t25 56.5q0 18 -16 33q-14 15 -28.5 22.5t-51.5 21.5q-26 10 -52 22
q-15 7 -43 25q-48 35 -48 98q0 72 47 110q46 39 114 39q93 0 154 -55z" />
    <glyph glyph-name="t" unicode="t" horiz-adv-x="346" 
d="M320 500v-80h-140v-226q0 -29 1 -39q2 -43 18.5 -63.5t51.5 -20.5q26 0 56 14l25 -73q-41 -22 -93 -22q-99 0 -134 78q-16 36 -16 104v248h-67v80h67v120h91v-120h140z" />
    <glyph glyph-name="u" unicode="u" horiz-adv-x="606" 
d="M522 0h-91v82q-58 -94 -163 -94q-98 0 -145 63q-45 61 -45 189v260h91v-250q0 -98 26 -138q27 -40 87 -40q41 0 81 26t68 70v332h91v-500z" />
    <glyph glyph-name="v" unicode="v" horiz-adv-x="479" 
d="M244 113l132 387h97l-194 -500h-82l-189 500h101l133 -387h2z" />
    <glyph glyph-name="w" unicode="w" horiz-adv-x="733" 
d="M321 500h98l101 -385h3l102 385h92l-144 -500h-98l-107 389h-2l-110 -389h-102l-138 500h98l94 -385h2z" />
    <glyph glyph-name="x" unicode="x" horiz-adv-x="490" 
d="M370 500h110l-177 -243l181 -257h-116l-125 186l-125 -186h-112l184 249l-174 251h115l120 -178z" />
    <glyph glyph-name="y" unicode="y" horiz-adv-x="477" 
d="M189 15l-183 485h101l130 -379h2l133 379h99l-281 -725l-80 31z" />
    <glyph glyph-name="z" unicode="z" horiz-adv-x="454" 
d="M59 0v41l221 379h-232v80h353v-40l-221 -380h238v-80h-359z" />
    <glyph glyph-name="braceleft" unicode="{" horiz-adv-x="311" 
d="M9 260l2 82q79 18 79 146v75q0 87 50 143t131 56q22 0 29 -1v-79q-24 2 -25 2q-52 0 -77.5 -39.5t-25.5 -108.5v-75q0 -105 -67 -160q67 -57 67 -160v-97q0 -69 25.5 -108.5t77.5 -39.5q3 0 25 2v-79q-7 -1 -29 -1q-81 0 -131 56t-50 143v109q0 54 -21 90t-60 44z" />
    <glyph glyph-name="bar" unicode="|" horiz-adv-x="318" 
d="M198 858v-1028h-78v1028h78z" />
    <glyph glyph-name="braceright" unicode="}" horiz-adv-x="311" 
d="M299 342l2 -82q-39 -8 -60 -44t-21 -90v-109q0 -87 -50 -143t-131 -56q-22 0 -29 1v79q22 -2 25 -2q52 0 77.5 39.5t25.5 108.5v97q0 103 67 160q-67 55 -67 160v75q0 69 -25.5 108.5t-77.5 39.5q-1 0 -25 -2v79q7 1 29 1q81 0 131 -56t50 -143v-75q0 -128 79 -146z" />
    <glyph glyph-name="asciitilde" unicode="~" 
d="M441 389l76 8q2 -22 2 -32q0 -56 -37.5 -89t-98.5 -33q-37 -2 -81 21.5t-81.5 47t-57.5 21.5q-22 0 -38.5 -13t-16.5 -33q0 -9 2 -17l-76 -8q-2 22 -2 32q0 56 37.5 89t98.5 33q67 0 124 -45t96 -45q21 0 38 14t17 32q0 9 -2 17z" />
    <glyph glyph-name="uni00A0" unicode="&#xa0;" horiz-adv-x="250" 
 />
    <glyph glyph-name="exclamdown" unicode="&#xa1;" horiz-adv-x="317" 
d="M213 -200h-109v111l10 379h89l10 -379v-111zM106 384v116h105v-116h-105z" />
    <glyph glyph-name="cent" unicode="&#xa2;" 
d="M440 173l45 -70q-52 -42 -130 -48v-87h-64v89q-93 13 -155 84q-60 71 -60 175q0 97 60 169q62 73 155 89v90h64v-87q67 -5 123 -42l-43 -75q-44 34 -102 34q-68 0 -116 -52t-48 -126q0 -80 48 -129q49 -49 117 -49q59 0 106 35z" />
    <glyph glyph-name="sterling" unicode="&#xa3;" 
d="M486 86v-86h-406v86h57v230h-57v84h57v54q0 98 57 159q57 63 145 63t147 -37l-39 -78q-34 31 -104 31q-115 0 -115 -165v-27h135v-84h-135v-230h258z" />
    <glyph glyph-name="currency" unicode="&#xa4;" 
d="M59 325q0 67 40 125l-52 52l51 51l52 -52q55 40 125 40q67 0 125 -40l52 52l51 -51l-52 -52q40 -58 40 -125q0 -70 -40 -125l52 -52l-51 -51l-52 52q-58 -40 -125 -40q-70 0 -125 40l-52 -52l-51 51l52 52q-40 55 -40 125zM177 422q-40 -40 -40 -97q0 -58 40 -98t98 -40
q57 0 97 40q41 41 41 98q0 56 -41 97t-97 41q-57 0 -98 -41z" />
    <glyph glyph-name="yen" unicode="&#xa5;" 
d="M225 256h-170v74h149l-187 334h108l152 -279h2l147 279h106l-190 -334h148v-74h-170v-64h170v-74h-172v-118h-91v118h-172v74h170v64z" />
    <glyph glyph-name="brokenbar" unicode="&#xa6;" horiz-adv-x="318" 
d="M198 175v-375h-78v375h78zM198 750v-375h-78v375h78z" />
    <glyph glyph-name="section" unicode="&#xa7;" 
d="M446 662l-49 -63q-61 37 -132 37q-42 0 -72.5 -19.5t-30.5 -53.5q0 -13 7.5 -24.5t11 -15t20.5 -17.5q8 -5 59 -25q10 -5 36 -12l35 -11q68 -22 114 -55q54 -37 54 -110q0 -42 -26.5 -79.5t-70.5 -58.5q78 -42 78 -121q0 -85 -58.5 -129.5t-156.5 -44.5q-133 0 -214 75
l54 64q71 -63 160 -63q53 0 87.5 24t34.5 64q0 29 -25.5 47.5t-80.5 35.5q-18 6 -37 11q-24 6 -41 12q-47 15 -74 30q-44 30 -56 47q-21 36 -21 74q0 51 26.5 89.5t72.5 57.5q-76 45 -76 123t56 119q57 42 138 42q101 0 177 -50zM326 186q34 13 57 39.5t23 56.5q0 37 -42 63
q-18 14 -61 27q-8 4 -37 12l-36 11q-38 -12 -61.5 -38.5t-23.5 -56.5q0 -36 43 -66q17 -12 63 -26q4 -1 9 -2.5l14 -4t15 -4.5q36 -11 37 -11z" />
    <glyph glyph-name="dieresis" unicode="&#xa8;" horiz-adv-x="360" 
d="M125 700v-102h-93v102h93zM328 700v-102h-93v102h93z" />
    <glyph glyph-name="copyright" unicode="&#xa9;" horiz-adv-x="799" 
d="M156 89q-101 101 -101 244t101 244t244 101t244 -101t101 -244t-101 -244t-244 -101t-244 101zM209 524q-78 -80 -78 -191q0 -113 78 -192q79 -79 191 -79t190 79q79 79 79 192q0 112 -79 191q-78 80 -190 80q-111 0 -191 -80zM293 333q0 -56 31 -87.5t83 -31.5
q39 0 73 25l38 -58q-53 -35 -108 -35q-82 0 -139 51q-56 53 -56 136q0 79 56 132q57 54 139 54q54 0 101 -30l-35 -58q-38 20 -69 20q-50 0 -82 -33t-32 -85z" />
    <glyph glyph-name="ordfeminine" unicode="&#xaa;" horiz-adv-x="381" 
d="M254 587v10q0 76 -75 76q-51 0 -106 -29l-21 57q72 33 138 33q136 0 136 -143v-205h-65l-4 34q-35 -42 -97 -42q-53 0 -87.5 28t-34.5 77q0 56 41.5 84t109.5 28q27 0 65 -8zM254 471v67q-29 7 -55 7q-90 0 -90 -58q0 -25 17 -38.5t46 -13.5q39 0 82 36z" />
    <glyph glyph-name="guillemotleft" unicode="&#xab;" horiz-adv-x="530" 
d="M281 213v119l145 150l44 -88l-127 -122l127 -121l-44 -88zM60 213v119l145 150l44 -88l-127 -122l127 -121l-44 -88z" />
    <glyph glyph-name="logicalnot" unicode="&#xac;" 
d="M24 342v78h501v-290h-78v212h-423z" />
    <glyph glyph-name="uni00AD" unicode="&#xad;" horiz-adv-x="460" 
d="M360 320v-82h-260v82h260z" />
    <glyph glyph-name="registered" unicode="&#xae;" horiz-adv-x="575" 
d="M55 484q0 97 68 165t164 68q97 0 165 -68t68 -165q0 -96 -68 -164t-165 -68q-96 0 -164 68t-68 164zM115 484q0 -70 50 -123q51 -51 122 -51q73 0 122 51q51 51 51 123q0 73 -51 124q-49 51 -122 51q-71 0 -122 -51q-50 -52 -50 -124zM326 462l73 -99h-66l-65 91h-13v-91
h-54v241h59q60 0 87 -17.5t27 -55.5q0 -51 -48 -69zM255 560v-62q34 0 48.5 6.5t14.5 24.5q0 19 -12.5 25t-50.5 6z" />
    <glyph glyph-name="overscore" unicode="&#xaf;" horiz-adv-x="360" 
d="M328 678v-70h-296v70h296z" />
    <glyph glyph-name="degree" unicode="&#xb0;" horiz-adv-x="462" 
d="M172 603q-24 -25 -24 -60t24 -60q24 -24 58 -24t59 24q25 25 25 60t-25 60q-25 26 -59 26t-58 -26zM80 543q0 61 44 105q44 45 106 45q61 0 106 -45q46 -43 46 -105t-46 -105q-44 -43 -106 -43q-63 0 -106 43q-44 44 -44 105z" />
    <glyph glyph-name="plusminus" unicode="&#xb1;" 
d="M25 0v78h500v-78h-500zM236 631h78v-211h211v-78h-211v-210h-78v210h-211v78h211v211z" />
    <glyph glyph-name="twosuperior" unicode="&#xb2;" horiz-adv-x="319" 
d="M38 367v58q78 81 137 164q32 44 32 77q0 21 -15.5 34t-37.5 13q-23 0 -38 -16t-15 -42l-72 12q4 47 41 77.5t86 30.5q50 0 87 -30q38 -30 38 -78q0 -52 -41 -111q-36 -51 -106 -127h165v-62h-261z" />
    <glyph glyph-name="threesuperior" unicode="&#xb3;" horiz-adv-x="319" 
d="M98 540v64q38 2 51 6q21 5 34 19t13 33q0 22 -16 36.5t-41 14.5q-47 0 -57 -42l-60 26q12 36 43.5 57t73.5 21q56 0 93 -30t37 -77q0 -26 -13.5 -49.5t-35.5 -35.5q30 -11 49 -38t19 -60q0 -56 -39.5 -89.5t-99.5 -33.5q-43 0 -79 20t-53 56l59 29q22 -43 72 -43
q28 0 47 15.5t19 42.5q0 29 -22 45.5t-56 16.5q-25 0 -38 -4z" />
    <glyph glyph-name="acute" unicode="&#xb4;" horiz-adv-x="360" 
d="M237 777l66 -51l-134 -160l-55 42z" />
    <glyph glyph-name="mu" unicode="&#xb5;" 
d="M497 0h-91v82q-58 -94 -163 -94q-59 0 -99 22v-260h-91v750h91v-250q0 -61 8 -97q9 -39 33.5 -58.5t71.5 -22.5q41 0 81 26t68 70v332h91v-500z" />
    <glyph glyph-name="paragraph" unicode="&#xb6;" 
d="M498 700v-875h-96v875h96zM345 700v-875h-96v457q-88 11 -147 62q-60 52 -60 147q0 55 22 97t59 65.5t79 35t87 11.5h56zM249 371v241q-49 -6 -80 -37.5t-31 -83.5t31 -83.5t80 -36.5z" />
    <glyph glyph-name="middot" unicode="&#xb7;" horiz-adv-x="250" 
d="M177 375v-116h-105v116h105z" />
    <glyph glyph-name="cedilla" unicode="&#xb8;" horiz-adv-x="360" 
d="M117 10l57 -11l-24 -64l1 -1q22 16 48 16q36 0 61.5 -27t25.5 -66q0 -41 -32 -71q-31 -31 -77 -31q-70 0 -103 59l57 28q12 -32 46 -32q18 0 30.5 13t12.5 31q0 20 -12.5 33.5t-32.5 13.5q-29 0 -39 -24l-61 32z" />
    <glyph glyph-name="onesuperior" unicode="&#xb9;" horiz-adv-x="216" 
d="M162 770v-403h-72v319l-58 -26v66l83 44h47z" />
    <glyph glyph-name="ordmasculine" unicode="&#xba;" horiz-adv-x="410" 
d="M80 682q49 52 125 52t125 -52q50 -52 50 -126t-50 -127q-50 -51 -125 -51t-125 51q-50 53 -50 127t50 126zM277 475q29 34 29 81q0 48 -29 80q-29 33 -72 33q-45 0 -73 -33q-28 -31 -28 -80t28 -81q29 -32 73 -32q43 0 72 32z" />
    <glyph glyph-name="guillemotright" unicode="&#xbb;" horiz-adv-x="530" 
d="M60 393l44 78l145 -140v-119l-145 -140l-44 78l127 121zM281 393l44 78l145 -140v-119l-145 -140l-44 78l127 121z" />
    <glyph glyph-name="onequarter" unicode="&#xbc;" horiz-adv-x="745" 
d="M389 89v61l154 209h70v-213h52v-57h-52v-89h-68v89h-156zM462 146h83v122l-43.5 -63.5l-29.5 -44t-10 -14.5zM80 28l497 684l55 -40l-497 -684zM224 700v-362h-69v283q-34 -16 -53 -23v62l32 16l45 24h45z" />
    <glyph glyph-name="onehalf" unicode="&#xbd;" horiz-adv-x="770" 
d="M450 0v53q74 75 125 147q28 37 28 67q3 28 -29 37q-33 9 -52 -13q-13 -14 -11 -36l-69 12q3 43 37 71t81 28q46 0 80 -28q35 -27 35 -71q0 -43 -39 -99q-29 -43 -93 -110h147v-58h-240zM80 28l497 684l55 -40l-497 -684zM224 700v-362h-69v283q-34 -16 -53 -23v62l32 16
l45 24h45z" />
    <glyph glyph-name="threequarters" unicode="&#xbe;" horiz-adv-x="812" 
d="M157 494v60q32 0 45 4q41 11 41 47q0 19 -14 31t-37 12q-39 0 -48 -38l-59 26q12 33 41.5 52t66.5 19q51 0 85.5 -27.5t34.5 -69.5q0 -51 -45 -76q28 -10 45 -34t17 -55q0 -49 -36.5 -79.5t-91.5 -30.5q-87 0 -122 71l58 27q18 -40 64 -40q25 0 41 14t16 37
q0 24 -19.5 38.5t-50.5 14.5q-20 0 -32 -3zM456 89v61l154 209h70v-213h52v-57h-52v-89h-68v89h-156zM529 146h83v122l-43.5 -63.5l-29.5 -44t-10 -14.5zM147 28l497 684l55 -40l-497 -684z" />
    <glyph glyph-name="questiondown" unicode="&#xbf;" horiz-adv-x="541" 
d="M227 177v114h97v-166q-67 -22 -109 -51q-51 -37 -51 -101q0 -42 30 -72t75 -30q49 0 78 30t29 82v8h91v-4q0 -86 -59 -142t-139 -56q-82 0 -140 56q-56 56 -56 125q0 83 41 129q40 45 113 78zM223 385v116h105v-116h-105z" />
    <glyph glyph-name="Agrave" unicode="&#xc0;" horiz-adv-x="653" 
d="M370 700l268 -700h-111l-55 149h-298l-54 -149h-105l271 700h84zM324 554h-1l-117 -319h235zM393 794l-42 -54l-175 126l52 66z" />
    <glyph glyph-name="Aacute" unicode="&#xc1;" horiz-adv-x="653" 
d="M370 700l268 -700h-111l-55 149h-298l-54 -149h-105l271 700h84zM324 554h-1l-117 -319h235zM428 932l52 -66l-175 -126l-42 54z" />
    <glyph glyph-name="Acircumflex" unicode="&#xc2;" horiz-adv-x="653" 
d="M370 700l268 -700h-111l-55 149h-298l-54 -149h-105l271 700h84zM324 554h-1l-117 -319h235zM170 788l110 134h95l107 -134l-54 -42l-102 116l-101 -116z" />
    <glyph glyph-name="Atilde" unicode="&#xc3;" horiz-adv-x="653" 
d="M370 700l268 -700h-111l-55 149h-298l-54 -149h-105l271 700h84zM324 554h-1l-117 -319h235zM448 866l65 7q2 -16 2 -27q0 -42 -27.5 -68.5t-70.5 -26.5q-34 0 -84 32t-64 32q-31 0 -33 -30q0 -8 1 -10l-65 -7q-2 16 -2 27q0 42 27.5 68.5t70.5 26.5q36 0 83 -32t65 -32
q32 0 33 30q0 8 -1 10z" />
    <glyph glyph-name="Adieresis" unicode="&#xc4;" horiz-adv-x="653" 
d="M370 700l268 -700h-111l-55 149h-298l-54 -149h-105l271 700h84zM324 554h-1l-117 -319h235zM243 875v-111h-102v111h102zM513 875v-111h-102v111h102z" />
    <glyph glyph-name="Aring" unicode="&#xc5;" horiz-adv-x="653" 
d="M370 700l268 -700h-111l-55 149h-298l-54 -149h-105l271 700h84zM324 554h-1l-117 -319h235zM263 753q-27 28 -27 66t27 65q28 28 66 28t65 -28q28 -27 28 -65t-28 -66q-27 -27 -65 -27t-66 27zM298 850q-13 -13 -13 -31t13 -31t31 -13t31 13t13 31t-13 31t-31 13
t-31 -13z" />
    <glyph glyph-name="AE" unicode="&#xc6;" horiz-adv-x="986" 
d="M921 86v-86h-420v149h-286l-105 -149h-120l512 700h419v-86h-324v-210h324v-86h-324v-232h324zM501 556l-226 -321h226v321z" />
    <glyph glyph-name="Ccedilla" unicode="&#xc7;" horiz-adv-x="674" 
d="M624 658l-45 -74q-67 42 -143 42q-119 0 -197 -78q-77 -79 -77 -198q0 -126 76 -201t198 -75q82 0 155 49l51 -71q-94 -64 -206 -64q-35 0 -58 4l-24 -57l2 -1q17 16 48 16q38 0 62.5 -26.5t24.5 -66.5q0 -41 -32 -71q-31 -31 -77 -31q-70 0 -103 59l57 28q12 -32 46 -32
q18 0 30.5 13t12.5 31q0 20 -11.5 33.5t-31.5 13.5q-28 0 -41 -24l-62 33l43 93q-117 31 -190 124q-72 91 -72 223q0 155 109 258q110 104 267 104q101 0 188 -54z" />
    <glyph glyph-name="Egrave" unicode="&#xc8;" horiz-adv-x="580" 
d="M515 86v-86h-420v700h420v-86h-324v-210h324v-86h-324v-232h324zM386 794l-42 -54l-175 126l52 66z" />
    <glyph glyph-name="Eacute" unicode="&#xc9;" horiz-adv-x="580" 
d="M515 86v-86h-420v700h420v-86h-324v-210h324v-86h-324v-232h324zM395 932l52 -66l-175 -126l-42 54z" />
    <glyph glyph-name="Ecircumflex" unicode="&#xca;" horiz-adv-x="580" 
d="M154 788l110 134h95l107 -134l-54 -42l-102 116l-101 -116zM515 86v-86h-420v700h420v-86h-324v-210h324v-86h-324v-232h324z" />
    <glyph glyph-name="Edieresis" unicode="&#xcb;" horiz-adv-x="580" 
d="M248 875v-111h-100v111h100zM478 875v-111h-100v111h100zM515 86v-86h-420v700h420v-86h-324v-210h324v-86h-324v-232h324z" />
    <glyph glyph-name="Igrave" unicode="&#xcc;" horiz-adv-x="286" 
d="M191 700v-700h-96v700h96zM210 794l-42 -54l-175 126l52 66z" />
    <glyph glyph-name="Iacute" unicode="&#xcd;" horiz-adv-x="286" 
d="M191 700v-700h-96v700h96zM245 932l52 -66l-175 -126l-42 54z" />
    <glyph glyph-name="Icircumflex" unicode="&#xce;" horiz-adv-x="286" 
d="M-13 788l110 134h95l107 -134l-54 -42l-102 116l-101 -116zM191 700v-700h-96v700h96z" />
    <glyph glyph-name="Idieresis" unicode="&#xcf;" horiz-adv-x="286" 
d="M80 875v-111h-102v111h102zM308 875v-111h-102v111h102zM191 700v-700h-96v700h96z" />
    <glyph glyph-name="Eth" unicode="&#xd0;" horiz-adv-x="720" 
d="M660 353q0 -92 -32.5 -163t-90.5 -111q-112 -79 -263 -79h-179v321h-70v79h70v300h189q55 0 107.5 -11.5t101.5 -38t86 -65.5t59 -99t22 -133zM558 344q0 131 -76 200.5t-216 69.5h-75v-214h120v-79h-120v-235h33q166 0 250 61.5t84 196.5z" />
    <glyph glyph-name="Ntilde" unicode="&#xd1;" horiz-adv-x="755" 
d="M491 866l65 7q2 -16 2 -27q0 -42 -27.5 -68.5t-70.5 -26.5q-34 0 -84 32t-64 32q-32 0 -33 -30q0 -8 1 -10l-65 -7q-2 16 -2 27q0 42 27.5 68.5t70.5 26.5q36 0 83 -32t65 -32q31 0 33 30q0 8 -1 10zM660 700v-700h-85l-384 522v-522h-96v700h84l385 -522v522h96z" />
    <glyph glyph-name="Ograve" unicode="&#xd2;" horiz-adv-x="840" 
d="M604 153q74 80 74 197q0 116 -74 196t-184 80q-111 0 -185 -80q-73 -79 -73 -196q0 -118 73 -197t185 -79q111 0 184 79zM676 606q104 -106 104 -256t-104 -257q-104 -105 -256 -105t-256 105q-104 107 -104 257t104 256q103 106 256 106t256 -106zM487 794l-42 -54
l-175 126l52 66z" />
    <glyph glyph-name="Oacute" unicode="&#xd3;" horiz-adv-x="840" 
d="M604 153q74 80 74 197q0 116 -74 196t-184 80q-111 0 -185 -80q-73 -79 -73 -196q0 -118 73 -197t185 -79q111 0 184 79zM676 606q104 -106 104 -256t-104 -257q-104 -105 -256 -105t-256 105q-104 107 -104 257t104 256q103 106 256 106t256 -106zM522 932l52 -66
l-175 -126l-42 54z" />
    <glyph glyph-name="Ocircumflex" unicode="&#xd4;" horiz-adv-x="840" 
d="M604 153q74 80 74 197q0 116 -74 196t-184 80q-111 0 -185 -80q-73 -79 -73 -196q0 -118 73 -197t185 -79q111 0 184 79zM676 606q104 -106 104 -256t-104 -257q-104 -105 -256 -105t-256 105q-104 107 -104 257t104 256q103 106 256 106t256 -106zM262 788l110 134h95
l107 -134l-54 -42l-102 116l-101 -116z" />
    <glyph glyph-name="Otilde" unicode="&#xd5;" horiz-adv-x="840" 
d="M546 866l65 7q2 -16 2 -27q0 -42 -27.5 -68.5t-70.5 -26.5q-34 0 -84 32t-64 32q-31 0 -33 -30q0 -8 1 -10l-65 -7q-2 16 -2 27q0 42 27.5 68.5t70.5 26.5q36 0 83 -32t65 -32q32 0 33 30q0 8 -1 10zM604 153q74 80 74 197q0 116 -74 196t-184 80q-111 0 -185 -80
q-73 -79 -73 -196q0 -118 73 -197t185 -79q111 0 184 79zM676 606q104 -106 104 -256t-104 -257q-104 -105 -256 -105t-256 105q-104 107 -104 257t104 256q103 106 256 106t256 -106z" />
    <glyph glyph-name="Odieresis" unicode="&#xd6;" horiz-adv-x="840" 
d="M604 153q74 80 74 197q0 116 -74 196t-184 80q-111 0 -185 -80q-73 -79 -73 -196q0 -118 73 -197t185 -79q111 0 184 79zM676 606q104 -106 104 -256t-104 -257q-104 -105 -256 -105t-256 105q-104 107 -104 257t104 256q103 106 256 106t256 -106zM336 875v-111h-102
v111h102zM606 875v-111h-102v111h102z" />
    <glyph glyph-name="multiply" unicode="&#xd7;" 
d="M71 460l55 56l149 -150l150 150l55 -56l-149 -149l148 -148l-55 -56l-149 149l-149 -149l-55 55l149 149z" />
    <glyph glyph-name="Oslash" unicode="&#xd8;" horiz-adv-x="840" 
d="M613 714l67 -42l-29 -43q61 -51 95 -124t34 -155q0 -150 -104 -257q-104 -105 -256 -105q-96 0 -173 43l-33 -49l-67 42l35 52q-58 51 -90 122t-32 152q0 150 104 256q103 106 256 106q88 0 165 -40zM678 350q0 122 -79 202l-302 -447q55 -31 123 -31q111 0 184 79
q74 80 74 197zM162 350q0 -119 73 -196l300 445q-54 27 -115 27q-111 0 -185 -80q-73 -79 -73 -196z" />
    <glyph glyph-name="Ugrave" unicode="&#xd9;" horiz-adv-x="722" 
d="M536 700h96v-371q0 -171 -66.5 -256t-206.5 -85q-269 0 -269 341v371h96v-396q0 -113 45.5 -171.5t129.5 -58.5t129.5 58.5t45.5 171.5v396zM428 794l-42 -54l-175 126l52 66z" />
    <glyph glyph-name="Uacute" unicode="&#xda;" horiz-adv-x="722" 
d="M536 700h96v-371q0 -171 -66.5 -256t-206.5 -85q-269 0 -269 341v371h96v-396q0 -113 45.5 -171.5t129.5 -58.5t129.5 58.5t45.5 171.5v396zM463 932l52 -66l-175 -126l-42 54z" />
    <glyph glyph-name="Ucircumflex" unicode="&#xdb;" horiz-adv-x="722" 
d="M213 788l110 134h95l107 -134l-54 -42l-102 116l-101 -116zM536 700h96v-371q0 -171 -66.5 -256t-206.5 -85q-269 0 -269 341v371h96v-396q0 -113 45.5 -171.5t129.5 -58.5t129.5 58.5t45.5 171.5v396z" />
    <glyph glyph-name="Udieresis" unicode="&#xdc;" horiz-adv-x="722" 
d="M536 700h96v-371q0 -171 -66.5 -256t-206.5 -85q-269 0 -269 341v371h96v-396q0 -113 45.5 -171.5t129.5 -58.5t129.5 58.5t45.5 171.5v396zM277 875v-111h-102v111h102zM547 875v-111h-102v111h102z" />
    <glyph glyph-name="Yacute" unicode="&#xdd;" horiz-adv-x="555" 
d="M324 299v-299h-96v304l-223 396h119l156 -294h3l155 294h112zM370 932l52 -66l-175 -126l-42 54z" />
    <glyph glyph-name="Thorn" unicode="&#xde;" horiz-adv-x="601" 
d="M95 0v701h96v-137h113q45 0 87 -11.5t79 -35t59 -65.5t22 -97q0 -56 -22 -98t-59 -66t-79 -35.5t-87 -11.5h-113v-144h-96zM449 352q0 58 -41 92t-109 34h-108v-248h88q170 0 170 122z" />
    <glyph glyph-name="germandbls" unicode="&#xdf;" horiz-adv-x="625" 
d="M171 521v-521h-91v541q0 99 63 160q64 61 158 61q93 0 155 -56q61 -55 61 -147q0 -40 -20.5 -76t-55.5 -60q66 -21 102.5 -73.5t36.5 -130.5q0 -105 -68 -168t-170 -63q-57 0 -106 26l34 78q34 -20 75 -20q70 0 106 38.5t36 108.5q0 74 -46.5 114t-123.5 40q-26 0 -44 -2
v72h20q50 0 91 32q42 32 42 82q0 55 -33.5 88t-89.5 33q-65 0 -98.5 -41t-33.5 -116z" />
    <glyph glyph-name="agrave" unicode="&#xe0;" horiz-adv-x="546" 
d="M468 304v-304h-87v53q-59 -65 -150 -65q-78 0 -127.5 39.5t-49.5 112.5q0 61 34 99q58 67 189 67q45 0 100 -11v18q0 120 -118 120q-79 0 -159 -44l-27 76q99 47 197 47q103 0 150.5 -52t47.5 -156zM377 124v103q-44 10 -90 10q-144 0 -144 -90q0 -41 26.5 -62t72.5 -21
q64 0 135 60zM325 608l-55 -42l-134 160l66 51z" />
    <glyph glyph-name="aacute" unicode="&#xe1;" horiz-adv-x="546" 
d="M468 304v-304h-87v53q-59 -65 -150 -65q-78 0 -127.5 39.5t-49.5 112.5q0 61 34 99q58 67 189 67q45 0 100 -11v18q0 120 -118 120q-79 0 -159 -44l-27 76q99 47 197 47q103 0 150.5 -52t47.5 -156zM377 124v103q-44 10 -90 10q-144 0 -144 -90q0 -41 26.5 -62t72.5 -21
q64 0 135 60zM329 777l66 -51l-134 -160l-55 42z" />
    <glyph glyph-name="acircumflex" unicode="&#xe2;" horiz-adv-x="546" 
d="M468 304v-304h-87v53q-59 -65 -150 -65q-78 0 -127.5 39.5t-49.5 112.5q0 61 34 99q58 67 189 67q45 0 100 -11v18q0 120 -118 120q-79 0 -159 -44l-27 76q99 47 197 47q103 0 150.5 -52t47.5 -156zM377 124v103q-44 10 -90 10q-144 0 -144 -90q0 -41 26.5 -62t72.5 -21
q64 0 135 60zM305 759l102 -157l-53 -36l-93 129l-93 -129l-55 36l104 157h88z" />
    <glyph glyph-name="atilde" unicode="&#xe3;" horiz-adv-x="546" 
d="M468 304v-304h-87v53q-59 -65 -150 -65q-78 0 -127.5 39.5t-49.5 112.5q0 61 34 99q58 67 189 67q45 0 100 -11v18q0 120 -118 120q-79 0 -159 -44l-27 76q99 47 197 47q103 0 150.5 -52t47.5 -156zM377 124v103q-44 10 -90 10q-144 0 -144 -90q0 -41 26.5 -62t72.5 -21
q64 0 135 60zM369 693l65 7q2 -16 2 -23q0 -42 -27.5 -68.5t-70.5 -26.5q-35 0 -84.5 32t-63.5 32q-32 0 -33 -30q0 -8 1 -10l-65 -7q-2 16 -2 23q0 42 27.5 68.5t70.5 26.5q37 0 83 -32q47 -32 65 -32q31 0 33 30q0 8 -1 10z" />
    <glyph glyph-name="adieresis" unicode="&#xe4;" horiz-adv-x="546" 
d="M468 304v-304h-87v53q-59 -65 -150 -65q-78 0 -127.5 39.5t-49.5 112.5q0 61 34 99q58 67 189 67q45 0 100 -11v18q0 120 -118 120q-79 0 -159 -44l-27 76q99 47 197 47q103 0 150.5 -52t47.5 -156zM377 124v103q-44 10 -90 10q-144 0 -144 -90q0 -41 26.5 -62t72.5 -21
q64 0 135 60zM207 700v-102h-93v102h93zM410 700v-102h-93v102h93z" />
    <glyph glyph-name="aring" unicode="&#xe5;" horiz-adv-x="546" 
d="M468 304v-304h-87v53q-59 -65 -150 -65q-78 0 -127.5 39.5t-49.5 112.5q0 61 34 99q58 67 189 67q45 0 100 -11v18q0 120 -118 120q-79 0 -159 -44l-27 76q99 47 197 47q103 0 150.5 -52t47.5 -156zM377 124v103q-44 10 -90 10q-144 0 -144 -90q0 -41 26.5 -62t72.5 -21
q64 0 135 60zM199 592q-27 28 -27 66t27 65q28 28 66 28t65 -28q28 -27 28 -65t-28 -66q-27 -27 -65 -27t-66 27zM234 689q-13 -13 -13 -31t13 -31t31 -13t31 13t13 31t-13 31t-31 13t-31 -13z" />
    <glyph glyph-name="ae" unicode="&#xe6;" horiz-adv-x="891" 
d="M471 300h284q-3 54 -41 94q-37 40 -92 40q-57 0 -96.5 -36.5t-54.5 -97.5zM392 140q-16 42 -19 88q-45 9 -86 9q-144 0 -144 -90q0 -41 26.5 -62t72.5 -21q81 0 150 76zM774 147l66 -42q-74 -117 -219 -117q-125 0 -193 86q-74 -86 -197 -86q-78 0 -127.5 39.5
t-49.5 112.5q0 61 34 99q58 67 189 67q45 0 100 -11v18q0 120 -118 120q-79 0 -159 -44l-27 76q99 47 197 47q128 0 171 -84q71 84 180 84q99 0 163 -66q65 -67 65 -167q0 -29 -4 -52h-381q5 -69 48 -115t113 -46q105 0 149 81z" />
    <glyph glyph-name="ccedilla" unicode="&#xe7;" horiz-adv-x="475" 
d="M406 107l45 -70q-59 -49 -153 -49q-13 0 -16 1l-20 -54l1 -1q22 16 48 16q36 0 61.5 -27t25.5 -66q0 -41 -32 -71q-31 -31 -77 -31q-70 0 -103 59l57 28q12 -32 46 -32q18 0 30.5 13t12.5 31q0 20 -12.5 33.5t-32.5 13.5q-29 0 -39 -24l-61 32l37 89q-83 23 -132 89
q-50 68 -50 163q0 110 76 186t185 76q77 0 141 -43l-43 -75q-44 34 -102 34q-68 0 -116 -52t-48 -126q0 -80 48 -129q49 -49 117 -49q59 0 106 35z" />
    <glyph glyph-name="egrave" unicode="&#xe8;" horiz-adv-x="560" 
d="M514 227h-381q5 -69 48 -115t113 -46q106 0 149 81l66 -42q-73 -117 -219 -117q-116 0 -182 74t-66 188q0 110 71 186q72 76 177 76q98 0 163 -66q65 -67 65 -167q0 -29 -4 -52zM291 434q-57 0 -96.5 -36.5t-54.5 -97.5h284q-3 54 -41 94q-37 40 -92 40zM342 608l-55 -42
l-134 160l66 51z" />
    <glyph glyph-name="eacute" unicode="&#xe9;" horiz-adv-x="560" 
d="M514 227h-381q5 -69 48 -115t113 -46q106 0 149 81l66 -42q-73 -117 -219 -117q-116 0 -182 74t-66 188q0 110 71 186q72 76 177 76q98 0 163 -66q65 -67 65 -167q0 -29 -4 -52zM291 434q-57 0 -96.5 -36.5t-54.5 -97.5h284q-3 54 -41 94q-37 40 -92 40zM361 777l66 -51
l-134 -160l-55 42z" />
    <glyph glyph-name="ecircumflex" unicode="&#xea;" horiz-adv-x="560" 
d="M514 227h-381q5 -69 48 -115t113 -46q106 0 149 81l66 -42q-73 -117 -219 -117q-116 0 -182 74t-66 188q0 110 71 186q72 76 177 76q98 0 163 -66q65 -67 65 -167q0 -29 -4 -52zM291 434q-57 0 -96.5 -36.5t-54.5 -97.5h284q-3 54 -41 94q-37 40 -92 40zM334 759
l102 -157l-53 -36l-93 129l-93 -129l-55 36l104 157h88z" />
    <glyph glyph-name="edieresis" unicode="&#xeb;" horiz-adv-x="560" 
d="M514 227h-381q5 -69 48 -115t113 -46q106 0 149 81l66 -42q-73 -117 -219 -117q-116 0 -182 74t-66 188q0 110 71 186q72 76 177 76q98 0 163 -66q65 -67 65 -167q0 -29 -4 -52zM291 434q-57 0 -96.5 -36.5t-54.5 -97.5h284q-3 54 -41 94q-37 40 -92 40zM235 700v-102
h-93v102h93zM438 700v-102h-93v102h93z" />
    <glyph glyph-name="igrave" unicode="&#xec;" horiz-adv-x="259" 
d="M175 500v-500h-91v500h91zM179 608l-55 -42l-134 160l66 51z" />
    <glyph glyph-name="iacute" unicode="&#xed;" horiz-adv-x="259" 
d="M175 500v-500h-91v500h91zM201 777l66 -51l-134 -160l-55 42z" />
    <glyph glyph-name="icircumflex" unicode="&#xee;" horiz-adv-x="259" 
d="M174 759l102 -157l-53 -36l-93 129l-93 -129l-55 36l104 157h88zM175 500v-500h-91v500h91z" />
    <glyph glyph-name="idieresis" unicode="&#xef;" horiz-adv-x="259" 
d="M75 700v-102h-93v102h93zM278 700v-102h-93v102h93zM175 500v-500h-91v500h91z" />
    <glyph glyph-name="eth" unicode="&#xf0;" horiz-adv-x="574" 
d="M264 804l64 -37l-55 -95q259 -168 259 -440q0 -102 -69 -173q-68 -71 -184 -71q-106 0 -172 73q-65 74 -65 175q0 95 64 162q64 69 155 69q69 0 127 -34q-53 92 -159 164l-57 -98l-63 38l57 98q-40 22 -99 47l34 79q69 -31 108 -52zM423 352q-59 32 -131 32
q-70 0 -113.5 -40t-43.5 -110q0 -68 42 -115q44 -47 110 -47q75 0 113 47t38 126q0 51 -15 107z" />
    <glyph glyph-name="ntilde" unicode="&#xf1;" horiz-adv-x="606" 
d="M84 0v500h91v-82q58 94 163 94q98 0 145 -63q45 -61 45 -189v-260h-91v250q0 98 -26 138q-27 40 -87 40q-41 0 -81 -26t-68 -70v-332h-91zM427 693l65 7q2 -16 2 -23q0 -42 -27.5 -68.5t-70.5 -26.5q-35 0 -84.5 32t-63.5 32q-32 0 -33 -30q0 -8 1 -10l-65 -7
q-2 16 -2 23q0 42 27.5 68.5t70.5 26.5q37 0 83 -32q47 -32 65 -32q31 0 33 30q0 8 -1 10z" />
    <glyph glyph-name="ograve" unicode="&#xf2;" horiz-adv-x="594" 
d="M115 436q73 76 182 76t182 -76t73 -186t-73 -186t-182 -76t-182 76t-73 186t73 186zM413 124q46 52 46 126t-46 126t-116 52t-116 -52t-46 -126t46 -126t116 -52t116 52zM342 608l-55 -42l-134 160l66 51z" />
    <glyph glyph-name="oacute" unicode="&#xf3;" horiz-adv-x="594" 
d="M115 436q73 76 182 76t182 -76t73 -186t-73 -186t-182 -76t-182 76t-73 186t73 186zM413 124q46 52 46 126t-46 126t-116 52t-116 -52t-46 -126t46 -126t116 -52t116 52zM372 777l66 -51l-134 -160l-55 42z" />
    <glyph glyph-name="ocircumflex" unicode="&#xf4;" horiz-adv-x="594" 
d="M341 759l102 -157l-53 -36l-93 129l-93 -129l-55 36l104 157h88zM115 436q73 76 182 76t182 -76t73 -186t-73 -186t-182 -76t-182 76t-73 186t73 186zM413 124q46 52 46 126t-46 126t-116 52t-116 -52t-46 -126t46 -126t116 -52t116 52z" />
    <glyph glyph-name="otilde" unicode="&#xf5;" horiz-adv-x="594" 
d="M115 436q73 76 182 76t182 -76t73 -186t-73 -186t-182 -76t-182 76t-73 186t73 186zM413 124q46 52 46 126t-46 126t-116 52t-116 -52t-46 -126t46 -126t116 -52t116 52zM409 693l65 7q2 -16 2 -23q0 -42 -27.5 -68.5t-70.5 -26.5q-35 0 -84.5 32t-63.5 32q-32 0 -33 -30
q0 -8 1 -10l-65 -7q-2 16 -2 23q0 42 27.5 68.5t70.5 26.5q37 0 83 -32q47 -32 65 -32q31 0 33 30q0 8 -1 10z" />
    <glyph glyph-name="odieresis" unicode="&#xf6;" horiz-adv-x="594" 
d="M115 436q73 76 182 76t182 -76t73 -186t-73 -186t-182 -76t-182 76t-73 186t73 186zM413 124q46 52 46 126t-46 126t-116 52t-116 -52t-46 -126t46 -126t116 -52t116 52zM242 700v-102h-93v102h93zM445 700v-102h-93v102h93z" />
    <glyph glyph-name="divide" unicode="&#xf7;" 
d="M525 272h-501v78h501v-78zM327 177v-116h-105v116h105zM327 561v-116h-105v116h105z" />
    <glyph glyph-name="oslash" unicode="&#xf8;" horiz-adv-x="594" 
d="M438 521l54 -35l-26 -38q86 -78 86 -198q0 -110 -73 -186t-182 -76q-65 0 -122 30l-26 -39l-54 35l28 42q-81 76 -81 194q0 110 73 186t182 76q64 0 116 -28zM459 250q0 73 -44 123l-191 -283q31 -18 73 -18q70 0 116 52t46 126zM135 250q0 -70 39 -119l190 281
q-31 16 -67 16q-70 0 -116 -52t-46 -126z" />
    <glyph glyph-name="ugrave" unicode="&#xf9;" horiz-adv-x="606" 
d="M522 0h-91v82q-58 -94 -163 -94q-98 0 -145 63q-45 61 -45 189v260h91v-250q0 -98 26 -138q27 -40 87 -40q41 0 81 26t68 70v332h91v-500zM363 608l-55 -42l-134 160l66 51z" />
    <glyph glyph-name="uacute" unicode="&#xfa;" horiz-adv-x="606" 
d="M522 0h-91v82q-58 -94 -163 -94q-98 0 -145 63q-45 61 -45 189v260h91v-250q0 -98 26 -138q27 -40 87 -40q41 0 81 26t68 70v332h91v-500zM375 777l66 -51l-134 -160l-55 42z" />
    <glyph glyph-name="ucircumflex" unicode="&#xfb;" horiz-adv-x="606" 
d="M522 0h-91v82q-58 -94 -163 -94q-98 0 -145 63q-45 61 -45 189v260h91v-250q0 -98 26 -138q27 -40 87 -40q41 0 81 26t68 70v332h91v-500zM352 759l102 -157l-53 -36l-93 129l-93 -129l-55 36l104 157h88z" />
    <glyph glyph-name="udieresis" unicode="&#xfc;" horiz-adv-x="606" 
d="M522 0h-91v82q-58 -94 -163 -94q-98 0 -145 63q-45 61 -45 189v260h91v-250q0 -98 26 -138q27 -40 87 -40q41 0 81 26t68 70v332h91v-500zM246 700v-102h-93v102h93zM449 700v-102h-93v102h93z" />
    <glyph glyph-name="yacute" unicode="&#xfd;" horiz-adv-x="477" 
d="M189 15l-183 485h101l130 -379h2l133 379h99l-281 -725l-80 31zM299 777l66 -51l-134 -160l-55 42z" />
    <glyph glyph-name="thorn" unicode="&#xfe;" horiz-adv-x="626" 
d="M84 -250v1000h91v-317q26 38 68.5 58.5t90.5 20.5q108 0 178 -76q72 -77 72 -187q0 -103 -71 -183q-71 -78 -181 -78q-92 0 -157 66v-304h-91zM175 333v-185q24 -35 64 -55.5t81 -20.5q81 0 126 54t45 125q0 72 -47 125q-46 52 -122 52q-46 0 -88 -26t-59 -69z" />
    <glyph glyph-name="ydieresis" unicode="&#xff;" horiz-adv-x="477" 
d="M189 15l-183 485h101l130 -379h2l133 379h99l-281 -725l-80 31zM186 700v-102h-93v102h93zM389 700v-102h-93v102h93z" />
    <glyph glyph-name="Amacron" unicode="&#x100;" horiz-adv-x="653" 
d="M370 700l268 -700h-111l-55 149h-298l-54 -149h-105l271 700h84zM324 554h-1l-117 -319h235zM491 845v-71h-330v71h330z" />
    <glyph glyph-name="amacron" unicode="&#x101;" horiz-adv-x="546" 
d="M468 304v-304h-87v53q-59 -65 -150 -65q-78 0 -127.5 39.5t-49.5 112.5q0 61 34 99q58 67 189 67q45 0 100 -11v18q0 120 -118 120q-79 0 -159 -44l-27 76q99 47 197 47q103 0 150.5 -52t47.5 -156zM377 124v103q-44 10 -90 10q-144 0 -144 -90q0 -41 26.5 -62t72.5 -21
q64 0 135 60zM420 678v-70h-296v70h296z" />
    <glyph glyph-name="Abreve" unicode="&#x102;" horiz-adv-x="653" 
d="M370 700l268 -700h-111l-55 149h-298l-54 -149h-105l271 700h84zM324 554h-1l-117 -319h235zM407 888v6h64v-6q0 -58 -41 -96q-40 -36 -102 -36q-65 0 -104 36t-39 96v6h67v-6q0 -32 21 -50t55 -18t56.5 18.5t22.5 49.5z" />
    <glyph glyph-name="abreve" unicode="&#x103;" horiz-adv-x="546" 
d="M468 304v-304h-87v53q-59 -65 -150 -65q-78 0 -127.5 39.5t-49.5 112.5q0 61 34 99q58 67 189 67q45 0 100 -11v18q0 120 -118 120q-79 0 -159 -44l-27 76q99 47 197 47q103 0 150.5 -52t47.5 -156zM377 124v103q-44 10 -90 10q-144 0 -144 -90q0 -41 26.5 -62t72.5 -21
q64 0 135 60zM362 711v14h64v-14q0 -60 -42 -102q-41 -41 -101 -41q-59 0 -102 41q-41 43 -41 102v14h66v-14q0 -33 22 -56t55 -23q32 0 55.5 23t23.5 56z" />
    <glyph glyph-name="Aogonek" unicode="&#x104;" horiz-adv-x="653" 
d="M324 554h-1l-117 -319h235zM370 700l268 -700q-59 -14 -88.5 -43.5t-29.5 -66.5q0 -44 42 -44q21 0 44 14l32 -51q-34 -31 -89 -31q-47 0 -79 27.5t-32 71.5q0 78 89 123l-55 149h-298l-54 -149h-105l271 700h84z" />
    <glyph glyph-name="aogonek" unicode="&#x105;" horiz-adv-x="546" 
d="M468 304v-304q-49 -14 -75.5 -44.5t-26.5 -65.5q0 -44 42 -44q21 0 44 14l32 -51q-34 -31 -89 -31q-47 0 -79 27.5t-32 71.5q0 86 97 129v47q-59 -65 -150 -65q-78 0 -127.5 39.5t-49.5 112.5q0 61 34 99q58 67 189 67q45 0 100 -11v18q0 120 -118 120q-79 0 -159 -44
l-27 76q99 47 197 47q103 0 150.5 -52t47.5 -156zM377 124v103q-44 10 -90 10q-144 0 -144 -90q0 -41 26.5 -62t72.5 -21q64 0 135 60z" />
    <glyph glyph-name="Cacute" unicode="&#x106;" horiz-adv-x="674" 
d="M591 123l51 -71q-94 -64 -206 -64q-161 0 -268 100q-108 100 -108 262q0 155 109 258q110 104 267 104q101 0 188 -54l-45 -74q-67 42 -143 42q-119 0 -197 -78q-77 -79 -77 -198q0 -126 76 -201t198 -75q82 0 155 49zM522 932l52 -66l-175 -126l-42 54z" />
    <glyph glyph-name="cacute" unicode="&#x107;" horiz-adv-x="475" 
d="M406 107l45 -70q-59 -49 -153 -49q-110 0 -183 73t-73 189q0 110 76 186t185 76q77 0 141 -43l-43 -75q-44 34 -102 34q-68 0 -116 -52t-48 -126q0 -80 48 -129q49 -49 117 -49q59 0 106 35zM372 777l66 -51l-134 -160l-55 42z" />
    <glyph glyph-name="Ccircumflex" unicode="&#x108;" horiz-adv-x="674" 
d="M591 123l51 -71q-94 -64 -206 -64q-161 0 -268 100q-108 100 -108 262q0 155 109 258q110 104 267 104q101 0 188 -54l-45 -74q-67 42 -143 42q-119 0 -197 -78q-77 -79 -77 -198q0 -126 76 -201t198 -75q82 0 155 49zM267 788l110 134h95l107 -134l-54 -42l-102 116
l-101 -116z" />
    <glyph glyph-name="ccircumflex" unicode="&#x109;" horiz-adv-x="475" 
d="M335 759l102 -157l-53 -36l-93 129l-93 -129l-55 36l104 157h88zM406 107l45 -70q-59 -49 -153 -49q-110 0 -183 73t-73 189q0 110 76 186t185 76q77 0 141 -43l-43 -75q-44 34 -102 34q-68 0 -116 -52t-48 -126q0 -80 48 -129q49 -49 117 -49q59 0 106 35z" />
    <glyph glyph-name="Cdotaccent" unicode="&#x10a;" horiz-adv-x="674" 
d="M591 123l51 -71q-94 -64 -206 -64q-161 0 -268 100q-108 100 -108 262q0 155 109 258q110 104 267 104q101 0 188 -54l-45 -74q-67 42 -143 42q-119 0 -197 -78q-77 -79 -77 -198q0 -126 76 -201t198 -75q82 0 155 49zM471 875v-111h-102v111h102z" />
    <glyph glyph-name="cdotaccent" unicode="&#x10b;" horiz-adv-x="475" 
d="M406 107l45 -70q-59 -49 -153 -49q-110 0 -183 73t-73 189q0 110 76 186t185 76q77 0 141 -43l-43 -75q-44 34 -102 34q-68 0 -116 -52t-48 -126q0 -80 48 -129q49 -49 117 -49q59 0 106 35zM327 700v-102h-91v102h91z" />
    <glyph glyph-name="Ccaron" unicode="&#x10c;" horiz-adv-x="674" 
d="M580 886l-110 -134h-95l-107 134l55 42l102 -116l101 116zM591 123l51 -71q-94 -64 -206 -64q-161 0 -268 100q-108 100 -108 262q0 155 109 258q110 104 267 104q101 0 188 -54l-45 -74q-67 42 -143 42q-119 0 -197 -78q-77 -79 -77 -198q0 -126 76 -201t198 -75
q82 0 155 49z" />
    <glyph glyph-name="ccaron" unicode="&#x10d;" horiz-adv-x="475" 
d="M246 569l-102 157l54 36l93 -129l93 129l54 -36l-104 -157h-88zM406 107l45 -70q-59 -49 -153 -49q-110 0 -183 73t-73 189q0 110 76 186t185 76q77 0 141 -43l-43 -75q-44 34 -102 34q-68 0 -116 -52t-48 -126q0 -80 48 -129q49 -49 117 -49q59 0 106 35z" />
    <glyph glyph-name="Dcaron" unicode="&#x10e;" horiz-adv-x="720" 
d="M482 886l-110 -134h-95l-107 134l55 42l102 -116l101 116zM274 0h-179v700h189q55 0 107.5 -11.5t101.5 -38t86 -65.5t59 -99t22 -133q0 -92 -32.5 -163t-90.5 -111q-112 -79 -263 -79zM558 344q0 131 -76 200.5t-216 69.5h-75v-528h33q166 0 250 61.5t84 196.5z" />
    <glyph glyph-name="dcaron" unicode="&#x10f;" horiz-adv-x="626" 
d="M292 -12q-107 0 -179 76q-71 77 -71 186q0 104 70 183t182 79q93 0 157 -67v305h91v-750h-91v67q-26 -38 -68.5 -58.5t-90.5 -20.5zM304 72q44 0 86.5 26t60.5 68v186q-24 35 -64 55.5t-81 20.5q-82 0 -127 -54q-44 -55 -44 -126t47 -124q46 -52 122 -52zM701 750
l-53 -200h-76l40 200h89z" />
    <glyph glyph-name="Dcroat" unicode="&#x110;" horiz-adv-x="720" 
d="M274 0h-179v321h-70v79h70v300h189q55 0 107.5 -11.5t101.5 -38t86 -65.5t59 -99t22 -133q0 -92 -32.5 -163t-90.5 -111q-112 -79 -263 -79zM558 344q0 131 -76 200.5t-216 69.5h-75v-214h120v-79h-120v-235h33q166 0 250 61.5t84 196.5z" />
    <glyph glyph-name="dslash" unicode="&#x111;" horiz-adv-x="626" 
d="M292 -12q-107 0 -179 76q-71 77 -71 186q0 104 70 183t182 79q93 0 157 -67v143h-164v72h164v90h91v-90h70v-72h-70v-588h-91v67q-26 -38 -68.5 -58.5t-90.5 -20.5zM304 72q44 0 86.5 26t60.5 68v186q-24 35 -64 55.5t-81 20.5q-82 0 -127 -54q-44 -55 -44 -126t47 -124
q46 -52 122 -52z" />
    <glyph glyph-name="Emacron" unicode="&#x112;" horiz-adv-x="580" 
d="M515 86v-86h-420v700h420v-86h-324v-210h324v-86h-324v-232h324zM478 845v-71h-330v71h330z" />
    <glyph glyph-name="emacron" unicode="&#x113;" horiz-adv-x="560" 
d="M514 227h-381q5 -69 48 -115t113 -46q106 0 149 81l66 -42q-73 -117 -219 -117q-116 0 -182 74t-66 188q0 110 71 186q72 76 177 76q98 0 163 -66q65 -67 65 -167q0 -29 -4 -52zM291 434q-57 0 -96.5 -36.5t-54.5 -97.5h284q-3 54 -41 94q-37 40 -92 40zM438 678v-70
h-296v70h296z" />
    <glyph glyph-name="Ebreve" unicode="&#x114;" horiz-adv-x="580" 
d="M407 888v6h64v-6q0 -58 -41 -96q-40 -36 -102 -36q-65 0 -104 36t-39 96v6h67v-6q0 -32 21 -50t55 -18t56.5 18.5t22.5 49.5zM515 86v-86h-420v700h420v-86h-324v-210h324v-86h-324v-232h324z" />
    <glyph glyph-name="ebreve" unicode="&#x115;" horiz-adv-x="560" 
d="M514 227h-381q5 -69 48 -115t113 -46q106 0 149 81l66 -42q-73 -117 -219 -117q-116 0 -182 74t-66 188q0 110 71 186q72 76 177 76q98 0 163 -66q65 -67 65 -167q0 -29 -4 -52zM291 434q-57 0 -96.5 -36.5t-54.5 -97.5h284q-3 54 -41 94q-37 40 -92 40zM369 711v14h64
v-14q0 -60 -42 -102q-41 -41 -101 -41q-59 0 -102 41q-41 43 -41 102v14h66v-14q0 -33 22 -56t55 -23q32 0 55.5 23t23.5 56z" />
    <glyph glyph-name="Edotaccent" unicode="&#x116;" horiz-adv-x="580" 
d="M515 86v-86h-420v700h420v-86h-324v-210h324v-86h-324v-232h324zM366 875v-111h-102v111h102z" />
    <glyph glyph-name="edotaccent" unicode="&#x117;" horiz-adv-x="560" 
d="M514 227h-381q5 -69 48 -115t113 -46q106 0 149 81l66 -42q-73 -117 -219 -117q-116 0 -182 74t-66 188q0 110 71 186q72 76 177 76q98 0 163 -66q65 -67 65 -167q0 -29 -4 -52zM291 434q-57 0 -96.5 -36.5t-54.5 -97.5h284q-3 54 -41 94q-37 40 -92 40zM330 700v-102
h-91v102h91z" />
    <glyph glyph-name="Eogonek" unicode="&#x118;" horiz-adv-x="580" 
d="M191 86h324v-86q-60 -8 -90 -42t-30 -68q0 -44 42 -44q21 0 44 14l32 -51q-34 -31 -89 -31q-47 0 -79 27.5t-32 71.5q0 79 84 123h-302v700h420v-86h-324v-210h324v-86h-324v-232z" />
    <glyph glyph-name="eogonek" unicode="&#x119;" horiz-adv-x="560" 
d="M291 434q-57 0 -96.5 -36.5t-54.5 -97.5h284q-3 54 -41 94q-37 40 -92 40zM514 227h-381q5 -69 48 -115t113 -46q106 0 149 81l66 -42q-49 -79 -129 -105q-51 -17 -77 -46t-26 -64q0 -44 42 -44q21 0 44 14l32 -51q-34 -31 -89 -31q-47 0 -79 27.5t-32 71.5q0 69 70 114
q-103 10 -163 82t-60 177q0 110 71 186q72 76 177 76q98 0 163 -66q65 -67 65 -167q0 -29 -4 -52z" />
    <glyph glyph-name="Ecaron" unicode="&#x11a;" horiz-adv-x="580" 
d="M466 886l-110 -134h-95l-107 134l55 42l102 -116l101 116zM515 86v-86h-420v700h420v-86h-324v-210h324v-86h-324v-232h324z" />
    <glyph glyph-name="ecaron" unicode="&#x11b;" horiz-adv-x="560" 
d="M245 569l-102 157l54 36l93 -129l93 129l54 -36l-104 -157h-88zM514 227h-381q5 -69 48 -115t113 -46q106 0 149 81l66 -42q-73 -117 -219 -117q-116 0 -182 74t-66 188q0 110 71 186q72 76 177 76q98 0 163 -66q65 -67 65 -167q0 -29 -4 -52zM291 434q-57 0 -96.5 -36.5
t-54.5 -97.5h284q-3 54 -41 94q-37 40 -92 40z" />
    <glyph glyph-name="Gcircumflex" unicode="&#x11c;" horiz-adv-x="803" 
d="M627 147v155h-178v86h274v-266q-50 -64 -125.5 -99t-161.5 -35q-164 0 -270 100t-106 262q0 155 109 258q110 104 267 104q78 0 148.5 -33t122.5 -91l-68 -56q-39 43 -92.5 68.5t-110.5 25.5q-119 0 -197 -78q-77 -79 -77 -198q0 -126 76 -201t198 -75q115 0 191 73z
M277 788l110 134h95l107 -134l-54 -42l-102 116l-101 -116z" />
    <glyph glyph-name="gcircumflex" unicode="&#x11d;" horiz-adv-x="620" 
d="M451 500h91v-472q0 -79 -26 -131q-62 -119 -226 -119q-131 0 -221 66l35 78q36 -26 87.5 -43t96.5 -17q74 0 118.5 37.5t44.5 110.5v69q-26 -38 -69 -58.5t-91 -20.5q-106 0 -178 74q-71 74 -71 182q0 103 70 179q71 77 182 77q93 0 157 -67v55zM451 177v175
q-24 35 -64 55.5t-81 20.5q-82 0 -127 -52q-44 -53 -44 -122q0 -70 47 -120t121 -50q44 0 87 26t61 67zM337 759l102 -157l-53 -36l-93 129l-93 -129l-55 36l104 157h88z" />
    <glyph glyph-name="Gbreve" unicode="&#x11e;" horiz-adv-x="803" 
d="M627 147v155h-178v86h274v-266q-50 -64 -125.5 -99t-161.5 -35q-164 0 -270 100t-106 262q0 155 109 258q110 104 267 104q78 0 148.5 -33t122.5 -91l-68 -56q-39 43 -92.5 68.5t-110.5 25.5q-119 0 -197 -78q-77 -79 -77 -198q0 -126 76 -201t198 -75q115 0 191 73z
M514 888v6h64v-6q0 -58 -41 -96q-41 -36 -102 -36q-65 0 -104 36t-39 96v6h67v-6q0 -32 21 -50t55 -18t56.5 18.5t22.5 49.5z" />
    <glyph glyph-name="gbreve" unicode="&#x11f;" horiz-adv-x="620" 
d="M451 500h91v-472q0 -79 -26 -131q-62 -119 -226 -119q-131 0 -221 66l35 78q36 -26 87.5 -43t96.5 -17q74 0 118.5 37.5t44.5 110.5v69q-26 -38 -69 -58.5t-91 -20.5q-106 0 -178 74q-71 74 -71 182q0 103 70 179q71 77 182 77q93 0 157 -67v55zM451 177v175
q-24 35 -64 55.5t-81 20.5q-82 0 -127 -52q-44 -53 -44 -122q0 -70 47 -120t121 -50q44 0 87 26t61 67zM382 711v14h64v-14q0 -60 -42 -102q-41 -41 -101 -41q-59 0 -102 41q-41 43 -41 102v14h66v-14q0 -33 22 -56t55 -23q32 0 55.5 23t23.5 56z" />
    <glyph glyph-name="Gdotaccent" unicode="&#x120;" horiz-adv-x="803" 
d="M627 147v155h-178v86h274v-266q-50 -64 -125.5 -99t-161.5 -35q-164 0 -270 100t-106 262q0 155 109 258q110 104 267 104q78 0 148.5 -33t122.5 -91l-68 -56q-39 43 -92.5 68.5t-110.5 25.5q-119 0 -197 -78q-77 -79 -77 -198q0 -126 76 -201t198 -75q115 0 191 73z
M472 875v-111h-102v111h102z" />
    <glyph glyph-name="gdotaccent" unicode="&#x121;" horiz-adv-x="620" 
d="M451 500h91v-472q0 -79 -26 -131q-62 -119 -226 -119q-131 0 -221 66l35 78q36 -26 87.5 -43t96.5 -17q74 0 118.5 37.5t44.5 110.5v69q-26 -38 -69 -58.5t-91 -20.5q-106 0 -178 74q-71 74 -71 182q0 103 70 179q71 77 182 77q93 0 157 -67v55zM451 177v175
q-24 35 -64 55.5t-81 20.5q-82 0 -127 -52q-44 -53 -44 -122q0 -70 47 -120t121 -50q44 0 87 26t61 67zM338 700v-102h-91v102h91z" />
    <glyph glyph-name="Gcommaaccent" unicode="&#x122;" horiz-adv-x="803" 
d="M627 147v155h-178v86h274v-266q-50 -64 -125.5 -99t-161.5 -35q-164 0 -270 100t-106 262q0 155 109 258q110 104 267 104q78 0 148.5 -33t122.5 -91l-68 -56q-39 43 -92.5 68.5t-110.5 25.5q-119 0 -197 -78q-77 -79 -77 -198q0 -126 76 -201t198 -75q115 0 191 73z
M453 -56l-46 -175h-75l36 175h85z" />
    <glyph glyph-name="gcommaaccent" unicode="&#x123;" horiz-adv-x="620" 
d="M451 500h91v-472q0 -79 -26 -131q-62 -119 -226 -119q-131 0 -221 66l35 78q36 -26 87.5 -43t96.5 -17q74 0 118.5 37.5t44.5 110.5v69q-26 -38 -69 -58.5t-91 -20.5q-106 0 -178 74q-71 74 -71 182q0 103 70 179q71 77 182 77q93 0 157 -67v55zM451 177v175
q-24 35 -64 55.5t-81 20.5q-82 0 -127 -52q-44 -53 -44 -122q0 -70 47 -120t121 -50q44 0 87 26t61 67zM258 567l47 179h79l-37 -179h-89z" />
    <glyph glyph-name="Hcircumflex" unicode="&#x124;" horiz-adv-x="752" 
d="M220 788l110 134h95l107 -134l-54 -42l-102 116l-101 -116zM657 700v-700h-96v318h-370v-318h-96v700h96v-296h370v296h96z" />
    <glyph glyph-name="hcircumflex" unicode="&#x125;" horiz-adv-x="606" 
d="M84 750h91v-332q58 94 163 94q98 0 145 -63q45 -61 45 -189v-260h-91v250q0 98 -26 138q-27 40 -87 40q-41 0 -81 -26t-68 -70v-332h-91v750zM-28 788l110 134h95l107 -134l-54 -42l-102 116l-101 -116z" />
    <glyph glyph-name="Hbar" unicode="&#x126;" horiz-adv-x="752" 
d="M657 516v-516h-96v318h-370v-318h-96v516h-90v75h90v109h96v-109h370v109h96v-109h90v-75h-90zM191 516v-112h370v112h-370z" />
    <glyph glyph-name="hbar" unicode="&#x127;" horiz-adv-x="606" 
d="M84 750h91v-90h164v-72h-164v-170q58 94 163 94q98 0 145 -63q45 -61 45 -189v-260h-91v250q0 98 -26 138q-27 40 -87 40q-41 0 -81 -26t-68 -70v-332h-91v588h-70v72h70v90z" />
    <glyph glyph-name="Itilde" unicode="&#x128;" horiz-adv-x="286" 
d="M249 866l65 7q2 -16 2 -27q0 -42 -27.5 -68.5t-70.5 -26.5q-34 0 -84 32t-64 32q-32 0 -33 -30q0 -8 1 -10l-65 -7q-2 16 -2 27q0 42 27.5 68.5t70.5 26.5q36 0 83 -32t65 -32q31 0 33 30q0 8 -1 10zM191 700v-700h-96v700h96z" />
    <glyph glyph-name="itilde" unicode="&#x129;" horiz-adv-x="259" 
d="M175 500v-500h-91v500h91zM235 693l65 7q2 -16 2 -23q0 -42 -27.5 -68.5t-70.5 -26.5q-35 0 -84.5 32t-63.5 32q-32 0 -33 -30q0 -8 1 -10l-65 -7q-2 16 -2 23q0 42 27.5 68.5t70.5 26.5q37 0 83 -32q47 -32 65 -32q31 0 33 30q0 8 -1 10z" />
    <glyph glyph-name="Imacron" unicode="&#x12a;" horiz-adv-x="286" 
d="M308 845v-71h-330v71h330zM191 700v-700h-96v700h96z" />
    <glyph glyph-name="imacron" unicode="&#x12b;" horiz-adv-x="259" 
d="M278 678v-70h-296v70h296zM175 500v-500h-91v500h91z" />
    <glyph glyph-name="Ibreve" unicode="&#x12c;" horiz-adv-x="286" 
d="M222 888v6h64v-6q0 -58 -41 -96q-41 -36 -102 -36q-65 0 -104 36t-39 96v6h67v-6q0 -32 21 -50t55 -18t56.5 18.5t22.5 49.5zM191 700v-700h-96v700h96z" />
    <glyph glyph-name="ibreve" unicode="&#x12d;" horiz-adv-x="259" 
d="M209 711v14h64v-14q0 -60 -42 -102q-41 -41 -101 -41q-59 0 -102 41q-41 43 -41 102v14h66v-14q0 -33 22 -56t55 -23q32 0 55.5 23t23.5 56zM175 500v-500h-91v500h91z" />
    <glyph glyph-name="Iogonek" unicode="&#x12e;" horiz-adv-x="286" 
d="M95 700h96v-700q-50 -14 -74 -44t-24 -66q0 -44 42 -44q21 0 44 14l32 -51q-34 -31 -89 -31q-47 0 -79 27.5t-32 71.5q0 39 22.5 72.5t61.5 52.5v698z" />
    <glyph glyph-name="iogonek" unicode="&#x12f;" horiz-adv-x="259" 
d="M175 700v-102h-91v102h91zM84 500h91v-500q-93 -28 -93 -110q0 -44 42 -44q21 0 44 14l32 -51q-34 -31 -89 -31q-47 0 -79 27.5t-32 71.5q0 85 84 125v498z" />
    <glyph glyph-name="Idot" unicode="&#x130;" horiz-adv-x="286" 
d="M194 875v-111h-102v111h102zM191 700v-700h-96v700h96z" />
    <glyph glyph-name="dotlessi" unicode="&#x131;" horiz-adv-x="259" 
d="M175 500v-500h-91v500h91z" />
    <glyph glyph-name="IJ" unicode="&#x132;" horiz-adv-x="642" 
d="M456 700h96v-523q0 -86 -32 -133q-39 -56 -134 -56q-50 0 -101 22l26 78q31 -14 61 -14q50 0 67 24q17 23 17 92v510zM191 700v-700h-96v700h96z" />
    <glyph glyph-name="ij" unicode="&#x133;" horiz-adv-x="526" 
d="M175 500v-500h-91v500h91zM175 700v-102h-91v102h91zM442 700v-102h-91v102h91zM351 500h91v-544q0 -58 -14 -95q-32 -83 -133 -83q-56 0 -96 22l26 74q26 -14 56 -14q42 0 56 26t14 88v526z" />
    <glyph glyph-name="Jcircumflex" unicode="&#x134;" horiz-adv-x="336" 
d="M47 788l110 134h95l107 -134l-54 -42l-102 116l-101 -116zM155 700h96v-523q0 -86 -32 -133q-39 -56 -134 -56q-50 0 -101 22l26 78q31 -14 61 -14q51 0 67 24q17 23 17 92v510z" />
    <glyph glyph-name="jcircumflex" unicode="&#x135;" horiz-adv-x="267" 
d="M182 759l102 -157l-53 -36l-93 129l-93 -129l-55 36l104 157h88zM92 500h91v-544q0 -58 -14 -95q-32 -83 -133 -83q-56 0 -96 22l26 74q26 -14 56 -14q42 0 56 26t14 88v526z" />
    <glyph glyph-name="Kcommaaccent" unicode="&#x136;" horiz-adv-x="621" 
d="M485 700h117l-233 -276l247 -424h-112l-200 346l-113 -135v-211h-96v700h96v-357zM373 -56l-46 -175h-75l36 175h85z" />
    <glyph glyph-name="kcommaaccent" unicode="&#x137;" horiz-adv-x="514" 
d="M316 296l192 -296h-111l-143 224l-79 -92v-132h-91v750h91v-500l2 -1l202 251h112zM314 -56l-46 -175h-75l36 175h85z" />
    <glyph glyph-name="kgreenlandic" unicode="&#x138;" horiz-adv-x="514" 
d="M84 0v500h91v-250l2 -1l202 251h112l-175 -204l192 -296h-111l-143 224l-79 -92v-132h-91z" />
    <glyph glyph-name="Lacute" unicode="&#x139;" horiz-adv-x="500" 
d="M495 86v-86h-400v700h96v-614h304zM248 932l52 -66l-175 -126l-42 54z" />
    <glyph glyph-name="lacute" unicode="&#x13a;" horiz-adv-x="259" 
d="M84 750h91v-750h-91v750zM232 976l52 -66l-175 -126l-42 54z" />
    <glyph glyph-name="Lcommaaccent" unicode="&#x13b;" horiz-adv-x="500" 
d="M351 -56l-46 -175h-75l36 175h85zM495 86v-86h-400v700h96v-614h304z" />
    <glyph glyph-name="lcommaaccent" unicode="&#x13c;" horiz-adv-x="259" 
d="M170 -56l-46 -175h-75l36 175h85zM84 750h91v-750h-91v750z" />
    <glyph glyph-name="Lcaron" unicode="&#x13d;" horiz-adv-x="500" 
d="M385 700l-53 -200h-76l40 200h89zM495 86v-86h-400v700h96v-614h304z" />
    <glyph glyph-name="lcaron" unicode="&#x13e;" horiz-adv-x="259" 
d="M334 750l-53 -200h-76l40 200h89zM84 750h91v-750h-91v750z" />
    <glyph glyph-name="Ldot" unicode="&#x13f;" horiz-adv-x="500" 
d="M495 86v-86h-400v700h96v-614h304zM447 425v-111h-102v111h102z" />
    <glyph glyph-name="ldot" unicode="&#x140;" horiz-adv-x="319" 
d="M84 750h91v-750h-91v750zM312 425v-111h-102v111h102z" />
    <glyph glyph-name="Lslash" unicode="&#x141;" horiz-adv-x="500" 
d="M495 86v-86h-400v281l-90 -58v89l90 58v330h96v-287l149 97v-89l-149 -97v-238h304z" />
    <glyph glyph-name="lslash" unicode="&#x142;" horiz-adv-x="259" 
d="M84 750h91v-303l70 46v-88l-70 -46v-359h-91v321l-66 -43v86l66 43v343z" />
    <glyph glyph-name="Nacute" unicode="&#x143;" horiz-adv-x="755" 
d="M660 700v-700h-85l-384 522v-522h-96v700h84l385 -522v522h96zM489 932l52 -66l-175 -126l-42 54z" />
    <glyph glyph-name="nacute" unicode="&#x144;" horiz-adv-x="606" 
d="M84 0v500h91v-82q58 94 163 94q98 0 145 -63q45 -61 45 -189v-260h-91v250q0 98 -26 138q-27 40 -87 40q-41 0 -81 -26t-68 -70v-332h-91zM386 777l66 -51l-134 -160l-55 42z" />
    <glyph glyph-name="Ncommaaccent" unicode="&#x145;" horiz-adv-x="755" 
d="M660 700v-700h-85l-384 522v-522h-96v700h84l385 -522v522h96zM433 -56l-46 -175h-75l36 175h85z" />
    <glyph glyph-name="ncommaaccent" unicode="&#x146;" horiz-adv-x="606" 
d="M84 0v500h91v-82q58 94 163 94q98 0 145 -63q45 -61 45 -189v-260h-91v250q0 98 -26 138q-27 40 -87 40q-41 0 -81 -26t-68 -70v-332h-91zM349 -56l-46 -175h-75l36 175h85z" />
    <glyph glyph-name="Ncaron" unicode="&#x147;" horiz-adv-x="755" 
d="M541 886l-110 -134h-95l-107 134l55 42l102 -116l101 116zM660 700v-700h-85l-384 522v-522h-96v700h84l385 -522v522h96z" />
    <glyph glyph-name="ncaron" unicode="&#x148;" horiz-adv-x="606" 
d="M279 569l-102 157l54 36l93 -129l93 129l54 -36l-104 -157h-88zM84 0v500h91v-82q58 94 163 94q98 0 145 -63q45 -61 45 -189v-260h-91v250q0 98 -26 138q-27 40 -87 40q-41 0 -81 -26t-68 -70v-332h-91z" />
    <glyph glyph-name="napostrophe" unicode="&#x149;" horiz-adv-x="632" 
d="M137 750l-66 -250h-87l51 250h102zM110 0v500h91v-82q58 94 163 94q98 0 145 -63q45 -61 45 -189v-260h-91v250q0 98 -26 138q-27 40 -87 40q-41 0 -81 -26t-68 -70v-332h-91z" />
    <glyph glyph-name="Eng" unicode="&#x14a;" horiz-adv-x="755" 
d="M564 700h96v-733q0 -86 -32 -133q-39 -56 -134 -56q-50 0 -101 22l26 78q31 -14 61 -14q50 0 67 24q17 23 17 92v35l-373 507v-522h-96v700h84l385 -522v522z" />
    <glyph glyph-name="eng" unicode="&#x14b;" horiz-adv-x="606" 
d="M528 260v-304q0 -58 -14 -95q-32 -83 -133 -83q-56 0 -96 22l26 74q26 -14 56 -14q42 0 56 26t14 88v276q0 98 -26 138q-27 40 -87 40q-41 0 -81 -26t-68 -70v-332h-91v500h91v-82q58 94 163 94q98 0 145 -63q45 -61 45 -189z" />
    <glyph glyph-name="Omacron" unicode="&#x14c;" horiz-adv-x="840" 
d="M604 153q74 80 74 197q0 116 -74 196t-184 80q-111 0 -185 -80q-73 -79 -73 -196q0 -118 73 -197t185 -79q111 0 184 79zM676 606q104 -106 104 -256t-104 -257q-104 -105 -256 -105t-256 105q-104 107 -104 257t104 256q103 106 256 106t256 -106zM585 845v-71h-330v71
h330z" />
    <glyph glyph-name="omacron" unicode="&#x14d;" horiz-adv-x="594" 
d="M115 436q73 76 182 76t182 -76t73 -186t-73 -186t-182 -76t-182 76t-73 186t73 186zM413 124q46 52 46 126t-46 126t-116 52t-116 -52t-46 -126t46 -126t116 -52t116 52zM445 678v-70h-296v70h296z" />
    <glyph glyph-name="Obreve" unicode="&#x14e;" horiz-adv-x="840" 
d="M604 153q74 80 74 197q0 116 -74 196t-184 80q-111 0 -185 -80q-73 -79 -73 -196q0 -118 73 -197t185 -79q111 0 184 79zM676 606q104 -106 104 -256t-104 -257q-104 -105 -256 -105t-256 105q-104 107 -104 257t104 256q103 106 256 106t256 -106zM499 888v6h64v-6
q0 -58 -41 -96q-40 -36 -102 -36q-65 0 -104 36t-39 96v6h67v-6q0 -32 21 -50t55 -18t56.5 18.5t22.5 49.5z" />
    <glyph glyph-name="obreve" unicode="&#x14f;" horiz-adv-x="594" 
d="M115 436q73 76 182 76t182 -76t73 -186t-73 -186t-182 -76t-182 76t-73 186t73 186zM413 124q46 52 46 126t-46 126t-116 52t-116 -52t-46 -126t46 -126t116 -52t116 52zM386 711v14h64v-14q0 -60 -42 -102q-41 -41 -101 -41q-59 0 -102 41q-41 43 -41 102v14h66v-14
q0 -33 22 -56t55 -23q32 0 55.5 23t23.5 56z" />
    <glyph glyph-name="Ohungarumlaut" unicode="&#x150;" horiz-adv-x="840" 
d="M604 153q74 80 74 197q0 116 -74 196t-184 80q-111 0 -185 -80q-73 -79 -73 -196q0 -118 73 -197t185 -79q111 0 184 79zM676 606q104 -106 104 -256t-104 -257q-104 -105 -256 -105t-256 105q-104 107 -104 257t104 256q103 106 256 106t256 -106zM416 932l52 -66
l-175 -126l-42 54zM626 927l52 -66l-168 -121l-42 54z" />
    <glyph glyph-name="ohungarumlaut" unicode="&#x151;" horiz-adv-x="594" 
d="M115 436q73 76 182 76t182 -76t73 -186t-73 -186t-182 -76t-182 76t-73 186t73 186zM413 124q46 52 46 126t-46 126t-116 52t-116 -52t-46 -126t46 -126t116 -52t116 52zM457 777l66 -51l-135 -161l-56 43zM303 793l67 -52l-140 -166l-55 40z" />
    <glyph glyph-name="OE" unicode="&#x152;" horiz-adv-x="1063" 
d="M998 86v-86h-420v33q-73 -45 -158 -45q-152 0 -256 105q-104 107 -104 257t104 256q103 106 256 106q85 0 158 -45v33h420v-86h-324v-210h324v-86h-324v-232h324zM420 74q90 0 158 54v444q-67 54 -158 54q-111 0 -185 -80q-73 -79 -73 -196q0 -118 73 -197t185 -79z" />
    <glyph glyph-name="oe" unicode="&#x153;" horiz-adv-x="973" 
d="M927 227h-381q5 -69 48 -115t113 -46q105 0 149 81l66 -42q-74 -117 -219 -117q-137 0 -203 108q-73 -108 -203 -108q-109 0 -182 76t-73 186t73 186q74 77 182 77q64 0 118 -29.5t88 -82.5q33 53 85.5 82.5t114.5 29.5q99 0 163 -66q65 -67 65 -167q0 -30 -4 -53z
M459 251q0 73 -46 125q-47 53 -115 53q-70 0 -117 -53q-46 -52 -46 -125q0 -75 46 -127t117 -52q69 0 115 52t46 127zM704 435q-57 0 -96.5 -36.5t-54.5 -97.5h284q-3 54 -41 94q-37 40 -92 40z" />
    <glyph glyph-name="Racute" unicode="&#x154;" horiz-adv-x="613" 
d="M371 302l222 -302h-120l-210 296h-72v-296h-96v700h208q59 0 110 -19q53 -20 90 -67q39 -46 39 -115q0 -80 -47.5 -130.5t-123.5 -66.5zM440 496q0 53 -39 85.5t-103 32.5h-107v-232h87q76 0 119 29t43 85zM386 932l52 -66l-175 -126l-42 54z" />
    <glyph glyph-name="racute" unicode="&#x155;" horiz-adv-x="357" 
d="M84 500h91v-83q53 95 129 95q26 0 54 -6l-17 -97q-20 10 -47 10q-71 0 -119 -84v-335h-91v500zM278 777l66 -51l-134 -160l-55 42z" />
    <glyph glyph-name="Rcommaaccent" unicode="&#x156;" horiz-adv-x="613" 
d="M371 302l222 -302h-120l-210 296h-72v-296h-96v700h208q59 0 110 -19q53 -20 90 -67q39 -46 39 -115q0 -80 -47.5 -130.5t-123.5 -66.5zM440 496q0 53 -39 85.5t-103 32.5h-107v-232h87q76 0 119 29t43 85zM367 -56l-46 -175h-75l36 175h85z" />
    <glyph glyph-name="rcommaaccent" unicode="&#x157;" horiz-adv-x="357" 
d="M84 500h91v-83q53 95 129 95q26 0 54 -6l-17 -97q-20 10 -47 10q-71 0 -119 -84v-335h-91v500zM170 -56l-46 -175h-75l36 175h85z" />
    <glyph glyph-name="Rcaron" unicode="&#x158;" horiz-adv-x="613" 
d="M371 302l222 -302h-120l-210 296h-72v-296h-96v700h208q59 0 110 -19q53 -20 90 -67q39 -46 39 -115q0 -80 -47.5 -130.5t-123.5 -66.5zM440 496q0 53 -39 85.5t-103 32.5h-107v-232h87q76 0 119 29t43 85zM446 886l-110 -134h-95l-107 134l55 42l102 -116l101 116z" />
    <glyph glyph-name="rcaron" unicode="&#x159;" horiz-adv-x="357" 
d="M172 569l-102 157l54 36l93 -129l93 129l54 -36l-104 -157h-88zM84 500h91v-83q53 95 129 95q26 0 54 -6l-17 -97q-20 10 -47 10q-71 0 -119 -84v-335h-91v500z" />
    <glyph glyph-name="Sacute" unicode="&#x15a;" horiz-adv-x="609" 
d="M517 640l-59 -70q-27 24 -67.5 40t-79.5 16q-57 0 -91 -26t-34 -71q0 -30 28 -58q12 -10 34 -20l38 -17l46 -16q42 -15 76 -31q35 -16 65 -38q71 -49 71 -143q0 -56 -23 -100t-60 -68.5t-78.5 -37t-84.5 -12.5q-146 0 -253 105l68 64q47 -46 89 -64.5t97 -18.5
q63 0 103 31.5t40 89.5q0 56 -49 85q-34 20 -107 47q-83 30 -133 65q-64 48 -64 127q0 93 60 143q61 50 151 50q122 0 217 -72zM414 932l52 -66l-175 -126l-42 54z" />
    <glyph glyph-name="sacute" unicode="&#x15b;" horiz-adv-x="451" 
d="M382 457l-54 -58q-43 37 -99 37q-34 0 -54.5 -18t-20.5 -48q0 -18 16 -33q20 -19 80 -43t96 -51q50 -35 50 -98q0 -79 -52 -118t-129 -39q-112 0 -172 78l64 51q50 -53 109 -53q40 0 65 20.5t25 56.5q0 18 -16 33q-14 15 -28.5 22.5t-51.5 21.5q-26 10 -52 22
q-15 7 -43 25q-48 35 -48 98q0 72 47 110q46 39 114 39q93 0 154 -55zM318 777l66 -51l-134 -160l-55 42z" />
    <glyph glyph-name="Scircumflex" unicode="&#x15c;" horiz-adv-x="609" 
d="M517 640l-59 -70q-27 24 -67.5 40t-79.5 16q-57 0 -91 -26t-34 -71q0 -30 28 -58q12 -10 34 -20l38 -17l46 -16q42 -15 76 -31q35 -16 65 -38q71 -49 71 -143q0 -56 -23 -100t-60 -68.5t-78.5 -37t-84.5 -12.5q-146 0 -253 105l68 64q47 -46 89 -64.5t97 -18.5
q63 0 103 31.5t40 89.5q0 56 -49 85q-34 20 -107 47q-83 30 -133 65q-64 48 -64 127q0 93 60 143q61 50 151 50q122 0 217 -72zM155 788l110 134h95l107 -134l-54 -42l-102 116l-101 -116z" />
    <glyph glyph-name="scircumflex" unicode="&#x15d;" horiz-adv-x="451" 
d="M382 457l-54 -58q-43 37 -99 37q-34 0 -54.5 -18t-20.5 -48q0 -18 16 -33q20 -19 80 -43t96 -51q50 -35 50 -98q0 -79 -52 -118t-129 -39q-112 0 -172 78l64 51q50 -53 109 -53q40 0 65 20.5t25 56.5q0 18 -16 33q-14 15 -28.5 22.5t-51.5 21.5q-26 10 -52 22
q-15 7 -43 25q-48 35 -48 98q0 72 47 110q46 39 114 39q93 0 154 -55zM279 759l102 -157l-53 -36l-93 129l-93 -129l-55 36l104 157h88z" />
    <glyph glyph-name="Scedilla" unicode="&#x15e;" horiz-adv-x="609" 
d="M517 640l-59 -70q-27 24 -67.5 40t-79.5 16q-57 0 -91 -26t-34 -71q0 -30 28 -58q12 -10 34 -20l38 -17l46 -16q42 -15 76 -31q35 -16 65 -38q71 -49 71 -143q0 -53 -21 -96.5t-58 -68.5q-69 -48 -156 -53l-23 -53l2 -1q17 16 48 16q38 0 62.5 -26.5t24.5 -66.5
q0 -41 -32 -71q-31 -31 -77 -31q-70 0 -103 59l57 28q12 -32 46 -32q18 0 30.5 13t12.5 31q0 20 -11.5 33.5t-31.5 13.5q-28 0 -41 -24l-62 33l38 81q-115 13 -204 102l68 64q47 -46 89 -64.5t97 -18.5q63 0 103 31.5t40 89.5q0 56 -49 85q-34 20 -107 47q-83 30 -133 65
q-64 48 -64 127q0 93 60 143q61 50 151 50q122 0 217 -72z" />
    <glyph glyph-name="scedilla" unicode="&#x15f;" horiz-adv-x="451" 
d="M382 457l-54 -58q-43 37 -99 37q-34 0 -54.5 -18t-20.5 -48q0 -18 16 -33q20 -19 80 -43t96 -51q50 -35 50 -98q0 -72 -45 -112t-120 -44l-20 -54l1 -1q22 16 48 16q36 0 61.5 -27t25.5 -66q0 -41 -32 -71q-31 -31 -77 -31q-70 0 -103 59l57 28q12 -32 46 -32
q18 0 30.5 13t12.5 31q0 20 -12.5 33.5t-32.5 13.5q-28 0 -39 -24l-61 32l34 83q-81 15 -127 74l64 51q50 -53 109 -53q40 0 65 20.5t25 56.5q0 18 -16 33q-14 15 -28.5 22.5t-51.5 21.5q-26 10 -52 22q-15 7 -43 25q-48 35 -48 98q0 72 47 110q46 39 114 39q93 0 154 -55z
" />
    <glyph glyph-name="Scaron" unicode="&#x160;" horiz-adv-x="609" 
d="M517 640l-59 -70q-27 24 -67.5 40t-79.5 16q-57 0 -91 -26t-34 -71q0 -30 28 -58q12 -10 34 -20l38 -17l46 -16q42 -15 76 -31q35 -16 65 -38q71 -49 71 -143q0 -56 -23 -100t-60 -68.5t-78.5 -37t-84.5 -12.5q-146 0 -253 105l68 64q47 -46 89 -64.5t97 -18.5
q63 0 103 31.5t40 89.5q0 56 -49 85q-34 20 -107 47q-83 30 -133 65q-64 48 -64 127q0 93 60 143q61 50 151 50q122 0 217 -72zM467 886l-110 -134h-95l-107 134l55 42l102 -116l101 116z" />
    <glyph glyph-name="scaron" unicode="&#x161;" horiz-adv-x="451" 
d="M382 457l-54 -58q-43 37 -99 37q-34 0 -54.5 -18t-20.5 -48q0 -18 16 -33q20 -19 80 -43t96 -51q50 -35 50 -98q0 -79 -52 -118t-129 -39q-112 0 -172 78l64 51q50 -53 109 -53q40 0 65 20.5t25 56.5q0 18 -16 33q-14 15 -28.5 22.5t-51.5 21.5q-26 10 -52 22
q-15 7 -43 25q-48 35 -48 98q0 72 47 110q46 39 114 39q93 0 154 -55zM191 569l-102 157l54 36l93 -129l93 129l54 -36l-104 -157h-88z" />
    <glyph glyph-name="uni0162" unicode="&#x162;" horiz-adv-x="488" 
d="M468 700v-86h-176v-614h-19l-28 -65l2 -1q17 16 48 16q38 0 62.5 -26.5t24.5 -66.5q0 -41 -32 -71q-31 -31 -77 -31q-70 0 -103 59l57 28q12 -32 46 -32q18 0 30.5 13t12.5 31q0 20 -11.5 33.5t-31.5 13.5q-27 0 -41 -24l-62 33l42 90h-16v614h-176v86h448z" />
    <glyph glyph-name="uni0163" unicode="&#x163;" horiz-adv-x="346" 
d="M320 500v-80h-140v-226q0 -29 1 -39q2 -43 18.5 -63.5t51.5 -20.5q26 0 56 14l25 -73q-41 -22 -93 -22q-15 0 -27 2l-21 -57l1 -1q22 16 48 16q36 0 61.5 -27t25.5 -66q0 -41 -32 -71q-31 -31 -77 -31q-70 0 -103 59l57 28q12 -32 46 -32q18 0 30.5 13t12.5 31
q0 20 -12.5 33.5t-32.5 13.5q-28 0 -39 -24l-61 32l42 100q-37 20 -53 59q-16 36 -16 104v248h-67v80h67v120h91v-120h140z" />
    <glyph glyph-name="Tcaron" unicode="&#x164;" horiz-adv-x="488" 
d="M400 886l-110 -134h-95l-107 134l55 42l102 -116l101 116zM468 700v-86h-176v-614h-96v614h-176v86h448z" />
    <glyph glyph-name="tcaron" unicode="&#x165;" horiz-adv-x="346" 
d="M320 500v-80h-140v-226q0 -29 1 -39q2 -43 18.5 -63.5t51.5 -20.5q26 0 56 14l25 -73q-41 -22 -93 -22q-99 0 -134 78q-16 36 -16 104v248h-67v80h67v120h91v-120h140zM366 750l-53 -200h-76l40 200h89z" />
    <glyph glyph-name="Tbar" unicode="&#x166;" horiz-adv-x="488" 
d="M468 700v-86h-176v-214h110v-79h-110v-321h-96v321h-110v79h110v214h-176v86h448z" />
    <glyph glyph-name="tbar" unicode="&#x167;" horiz-adv-x="346" 
d="M320 300v-72h-140v-34q0 -29 1 -39q2 -43 18.5 -63.5t51.5 -20.5q26 0 56 14l25 -73q-41 -22 -93 -22q-99 0 -134 78q-16 36 -16 104v56h-67v72h67v120h-67v80h67v120h91v-120h140v-80h-140v-120h140z" />
    <glyph glyph-name="Utilde" unicode="&#x168;" horiz-adv-x="722" 
d="M466 866l65 7q2 -16 2 -27q0 -42 -27.5 -68.5t-70.5 -26.5q-34 0 -84 32t-64 32q-31 0 -33 -30q0 -8 1 -10l-65 -7q-2 16 -2 27q0 42 27.5 68.5t70.5 26.5q36 0 83 -32t65 -32q32 0 33 30q0 8 -1 10zM536 700h96v-371q0 -171 -66.5 -256t-206.5 -85q-269 0 -269 341v371
h96v-396q0 -113 45.5 -171.5t129.5 -58.5t129.5 58.5t45.5 171.5v396z" />
    <glyph glyph-name="utilde" unicode="&#x169;" horiz-adv-x="606" 
d="M522 0h-91v82q-58 -94 -163 -94q-98 0 -145 63q-45 61 -45 189v260h91v-250q0 -98 26 -138q27 -40 87 -40q41 0 81 26t68 70v332h91v-500zM417 693l65 7q2 -16 2 -23q0 -42 -27.5 -68.5t-70.5 -26.5q-35 0 -84.5 32t-63.5 32q-32 0 -33 -30q0 -8 1 -10l-65 -7
q-2 16 -2 23q0 42 27.5 68.5t70.5 26.5q37 0 83 -32q47 -32 65 -32q31 0 33 30q0 8 -1 10z" />
    <glyph glyph-name="Umacron" unicode="&#x16a;" horiz-adv-x="722" 
d="M536 700h96v-371q0 -171 -66.5 -256t-206.5 -85q-269 0 -269 341v371h96v-396q0 -113 45.5 -171.5t129.5 -58.5t129.5 58.5t45.5 171.5v396zM526 845v-71h-330v71h330z" />
    <glyph glyph-name="umacron" unicode="&#x16b;" horiz-adv-x="606" 
d="M522 0h-91v82q-58 -94 -163 -94q-98 0 -145 63q-45 61 -45 189v260h91v-250q0 -98 26 -138q27 -40 87 -40q41 0 81 26t68 70v332h91v-500zM448 678v-70h-296v70h296z" />
    <glyph glyph-name="Ubreve" unicode="&#x16c;" horiz-adv-x="722" 
d="M441 888v6h64v-6q0 -58 -41 -96q-40 -36 -102 -36q-65 0 -104 36t-39 96v6h67v-6q0 -32 21 -50t55 -18t56.5 18.5t22.5 49.5zM536 700h96v-371q0 -171 -66.5 -256t-206.5 -85q-269 0 -269 341v371h96v-396q0 -113 45.5 -171.5t129.5 -58.5t129.5 58.5t45.5 171.5v396z
" />
    <glyph glyph-name="ubreve" unicode="&#x16d;" horiz-adv-x="606" 
d="M522 0h-91v82q-58 -94 -163 -94q-98 0 -145 63q-45 61 -45 189v260h91v-250q0 -98 26 -138q27 -40 87 -40q41 0 81 26t68 70v332h91v-500zM384 711v14h64v-14q0 -60 -42 -102q-41 -41 -101 -41q-59 0 -102 41q-41 43 -41 102v14h66v-14q0 -33 22 -56t55 -23q32 0 55.5 23
t23.5 56z" />
    <glyph glyph-name="Uring" unicode="&#x16e;" horiz-adv-x="722" 
d="M295 753q-27 28 -27 66t27 65q28 28 66 28t65 -28q28 -27 28 -65t-28 -66q-27 -27 -65 -27t-66 27zM330 850q-13 -13 -13 -31t13 -31t31 -13t31 13t13 31t-13 31t-31 13t-31 -13zM536 700h96v-371q0 -171 -66.5 -256t-206.5 -85q-269 0 -269 341v371h96v-396
q0 -113 45.5 -171.5t129.5 -58.5t129.5 58.5t45.5 171.5v396z" />
    <glyph glyph-name="uring" unicode="&#x16f;" horiz-adv-x="606" 
d="M238 587q-27 28 -27 66t27 65q28 28 66 28t65 -28q28 -27 28 -65t-28 -66q-27 -27 -65 -27t-66 27zM273 684q-13 -13 -13 -31t13 -31t31 -13t31 13t13 31t-13 31t-31 13t-31 -13zM522 0h-91v82q-58 -94 -163 -94q-98 0 -145 63q-45 61 -45 189v260h91v-250q0 -98 26 -138
q27 -40 87 -40q41 0 81 26t68 70v332h91v-500z" />
    <glyph glyph-name="Uhungarumlaut" unicode="&#x170;" horiz-adv-x="722" 
d="M536 700h96v-371q0 -171 -66.5 -256t-206.5 -85q-269 0 -269 341v371h96v-396q0 -113 45.5 -171.5t129.5 -58.5t129.5 58.5t45.5 171.5v396zM357 932l52 -66l-175 -126l-42 54zM567 927l52 -66l-168 -121l-42 54z" />
    <glyph glyph-name="uhungarumlaut" unicode="&#x171;" horiz-adv-x="606" 
d="M522 0h-91v82q-58 -94 -163 -94q-98 0 -145 63q-45 61 -45 189v260h91v-250q0 -98 26 -138q27 -40 87 -40q41 0 81 26t68 70v332h91v-500zM446 777l66 -51l-135 -161l-56 43zM292 793l67 -52l-140 -166l-55 40z" />
    <glyph glyph-name="Uogonek" unicode="&#x172;" horiz-adv-x="722" 
d="M536 700h96v-371q0 -279 -179 -329q-38 -10 -72 -41q-32 -32 -32 -69q0 -44 42 -44q21 0 44 14l32 -51q-34 -31 -89 -31q-47 0 -79 27.5t-32 71.5q0 71 65 112q-242 17 -242 340v371h96v-396q0 -113 45.5 -171.5t129.5 -58.5t129.5 58.5t45.5 171.5v396z" />
    <glyph glyph-name="uogonek" unicode="&#x173;" horiz-adv-x="606" 
d="M337 -123q0 73 94 124v81q-58 -94 -163 -94q-98 0 -145 63q-45 61 -45 189v260h91v-250q0 -98 26 -138q27 -40 87 -40q41 0 81 26t68 70v332h91v-500q-50 -15 -76.5 -45t-26.5 -65q0 -44 42 -44q21 0 44 14l32 -51q-34 -31 -89 -31q-47 0 -79 27.5t-32 71.5z" />
    <glyph glyph-name="Wcircumflex" unicode="&#x174;" horiz-adv-x="886" 
d="M400 700h90l140 -528h2l147 528h102l-200 -700h-96l-140 533h-2l-152 -533h-94l-192 700h106l140 -528h2zM288 788l110 134h95l107 -134l-54 -42l-102 116l-101 -116z" />
    <glyph glyph-name="wcircumflex" unicode="&#x175;" horiz-adv-x="733" 
d="M321 500h98l101 -385h3l102 385h92l-144 -500h-98l-107 389h-2l-110 -389h-102l-138 500h98l94 -385h2zM414 759l102 -157l-53 -36l-93 129l-93 -129l-55 36l104 157h88z" />
    <glyph glyph-name="Ycircumflex" unicode="&#x176;" horiz-adv-x="555" 
d="M324 299v-299h-96v304l-223 396h119l156 -294h3l155 294h112zM122 788l110 134h95l107 -134l-54 -42l-102 116l-101 -116z" />
    <glyph glyph-name="ycircumflex" unicode="&#x177;" horiz-adv-x="477" 
d="M189 15l-183 485h101l130 -379h2l133 379h99l-281 -725l-80 31zM292 759l102 -157l-53 -36l-93 129l-93 -129l-55 36l104 157h88z" />
    <glyph glyph-name="Ydieresis" unicode="&#x178;" horiz-adv-x="555" 
d="M324 299v-299h-96v304l-223 396h119l156 -294h3l155 294h112zM221 875v-111h-100v111h100zM451 875v-111h-100v111h100z" />
    <glyph glyph-name="Zacute" unicode="&#x179;" horiz-adv-x="547" 
d="M502 700v-52l-329 -562h354v-86h-487v51l331 563h-323v86h454zM363 932l52 -66l-175 -126l-42 54z" />
    <glyph glyph-name="zacute" unicode="&#x17a;" horiz-adv-x="454" 
d="M59 0v41l221 379h-232v80h353v-40l-221 -380h238v-80h-359zM298 777l66 -51l-134 -160l-55 42z" />
    <glyph glyph-name="Zdotaccent" unicode="&#x17b;" horiz-adv-x="547" 
d="M502 700v-52l-329 -562h354v-86h-487v51l331 563h-323v86h454zM320 875v-111h-102v111h102z" />
    <glyph glyph-name="zdotaccent" unicode="&#x17c;" horiz-adv-x="454" 
d="M59 0v41l221 379h-232v80h353v-40l-221 -380h238v-80h-359zM267 700v-102h-91v102h91z" />
    <glyph glyph-name="Zcaron" unicode="&#x17d;" horiz-adv-x="547" 
d="M431 886l-110 -134h-95l-107 134l55 42l102 -116l101 116zM502 700v-52l-329 -562h354v-86h-487v51l331 563h-323v86h454z" />
    <glyph glyph-name="zcaron" unicode="&#x17e;" horiz-adv-x="454" 
d="M193 569l-102 157l54 36l93 -129l93 129l54 -36l-104 -157h-88zM59 0v41l221 379h-232v80h353v-40l-221 -380h238v-80h-359z" />
    <glyph glyph-name="longs" unicode="&#x17f;" horiz-adv-x="308" 
d="M344 740l-26 -76q-31 14 -62 14q-50 0 -67 -24.5t-17 -90.5v-563h-92v572q0 95 39.5 142.5t125.5 47.5q48 0 99 -22z" />
    <glyph glyph-name="florin" unicode="&#x192;" 
d="M393 400v-84h-131l-41 -363q-9 -78 -47.5 -121.5t-98.5 -43.5q-36 0 -81 12l20 79q24 -7 50 -7q34 0 47.5 21.5t19.5 78.5l39 344h-80v84h89l13 111q9 79 51.5 122t111.5 43q59 0 128 -32l-36 -76q-34 24 -83 24q-41 0 -58.5 -23t-23.5 -77l-11 -92h122z" />
    <glyph glyph-name="Aringacute" unicode="&#x1fa;" horiz-adv-x="653" 
d="M370 700l268 -700h-111l-55 149h-298l-54 -149h-105l271 700h84zM324 554h-1l-117 -319h235zM420 1081l42 -69l-188 -105l-34 56zM263 744q-27 28 -27 66t27 65q28 28 66 28t65 -28q28 -27 28 -65t-28 -66q-27 -27 -65 -27t-66 27zM298 841q-13 -13 -13 -31t13 -31
t31 -13t31 13t13 31t-13 31t-31 13t-31 -13z" />
    <glyph glyph-name="aringacute" unicode="&#x1fb;" horiz-adv-x="546" 
d="M377 916l36 -58l-179 -106l-32 50zM468 304v-304h-87v53q-59 -65 -150 -65q-78 0 -127.5 39.5t-49.5 112.5q0 61 34 99q58 67 189 67q45 0 100 -11v18q0 120 -118 120q-79 0 -159 -44l-27 76q99 47 197 47q103 0 150.5 -52t47.5 -156zM377 124v103q-44 10 -90 10
q-144 0 -144 -90q0 -41 26.5 -62t72.5 -21q64 0 135 60zM199 573q-27 28 -27 66t27 65q28 28 66 28t65 -28q28 -27 28 -65t-28 -66q-27 -27 -65 -27t-66 27zM234 670q-13 -13 -13 -31t13 -31t31 -13t31 13t13 31t-13 31t-31 13t-31 -13z" />
    <glyph glyph-name="AEacute" unicode="&#x1fc;" horiz-adv-x="986" 
d="M921 86v-86h-420v149h-286l-105 -149h-120l512 700h419v-86h-324v-210h324v-86h-324v-232h324zM501 556l-226 -321h226v321zM677 932l52 -66l-175 -126l-42 54z" />
    <glyph glyph-name="aeacute" unicode="&#x1fd;" horiz-adv-x="891" 
d="M471 300h284q-3 54 -41 94q-37 40 -92 40q-57 0 -96.5 -36.5t-54.5 -97.5zM392 140q-16 42 -19 88q-45 9 -86 9q-144 0 -144 -90q0 -41 26.5 -62t72.5 -21q81 0 150 76zM774 147l66 -42q-74 -117 -219 -117q-125 0 -193 86q-74 -86 -197 -86q-78 0 -127.5 39.5
t-49.5 112.5q0 61 34 99q58 67 189 67q45 0 100 -11v18q0 120 -118 120q-79 0 -159 -44l-27 76q99 47 197 47q128 0 171 -84q71 84 180 84q99 0 163 -66q65 -67 65 -167q0 -29 -4 -52h-381q5 -69 48 -115t113 -46q105 0 149 81zM520 777l66 -51l-134 -160l-55 42z" />
    <glyph glyph-name="Oslashacute" unicode="&#x1fe;" horiz-adv-x="840" 
d="M613 714l67 -42l-29 -43q61 -51 95 -124t34 -155q0 -150 -104 -257q-104 -105 -256 -105q-96 0 -173 43l-33 -49l-67 42l35 52q-58 51 -90 122t-32 152q0 150 104 256q103 106 256 106q88 0 165 -40zM678 350q0 122 -79 202l-302 -447q55 -31 123 -31q111 0 184 79
q74 80 74 197zM162 350q0 -119 73 -196l300 445q-54 27 -115 27q-111 0 -185 -80q-73 -79 -73 -196zM522 932l52 -66l-175 -126l-42 54z" />
    <glyph glyph-name="oslashacute" unicode="&#x1ff;" horiz-adv-x="594" 
d="M438 521l54 -35l-26 -38q86 -78 86 -198q0 -110 -73 -186t-182 -76q-65 0 -122 30l-26 -39l-54 35l28 42q-81 76 -81 194q0 110 73 186t182 76q64 0 116 -28zM459 250q0 73 -44 123l-191 -283q31 -18 73 -18q70 0 116 52t46 126zM135 250q0 -70 39 -119l190 281
q-31 16 -67 16q-70 0 -116 -52t-46 -126zM372 777l66 -51l-134 -160l-55 42z" />
    <glyph glyph-name="Scommaaccent" unicode="&#x218;" horiz-adv-x="609" 
d="M517 640l-59 -70q-27 24 -67.5 40t-79.5 16q-57 0 -91 -26t-34 -71q0 -30 28 -58q12 -10 34 -20l38 -17l46 -16q42 -15 76 -31q35 -16 65 -38q71 -49 71 -143q0 -56 -23 -100t-60 -68.5t-78.5 -37t-84.5 -12.5q-146 0 -253 105l68 64q47 -46 89 -64.5t97 -18.5
q63 0 103 31.5t40 89.5q0 56 -49 85q-34 20 -107 47q-83 30 -133 65q-64 48 -64 127q0 93 60 143q61 50 151 50q122 0 217 -72zM308 -56l-46 -175h-75l36 175h85z" />
    <glyph glyph-name="scommaaccent" unicode="&#x219;" horiz-adv-x="451" 
d="M382 457l-54 -58q-43 37 -99 37q-34 0 -54.5 -18t-20.5 -48q0 -18 16 -33q20 -19 80 -43t96 -51q50 -35 50 -98q0 -79 -52 -118t-129 -39q-112 0 -172 78l64 51q50 -53 109 -53q40 0 65 20.5t25 56.5q0 18 -16 33q-14 15 -28.5 22.5t-51.5 21.5q-26 10 -52 22
q-15 7 -43 25q-48 35 -48 98q0 72 47 110q46 39 114 39q93 0 154 -55zM243 -56l-46 -175h-75l36 175h85z" />
    <glyph glyph-name="uni021A" unicode="&#x21a;" horiz-adv-x="488" 
d="M282 -56l-46 -175h-75l36 175h85zM468 700v-86h-176v-614h-96v614h-176v86h448z" />
    <glyph glyph-name="uni021B" unicode="&#x21b;" horiz-adv-x="346" 
d="M320 500v-80h-140v-226q0 -29 1 -39q2 -43 18.5 -63.5t51.5 -20.5q26 0 56 14l25 -73q-41 -22 -93 -22q-99 0 -134 78q-16 36 -16 104v248h-67v80h67v120h91v-120h140zM224 -56l-46 -175h-75l36 175h85z" />
    <glyph glyph-name="dotlessj" unicode="&#x237;" horiz-adv-x="267" 
d="M92 500h91v-544q0 -58 -14 -95q-32 -83 -133 -83q-56 0 -96 22l26 74q26 -14 56 -14q42 0 56 26t14 88v526z" />
    <glyph glyph-name="apostrophe" unicode="&#x2bc;" horiz-adv-x="360" 
d="M115 500l39 212h99l-58 -212h-80z" />
    <glyph glyph-name="circumflex" unicode="&#x2c6;" horiz-adv-x="360" 
d="M224 759l102 -157l-53 -36l-93 129l-93 -129l-55 36l104 157h88z" />
    <glyph glyph-name="caron" unicode="&#x2c7;" horiz-adv-x="360" 
d="M134 569l-102 157l54 36l93 -129l93 129l54 -36l-104 -157h-88z" />
    <glyph glyph-name="uni02C9" unicode="&#x2c9;" horiz-adv-x="360" 
d="M328 678v-70h-296v70h296z" />
    <glyph glyph-name="breve" unicode="&#x2d8;" horiz-adv-x="360" 
d="M259 711v14h64v-14q0 -60 -42 -102q-41 -41 -101 -41q-59 0 -102 41q-41 43 -41 102v14h66v-14q0 -33 22 -56t55 -23q32 0 55.5 23t23.5 56z" />
    <glyph glyph-name="dotaccent" unicode="&#x2d9;" horiz-adv-x="360" 
d="M226 700v-102h-91v102h91z" />
    <glyph glyph-name="ring" unicode="&#x2da;" horiz-adv-x="360" 
d="M114 607q-27 28 -27 66t27 65q28 28 66 28t65 -28q28 -27 28 -65t-28 -66q-27 -27 -65 -27t-66 27zM149 704q-13 -13 -13 -31t13 -31t31 -13t31 13t13 31t-13 31t-31 13t-31 -13z" />
    <glyph glyph-name="ogonek" unicode="&#x2db;" horiz-adv-x="360" 
d="M161 12l69 -7l4 -5q-49 -15 -76 -45t-27 -65q0 -44 42 -44q21 0 44 14l32 -51q-34 -31 -89 -31q-47 0 -79 27.5t-32 71.5q0 92 112 135z" />
    <glyph glyph-name="tilde" unicode="&#x2dc;" horiz-adv-x="360" 
d="M286 693l65 7q2 -16 2 -23q0 -42 -27.5 -68.5t-70.5 -26.5q-38 0 -84 32t-64 32q-31 0 -33 -30q0 -8 1 -10l-65 -7q-2 16 -2 23q0 42 27.5 68.5t70.5 26.5q37 0 83 -32q47 -32 65 -32q32 0 33 30q0 8 -1 10z" />
    <glyph glyph-name="hungarumlaut" unicode="&#x2dd;" horiz-adv-x="360" 
d="M322 777l66 -51l-135 -161l-56 43zM168 793l67 -52l-140 -166l-55 40z" />
    <glyph glyph-name="uni0394" unicode="&#x394;" 
d="M322 570l218 -570h-531l221 570h92zM136 81h271l-134 368h-2z" />
    <glyph glyph-name="uni03A9" unicode="&#x3a9;" horiz-adv-x="794" 
d="M20 0v86h184q-76 53 -115 127.5t-39 157.5q0 90 39 166t120 125.5t188 49.5t188 -49.5t120 -125.5t39 -166q0 -83 -39 -157.5t-115 -127.5h184v-86h-318v94q87 30 136 107t49 168q0 108 -62 182q-61 75 -182 75t-182 -75q-62 -74 -62 -182q0 -90 48 -168q50 -78 137 -107
v-94h-318z" />
    <glyph glyph-name="uni03BC" unicode="&#x3bc;" 
d="M497 0h-91v82q-58 -94 -163 -94q-59 0 -99 22v-260h-91v750h91v-250q0 -61 8 -97q9 -39 33.5 -58.5t71.5 -22.5q41 0 81 26t68 70v332h91v-500z" />
    <glyph glyph-name="pi" unicode="&#x3c0;" 
d="M537 500v-80h-94v-244q0 -27 1 -34q2 -36 13 -54.5t35 -23.5l-38 -80q-91 22 -100 144q-2 32 -2 39v253h-171v-359q0 -24 -5 -61h-93q7 24 7 70v350h-60v80h507z" />
    <glyph glyph-name="Wgrave" unicode="&#x1e80;" horiz-adv-x="886" 
d="M400 700h90l140 -528h2l147 528h102l-200 -700h-96l-140 533h-2l-152 -533h-94l-192 700h106l140 -528h2zM512 794l-42 -54l-175 126l52 66z" />
    <glyph glyph-name="wgrave" unicode="&#x1e81;" horiz-adv-x="733" 
d="M321 500h98l101 -385h3l102 385h92l-144 -500h-98l-107 389h-2l-110 -389h-102l-138 500h98l94 -385h2zM419 608l-55 -42l-134 160l66 51z" />
    <glyph glyph-name="Wacute" unicode="&#x1e82;" horiz-adv-x="886" 
d="M400 700h90l140 -528h2l147 528h102l-200 -700h-96l-140 533h-2l-152 -533h-94l-192 700h106l140 -528h2zM547 932l52 -66l-175 -126l-42 54z" />
    <glyph glyph-name="wacute" unicode="&#x1e83;" horiz-adv-x="733" 
d="M321 500h98l101 -385h3l102 385h92l-144 -500h-98l-107 389h-2l-110 -389h-102l-138 500h98l94 -385h2zM441 777l66 -51l-134 -160l-55 42z" />
    <glyph glyph-name="Wdieresis" unicode="&#x1e84;" horiz-adv-x="886" 
d="M400 700h90l140 -528h2l147 528h102l-200 -700h-96l-140 533h-2l-152 -533h-94l-192 700h106l140 -528h2zM361 875v-111h-102v111h102zM631 875v-111h-102v111h102z" />
    <glyph glyph-name="wdieresis" unicode="&#x1e85;" horiz-adv-x="733" 
d="M321 500h98l101 -385h3l102 385h92l-144 -500h-98l-107 389h-2l-110 -389h-102l-138 500h98l94 -385h2zM315 700v-102h-93v102h93zM518 700v-102h-93v102h93z" />
    <glyph glyph-name="Ygrave" unicode="&#x1ef2;" horiz-adv-x="555" 
d="M324 299v-299h-96v304l-223 396h119l156 -294h3l155 294h112zM372 794l-42 -54l-175 126l52 66z" />
    <glyph glyph-name="ygrave" unicode="&#x1ef3;" horiz-adv-x="477" 
d="M189 15l-183 485h101l130 -379h2l133 379h99l-281 -725l-80 31zM316 608l-55 -42l-134 160l66 51z" />
    <glyph glyph-name="thinspace" unicode="&#x2009;" horiz-adv-x="125" 
 />
    <glyph glyph-name="endash" unicode="&#x2013;" horiz-adv-x="600" 
d="M550 350v-83h-500v83h500z" />
    <glyph glyph-name="emdash" unicode="&#x2014;" horiz-adv-x="900" 
d="M850 350v-83h-800v83h800z" />
    <glyph glyph-name="quoteleft" unicode="&#x2018;" horiz-adv-x="273" 
d="M126 700h87l-51 -250h-102z" />
    <glyph glyph-name="quoteright" unicode="&#x2019;" horiz-adv-x="273" 
d="M111 700h102l-66 -250h-87z" />
    <glyph glyph-name="quotesinglbase" unicode="&#x201a;" horiz-adv-x="273" 
d="M111 116h102l-66 -250h-87z" />
    <glyph glyph-name="quotedblleft" unicode="&#x201c;" horiz-adv-x="523" 
d="M356 700h87l-51 -250h-102zM146 700h87l-51 -250h-102z" />
    <glyph glyph-name="quotedblright" unicode="&#x201d;" horiz-adv-x="523" 
d="M131 700h102l-66 -250h-87zM341 700h102l-66 -250h-87z" />
    <glyph glyph-name="quotedblbase" unicode="&#x201e;" horiz-adv-x="523" 
d="M131 116h102l-66 -250h-87zM341 116h102l-66 -250h-87z" />
    <glyph glyph-name="dagger" unicode="&#x2020;" horiz-adv-x="412" 
d="M70 463v66h36l70 -3l-4 126v48h68v-48l-4 -126l70 3h36v-66h-36l-70 3l4 -167v-161h-68v161l4 167l-70 -3h-36z" />
    <glyph glyph-name="daggerdbl" unicode="&#x2021;" horiz-adv-x="412" 
d="M70 356v66h36l69 -3l-1 23v51l1 44l-69 -2h-36v66h36l69 -3l-3 66v36h68v-36l-3 -66l69 3h36v-66h-36l-69 2l1 -44v-51l-1 -23l69 3h36v-66h-36l-69 2l3 -77v-143h-68v143l3 77l-69 -2h-36z" />
    <glyph glyph-name="bullet" unicode="&#x2022;" horiz-adv-x="318" 
d="M71 201q-36 36 -36 88t36 88t88 36t88 -36t36 -88t-36 -88t-88 -36t-88 36z" />
    <glyph glyph-name="ellipsis" unicode="&#x2026;" horiz-adv-x="750" 
d="M177 116v-116h-105v116h105zM677 116v-116h-105v116h105zM427 116v-116h-105v116h105z" />
    <glyph glyph-name="perthousand" unicode="&#x2030;" horiz-adv-x="1236" 
d="M1178 153q0 -67 -46 -113t-113 -46q-68 0 -114 46t-46 113t46 113q47 47 114 47q66 0 113 -47q46 -46 46 -113zM1020 242q-37 0 -61.5 -25t-24.5 -63t24.5 -63.5t61.5 -25.5q35 0 59 25.5t24 63.5q0 37 -24 62.5t-59 25.5zM377 546q0 -67 -46 -113t-113 -46
q-68 0 -114 46t-46 113t46 113q47 47 114 47q66 0 113 -47q46 -46 46 -113zM219 635q-37 0 -61.5 -25t-24.5 -63t24.5 -63.5t61.5 -25.5q35 0 59 25.5t24 63.5q0 37 -24 62.5t-59 25.5zM792 153q0 -67 -46 -113t-113 -46q-68 0 -114 46t-46 113t46 113q47 47 114 47
q66 0 113 -47q46 -46 46 -113zM634 242q-37 0 -61.5 -25t-24.5 -63t24.5 -63.5t61.5 -25.5q35 0 59 25.5t24 63.5q0 37 -24 62.5t-59 25.5zM151 28l497 684l55 -40l-497 -684z" />
    <glyph glyph-name="guilsinglleft" unicode="&#x2039;" horiz-adv-x="309" 
d="M60 213v119l145 150l44 -88l-127 -122l127 -121l-44 -88z" />
    <glyph glyph-name="guilsinglright" unicode="&#x203a;" horiz-adv-x="309" 
d="M60 393l44 88l145 -150v-119l-145 -150l-44 88l127 121z" />
    <glyph glyph-name="fraction" unicode="&#x2044;" horiz-adv-x="132" 
d="M-210 28l497 684l55 -40l-497 -684z" />
    <glyph glyph-name="zerosuperior" unicode="&#x2070;" horiz-adv-x="338" 
d="M241 568q0 144 -72 144t-72 -144q0 -143 72 -143t72 143zM61 720q39 55 108 55q70 0 107 -55q39 -56 39 -152q0 -97 -39 -152q-38 -54 -107 -54t-108 54q-38 56 -38 152t38 152z" />
    <glyph glyph-name="foursuperior" unicode="&#x2074;" horiz-adv-x="334" 
d="M20 470v67q17 21 172 233h73v-239h58v-61h-58v-103h-71v103h-174zM96 531h98v142q-58 -92 -98 -142z" />
    <glyph glyph-name="fivesuperior" unicode="&#x2075;" horiz-adv-x="315" 
d="M269 770v-62h-144q-2 -45 -7 -96q21 10 52 10q50 0 84 -36q35 -35 35 -86q0 -59 -40 -99q-39 -39 -98 -39q-42 0 -77.5 20t-53.5 55l60 31q19 -43 67 -43q30 0 49 20.5t19 50.5q0 28 -19 46.5t-48 18.5q-35 0 -56 -25l-49 32q8 77 13 202h213z" />
    <glyph glyph-name="sixsuperior" unicode="&#x2076;" horiz-adv-x="332" 
d="M229 792l26 -59q-117 -50 -146 -137q32 29 77 29q54 0 88 -37q35 -38 35 -91q0 -56 -38 -96q-37 -39 -96 -39q-69 0 -111 47q-41 49 -41 115q0 92 58 162t148 106zM170 564q-47 0 -73 -41q0 -45 18 -72.5t55 -27.5q29 0 47 20.5t18 51.5t-18 50t-47 19z" />
    <glyph glyph-name="sevensuperior" unicode="&#x2077;" horiz-adv-x="279" 
d="M6 770h262v-48q-84 -175 -164 -367l-65 29q29 69 147 323h-180v63z" />
    <glyph glyph-name="eightsuperior" unicode="&#x2078;" horiz-adv-x="345" 
d="M301 665q0 -54 -50 -86q61 -34 61 -99q0 -51 -39.5 -84.5t-99.5 -33.5q-61 0 -101 34q-39 34 -39 84q0 65 61 99q-49 31 -49 86q0 48 36 79t92 31t92 -31t36 -79zM107 484q0 -25 19.5 -42.5t46.5 -17.5t46 17.5t19 42.5q0 26 -19 43.5t-46 17.5t-46.5 -17.5t-19.5 -43.5z
M212 698q-16 15 -39 15t-40 -15q-16 -15 -16 -37t16 -38q17 -16 40 -16t39 16q17 16 17 38t-17 37z" />
    <glyph glyph-name="ninesuperior" unicode="&#x2079;" horiz-adv-x="332" 
d="M103 345l-26 59q117 50 146 137q-32 -29 -77 -29q-54 0 -88 37q-35 38 -35 91q0 56 38 96q37 39 96 39q70 0 110 -48q42 -47 42 -114q0 -92 -58 -162t-148 -106zM162 573q47 0 73 41q0 45 -18 72.5t-55 27.5q-29 0 -47 -20.5t-18 -51.5t18 -50t47 -19z" />
    <glyph glyph-name="plussuperior" unicode="&#x207a;" horiz-adv-x="334" 
d="M197 403h-61v120h-119v61h119v120h61v-120h120v-61h-120v-120z" />
    <glyph glyph-name="minussuperior" unicode="&#x207b;" horiz-adv-x="341" 
d="M31 523v61h279v-61h-279z" />
    <glyph glyph-name="equalsuperior" unicode="&#x207c;" horiz-adv-x="341" 
d="M31 578v60h279v-60h-279zM31 469v61h279v-61h-279z" />
    <glyph glyph-name="parenleftsuperior" unicode="&#x207d;" horiz-adv-x="217" 
d="M221 312l-25 -50q-167 102 -167 289q0 183 167 287l26 -50q-123 -80 -123 -237q0 -161 122 -239z" />
    <glyph glyph-name="parenrightsuperior" unicode="&#x207e;" horiz-adv-x="217" 
d="M20 262l-25 50q123 78 123 239q0 156 -123 237l26 50q167 -104 167 -287q0 -187 -168 -289z" />
    <glyph glyph-name="zeroinferior" unicode="&#x2080;" horiz-adv-x="337" 
d="M241 24q0 144 -72 144t-72 -144q0 -143 72 -143t72 143zM61 176q39 55 108 55q70 0 107 -55q39 -56 39 -152q0 -97 -39 -151q-37 -55 -107 -55q-69 0 -108 55q-38 55 -38 151t38 152z" />
    <glyph glyph-name="oneinferior" unicode="&#x2081;" horiz-adv-x="216" 
d="M162 225v-403h-72v319l-58 -26v66l83 44h47z" />
    <glyph glyph-name="twoinferior" unicode="&#x2082;" horiz-adv-x="319" 
d="M38 -178v58q78 81 137 164q32 44 32 77q0 21 -15.5 34t-37.5 13q-23 0 -38 -16t-15 -42l-72 12q4 47 41 77.5t86 30.5q50 0 87 -30q38 -30 38 -78q0 -52 -41 -111q-36 -51 -106 -127h165v-62h-261z" />
    <glyph glyph-name="threeinferior" unicode="&#x2083;" horiz-adv-x="319" 
d="M98 -5v64q38 1 51 6q21 5 34 19t13 33q0 22 -16 36.5t-41 14.5q-47 0 -57 -42l-60 26q12 36 43.5 57t73.5 21q56 0 93 -30t37 -77q0 -26 -13.5 -49.5t-35.5 -35.5q30 -11 49 -38t19 -60q0 -56 -39.5 -89.5t-99.5 -33.5q-43 0 -79 20t-53 56l59 29q22 -43 72 -43
q28 0 47 15.5t19 42.5q0 29 -22 45.5t-56 16.5q-25 0 -38 -4z" />
    <glyph glyph-name="fourinferior" unicode="&#x2084;" horiz-adv-x="334" 
d="M20 -75v67q17 21 172 233h73v-239h58v-61h-58v-103h-71v103h-174zM96 -14h98v142q-58 -92 -98 -142z" />
    <glyph glyph-name="fiveinferior" unicode="&#x2085;" horiz-adv-x="315" 
d="M269 225v-62h-144q-2 -45 -7 -96q21 10 52 10q50 0 84 -36q35 -35 35 -86q0 -59 -40 -98q-39 -40 -98 -40q-42 0 -77.5 20t-53.5 55l60 31q19 -43 67 -43q30 0 49 20.5t19 50.5q0 28 -19 46.5t-48 18.5q-35 0 -56 -25l-49 32q8 77 13 202h213z" />
    <glyph glyph-name="sixinferior" unicode="&#x2086;" horiz-adv-x="330" 
d="M228 247l26 -59q-117 -50 -146 -137q32 29 77 29q54 0 88 -37q35 -38 35 -91q0 -56 -38 -96q-38 -39 -96 -39q-69 0 -111 48q-41 47 -41 114q0 92 58 162t148 106zM169 19q-47 0 -73 -41q0 -45 18 -72.5t55 -27.5q29 0 47 20.5t18 51.5t-18 50t-47 19z" />
    <glyph glyph-name="seveninferior" unicode="&#x2087;" horiz-adv-x="279" 
d="M6 225h262v-48q-84 -175 -164 -367l-65 29q29 70 147 323h-180v63z" />
    <glyph glyph-name="eightinferior" unicode="&#x2088;" horiz-adv-x="345" 
d="M301 120q0 -54 -50 -86q61 -34 61 -99q0 -51 -39.5 -84.5t-99.5 -33.5q-61 0 -101 34q-39 35 -39 84q0 65 61 99q-49 31 -49 86q0 48 36 79t92 31t92 -31t36 -79zM107 -61q0 -25 19.5 -42.5t46.5 -17.5t46 17.5t19 42.5q0 26 -19 43.5t-46 17.5t-46.5 -17.5t-19.5 -43.5z
M212 153q-16 15 -39 15t-40 -15q-16 -15 -16 -37t16 -38q17 -16 40 -16t39 16q17 16 17 38t-17 37z" />
    <glyph glyph-name="nineinferior" unicode="&#x2089;" horiz-adv-x="330" 
d="M103 -200l-26 59q117 50 146 137q-32 -29 -77 -29q-54 0 -88 37q-35 38 -35 91q0 56 38 96q37 39 96 39q70 0 110 -48q42 -46 42 -114q0 -92 -58 -162t-148 -106zM162 28q47 0 73 41q0 45 -18 72.5t-55 27.5q-29 0 -47 -20.5t-18 -51.5t18 -50t47 -19z" />
    <glyph glyph-name="parenleftinferior" unicode="&#x208d;" horiz-adv-x="217" 
d="M221 -233l-25 -50q-167 102 -167 289q0 183 167 287l26 -50q-123 -79 -123 -237q0 -161 122 -239z" />
    <glyph glyph-name="parenrightinferior" unicode="&#x208e;" horiz-adv-x="217" 
d="M20 -283l-25 50q123 78 123 239q0 156 -123 237l26 50q167 -104 167 -287q0 -187 -168 -289z" />
    <glyph glyph-name="Euro" unicode="&#x20ac;" horiz-adv-x="650" 
d="M85 374h-75v74h90q31 104 117 166t206 62q105 0 188 -51l-43 -74q-61 39 -145 39q-81 0 -139 -37t-85 -105h272v-74h-291q-2 -38 -2 -42q0 -22 2 -40h291v-74h-273q27 -69 85 -106.5t140 -37.5q89 0 156 46l50 -70q-92 -62 -206 -62q-122 0 -207 61t-117 169h-89v74h75
q-2 34 -2 40q0 4 2 42z" />
    <glyph glyph-name="afii61352" unicode="&#x2116;" horiz-adv-x="1129" 
d="M660 700v-700h-85l-384 522v-522h-96v700h84l385 -522v522h96zM799 660q49 52 125 52t125 -52q50 -52 50 -126t-50 -127q-49 -51 -125 -51t-125 51q-50 53 -50 127t50 126zM996 453q29 34 29 81q0 48 -29 80q-28 33 -72 33t-73 -33q-28 -31 -28 -80t28 -81q29 -32 73 -32
q43 0 72 32z" />
    <glyph glyph-name="trademark" unicode="&#x2122;" horiz-adv-x="979" 
d="M350 700v-66h-98v-340h-74v340h-98v66h270zM825 294v322l-131 -322h-70l-129 321v-321h-74v406h117l121 -312l123 312h117v-406h-74z" />
    <glyph glyph-name="Omega" unicode="&#x2126;" horiz-adv-x="794" 
d="M20 0v86h184q-76 53 -115 127.5t-39 157.5q0 90 39 166t120 125.5t188 49.5t188 -49.5t120 -125.5t39 -166q0 -83 -39 -157.5t-115 -127.5h184v-86h-318v94q87 30 136 107t49 168q0 108 -62 182q-61 75 -182 75t-182 -75q-62 -74 -62 -182q0 -90 48 -168q50 -78 137 -107
v-94h-318z" />
    <glyph glyph-name="onethird" unicode="&#x2153;" horiz-adv-x="770" 
d="M517 152v60q32 0 45 4q41 11 41 47q0 19 -14 31t-37 12q-39 0 -48 -38l-59 26q12 33 41.5 52t66.5 19q51 0 85.5 -27.5t34.5 -69.5q0 -51 -45 -76q28 -10 45 -34t17 -55q0 -49 -36.5 -79.5t-91.5 -30.5q-87 0 -122 71l58 27q18 -40 64 -40q25 0 41 14t16 37
q0 24 -19.5 38.5t-50.5 14.5q-20 0 -32 -3zM80 28l497 684l55 -40l-497 -684zM224 700v-362h-69v283q-34 -16 -53 -23v62l32 16l45 24h45z" />
    <glyph glyph-name="twothirds" unicode="&#x2154;" horiz-adv-x="858" 
d="M605 152v60q32 0 45 4q41 11 41 47q0 19 -14 31t-37 12q-39 0 -48 -38l-59 26q12 33 41.5 52t66.5 19q51 0 85.5 -27.5t34.5 -69.5q0 -51 -45 -76q28 -10 45 -34t17 -55q0 -49 -36.5 -79.5t-91.5 -30.5q-87 0 -122 71l58 27q18 -40 64 -40q25 0 41 14t16 37
q0 24 -19.5 38.5t-50.5 14.5q-20 0 -32 -3zM88 341v53q74 75 125 147q28 37 28 67q3 28 -29 37q-33 9 -52 -13q-13 -14 -11 -36l-69 12q3 43 37 71t81 28q46 0 80 -28q35 -27 35 -71t-39 -99q-29 -43 -93 -110h147v-58h-240zM168 28l497 684l55 -40l-497 -684z" />
    <glyph glyph-name="oneeighth" unicode="&#x215b;" horiz-adv-x="784" 
d="M650 188q54 -28 54 -89q0 -45 -36 -75.5t-91 -30.5q-56 0 -91.5 30.5t-35.5 75.5q0 57 54 89q-45 28 -45 77q0 42 33.5 71t84.5 29t84.5 -29t33.5 -71q0 -49 -45 -77zM577 214q20 0 34.5 14t14.5 33q0 20 -14.5 33.5t-34.5 13.5q-21 0 -35 -13.5t-14 -33.5t14 -33.5
t35 -13.5zM536 141q-16 -15 -16 -38t16 -38t41 -15t41 15t16 38t-16 38q-16 16 -41 16t-41 -16zM80 28l497 684l55 -40l-497 -684zM224 700v-362h-69v283q-34 -16 -53 -23v62l32 16l45 24h45z" />
    <glyph glyph-name="threeeighths" unicode="&#x215c;" horiz-adv-x="851" 
d="M717 188q54 -28 54 -89q0 -45 -36 -75.5t-91 -30.5q-56 0 -91.5 30.5t-35.5 75.5q0 57 54 89q-45 28 -45 77q0 42 33.5 71t84.5 29t84.5 -29t33.5 -71q0 -49 -45 -77zM644 214q20 0 34.5 14t14.5 33q0 20 -14.5 33.5t-34.5 13.5q-21 0 -35 -13.5t-14 -33.5t14 -33.5
t35 -13.5zM603 141q-16 -15 -16 -38t16 -38t41 -15t41 15t16 38t-16 38q-16 16 -41 16t-41 -16zM157 494v60q32 0 45 4q41 11 41 47q0 19 -14 31t-37 12q-39 0 -48 -38l-59 26q12 33 41.5 52t66.5 19q51 0 85.5 -27.5t34.5 -69.5q0 -51 -45 -76q28 -10 45 -34t17 -55
q0 -49 -36.5 -79.5t-91.5 -30.5q-87 0 -122 71l58 27q18 -40 64 -40q25 0 41 14t16 37q0 24 -19.5 38.5t-50.5 14.5q-20 0 -32 -3zM147 28l497 684l55 -40l-497 -684z" />
    <glyph glyph-name="fiveeighths" unicode="&#x215d;" horiz-adv-x="838" 
d="M704 188q54 -28 54 -89q0 -45 -36 -75.5t-91 -30.5q-56 0 -91.5 30.5t-35.5 75.5q0 57 54 89q-45 28 -45 77q0 42 33.5 71t84.5 29t84.5 -29t33.5 -71q0 -49 -45 -77zM631 214q20 0 34.5 14t14.5 33q0 20 -14.5 33.5t-34.5 13.5q-21 0 -35 -13.5t-14 -33.5t14 -33.5
t35 -13.5zM590 141q-16 -15 -16 -38t16 -38t41 -15t41 15t16 38t-16 38q-16 16 -41 16t-41 -16zM310 700v-58h-130q0 -4 -6 -83q18 9 46 9q45 0 76 -32.5t31 -77.5q0 -53 -36 -88t-90 -35q-85 0 -121 68l58 29q16 -39 60 -39q27 0 42.5 17t15.5 44q0 25 -16.5 41t-41.5 16
q-30 0 -50 -23l-45 31q7 81 12 181h195zM134 28l497 684l55 -40l-497 -684z" />
    <glyph glyph-name="seveneighths" unicode="&#x215e;" horiz-adv-x="784" 
d="M650 188q54 -28 54 -89q0 -45 -36 -75.5t-91 -30.5q-56 0 -91.5 30.5t-35.5 75.5q0 57 54 89q-45 28 -45 77q0 42 33.5 71t84.5 29t84.5 -29t33.5 -71q0 -49 -45 -77zM577 214q20 0 34.5 14t14.5 33q0 20 -14.5 33.5t-34.5 13.5q-21 0 -35 -13.5t-14 -33.5t14 -33.5
t35 -13.5zM536 141q-16 -15 -16 -38t16 -38t41 -15t41 15t16 38t-16 38q-16 16 -41 16t-41 -16zM332 700v-44q-77 -158 -149 -331l-63 29q55 125 136 287h-165v59h241zM80 28l497 684l55 -40l-497 -684z" />
    <glyph glyph-name="uni2192" unicode="&#x2192;" horiz-adv-x="947" 
d="M877 264l-293 -292l-51 52l207 204h-670v72h670l-207 204l51 51z" />
    <glyph glyph-name="uni2194" unicode="&#x2194;" horiz-adv-x="1117" 
d="M363 555l51 -51l-208 -204h704l-207 204l51 51l293 -291l-293 -292l-51 52l207 204h-704l208 -204l-51 -52l-293 292z" />
    <glyph glyph-name="uni21D2" unicode="&#x21d2;" horiz-adv-x="947" 
d="M740 228l37 36l-37 36h-670v72h597l-134 132l51 51l293 -291l-293 -292l-51 52l134 132h-597v72h670z" />
    <glyph glyph-name="uni21D4" unicode="&#x21d4;" horiz-adv-x="1228" 
d="M363 555l51 -51l-135 -132h669l-134 132l51 51l293 -291l-293 -292l-51 52l134 132h-668l134 -132l-51 -52l-293 292zM1021 228l37 36l-37 36h-815l-36 -36l36 -36h815z" />
    <glyph glyph-name="uni21FD" unicode="&#x21fd;" horiz-adv-x="948" 
d="M70 264l281 278v-242h527v-72h-527v-243zM280 373l-112 -109l112 -111v220z" />
    <glyph glyph-name="uni21FE" unicode="&#x21fe;" horiz-adv-x="947" 
d="M877 264l-280 -279v243h-527v72h527v242zM667 373v-220l112 111z" />
    <glyph glyph-name="uni21FF" unicode="&#x21ff;" horiz-adv-x="1228" 
d="M70 264l281 278v-242h527v242l280 -278l-280 -279v243h-527v-243zM280 373l-112 -109l112 -111v220zM948 373v-220l112 111z" />
    <glyph glyph-name="uni2200" unicode="&#x2200;" horiz-adv-x="653" 
d="M283 0l-268 700h111l55 -149h298l54 149h105l-271 -700h-84zM329 146h1l117 319h-235z" />
    <glyph glyph-name="partialdiff" unicode="&#x2202;" 
d="M32 699l32 78q236 -98 353 -224q119 -127 119 -308q0 -110 -71 -184q-70 -73 -192 -73q-111 0 -183 78q-71 80 -71 185t70 176q70 73 178 73q48 0 95 -16q-90 114 -330 215zM415 394q-51 23 -104 23q-92 0 -145.5 -42t-53.5 -122q0 -73 47 -128q48 -53 121 -53t118 49
t45 119q0 85 -28 154z" />
    <glyph glyph-name="uni2203" unicode="&#x2203;" horiz-adv-x="580" 
d="M65 614v86h420v-700h-420v86h324v210h-324v86h324v232h-324z" />
    <glyph glyph-name="uni2204" unicode="&#x2204;" horiz-adv-x="580" 
d="M65 614v86h242l24 82l76 -20l-18 -62h96v-700h-297l-23 -82l-76 20l18 62h-42v86h66l60 210h-126v86h151l66 232h-217zM389 86v210h-116l-60 -210h176zM389 382v232h-25l-66 -232h91z" />
    <glyph glyph-name="increment" unicode="&#x2206;" horiz-adv-x="633" 
d="M360 700l268 -700h-623l271 700h84zM141 86h344l-171 468h-1z" />
    <glyph glyph-name="uni2208" unicode="&#x2208;" 
d="M486 80v-80h-119q-159 0 -238 66t-79 184t79 184t238 66h119v-80h-142q-86 0 -136 -35t-63 -95h341v-80h-341q12 -61 62 -95.5t137 -34.5h142z" />
    <glyph glyph-name="uni2209" unicode="&#x2209;" 
d="M329 499l38 133l76 -20l-32 -112h75v-80h-98l-37 -130h135v-80h-158l-36 -127q24 -3 52 -3h142v-80h-119q-59 0 -97 7l-40 -139l-76 20l40 140q-144 58 -144 222q0 111 69.5 176t209.5 73zM145 290h124l36 128q-68 -8 -109 -42t-51 -86zM217 109l29 101h-101
q14 -68 72 -101z" />
    <glyph glyph-name="product" unicode="&#x220f;" 
d="M543 570v-86h-90v-484h-96v484h-164v-484h-96v484h-90v86h536z" />
    <glyph glyph-name="summation" unicode="&#x2211;" 
d="M184 614l212 -249l-218 -279h354v-86h-512v51l255 311l-244 286v52h476v-86h-323z" />
    <glyph glyph-name="minus" unicode="&#x2212;" 
d="M54 272v78h441v-78h-441z" />
    <glyph glyph-name="uni2215" unicode="&#x2215;" horiz-adv-x="363" 
d="M292 762l71 -27l-292 -788l-71 27z" />
    <glyph glyph-name="uni2219" unicode="&#x2219;" 
d="M327 369v-116h-105v116h105z" />
    <glyph glyph-name="radical" unicode="&#x221a;" 
d="M452 750h98l-242 -750h-95l-127 419h-86v81h164l99 -381h2z" />
    <glyph glyph-name="infinity" unicode="&#x221e;" horiz-adv-x="778" 
d="M738 246q0 -68 -49 -116q-48 -48 -118 -48q-45 0 -85.5 24.5t-96.5 83.5q-58 -59 -98 -83.5t-84 -24.5q-69 0 -119 48q-48 50 -48 118t48 116q50 48 119 48q44 0 84 -24.5t98 -83.5q56 59 96.5 83.5t85.5 24.5q70 0 118 -49q49 -48 49 -117zM571 159q34 0 57 26t23 62
t-23.5 62t-56.5 26q-48 0 -130 -88q81 -88 130 -88zM207 335q-34 0 -57 -26t-23 -62t23.5 -62t56.5 -26q48 0 130 88q-81 88 -130 88z" />
    <glyph glyph-name="uni2229" unicode="&#x2229;" 
d="M130 0h-80v195q0 164 56 240.5t169 76.5t169 -76.5t56 -240.5v-195h-80v229q0 203 -145 203t-145 -203v-229z" />
    <glyph glyph-name="uni222A" unicode="&#x222a;" 
d="M420 500h80v-195q0 -164 -56 -240.5t-169 -76.5t-169 76.5t-56 240.5v195h80v-229q0 -203 145 -203t145 203v229z" />
    <glyph glyph-name="integral" unicode="&#x222b;" 
d="M493 740l-26 -76q-31 14 -62 14q-44 0 -62 -18q-17 -19 -20 -95l-26 -602q-4 -100 -43 -143q-38 -41 -109 -41q-38 0 -89 22l26 76q31 -14 52 -14q34 0 52 18q17 19 20 95l26 602q4 100 43 143q38 41 119 41q48 0 99 -22z" />
    <glyph glyph-name="uni2234" unicode="&#x2234;" 
d="M171 116v-116h-105v116h105zM485 116v-116h-105v116h105zM328 400v-116h-105v116h105z" />
    <glyph glyph-name="approxequal" unicode="&#x2248;" 
d="M438 443l57 -38q-37 -78 -132 -78q-36 0 -93 23t-85 23q-52 0 -74 -37l-57 38q38 78 132 78q36 0 93 -23t85 -23q52 0 74 37zM438 286l57 -38q-37 -78 -132 -78q-36 0 -93 23t-85 23q-52 0 -74 -37l-57 38q38 78 132 78q36 0 93 -23t85 -23q52 0 74 37z" />
    <glyph glyph-name="notequal" unicode="&#x2260;" 
d="M54 194v78h143l52 78h-195v78h248l105 156l62 -44l-76 -112h102v-78h-155l-52 -78h207v-78h-260l-105 -156l-61 44l75 112h-90z" />
    <glyph glyph-name="lessequal" unicode="&#x2264;" 
d="M525 142l-501 200v78l501 200v-78l-404 -161l404 -161v-78zM24 0v78h501v-78h-501z" />
    <glyph glyph-name="greaterequal" unicode="&#x2265;" 
d="M24 620l501 -200v-78l-501 -200v78l404 161l-404 161v78zM24 0v78h501v-78h-501z" />
    <glyph glyph-name="uni2282" unicode="&#x2282;" 
d="M486 80v-80h-119q-159 0 -238 66t-79 184t79 184t238 66h119v-80h-142q-101 0 -152 -46t-51 -124t51 -124t152 -46h142z" />
    <glyph glyph-name="uni2283" unicode="&#x2283;" 
d="M183 0h-119v80h142q101 0 152 46t51 124t-51 124t-152 46h-142v80h119q159 0 238 -66t79 -184t-79 -184t-238 -66z" />
    <glyph glyph-name="uni2284" unicode="&#x2284;" 
d="M329 499l38 133l76 -20l-32 -112h75v-80h-98l-96 -337q24 -3 52 -3h142v-80h-119q-59 0 -97 7l-40 -139l-76 20l40 140q-144 58 -144 222q0 111 69.5 176t209.5 73zM217 109l88 309q-81 -9 -122.5 -54t-41.5 -114q0 -98 76 -141z" />
    <glyph glyph-name="uni2285" unicode="&#x2285;" 
d="M280 492l40 140l76 -20l-41 -140q145 -58 145 -222q0 -111 -69.5 -176t-209.5 -73l-38 -133l-76 20l32 112h-75v80h98l96 336q-19 4 -52 4h-142v80h119q47 0 97 -8zM332 391l-88 -309q81 8 123 53.5t42 114.5q0 97 -77 141z" />
    <glyph glyph-name="uni2286" unicode="&#x2286;" 
d="M486 240v-80h-119q-159 0 -238 66t-79 184t79 184t238 66h119v-80h-142q-101 0 -152 -46t-51 -124t51 -124t152 -46h142zM486 0h-424v80h424v-80z" />
    <glyph glyph-name="uni2287" unicode="&#x2287;" 
d="M183 160h-119v80h142q101 0 152 46t51 124t-51 124t-152 46h-142v80h119q159 0 238 -66t79 -184t-79 -184t-238 -66zM488 0h-424v80h424v-80z" />
    <glyph glyph-name="uni22C4" unicode="&#x22c4;" 
d="M275 80l106 170l-106 170l-106 -170zM83 250l192 305l191 -305l-191 -305z" />
    <glyph glyph-name="triangle" unicode="&#x25b3;" horiz-adv-x="398" 
d="M60 459l308 -173l-308 -175v348z" />
    <glyph glyph-name="lozenge" unicode="&#x25ca;" 
d="M233 0l-196 350l196 350h85l196 -350l-196 -350h-85zM275 76l154 274l-154 274l-153 -274z" />
    <glyph glyph-name="circle" unicode="&#x25cb;" horiz-adv-x="366" 
d="M78 184q-43 43 -43 105q0 61 43 104q44 44 105 44q60 0 104 -44t44 -104q0 -61 -44 -105q-43 -43 -104 -43q-62 0 -105 43z" />
    <glyph glyph-name="uni25FB" unicode="&#x25fb;" 
d="M455 394v-360h-360v360h360zM383 322h-216v-216h216v216z" />
    <glyph glyph-name="commainferior" unicode="&#xf6e1;" horiz-adv-x="166" 
d="M45 -98h78l-42 -158h-68z" />
    <glyph glyph-name="commasuperior" unicode="&#xf6e2;" horiz-adv-x="166" 
d="M45 447h78l-42 -158h-68z" />
    <glyph glyph-name="hypheninferior" unicode="&#xf6e5;" horiz-adv-x="276" 
d="M216 24v-62h-156v62h156z" />
    <glyph glyph-name="hyphensuperior" unicode="&#xf6e6;" horiz-adv-x="276" 
d="M216 569v-62h-156v62h156z" />
    <glyph glyph-name="periodinferior" unicode="&#xf6e7;" horiz-adv-x="160" 
d="M119 -98v-80h-78v80h78z" />
    <glyph glyph-name="periodsuperior" unicode="&#xf6e8;" horiz-adv-x="160" 
d="M119 447v-80h-78v80h78z" />
    <glyph glyph-name="s_t" unicode="&#xfb06;" horiz-adv-x="797" 
d="M382 457l-54 -58q-43 37 -99 37q-34 0 -54.5 -18t-20.5 -48q0 -18 16 -33q20 -19 80 -43t96 -51q50 -35 50 -98q0 -79 -52 -118t-129 -39q-112 0 -172 78l64 51q50 -53 109 -53q40 0 65 20.5t25 56.5q0 18 -16 33q-14 15 -28.5 22.5t-51.5 21.5q-26 10 -52 22
q-15 7 -43 25q-48 35 -48 98q0 72 47 110q46 39 114 39q93 0 154 -55zM771 500v-80h-140v-226q0 -29 1 -39q2 -43 18.5 -63.5t51.5 -20.5q26 0 56 14l25 -73q-41 -22 -93 -22q-100 0 -134 78q-16 36 -16 104v248h-67v80h67v120h91v-120h140z" />
    <glyph glyph-name="CR" horiz-adv-x="333" 
 />
    <glyph glyph-name="M.salt" horiz-adv-x="835" 
d="M646 560l-198 -401h-62l-197 401v-560h-94v700h126l196 -405h1l197 405h125v-700h-94v560z" />
    <glyph glyph-name="trademark.salt" horiz-adv-x="881" 
d="M421 294v406h89l101 -214l103 214h87v-406h-74v271l-94 -189h-44l-94 189v-271h-74zM350 700v-66h-98v-340h-74v340h-98v66h270z" />
    <glyph glyph-name="hyphen.case" horiz-adv-x="460" 
d="M360 375v-82h-260v82h260z" />
    <glyph glyph-name="germandbls.cap" horiz-adv-x="1218" 
d="M1126 640l-59 -70q-27 24 -67.5 40t-79.5 16q-57 0 -91 -26t-34 -71q0 -30 28 -58q12 -10 34 -20l38 -17l46 -16q42 -15 76 -31q35 -16 65 -38q71 -49 71 -143q0 -56 -23 -100t-60 -68.5t-78.5 -37t-84.5 -12.5q-147 0 -253 105l68 64q47 -46 89 -64.5t97 -18.5
q63 0 103 31.5t40 89.5q0 56 -49 85q-34 20 -107 47q-83 30 -133 65q-64 48 -64 127q0 93 60 143q61 50 151 50q123 0 217 -72zM517 640l-59 -70q-27 24 -67.5 40t-79.5 16q-57 0 -91 -26t-34 -71q0 -30 28 -58q12 -10 34 -20l38 -17l46 -16q42 -15 76 -31q35 -16 65 -38
q71 -49 71 -143q0 -56 -23 -100t-60 -68.5t-78.5 -37t-84.5 -12.5q-146 0 -253 105l68 64q47 -46 89 -64.5t97 -18.5q63 0 103 31.5t40 89.5q0 56 -49 85q-34 20 -107 47q-83 30 -133 65q-64 48 -64 127q0 93 60 143q61 50 151 50q122 0 217 -72z" />
    <glyph glyph-name="idotaccent" horiz-adv-x="259" 
d="M175 500v-500h-91v500h91zM175 700v-102h-91v102h91z" />
    <glyph glyph-name="s_p" horiz-adv-x="1077" 
d="M382 457l-54 -58q-43 37 -99 37q-34 0 -54.5 -18t-20.5 -48q0 -18 16 -33q20 -19 80 -43t96 -51q50 -35 50 -98q0 -79 -52 -118t-129 -39q-112 0 -172 78l64 51q50 -53 109 -53q40 0 65 20.5t25 56.5q0 18 -16 33q-14 15 -28.5 22.5t-51.5 21.5q-26 10 -52 22
q-15 7 -43 25q-48 35 -48 98q0 72 47 110q46 39 114 39q93 0 154 -55zM535 -250v750h91v-67q26 38 68.5 58.5t90.5 20.5q108 0 178 -76q72 -77 72 -187q0 -103 -71 -183q-70 -78 -181 -78q-93 0 -157 66v-304h-91zM626 333v-185q24 -35 64 -55.5t81 -20.5q81 0 126 54
t45 125q0 72 -47 125q-46 52 -122 52q-46 0 -88 -26t-59 -69z" />
    <glyph glyph-name="c_t" horiz-adv-x="836" 
d="M810 500v-80h-140v-226q0 -29 1 -39q2 -43 18.5 -63.5t51.5 -20.5q26 0 56 14l25 -73q-41 -22 -93 -22q-99 0 -134 78q-16 36 -16 104v248h-67v80h67v120h91v-120h140zM406 107l45 -70q-59 -49 -153 -49q-110 0 -183 73t-73 189q0 110 76 186t185 76q77 0 141 -43
l-43 -75q-44 34 -102 34q-68 0 -116 -52t-48 -126q0 -80 48 -129q49 -49 117 -49q59 0 106 35z" />
    <glyph glyph-name="c_h" horiz-adv-x="1081" 
d="M559 750h91v-332q58 94 163 94q99 0 145 -63q45 -61 45 -189v-260h-91v250q0 98 -26 138q-27 40 -87 40q-41 0 -81 -26t-68 -70v-332h-91v750zM406 107l45 -70q-59 -49 -153 -49q-110 0 -183 73t-73 189q0 110 76 186t185 76q77 0 141 -43l-43 -75q-44 34 -102 34
q-68 0 -116 -52t-48 -126q0 -80 48 -129q49 -49 117 -49q59 0 106 35z" />
    <glyph glyph-name="c_k" horiz-adv-x="989" 
d="M791 296l192 -296h-111l-143 224l-79 -92v-132h-91v750h91v-500l2 -1l202 251h112zM406 107l45 -70q-59 -49 -153 -49q-110 0 -183 73t-73 189q0 110 76 186t185 76q77 0 141 -43l-43 -75q-44 34 -102 34q-68 0 -116 -52t-48 -126q0 -80 48 -129q49 -49 117 -49
q59 0 106 35z" />
    <glyph glyph-name="T_h" horiz-adv-x="1094" 
d="M572 750h91v-332q58 94 163 94q99 0 145 -63q45 -61 45 -189v-260h-91v250q0 98 -26 138q-27 40 -87 40q-41 0 -81 -26t-68 -70v-332h-91v750zM468 700v-86h-176v-614h-96v614h-176v86h448z" />
    <glyph glyph-name="a.sup" horiz-adv-x="340" 
d="M167 557q29 0 58 -7v8q0 67 -66 67q-47 0 -95 -27l-20 54q61 31 128 31q124 0 124 -129v-187h-63l-4 29q-30 -36 -87 -36q-49 0 -80 25.5t-31 70.5q0 51 37.5 76t98.5 25zM225 444v60q-29 6 -47 6q-33 0 -55 -13t-22 -38q0 -46 53 -46q36 0 71 31z" />
    <glyph glyph-name="b.sup" horiz-adv-x="385" 
d="M212 360q-63 0 -96 43l-3 -36h-65v450h71v-178q32 44 94 44q63 0 105 -47q43 -46 43 -115q0 -67 -43 -114q-42 -47 -106 -47zM199 620q-55 0 -80 -49v-109q29 -39 79 -39q41 0 65.5 28.5t24.5 70.5q0 41 -25 69.5t-64 28.5z" />
    <glyph glyph-name="c.sup" horiz-adv-x="294" 
d="M248 446l37 -51q-40 -35 -104 -35q-68 0 -113 45q-44 46 -44 116q0 69 46 115q47 47 114 47q56 0 99 -33l-36 -53q-29 23 -61 23q-37 0 -63 -29t-26 -70q0 -42 25.5 -70t62.5 -28q34 0 63 23z" />
    <glyph glyph-name="d.sup" horiz-adv-x="385" 
d="M337 367h-65l-4 40q-29 -47 -96 -47q-62 0 -106 47q-42 47 -42 115q0 65 42 113q43 48 107 48q57 0 93 -39v173h71v-450zM186 423q56 0 80 48v110q-30 39 -79 39q-41 0 -65.5 -29t-24.5 -71q0 -41 25 -69t64 -28z" />
    <glyph glyph-name="e.sup" horiz-adv-x="349" 
d="M269 466l49 -32q-50 -74 -139 -74q-69 0 -112 44.5t-43 114.5q0 71 45 117q45 47 111 47q62 0 103 -41q42 -40 42 -102q0 -17 -4 -37h-225q4 -37 27.5 -60.5t59.5 -23.5q57 0 86 47zM181 625q-63 0 -81 -70h152q-2 30 -22 50t-49 20z" />
    <glyph glyph-name="f.sup" horiz-adv-x="220" 
d="M237 809l-21 -57q-19 9 -41 9q-25 0 -33.5 -12.5t-8.5 -44.5v-29h80v-60h-80v-248h-71v248h-34v60h34v34q0 58 25 86.5t81 28.5q34 0 69 -15z" />
    <glyph glyph-name="g.sup" horiz-adv-x="381" 
d="M272 675h65v-292q0 -74 -42.5 -113t-112.5 -39q-80 0 -140 42l27 60q53 -39 111 -39q40 0 63 20.5t23 60.5v35q-33 -43 -94 -43q-63 0 -106 46q-42 47 -42 112t42 111q42 47 107 47q61 0 95 -43zM266 478v103q-30 39 -79 39q-41 0 -65.5 -27.5t-24.5 -68.5q0 -40 25 -67
t63 -27q57 0 81 48z" />
    <glyph glyph-name="h.sup" horiz-adv-x="371" 
d="M48 817h71v-184q36 50 95 50q113 0 113 -156v-160h-71v155q0 30 -3 47q-3 20 -17.5 35.5t-39.5 15.5q-47 0 -77 -48v-205h-71v450z" />
    <glyph glyph-name="i.sup" horiz-adv-x="167" 
d="M119 675v-308h-71v308h71zM119 794v-68h-71v68h71z" />
    <glyph glyph-name="j.sup" horiz-adv-x="184" 
d="M-27 245l20 57q18 -7 30 -7q42 0 42 56v324h71v-332q0 -55 -23.5 -83t-76.5 -28q-33 0 -63 13zM136 794v-68h-71v68h71z" />
    <glyph glyph-name="k.sup" horiz-adv-x="326" 
d="M48 817h71v-280h1l111 138h84l-110 -127l118 -181h-87l-79 125l-38 -45v-80h-71v450z" />
    <glyph glyph-name="l.sup" horiz-adv-x="167" 
d="M48 817h71v-450h-71v450z" />
    <glyph glyph-name="m.sup" horiz-adv-x="559" 
d="M119 578v-211h-71v308h65l3 -41q37 49 93 49q61 0 90 -54q37 54 105 54q111 0 111 -156v-160h-71v155q0 41 -8 65q-10 33 -50 33q-42 0 -72 -42q3 -22 3 -51v-160h-71v155q0 42 -7 65q-10 33 -49 33q-36 0 -71 -42z" />
    <glyph glyph-name="n.sup" horiz-adv-x="371" 
d="M119 572v-205h-71v308h65l3 -46q36 54 92 54q119 0 119 -154v-162h-71v159q0 40 -8 63q-10 31 -51 31q-48 0 -78 -48z" />
    <glyph glyph-name="o.sup" horiz-adv-x="367" 
d="M343 521q0 -69 -46 -115q-45 -46 -114 -46q-68 0 -114 46q-45 47 -45 115q0 69 45 115q45 47 114 47t114 -47q46 -46 46 -115zM270 521q0 42 -24.5 70.5t-62.5 28.5t-62 -28.5t-24 -70.5t24 -70t62 -28t62.5 28t24.5 70z" />
    <glyph glyph-name="p.sup" horiz-adv-x="385" 
d="M48 675h65l4 -39q30 47 96 47q63 0 105 -47q43 -46 43 -115q0 -67 -43 -114q-42 -47 -106 -47q-58 0 -93 38v-181h-71v458zM199 620q-55 0 -80 -49v-109q29 -39 79 -39q41 0 65.5 28.5t24.5 70.5q0 41 -25 69.5t-64 28.5z" />
    <glyph glyph-name="q.sup" horiz-adv-x="385" 
d="M173 683q61 0 95 -43l4 35h65v-458h-71v186q-31 -43 -94 -43q-62 0 -106 47q-42 47 -42 115q0 65 42 113q43 48 107 48zM186 423q56 0 80 48v110q-30 39 -79 39q-41 0 -65.5 -29t-24.5 -71q0 -41 25 -69t64 -28z" />
    <glyph glyph-name="r.sup" horiz-adv-x="227" 
d="M119 575v-208h-71v308h65l3 -44q30 52 75 52q19 0 37 -6l-16 -67q-13 7 -29 7q-41 0 -64 -42z" />
    <glyph glyph-name="s.sup" horiz-adv-x="288" 
d="M252 645l-40 -44q-26 25 -61 25q-17 0 -27.5 -8.5t-10.5 -22.5q0 -22 54 -43q30 -12 42 -20q19 -10 33.5 -30t14.5 -44q0 -46 -32.5 -72t-82.5 -26q-72 0 -117 51l44 41q35 -35 71 -35q21 0 33.5 9.5t12.5 27.5q0 10 -9 18q-8 9 -45 25q-36 15 -58 31q-29 22 -29 62
q0 43 29.5 68t75.5 25q61 0 102 -38z" />
    <glyph glyph-name="t.sup" horiz-adv-x="230" 
d="M198 431l21 -54q-29 -17 -65 -17q-96 0 -96 114v141h-39v60h39l8 71h63v-71h82v-60h-82v-128q-1 -22 0.5 -33t9.5 -20.5t24 -11.5q17 0 35 9z" />
    <glyph glyph-name="u.sup" horiz-adv-x="371" 
d="M252 470v205h71v-308h-65l-3 46q-36 -54 -92 -54q-119 0 -119 154v162h71v-159q0 -40 8 -64q11 -30 51 -30q48 0 78 48z" />
    <glyph glyph-name="v.sup" horiz-adv-x="308" 
d="M83 675l71 -212h1l71 212h78l-123 -308h-60l-117 308h79z" />
    <glyph glyph-name="w.sup" horiz-adv-x="451" 
d="M282 367l-56 204h-1l-58 -204h-78l-85 308h77l51 -212h1l60 212h68l55 -211h2l55 211h74l-90 -308h-75z" />
    <glyph glyph-name="x.sup" horiz-adv-x="330" 
d="M123 522l-110 153h90l67 -98l67 98h89l-115 -151l114 -157h-91l-70 103l-71 -103h-89z" />
    <glyph glyph-name="y.sup" horiz-adv-x="306" 
d="M82 674l70 -204h1l71 204h78l-172 -444l-64 24l48 127l-110 293h78z" />
    <glyph glyph-name="z.sup" horiz-adv-x="285" 
d="M33 367v33l126 215h-132v60h227v-31l-127 -216h137v-61h-231z" />
    <glyph glyph-name="minusinferior" horiz-adv-x="341" 
d="M31 -22v61h279v-61h-279z" />
    <glyph glyph-name="plusinferior" horiz-adv-x="334" 
d="M197 -142h-61v120h-119v61h119v120h61v-120h120v-61h-120v-120z" />
    <glyph glyph-name="equalinferior" horiz-adv-x="341" 
d="M31 33v60h279v-60h-279zM31 -76v61h279v-61h-279z" />
    <glyph glyph-name="a.sinf" horiz-adv-x="340" 
d="M167 12q29 0 58 -7v8q0 67 -66 67q-47 0 -95 -27l-20 54q61 31 128 31q124 0 124 -129v-187h-63l-4 29q-30 -36 -87 -36q-49 0 -80 25.5t-31 70.5q0 51 37.5 76t98.5 25zM225 -101v60q-29 6 -47 6q-33 0 -55 -13t-22 -38q0 -46 53 -46q36 0 71 31z" />
    <glyph glyph-name="b.sinf" horiz-adv-x="385" 
d="M212 -185q-63 0 -96 43l-3 -36h-65v450h71v-178q32 44 94 44q63 0 105 -47q43 -46 43 -115q0 -67 -43 -113q-42 -48 -106 -48zM199 75q-55 0 -80 -49v-109q29 -39 79 -39q41 0 65.5 28.5t24.5 70.5q0 41 -25 69.5t-64 28.5z" />
    <glyph glyph-name="c.sinf" horiz-adv-x="294" 
d="M248 -99l37 -51q-40 -35 -104 -35q-68 0 -113 45q-44 46 -44 116q0 69 46 115q47 47 114 47q56 0 99 -33l-36 -53q-29 23 -61 23q-37 0 -63 -29t-26 -70q0 -42 25.5 -70t62.5 -28q34 0 63 23z" />
    <glyph glyph-name="d.sinf" horiz-adv-x="385" 
d="M337 -178h-65l-4 40q-29 -47 -96 -47q-62 0 -106 47q-42 46 -42 115q0 65 42 113q44 48 107 48q57 0 93 -39v173h71v-450zM186 -122q56 0 80 48v110q-30 39 -79 39q-41 0 -65.5 -29t-24.5 -71q0 -41 25 -69t64 -28z" />
    <glyph glyph-name="e.sinf" horiz-adv-x="349" 
d="M269 -79l49 -32q-50 -74 -139 -74q-69 0 -112 44.5t-43 114.5t45 117t111 47q62 0 103 -41q42 -41 42 -102q0 -17 -4 -37h-225q4 -37 27.5 -60.5t59.5 -23.5q57 0 86 47zM181 80q-63 0 -81 -70h152q-2 30 -22 50t-49 20z" />
    <glyph glyph-name="f.sinf" horiz-adv-x="220" 
d="M237 264l-21 -57q-19 9 -41 9q-25 0 -33.5 -12.5t-8.5 -44.5v-29h80v-60h-80v-248h-71v248h-34v60h34v34q0 58 25 86.5t81 28.5q34 0 69 -15z" />
    <glyph glyph-name="g.sinf" horiz-adv-x="381" 
d="M272 130h65v-292q0 -74 -42.5 -113t-112.5 -39q-80 0 -140 42l27 60q53 -39 111 -39q40 0 63 20.5t23 60.5v35q-33 -43 -94 -43q-63 0 -106 46q-42 47 -42 112q0 64 42 111t107 47q61 0 95 -43zM266 -67v103q-30 39 -79 39q-41 0 -65.5 -27.5t-24.5 -68.5q0 -40 25 -67
t63 -27q57 0 81 48z" />
    <glyph glyph-name="h.sinf" horiz-adv-x="371" 
d="M48 272h71v-184q36 50 95 50q113 0 113 -156v-160h-71v155q0 31 -3 47q-3 20 -17.5 35.5t-39.5 15.5q-47 0 -77 -48v-205h-71v450z" />
    <glyph glyph-name="i.sinf" horiz-adv-x="167" 
d="M119 130v-308h-71v308h71zM119 249v-68h-71v68h71z" />
    <glyph glyph-name="j.sinf" horiz-adv-x="184" 
d="M-27 -300l20 57q18 -7 30 -7q42 0 42 56v324h71v-332q0 -55 -23.5 -83t-76.5 -28q-33 0 -63 13zM136 249v-68h-71v68h71z" />
    <glyph glyph-name="k.sinf" horiz-adv-x="326" 
d="M48 272h71v-280h1l111 138h84l-110 -127l118 -181h-87l-79 125l-38 -45v-80h-71v450z" />
    <glyph glyph-name="l.sinf" horiz-adv-x="167" 
d="M48 272h71v-450h-71v450z" />
    <glyph glyph-name="m.sinf" horiz-adv-x="559" 
d="M119 33v-211h-71v308h65l3 -41q37 49 93 49q61 0 90 -54q37 54 105 54q111 0 111 -156v-160h-71v155q0 41 -8 65q-10 33 -50 33q-42 0 -72 -42q3 -23 3 -51v-160h-71v155q0 42 -7 65q-10 33 -49 33q-36 0 -71 -42z" />
    <glyph glyph-name="n.sinf" horiz-adv-x="371" 
d="M119 27v-205h-71v308h65l3 -46q36 54 92 54q119 0 119 -154v-162h-71v159q0 40 -8 63q-10 31 -51 31q-48 0 -78 -48z" />
    <glyph glyph-name="o.sinf" horiz-adv-x="367" 
d="M343 -24q0 -68 -46 -114q-45 -47 -114 -47q-67 0 -114 47q-45 46 -45 114t45 115t114 47t114 -47q46 -46 46 -115zM270 -24q0 42 -24.5 70.5t-62.5 28.5t-62 -28.5t-24 -70.5t24 -70t62 -28t62.5 28t24.5 70z" />
    <glyph glyph-name="p.sinf" horiz-adv-x="385" 
d="M48 130h65l4 -39q30 47 96 47q63 0 105 -47q43 -46 43 -115q0 -67 -43 -113q-42 -48 -106 -48q-58 0 -93 38v-181h-71v458zM199 75q-55 0 -80 -49v-109q29 -39 79 -39q41 0 65.5 28.5t24.5 70.5q0 41 -25 69.5t-64 28.5z" />
    <glyph glyph-name="q.sinf" horiz-adv-x="385" 
d="M173 138q61 0 95 -43l4 35h65v-458h-71v186q-31 -43 -94 -43q-62 0 -106 47q-42 46 -42 115q0 65 42 113q44 48 107 48zM186 -122q56 0 80 48v110q-30 39 -79 39q-41 0 -65.5 -29t-24.5 -71q0 -41 25 -69t64 -28z" />
    <glyph glyph-name="r.sinf" horiz-adv-x="227" 
d="M119 30v-208h-71v308h65l3 -44q30 52 75 52q19 0 37 -6l-16 -67q-13 7 -29 7q-41 0 -64 -42z" />
    <glyph glyph-name="s.sinf" horiz-adv-x="288" 
d="M252 100l-40 -44q-26 25 -61 25q-17 0 -27.5 -8.5t-10.5 -22.5q0 -22 54 -43q29 -12 42 -19q48 -27 48 -75q0 -46 -32.5 -72t-82.5 -26q-72 0 -117 51l44 41q35 -35 71 -35q21 0 33.5 9.5t12.5 27.5q0 10 -9 19q-7 8 -45 24q-36 15 -58 31q-29 22 -29 62q0 43 29.5 68
t75.5 25q61 0 102 -38z" />
    <glyph glyph-name="t.sinf" horiz-adv-x="230" 
d="M198 -114l21 -54q-29 -17 -65 -17q-96 0 -96 114v141h-39v60h39l8 71h63v-71h82v-60h-82v-128q-1 -22 0.5 -33t9.5 -20.5t24 -11.5q17 0 35 9z" />
    <glyph glyph-name="u.sinf" horiz-adv-x="371" 
d="M252 -75v205h71v-308h-65l-3 46q-36 -54 -92 -54q-119 0 -119 154v162h71v-159q0 -40 8 -63q10 -31 51 -31q48 0 78 48z" />
    <glyph glyph-name="v.sinf" horiz-adv-x="308" 
d="M83 130l71 -212h1l71 212h78l-123 -308h-60l-117 308h79z" />
    <glyph glyph-name="w.sinf" horiz-adv-x="451" 
d="M282 -178l-56 204h-1l-58 -204h-78l-85 308h77l51 -212h1l60 212h68l55 -211h2l55 211h74l-90 -308h-75z" />
    <glyph glyph-name="x.sinf" horiz-adv-x="330" 
d="M123 -23l-110 153h90l67 -98l67 98h89l-115 -151l114 -157h-91l-70 103l-71 -103h-89z" />
    <glyph glyph-name="y.sinf" horiz-adv-x="306" 
d="M82 129l70 -204h1l71 204h78l-172 -444l-64 24l48 127l-110 293h78z" />
    <glyph glyph-name="z.sinf" horiz-adv-x="285" 
d="M33 -178v33l126 215h-132v60h227v-31l-127 -216h137v-61h-231z" />
    <glyph glyph-name="zero.num" horiz-adv-x="314" 
d="M219 521q0 127 -62 127t-62 -127t62 -127t62 127zM255 658q35 -50 35 -137t-35 -137q-34 -49 -98 -49t-98 49q-35 50 -35 137t35 137q34 49 98 49t98 -49z" />
    <glyph glyph-name="one.num" horiz-adv-x="223" 
d="M166 700v-362h-69v283q-29 -14 -53 -23v62l32 16l45 24h45z" />
    <glyph glyph-name="two.num" horiz-adv-x="299" 
d="M38 341v53q74 75 125 147q28 37 28 67q3 28 -29 37q-33 9 -52 -13q-13 -14 -11 -36l-69 12q3 43 37 71t81 28q46 0 80 -28q35 -27 35 -71t-39 -99q-29 -43 -93 -110h147v-58h-240z" />
    <glyph glyph-name="three.num" horiz-adv-x="301" 
d="M95 494v60q32 0 45 4q41 11 41 47q0 19 -14 31t-37 12q-39 0 -48 -38l-59 26q12 33 41.5 52t66.5 19q51 0 85.5 -27.5t34.5 -69.5q0 -51 -45 -76q28 -10 45 -34t17 -55q0 -49 -36.5 -79.5t-91.5 -30.5q-87 0 -122 71l58 27q18 -40 64 -40q25 0 41 14t16 37
q0 24 -19.5 38.5t-50.5 14.5q-20 0 -32 -3z" />
    <glyph glyph-name="four.num" horiz-adv-x="309" 
d="M21 430v61l154 209h70v-213h52v-57h-52v-89h-68v89h-156zM94 487h83v122l-43.5 -63.5l-29.5 -44t-10 -14.5z" />
    <glyph glyph-name="five.num" horiz-adv-x="295" 
d="M251 700v-58h-130q0 -4 -6 -83q18 9 46 9q45 0 76 -32.5t31 -77.5q0 -53 -36 -88t-90 -35q-85 0 -121 68l58 29q17 -39 60 -39q27 0 42.5 17t15.5 44q0 25 -16.5 41t-41.5 16q-30 0 -50 -23l-45 31q7 81 12 181h195z" />
    <glyph glyph-name="six.num" horiz-adv-x="309" 
d="M212 722l25 -55q-105 -45 -132 -119q29 24 67 24q48 0 80.5 -33t32.5 -81q0 -54 -34.5 -89t-88.5 -35q-64 0 -101 43t-37 104q0 83 53 145q53 63 135 96zM94 480q0 -40 16 -64.5t48 -24.5q26 0 41.5 18t15.5 45q0 28 -16 44.5t-42 16.5q-42 0 -63 -35z" />
    <glyph glyph-name="seven.num" horiz-adv-x="259" 
d="M247 700v-44q-77 -158 -149 -331l-63 29q55 125 136 287h-165v59h241z" />
    <glyph glyph-name="eight.num" horiz-adv-x="326" 
d="M236 530q54 -28 54 -89q0 -45 -36 -75.5t-91 -30.5q-56 0 -91.5 30.5t-35.5 75.5q0 57 54 89q-45 28 -45 77q0 42 33.5 71t84.5 29t84.5 -29t33.5 -71q0 -49 -45 -77zM163 556q20 0 34.5 14t14.5 33q0 20 -14.5 33.5t-34.5 13.5q-21 0 -35 -13.5t-14 -33.5t14 -33.5
t35 -13.5zM122 483q-16 -15 -16 -38t16 -38t41 -15t41 15t16 38t-16 38q-16 16 -41 16t-41 -16z" />
    <glyph glyph-name="nine.num" horiz-adv-x="309" 
d="M97 319l-25 55q105 45 132 119q-28 -24 -67 -24q-48 0 -80.5 33t-32.5 81q0 54 34.5 89t88.5 35q63 0 100 -43q38 -44 38 -104q0 -82 -53 -146q-53 -62 -135 -95zM215 561q0 40 -16 64.5t-48 24.5q-26 0 -41.5 -18t-15.5 -45q0 -28 16 -44.5t42 -16.5q42 0 63 35z" />
    <glyph glyph-name="parenleft.ordn" horiz-adv-x="245" 
d="M244 321l-25 -51q-183 112 -183 319q0 206 181 320l28 -51q-138 -88 -138 -269t137 -268z" />
    <glyph glyph-name="parenright.ordn" horiz-adv-x="245" 
d="M26 270l-25 51q137 87 137 268t-138 269l28 51q181 -114 181 -320q0 -207 -183 -319z" />
    <glyph glyph-name="hyphen.ordn" horiz-adv-x="308" 
d="M241 607v-63h-174v63h174z" />
    <glyph glyph-name="comma.ordn" horiz-adv-x="184" 
d="M51 471h79l-45 -172h-69z" />
    <glyph glyph-name="period.ordn" horiz-adv-x="185" 
d="M133 471v-85h-81v85h81z" />
    <glyph glyph-name="minus.ordn" horiz-adv-x="382" 
d="M39 563v62h304v-62h-304z" />
    <glyph glyph-name="plus.ordn" horiz-adv-x="369" 
d="M215 427h-62v136h-135v62h135v135h62v-135h136v-62h-136v-136z" />
    <glyph glyph-name="equal.ordn" horiz-adv-x="382" 
d="M39 621v60h304v-60h-304zM39 505v62h304v-62h-304z" />
    <glyph glyph-name="a.ordn" horiz-adv-x="381" 
d="M254 587v10q0 76 -75 76q-51 0 -106 -29l-21 57q72 33 138 33q136 0 136 -143v-205h-65l-4 34q-35 -42 -97 -42q-53 0 -87.5 28t-34.5 77q0 56 41.5 84t109.5 28q27 0 65 -8zM254 471v67q-29 7 -55 7q-90 0 -90 -58q0 -25 17 -38.5t46 -13.5q39 0 82 36z" />
    <glyph glyph-name="b.ordn" horiz-adv-x="433" 
d="M128 386h-68v500h72v-203q34 51 105 51q72 0 118 -52q48 -52 48 -127q0 -71 -47 -124t-120 -53q-68 0 -106 47zM132 612v-123q34 -46 92 -46q48 0 76.5 33.5t28.5 80.5t-29.5 79.5t-74.5 32.5q-28 0 -54.5 -15.5t-38.5 -41.5z" />
    <glyph glyph-name="c.ordn" horiz-adv-x="325" 
d="M277 468l37 -53q-43 -37 -110 -37q-74 0 -124 50t-50 128q0 75 51 126q51 52 126 52q60 0 104 -34l-35 -56q-29 25 -70 25q-43 0 -73 -33q-29 -34 -29 -80q0 -48 30 -80.5t72 -32.5t71 25z" />
    <glyph glyph-name="d.ordn" horiz-adv-x="433" 
d="M301 689v197h72v-500h-68l-3 45q-36 -53 -107 -53q-70 0 -118 52q-47 53 -47 126q0 72 47 125t120 53q62 0 104 -45zM209 669q-48 0 -76.5 -33.5t-28.5 -80.5q0 -46 29.5 -79t74.5 -33q28 0 53.5 15.5t39.5 41.5v123q-36 46 -92 46z" />
    <glyph glyph-name="e.ordn" horiz-adv-x="387" 
d="M300 492l50 -33q-54 -81 -151 -81q-77 0 -123 49t-46 128q0 77 49 127q49 52 121 52q68 0 112 -45q45 -45 45 -113q0 -8 -3 -38h-251q4 -44 31 -71.5t69 -27.5q65 0 97 53zM201 674q-36 0 -60.5 -22t-33.5 -60h176q-2 35 -25 58.5t-57 23.5z" />
    <glyph glyph-name="f.ordn" horiz-adv-x="248" 
d="M260 877l-21 -57q-19 10 -44 10q-30 0 -40 -15.5t-10 -53.5v-35h90v-62h-90v-278h-72v278h-38v62h38v41q0 64 26.5 95.5t87.5 31.5q36 0 73 -17z" />
    <glyph glyph-name="g.ordn" horiz-adv-x="428" 
d="M195 386q-70 0 -118 50q-47 50 -47 124q0 70 47 122q46 52 120 52q64 0 105 -47l3 39h68v-321q0 -84 -46.5 -126.5t-124.5 -42.5q-86 0 -153 46l27 61q58 -42 124 -42q46 0 73.5 23.5t27.5 69.5v42q-38 -50 -106 -50zM209 669q-48 0 -76.5 -32t-28.5 -78t29 -77t74 -31
q29 0 55.5 15t38.5 42v115q-36 46 -92 46z" />
    <glyph glyph-name="h.ordn" horiz-adv-x="419" 
d="M132 612v-226h-72v500h72v-211q39 59 107 59q125 0 125 -171v-177h-72v171q0 48 -9 75q-12 37 -60 37q-57 0 -91 -57z" />
    <glyph glyph-name="i.ordn" horiz-adv-x="192" 
d="M132 726v-340h-72v340h72zM132 858v-73h-72v73h72z" />
    <glyph glyph-name="j.ordn" horiz-adv-x="197" 
d="M-36 252l20 57q19 -8 33 -8q29 0 38.5 15t9.5 52v358h72v-368q0 -121 -106 -121q-37 0 -67 15zM137 858v-73h-72v73h72z" />
    <glyph glyph-name="k.ordn" horiz-adv-x="360" 
d="M60 886h72v-320l128 160h86l-119 -140l129 -200h-88l-90 143l-46 -54v-89h-72v500z" />
    <glyph glyph-name="l.ordn" horiz-adv-x="192" 
d="M60 886h72v-500h-72v500z" />
    <glyph glyph-name="m.ordn" horiz-adv-x="627" 
d="M132 617v-231h-72v340h67l2 -49q18 26 47 41.5t57 15.5q72 0 100 -61q42 61 117 61q122 0 122 -171v-177h-72v171q0 47 -9 75q-12 37 -58 37q-47 0 -85 -50q4 -20 4 -56v-177h-72v171q0 46 -9 74q-11 38 -56 38q-44 0 -83 -52z" />
    <glyph glyph-name="n.ordn" horiz-adv-x="419" 
d="M132 612v-226h-72v340h67l3 -53q40 61 109 61q125 0 125 -171v-177h-72v171q0 48 -9 75q-12 37 -60 37q-57 0 -91 -57z" />
    <glyph glyph-name="o.ordn" horiz-adv-x="410" 
d="M80 682q49 52 125 52t125 -52q50 -52 50 -126t-50 -127q-50 -51 -125 -51t-125 51q-50 53 -50 127t50 126zM277 475q29 34 29 81q0 48 -29 80q-29 33 -72 33q-45 0 -73 -33q-28 -31 -28 -80t28 -81q29 -32 73 -32q43 0 72 32z" />
    <glyph glyph-name="p.ordn" horiz-adv-x="433" 
d="M132 422v-202h-72v506h68l2 -45q35 53 107 53t118 -52q48 -52 48 -127q0 -71 -47 -124t-120 -53q-65 0 -104 44zM224 443q48 0 76.5 33.5t28.5 80.5t-29.5 79.5t-74.5 32.5q-28 0 -54.5 -15.5t-38.5 -41.5v-123q34 -46 92 -46z" />
    <glyph glyph-name="q.ordn" horiz-adv-x="433" 
d="M197 734q64 0 105 -47l3 39h68v-506h-72v209q-37 -51 -106 -51q-70 0 -118 52q-47 53 -47 126q0 72 47 125t120 53zM208 443q28 0 53.5 15.5t39.5 41.5v123q-36 46 -92 46q-48 0 -76.5 -33.5t-28.5 -80.5q0 -46 29.5 -79t74.5 -33z" />
    <glyph glyph-name="r.ordn" horiz-adv-x="261" 
d="M214 734q14 0 39 -5l-15 -71q-15 6 -32 6q-46 0 -74 -49v-229h-72v340h68l2 -52q34 60 84 60z" />
    <glyph glyph-name="s.ordn" horiz-adv-x="320" 
d="M274 693l-42 -44q-29 26 -66 26q-20 0 -32.5 -10.5t-12.5 -27.5q0 -11 10 -21q11 -11 51 -28t65 -35q34 -24 34 -68q0 -51 -35 -79t-90 -28q-76 0 -125 55l47 42q36 -38 77 -38q24 0 39 11.5t15 32.5q0 11 -11 22q-10 12 -54 30q-39 16 -61 33q-31 24 -31 66
q0 47 32 74.5t81 27.5q68 0 109 -41z" />
    <glyph glyph-name="t.ordn" horiz-adv-x="247" 
d="M208 451l22 -57q-29 -16 -70 -16q-103 0 -103 126v160h-43v62h43l6 78h66v-78h92v-62h-92v-146q0 -77 42 -77q20 0 37 10z" />
    <glyph glyph-name="u.ordn" horiz-adv-x="419" 
d="M287 500v226h72v-340h-67l-3 53q-40 -61 -109 -61q-125 0 -125 171v177h72v-171q0 -48 9 -76q12 -36 60 -36q57 0 91 57z" />
    <glyph glyph-name="v.ordn" horiz-adv-x="337" 
d="M252 726h79l-135 -340h-62l-128 340h81l82 -246h2z" />
    <glyph glyph-name="w.ordn" horiz-adv-x="495" 
d="M213 726h72l64 -245h2l63 245h75l-99 -340h-76l-66 240h-1l-68 -240h-80l-93 340h77l59 -245h2z" />
    <glyph glyph-name="x.ordn" horiz-adv-x="353" 
d="M223 560l124 -174h-92l-79 119l-80 -119h-90l128 171l-120 169h92l77 -113l75 113h89z" />
    <glyph glyph-name="y.ordn" horiz-adv-x="334" 
d="M250 726h78l-189 -491l-63 25l52 140l-122 326h80l80 -239h2z" />
    <glyph glyph-name="z.ordn" horiz-adv-x="317" 
d="M42 386v34l142 244h-150v62h246v-33l-144 -245h155v-62h-249z" />
    <glyph glyph-name="zero.denom" horiz-adv-x="314" 
d="M219 179q0 127 -62 127t-62 -127t62 -127t62 127zM255 316q35 -50 35 -137t-35 -137q-34 -49 -98 -49t-98 49q-35 50 -35 137t35 137q34 49 98 49t98 -49z" />
    <glyph glyph-name="one.denom" horiz-adv-x="223" 
d="M166 362v-362h-69v283q-34 -16 -53 -23v62l32 16l45 24h45z" />
    <glyph glyph-name="two.denom" horiz-adv-x="299" 
d="M38 0v53q74 75 125 147q28 37 28 67q3 28 -29 37q-33 9 -52 -13q-13 -14 -11 -36l-69 12q3 43 37 71t81 28q46 0 80 -28q35 -27 35 -71q0 -43 -39 -99q-29 -43 -93 -110h147v-58h-240z" />
    <glyph glyph-name="three.denom" horiz-adv-x="301" 
d="M95 152v60q32 0 45 4q41 11 41 47q0 19 -14 31t-37 12q-39 0 -48 -38l-59 26q12 33 41.5 52t66.5 19q51 0 85.5 -27.5t34.5 -69.5q0 -51 -45 -76q28 -10 45 -34t17 -55q0 -49 -36.5 -79.5t-91.5 -30.5q-87 0 -122 71l58 27q18 -40 64 -40q25 0 41 14t16 37
q0 24 -19.5 38.5t-50.5 14.5q-20 0 -32 -3z" />
    <glyph glyph-name="four.denom" horiz-adv-x="309" 
d="M21 89v61l154 209h70v-213h52v-57h-52v-89h-68v89h-156zM94 146h83v122l-43.5 -63.5l-29.5 -44t-10 -14.5z" />
    <glyph glyph-name="five.denom" horiz-adv-x="295" 
d="M251 358v-58h-130q0 -4 -6 -83q18 9 46 9q45 0 76 -32.5t31 -77.5q0 -53 -36 -88t-90 -35q-85 0 -121 68l58 29q17 -39 60 -39q27 0 42.5 17t15.5 44q0 25 -16.5 41t-41.5 16q-30 0 -50 -23l-45 31q7 81 12 181h195z" />
    <glyph glyph-name="six.denom" horiz-adv-x="309" 
d="M212 380l25 -55q-105 -45 -132 -119q29 24 67 24q48 0 80.5 -33t32.5 -81q0 -54 -34.5 -89t-88.5 -35q-64 0 -101 43t-37 104q0 83 53 145q53 63 135 96zM94 138q0 -40 16 -64.5t48 -24.5q26 0 41.5 18t15.5 45q0 28 -16 44.5t-42 16.5q-42 0 -63 -35z" />
    <glyph glyph-name="seven.denom" horiz-adv-x="259" 
d="M247 358v-44q-77 -158 -149 -331l-63 29q55 125 136 287h-165v59h241z" />
    <glyph glyph-name="eight.denom" horiz-adv-x="326" 
d="M236 188q54 -28 54 -89q0 -45 -36 -75.5t-91 -30.5q-56 0 -91.5 30.5t-35.5 75.5q0 57 54 89q-45 28 -45 77q0 42 33.5 71t84.5 29t84.5 -29t33.5 -71q0 -49 -45 -77zM163 214q20 0 34.5 14t14.5 33q0 20 -14.5 33.5t-34.5 13.5q-21 0 -35 -13.5t-14 -33.5t14 -33.5
t35 -13.5zM122 141q-16 -15 -16 -38t16 -38t41 -15t41 15t16 38t-16 38q-16 16 -41 16t-41 -16z" />
    <glyph glyph-name="nine.denom" horiz-adv-x="309" 
d="M97 -23l-25 55q105 45 132 119q-28 -24 -67 -24q-48 0 -80.5 33t-32.5 81q0 54 34.5 89t88.5 35q63 0 100 -43q38 -44 38 -104q0 -82 -53 -146q-53 -62 -135 -95zM215 219q0 40 -16 64.5t-48 24.5q-26 0 -41.5 -18t-15.5 -45q0 -28 16 -44.5t42 -16.5q42 0 63 35z" />
    <glyph glyph-name="onefifth" horiz-adv-x="779" 
d="M682 358v-58h-130q0 -4 -6 -83q18 9 46 9q45 0 76 -32.5t31 -77.5q0 -53 -36 -88t-90 -35q-85 0 -121 68l58 29q16 -39 60 -39q27 0 42.5 17t15.5 44q0 25 -16.5 41t-41.5 16q-30 0 -50 -23l-45 31q7 81 12 181h195zM80 28l497 684l55 -40l-497 -684zM224 700v-362h-69
v283q-34 -16 -53 -23v62l32 16l45 24h45z" />
    <glyph glyph-name="twofifths" horiz-adv-x="867" 
d="M770 358v-58h-130q0 -4 -6 -83q18 9 46 9q45 0 76 -32.5t31 -77.5q0 -53 -36 -88t-90 -35q-85 0 -121 68l58 29q16 -39 60 -39q27 0 42.5 17t15.5 44q0 25 -16.5 41t-41.5 16q-30 0 -50 -23l-45 31q7 81 12 181h195zM88 341v53q74 75 125 147q28 37 28 67q3 28 -29 37
q-33 9 -52 -13q-13 -14 -11 -36l-69 12q3 43 37 71t81 28q46 0 80 -28q35 -27 35 -71t-39 -99q-29 -43 -93 -110h147v-58h-240zM168 28l497 684l55 -40l-497 -684z" />
    <glyph glyph-name="threefifths" horiz-adv-x="846" 
d="M157 494v60q32 0 45 4q41 11 41 47q0 19 -14 31t-37 12q-39 0 -48 -38l-59 26q12 33 41.5 52t66.5 19q51 0 85.5 -27.5t34.5 -69.5q0 -51 -45 -76q28 -10 45 -34t17 -55q0 -49 -36.5 -79.5t-91.5 -30.5q-87 0 -122 71l58 27q18 -40 64 -40q25 0 41 14t16 37
q0 24 -19.5 38.5t-50.5 14.5q-20 0 -32 -3zM749 358v-58h-130q0 -4 -6 -83q18 9 46 9q45 0 76 -32.5t31 -77.5q0 -53 -36 -88t-90 -35q-85 0 -121 68l58 29q17 -39 60 -39q27 0 42.5 17t15.5 44q0 25 -16.5 41t-41.5 16q-30 0 -50 -23l-45 31q7 81 12 181h195zM147 28
l497 684l55 -40l-497 -684z" />
    <glyph glyph-name="fourfifths" horiz-adv-x="892" 
d="M795 358v-58h-130q0 -4 -6 -83q18 9 46 9q45 0 76 -32.5t31 -77.5q0 -53 -36 -88t-90 -35q-85 0 -121 68l58 29q17 -39 60 -39q27 0 42.5 17t15.5 44q0 25 -16.5 41t-41.5 16q-30 0 -50 -23l-45 31q7 81 12 181h195zM80 430v61l154 209h70v-213h52v-57h-52v-89h-68v89
h-156zM153 487h83v122l-43.5 -63.5l-29.5 -44t-10 -14.5zM193 28l497 684l55 -40l-497 -684z" />
    <glyph glyph-name="onesixth" horiz-adv-x="748" 
d="M595 380l25 -55q-105 -45 -132 -119q28 24 67 24q48 0 80.5 -33t32.5 -81q0 -54 -34.5 -89t-88.5 -35q-64 0 -101 43t-37 104q0 83 53 145q52 63 135 96zM477 138q0 -40 16 -64.5t48 -24.5q26 0 41.5 18t15.5 45q0 28 -16 44.5t-42 16.5q-42 0 -63 -35zM80 28l497 684
l55 -40l-497 -684zM224 700v-362h-69v283q-34 -16 -53 -23v62l32 16l45 24h45z" />
    <glyph glyph-name="fivesixths" horiz-adv-x="802" 
d="M310 700v-58h-130q0 -4 -6 -83q18 9 46 9q45 0 76 -32.5t31 -77.5q0 -53 -36 -88t-90 -35q-85 0 -121 68l58 29q16 -39 60 -39q27 0 42.5 17t15.5 44q0 25 -16.5 41t-41.5 16q-30 0 -50 -23l-45 31q7 81 12 181h195zM649 380l25 -55q-105 -45 -132 -119q28 24 67 24
q48 0 80.5 -33t32.5 -81q0 -54 -34.5 -89t-88.5 -35q-64 0 -101 43t-37 104q0 83 53 145q52 63 135 96zM531 138q0 -40 16 -64.5t48 -24.5q26 0 41.5 18t15.5 45q0 28 -16 44.5t-42 16.5q-42 0 -63 -35zM134 28l497 684l55 -40l-497 -684z" />
    <glyph glyph-name="oneseventh" horiz-adv-x="796" 
d="M716 358v-44q-77 -158 -149 -331l-63 29q55 125 136 287h-165v59h241zM80 28l497 684l55 -40l-497 -684zM224 700v-362h-69v283q-34 -16 -53 -23v62l32 16l45 24h45z" />
    <glyph glyph-name="twosevenths" horiz-adv-x="884" 
d="M88 341v53q74 75 125 147q28 37 28 67q3 28 -29 37q-33 9 -52 -13q-13 -14 -11 -36l-69 12q3 43 37 71t81 28q46 0 80 -28q35 -27 35 -71t-39 -99q-29 -43 -93 -110h147v-58h-240zM804 358v-44q-77 -158 -149 -331l-63 29q55 125 136 287h-165v59h241zM168 28l497 684
l55 -40l-497 -684z" />
    <glyph glyph-name="threesevenths" horiz-adv-x="863" 
d="M157 494v60q32 0 45 4q41 11 41 47q0 19 -14 31t-37 12q-39 0 -48 -38l-59 26q12 33 41.5 52t66.5 19q51 0 85.5 -27.5t34.5 -69.5q0 -51 -45 -76q28 -10 45 -34t17 -55q0 -49 -36.5 -79.5t-91.5 -30.5q-87 0 -122 71l58 27q18 -40 64 -40q25 0 41 14t16 37
q0 24 -19.5 38.5t-50.5 14.5q-20 0 -32 -3zM783 358v-44q-77 -158 -149 -331l-63 29q55 125 136 287h-165v59h241zM147 28l497 684l55 -40l-497 -684z" />
    <glyph glyph-name="foursevenths" horiz-adv-x="909" 
d="M80 430v61l154 209h70v-213h52v-57h-52v-89h-68v89h-156zM153 487h83v122l-43.5 -63.5l-29.5 -44t-10 -14.5zM829 358v-44q-77 -158 -149 -331l-63 29q55 125 136 287h-165v59h241zM193 28l497 684l55 -40l-497 -684z" />
    <glyph glyph-name="fivesevenths" horiz-adv-x="850" 
d="M310 700v-58h-130q0 -4 -6 -83q18 9 46 9q45 0 76 -32.5t31 -77.5q0 -53 -36 -88t-90 -35q-85 0 -121 68l58 29q16 -39 60 -39q27 0 42.5 17t15.5 44q0 25 -16.5 41t-41.5 16q-30 0 -50 -23l-45 31q7 81 12 181h195zM770 358v-44q-77 -158 -149 -331l-63 29
q55 125 136 287h-165v59h241zM134 28l497 684l55 -40l-497 -684z" />
    <glyph glyph-name="sixsevenths" horiz-adv-x="867" 
d="M268 722l25 -55q-105 -45 -132 -119q29 24 67 24q48 0 80.5 -33t32.5 -81q0 -54 -34.5 -89t-88.5 -35q-64 0 -101 43t-37 104q0 83 53 145q53 63 135 96zM150 480q0 -40 16 -64.5t48 -24.5q26 0 41.5 18t15.5 45q0 28 -16 44.5t-42 16.5q-42 0 -63 -35zM787 358v-44
q-77 -158 -149 -331l-63 29q55 125 136 287h-165v59h241zM151 28l497 684l55 -40l-497 -684z" />
    <glyph glyph-name="oneninth" horiz-adv-x="803" 
d="M535 -23l-25 55q105 45 132 119q-28 -24 -67 -24q-48 0 -80.5 33t-32.5 81q0 54 34.5 89t88.5 35q63 0 100 -43q38 -44 38 -104q0 -82 -53 -146q-53 -62 -135 -95zM653 219q0 40 -16 64.5t-48 24.5q-26 0 -41.5 -18t-15.5 -45q0 -28 16 -44.5t42 -16.5q42 0 63 35zM80 28
l497 684l55 -40l-497 -684zM224 700v-362h-69v283q-34 -16 -53 -23v62l32 16l45 24h45z" />
    <glyph glyph-name="twoninths" horiz-adv-x="891" 
d="M623 -23l-25 55q105 45 132 119q-29 -24 -67 -24q-48 0 -80.5 33t-32.5 81q0 54 34.5 89t88.5 35q63 0 100 -43q38 -44 38 -104q0 -82 -53 -146q-53 -62 -135 -95zM741 219q0 40 -16 64.5t-48 24.5q-26 0 -41.5 -18t-15.5 -45q0 -28 16 -44.5t42 -16.5q42 0 63 35z
M88 341v53q74 75 125 147q28 37 28 67q3 28 -29 37q-33 9 -52 -13q-13 -14 -11 -36l-69 12q3 43 37 71t81 28q46 0 80 -28q35 -27 35 -71t-39 -99q-29 -43 -93 -110h147v-58h-240zM168 28l497 684l55 -40l-497 -684z" />
    <glyph glyph-name="fourninths" horiz-adv-x="916" 
d="M80 430v61l154 209h70v-213h52v-57h-52v-89h-68v89h-156zM153 487h83v122l-43.5 -63.5l-29.5 -44t-10 -14.5zM648 -23l-25 55q105 45 132 119q-29 -24 -67 -24q-48 0 -80.5 33t-32.5 81q0 54 34.5 89t88.5 35q63 0 100 -43q38 -44 38 -104q0 -82 -53 -146
q-53 -62 -135 -95zM766 219q0 40 -16 64.5t-48 24.5q-26 0 -41.5 -18t-15.5 -45q0 -28 16 -44.5t42 -16.5q42 0 63 35zM193 28l497 684l55 -40l-497 -684z" />
    <glyph glyph-name="fiveninths" horiz-adv-x="857" 
d="M310 700v-58h-130q0 -4 -6 -83q18 9 46 9q45 0 76 -32.5t31 -77.5q0 -53 -36 -88t-90 -35q-85 0 -121 68l58 29q16 -39 60 -39q27 0 42.5 17t15.5 44q0 25 -16.5 41t-41.5 16q-30 0 -50 -23l-45 31q7 81 12 181h195zM589 -23l-25 55q105 45 132 119q-28 -24 -67 -24
q-48 0 -80.5 33t-32.5 81q0 54 34.5 89t88.5 35q63 0 100 -43q38 -44 38 -104q0 -82 -53 -146q-53 -62 -135 -95zM707 219q0 40 -16 64.5t-48 24.5q-26 0 -41.5 -18t-15.5 -45q0 -28 16 -44.5t42 -16.5q42 0 63 35zM134 28l497 684l55 -40l-497 -684z" />
    <glyph glyph-name="sevenninths" horiz-adv-x="803" 
d="M535 -23l-25 55q105 45 132 119q-28 -24 -67 -24q-48 0 -80.5 33t-32.5 81q0 54 34.5 89t88.5 35q63 0 100 -43q38 -44 38 -104q0 -82 -53 -146q-53 -62 -135 -95zM653 219q0 40 -16 64.5t-48 24.5q-26 0 -41.5 -18t-15.5 -45q0 -28 16 -44.5t42 -16.5q42 0 63 35z
M332 700v-44q-77 -158 -149 -331l-63 29q55 125 136 287h-165v59h241zM80 28l497 684l55 -40l-497 -684z" />
    <glyph glyph-name="eightninths" horiz-adv-x="879" 
d="M280 530q54 -28 54 -89q0 -45 -36 -75.5t-91 -30.5q-56 0 -91.5 30.5t-35.5 75.5q0 57 54 89q-45 28 -45 77q0 42 33.5 71t84.5 29t84.5 -29t33.5 -71q0 -49 -45 -77zM207 556q20 0 34.5 14t14.5 33q0 20 -14.5 33.5t-34.5 13.5q-21 0 -35 -13.5t-14 -33.5t14 -33.5
t35 -13.5zM166 483q-16 -15 -16 -38t16 -38t41 -15t41 15t16 38t-16 38q-16 16 -41 16t-41 -16zM611 -23l-25 55q105 45 132 119q-28 -24 -67 -24q-48 0 -80.5 33t-32.5 81q0 54 34.5 89t88.5 35q63 0 100 -43q38 -44 38 -104q0 -82 -53 -146q-53 -62 -135 -95zM729 219
q0 40 -16 64.5t-48 24.5q-26 0 -41.5 -18t-15.5 -45q0 -28 16 -44.5t42 -16.5q42 0 63 35zM156 28l497 684l55 -40l-497 -684z" />
    <glyph glyph-name="commaaccent" horiz-adv-x="360" 
d="M218 -56l-46 -175h-75l36 175h85z" />
    <glyph glyph-name="revcommaaccent" horiz-adv-x="360" 
d="M140 567l47 179h79l-37 -179h-89z" />
    <glyph glyph-name="tilde.cap" horiz-adv-x="360" 
d="M285 866l65 7q2 -16 2 -27q0 -42 -27.5 -68.5t-70.5 -26.5q-34 0 -84 32t-64 32q-32 0 -33 -30q0 -8 1 -10l-65 -7q-2 16 -2 27q0 42 27.5 68.5t70.5 26.5q36 0 83 -32t65 -32q31 0 33 30q0 8 -1 10z" />
    <glyph glyph-name="ring.cap" horiz-adv-x="360" 
d="M114 753q-27 28 -27 66t27 65q28 28 66 28t65 -28q28 -27 28 -65t-28 -66q-27 -27 -65 -27t-66 27zM149 850q-13 -13 -13 -31t13 -31t31 -13t31 13t13 31t-13 31t-31 13t-31 -13z" />
    <glyph glyph-name="circumflex.cap" horiz-adv-x="360" 
d="M22 788l110 134h95l107 -134l-54 -42l-102 116l-101 -116z" />
    <glyph glyph-name="acute.cap" horiz-adv-x="360" 
d="M267 932l52 -66l-175 -126l-42 54z" />
    <glyph glyph-name="grave.cap" horiz-adv-x="360" 
d="M258 794l-42 -54l-175 126l52 66z" />
    <glyph glyph-name="dieresis.cap" horiz-adv-x="360" 
d="M96 875v-111h-102v111h102zM366 875v-111h-102v111h102z" />
    <glyph glyph-name="caron.cap" horiz-adv-x="360" 
d="M334 886l-110 -134h-95l-107 134l55 42l102 -116l101 116z" />
    <glyph glyph-name="macron.cap" horiz-adv-x="360" 
d="M345 845v-71h-330v71h330z" />
    <glyph glyph-name="dotaccent.cap" horiz-adv-x="360" 
d="M231 875v-111h-102v111h102z" />
    <glyph glyph-name="cedilla.cap" horiz-adv-x="360" 
d="M141 10l56 -10l-28 -65l2 -1q17 16 48 16q38 0 62.5 -26.5t24.5 -66.5q0 -41 -32 -71q-31 -31 -77 -31q-70 0 -103 59l57 28q12 -32 46 -32q18 0 30.5 13t12.5 31q0 20 -11.5 33.5t-31.5 13.5q-27 0 -41 -24l-62 33z" />
    <glyph glyph-name="hungarumlaut.cap" horiz-adv-x="360" 
d="M175 932l52 -66l-175 -126l-42 54zM385 927l52 -66l-168 -121l-42 54z" />
    <glyph glyph-name="commaaccent.cap" horiz-adv-x="360" 
d="M218 -56l-46 -175h-75l36 175h85z" />
    <glyph glyph-name="breve.cap" horiz-adv-x="360" 
d="M259 888v6h64v-6q0 -58 -41 -96q-40 -36 -102 -36q-65 0 -104 36t-39 96v6h67v-6q0 -32 21 -50t55 -18t56.5 18.5t22.5 49.5z" />
    <glyph glyph-name="caron.alt" horiz-adv-x="360" 
d="M219 700l-53 -200h-76l40 200h89z" />
    <glyph glyph-name="ogonek.cap" horiz-adv-x="360" 
d="M161 12l69 -7l4 -5q-49 -15 -76 -45t-27 -65q0 -44 42 -44q21 0 44 14l32 -51q-34 -31 -89 -31q-47 0 -79 27.5t-32 71.5q0 92 112 135z" />
    <glyph glyph-name="square" horiz-adv-x="388" 
d="M328 155h-268v268h268v-268z" />
    <glyph glyph-name="square.open" horiz-adv-x="388" 
d="M328 155h-268v268h268v-268zM250 345h-112v-112h112v112z" />
    <glyph glyph-name="circle.open" horiz-adv-x="366" 
d="M78 184q-43 43 -43 105q0 61 43 104q44 44 105 44q60 0 104 -44t44 -104q0 -61 -44 -105q-43 -43 -104 -43q-62 0 -105 43zM139 332q-18 -18 -18 -43t18 -44q19 -18 44 -18t43 18q19 19 19 44t-19 43q-18 19 -43 19t-44 -19z" />
    <glyph glyph-name="doublecircle" horiz-adv-x="366" 
d="M81 181q-42 43 -42 102t42 101q43 43 102 43t101 -43q43 -42 43 -101t-43 -102q-42 -42 -101 -42t-102 42zM144 244q-16 16 -16 39t16 39t39 16t39 -16t16 -39t-16 -39t-39 -16t-39 16zM107 359q-32 -32 -32 -76t32 -76t76 -32t76 32t32 76t-32 76t-76 32t-76 -32z" />
    <glyph glyph-name="triangle.left" horiz-adv-x="398" 
d="M338 459v-348l-308 175z" />
    <glyph glyph-name="raute" horiz-adv-x="356" 
d="M30 276l148 236l148 -236l-148 -236z" />
    <glyph glyph-name="triangleWhiteLeft" horiz-adv-x="490" 
d="M430 511v-452l-400 226zM360 180v211l-187 -106z" />
    <glyph glyph-name="triangleWhiteRight" horiz-adv-x="490" 
d="M60 511l400 -226l-400 -226v452zM130 180l187 105l-187 106v-211z" />
    <glyph glyph-name="arrow.right" horiz-adv-x="1000" 
d="M808 315h-768v91h769l-260 255l64 64l367 -364l-367 -364l-64 64z" />
    <glyph glyph-name="arrow.left" horiz-adv-x="1000" 
d="M191 406h769v-91h-768l259 -254l-64 -64l-367 364l367 364l64 -64z" />
    <glyph glyph-name="arrow.up" horiz-adv-x="900" 
d="M495 670v-769h-91v768l-254 -259l-64 64l364 367l364 -367l-64 -64z" />
    <glyph glyph-name="arrow.down" horiz-adv-x="900" 
d="M404 53v768h91v-769l255 260l64 -64l-364 -367l-364 367l64 64z" />
    <glyph glyph-name="arrow.leftup" horiz-adv-x="1000" 
d="M160 176l-2 517l517 -2v-90l-365 3l544 -544l-64 -64l-543 543l3 -363h-90z" />
    <glyph glyph-name="arrow.rightup" horiz-adv-x="1000" 
d="M337 601v90l517 2l-2 -517h-90l3 363l-543 -543l-64 64l544 544z" />
    <glyph glyph-name="arrowleft.down" horiz-adv-x="1000" 
d="M247 154l543 543l64 -64l-544 -544l365 3v-90l-517 -2l2 517h90z" />
    <glyph glyph-name="arrowright.down" horiz-adv-x="1000" 
d="M702 89l-544 544l64 64l543 -543l-3 363h90l2 -517l-517 2v90z" />
    <glyph glyph-name="arrowright.alt" horiz-adv-x="469" 
d="M132 476l257 -191l-257 -191l-52 74l170 117l-170 117z" />
    <glyph glyph-name="arrowleft.alt" horiz-adv-x="469" 
d="M389 168l-52 -74l-257 191l257 191l52 -74l-170 -117z" />
    <glyph glyph-name="arrowup.alt" horiz-adv-x="542" 
d="M80 219l191 257l191 -257l-74 -52l-117 170l-117 -170z" />
    <glyph glyph-name="arrowdown.alt" horiz-adv-x="542" 
d="M388 403l74 -52l-191 -257l-191 257l74 52l117 -170z" />
    <glyph glyph-name="arrowleftup.alt" horiz-adv-x="477" 
d="M126 114l-46 317l317 -47l-16 -89l-203 37l38 -202z" />
    <glyph glyph-name="arrowrightup.alt" horiz-adv-x="477" 
d="M96 295l-16 89l317 47l-46 -317l-90 16l38 202z" />
    <glyph glyph-name="arrowleftdown.alt" horiz-adv-x="477" 
d="M381 250l16 -89l-317 -47l46 317l90 -16l-38 -202z" />
    <glyph glyph-name="arrowrightdown.alt" horiz-adv-x="477" 
d="M351 431l46 -317l-317 47l16 89l203 -37l-38 202z" />
    <glyph glyph-name="arrowlong.left" horiz-adv-x="1200" 
d="M363 555l51 -51l-208 -204h924v-72h-924l208 -204l-51 -52l-293 292z" />
    <glyph glyph-name="arrowlong.right" horiz-adv-x="1200" 
d="M1130 264l-293 -292l-51 52l207 204h-923v72h923l-207 204l51 51z" />
    <glyph glyph-name="arrowlong.up" horiz-adv-x="723" 
d="M653 548l-52 -51l-204 207v-923h-72v923l-204 -207l-51 51l291 293z" />
    <glyph glyph-name="arrowlong.down" horiz-adv-x="723" 
d="M70 56l51 51l204 -207v923h72v-923l204 207l52 -51l-292 -293z" />
    <glyph glyph-name="arrowlong.leftup" horiz-adv-x="915" 
d="M484 685l-1 -73l-291 2l653 -653l-51 -51l-653 653l3 -291h-72l-2 413h414z" />
    <glyph glyph-name="arrowlong.leftdown" horiz-adv-x="915" 
d="M72 323h72l-3 -292l653 654l51 -51l-653 -653l291 2l1 -73h-414z" />
    <glyph glyph-name="arrowlong.rightup" horiz-adv-x="915" 
d="M843 272h-72l2 291l-652 -653l-51 51l652 653l-290 -2l-1 73h414z" />
    <glyph glyph-name="arrowlong.rightdown" horiz-adv-x="915" 
d="M845 -90h-414l1 73l290 -2l-652 653l51 51l652 -654l-2 292h72z" />
    <glyph glyph-name="ornm1" horiz-adv-x="666" 
d="M240 390q0 -19 15 -34h-201q-21 -1 -29.5 16.5t0 35t29.5 16.5h200q-14 -14 -14 -34zM300 122h-81q-19 -2 -27 15t0 34t27 15h81q20 0 28 -16t0 -32t-28 -16zM300 200h-81q-19 -2 -27 15t0 34t27 15h81q20 0 28 -16t0 -32t-28 -16zM300 278h-81q-19 -2 -27 15t0 34t27 15
h81q20 0 28 -16t0 -32t-28 -16zM429 122h-96q13 13 13 32q0 26 -22 39q22 14 22 39t-22 39q22 13 22 39q0 19 -14 33h63v13h-107q-21 -1 -29.5 16.5t0 35t29.5 16.5h149q20 0 35 -30q17 -30 40 -30h114v-197h-114q-23 0 -41 -23q-16 -22 -42 -22z" />
    <glyph glyph-name="ornm2" horiz-adv-x="666" 
d="M426 390q0 20 -14 34h200q21 1 29.5 -16.5t0 -35t-29.5 -16.5h-201q15 15 15 34zM333 122h-96q-25 0 -43 22q-17 23 -40 23h-114v197h114q24 0 39 30q17 30 36 30h149q21 1 29.5 -16.5t0 -35t-29.5 -16.5h-107v-13h63q-14 -14 -14 -33q0 -26 22 -39q-22 -14 -22 -39
t22 -39q-22 -13 -22 -39q0 -19 13 -32zM366 186h81q19 2 27 -15t0 -34t-27 -15h-81q-20 0 -28 16t0 32t28 16zM366 264h81q19 2 27 -15t0 -34t-27 -15h-81q-20 0 -28 16t0 32t28 16zM366 342h81q19 2 27 -15t0 -34t-27 -15h-81q-20 0 -28 16t0 32t28 16z" />
    <glyph glyph-name="ornm3" horiz-adv-x="1100" 
d="M679 742l-31 -154l-61 12l31 154zM519 444v157h62v-157h-62zM421 -232l31 154l61 -12l-31 -154zM581 66v-157h-62v157h62zM1037 126l-154 31l12 61l154 -31zM739 286h157v-62h-157v62zM63 384l154 -31l-12 -61l-154 31zM361 224h-157v62h157v-62zM986 509l-131 -87
l-34 51l130 88zM662 411l111 111l44 -44l-111 -111zM114 1l131 87l34 -51l-130 -88zM438 99l-111 -111l-44 44l111 111zM804 -181l-87 131l51 34l88 -130zM706 143l111 -111l-44 -44l-111 111zM296 691l87 -131l-51 -34l-88 130zM394 367l-111 111l44 44l111 -111zM852 659
l-87 -132l-51 34l86 132zM592 442l59 145l57 -23l-58 -145zM248 -149l87 132l51 -34l-86 -132zM508 68l-59 -145l-57 23l58 145zM954 -47l-132 87l34 51l132 -86zM737 213l145 -59l-23 -57l-145 58zM146 557l132 -87l-34 -51l-132 86zM363 297l-145 59l23 57l145 -58z
M486 755l30 -155l-61 -11l-29 155zM450 419l-58 145l57 23l59 -145zM614 -245l-30 155l61 11l29 -155zM650 91l58 -145l-57 -23l-59 145zM1050 319l-155 -30l-11 61l155 29zM714 355l145 58l23 -57l-145 -59zM50 191l155 30l11 -61l-155 -29zM386 155l-145 -58l-23 57
l145 59z" />
    <glyph glyph-name="ornm4" horiz-adv-x="1177" 
d="M394 67q-78 78 -78 188t78 188t188 78t188 -78t78 -188t-78 -188t-188 -78t-188 78zM433 403q-61 -61 -61 -148q0 -88 61 -149t149 -61q87 0 148 61q62 62 62 149q0 86 -62 148t-148 62q-87 0 -149 -62zM473 146q-45 45 -45 109t45 109t109 45t109 -45t45 -109t-45 -109
t-109 -45t-109 45zM513 324q-29 -29 -29 -69q0 -41 29 -70q29 -28 69 -28t69 28q29 29 29 70q0 40 -29 69t-69 29t-69 -29zM734 540q-12 13 -12 30t12 29q13 13 30 13t29 -13q13 -12 13 -29t-13 -30q-12 -12 -29 -12t-30 12zM741 -100q-12 12 -12 29t12 30q13 12 30 12
t29 -12q13 -13 13 -30t-13 -29q-12 -13 -29 -13t-30 13zM804 -209q-12 12 -12 29t12 30q13 12 30 12t29 -12q13 -13 13 -30t-13 -29q-12 -13 -29 -13t-30 13zM878 36q-12 13 -12 30t12 29q13 13 30 13t29 -13q13 -12 13 -29t-13 -30q-12 -12 -29 -12t-30 12zM987 -26
q-12 12 -12 29t12 29q13 13 30 13t29 -13q26 -21 6 -50q-17 -26 -44 -21q-12 2 -21 13zM307 649q-12 13 -12 30t12 29q13 13 30 13t29 -13q13 -12 13 -29t-13 -30q-12 -12 -29 -12t-30 12zM370 540q-12 13 -12 30t12 29q13 13 30 13t29 -13q13 -12 13 -29t-13 -30
q-12 -12 -29 -12t-30 12zM128 470q-12 13 -12 30t12 29q13 13 30 13t29 -13q13 -12 13 -29t-13 -30q-12 -12 -29 -12t-30 12zM237 407q-12 13 -12 30t12 29q13 13 30 13t29 -13q13 -12 13 -29t-13 -30q-12 -12 -29 -12t-30 12zM929 225q-12 13 -12 30t12 29q13 13 30 13
t29 -13q13 -12 13 -29t-13 -30q-12 -12 -29 -12t-30 12zM1055 225q-12 13 -12 30t12 29q13 13 30 13t29 -13q13 -12 13 -29t-13 -30q-12 -12 -29 -12t-30 12zM867 407q-12 13 -12 30t12 29q13 13 30 13t29 -13q13 -12 13 -29t-13 -30q-12 -12 -29 -12t-30 12zM307 -198
q-12 12 -12 29t12 30q13 12 30 12t29 -12q13 -13 13 -30t-13 -29q-12 -13 -29 -13t-30 13zM62 225q-12 13 -12 30t12 29q13 13 30 13t29 -13q13 -12 13 -29t-13 -30q-12 -12 -29 -12t-30 12zM797 649q-12 13 -12 30t12 29q13 13 30 13t29 -13q13 -12 13 -29t-13 -30
q-12 -12 -29 -12t-30 12zM552 589q-12 13 -12 30t12 29q13 13 30 13t29 -13q13 -12 13 -29t-13 -30q-12 -12 -29 -12t-30 12zM552 715q-12 13 -12 30t12 29q13 13 30 13t29 -13q13 -12 13 -29t-13 -30q-12 -12 -29 -12t-30 12zM552 -264q-12 12 -12 29t12 30q13 12 30 12
t29 -12q13 -13 13 -30t-13 -29q-12 -13 -29 -13t-30 13zM552 -138q-12 12 -12 29t12 30q13 12 30 12t29 -12q13 -13 13 -30t-13 -29q-12 -13 -29 -13t-30 13zM976 470q-12 13 -12 30t12 29q13 13 30 13t29 -13q13 -12 13 -29t-13 -30q-12 -12 -29 -12t-30 12zM552 225
q-12 13 -12 30t12 29q13 13 30 13t29 -13q13 -12 13 -29t-13 -30q-12 -12 -29 -12t-30 12zM128 -19q-12 12 -12 29t12 29q13 13 30 13t29 -13q26 -21 6 -50q-17 -26 -44 -21q-12 2 -21 13zM237 43q-12 13 -12 30t12 29q13 13 30 13t29 -13q13 -12 13 -29t-13 -30
q-12 -12 -29 -12t-30 12zM370 -89q-12 12 -12 29t12 30q13 12 30 12t29 -12q13 -13 13 -30t-13 -29q-12 -13 -29 -13t-30 13zM188 225q-12 13 -12 30t12 29q13 13 30 13t29 -13q13 -12 13 -29t-13 -30q-12 -12 -29 -12t-30 12z" />
    <glyph glyph-name="ornm5" horiz-adv-x="1058" 
d="M320 420l-85 85l44 44l85 -85q16 13 37 24l-90 223l58 23l90 -223q7 2 39 8v121h62v-121q22 -3 43 -9l94 221l57 -25l-94 -220q13 -6 34 -22l85 85l44 -44l-85 -85q15 -22 24 -37l223 90l23 -58l-223 -90q2 -7 8 -39h121v-62h-121q-3 -23 -9 -44l221 -93l-25 -57l-220 93
q-10 -18 -22 -33l85 -85l-44 -44l-85 85q-23 -17 -37 -25l90 -222l-58 -23l-90 223q-7 -2 -39 -8v-121h-62v121q-23 3 -44 9l-93 -221l-57 25l93 219q-28 18 -33 23l-85 -85l-44 44l85 85q-14 17 -25 37l-222 -90l-23 58l222 90q-5 21 -7 39h-121v62h121q2 25 8 43l-220 94
l25 57l219 -94q10 17 23 34zM380 403q-61 -61 -61 -148q0 -88 61 -149t149 -61q87 0 148 61q62 62 62 149q0 86 -62 148t-148 62q-87 0 -149 -62zM420 146q-45 45 -45 109t45 109t109 45t109 -45t45 -109t-45 -109t-109 -45t-109 45zM459 324q-28 -28 -28 -69q0 -42 28 -70
t70 -28q41 0 69 28q29 29 29 70q0 40 -29 69t-69 29q-41 0 -70 -29zM499 225q-12 13 -12 30t12 29q13 13 30 13t29 -13q13 -12 13 -29t-13 -30q-12 -12 -29 -12t-30 12z" />
    <glyph glyph-name="ornm6" horiz-adv-x="1108" 
d="M389 46l-169 -169l-44 44l169 169q-14 17 -25 37l-222 -90l-23 58l222 89q-5 21 -7 40h-240v62h240q2 25 8 43l-220 94l25 57l220 -93q8 17 22 33l-169 169l44 44l169 -169q16 13 37 24l-90 223l58 23l89 -223q6 2 40 8v240h62v-240q22 -3 43 -9l94 221l57 -25l-93 -220
q23 -14 33 -22l169 169l44 -44l-169 -169q13 -16 24 -38l223 91l23 -58l-223 -90q2 -7 8 -39h240v-62h-240q-3 -22 -9 -43l221 -94l-25 -57l-220 92q-5 -8 -22 -32l169 -169l-44 -44l-169 169q-18 -14 -38 -25l91 -222l-58 -23l-90 223q-7 -2 -39 -8v-240h-62v240
q-22 3 -43 9l-94 -221l-57 25l92 220q-10 6 -32 22zM405 403q-61 -61 -61 -148q0 -88 61 -149t149 -61q87 0 148 61q62 62 62 149q0 86 -62 148t-148 62q-87 0 -149 -62zM445 146q-45 45 -45 109t45 109t109 45t109 -45t45 -109t-45 -109t-109 -45t-109 45zM485 324
q-29 -29 -29 -69q0 -41 29 -70q29 -28 69 -28t69 28q29 29 29 70q0 40 -29 69t-69 29t-69 -29z" />
    <glyph glyph-name="ornm7" horiz-adv-x="1080" 
d="M89 65q-39 91 -39 190t39 190q78 183 261 261q91 39 190 39t190 -39q183 -78 261 -261q39 -91 39 -190t-39 -190q-78 -183 -261 -261q-91 -39 -190 -39t-190 39q-183 78 -261 261zM233 562q-127 -127 -127 -307t127 -307t307 -127t307 127t127 307t-127 307t-307 127
t-307 -127zM272 -12q-110 110 -110 267t110 267q111 111 268 111q158 0 267 -111q111 -110 111 -267t-111 -267q-109 -111 -267 -111q-157 0 -268 111zM312 482q-94 -94 -94 -227q0 -134 94 -228t228 -94t228 94t94 228q0 133 -94 227q-95 95 -228 95t-228 -95zM352 67
q-78 78 -78 188t78 188t188 78t188 -78t78 -188t-78 -188t-188 -78t-188 78zM391 403q-61 -61 -61 -148q0 -88 61 -149t149 -61q87 0 148 61q62 62 62 149q0 86 -62 148t-148 62q-87 0 -149 -62zM431 146q-45 45 -45 109t45 109t109 45t109 -45t45 -109t-45 -109t-109 -45
t-109 45zM471 324q-29 -29 -29 -69q0 -41 29 -70q29 -28 69 -28t69 28q29 29 29 70q0 40 -29 69t-69 29t-69 -29zM510 225q-12 13 -12 30t12 29q13 13 30 13t29 -13q13 -12 13 -29t-13 -30q-12 -12 -29 -12t-30 12z" />
    <glyph glyph-name="ornm8" horiz-adv-x="1106" 
d="M584 758v-314h-62v314h62zM584 66v-314h-62v314h62zM1056 224h-314v62h314v-62zM364 224h-314v62h314v-62zM931 589l-222 -222l-44 44l222 222zM441 99l-222 -222l-44 44l222 222zM887 -123l-222 222l44 44l222 -222zM397 367l-222 222l44 44l222 -222zM770 710
l-117 -291l-58 23l118 291zM511 68l-118 -291l-57 23l117 291zM1008 38l-291 117l23 58l291 -118zM366 297l-291 118l23 57l291 -117zM1029 423l-289 -123l-25 58l289 122zM391 152l-289 -122l-25 57l289 123zM721 -221l-123 289l58 25l122 -289zM450 417l-122 289l57 25
l123 -289z" />
    <glyph glyph-name="ornm9" horiz-adv-x="600" 
d="M50 500h500v-500h-500v500z" />
    <glyph glyph-name="zero.alt" 
d="M101 584q62 92 174 92q111 0 173 -92t62 -252q0 -161 -62 -253q-61 -91 -173 -91q-113 0 -174 91t-61 253q0 161 61 252zM378 525q-36 65 -103 65t-103 -65q-36 -64 -36 -193q0 -128 36 -193t103 -65t103 65q36 64 36 193t-36 193z" />
    <glyph glyph-name="one.alt" horiz-adv-x="344" 
d="M55 506v88q64 31 133 70h61v-664h-94v550q-7 -4 -100 -44z" />
    <glyph glyph-name="two.alt" horiz-adv-x="509" 
d="M480 84v-84h-422v85q168 175 234 274q61 88 61 141q0 41 -32.5 66.5t-76.5 25.5q-43 0 -73.5 -29.5t-31.5 -73.5l-93 19q6 74 67 120q61 48 135 48q80 0 141 -50q61 -49 61 -126q0 -82 -71 -183q-75 -106 -195 -233h296z" />
    <glyph glyph-name="three.alt" horiz-adv-x="499" 
d="M159 308l-47 75l191 197h-255v84h388v-75l-178 -180q83 -5 137 -66q54 -60 54 -143q0 -90 -66 -151q-65 -61 -162 -61q-60 0 -111 29.5t-80 80.5l75 42q41 -68 117 -68q55 0 92 37q39 37 39 91q0 52 -39 90q-38 38 -91 38q-36 0 -64 -20z" />
    <glyph glyph-name="four.alt" horiz-adv-x="538" 
d="M35 276l294 388h90v-405h99v-84h-99v-175h-92v175h-292v101zM135 259h192v262q-136 -190 -192 -262z" />
    <glyph glyph-name="five.alt" horiz-adv-x="499" 
d="M421 580h-241q-4 -101 -14 -186q39 18 91 18q82 0 139 -59q58 -58 58 -147q0 -92 -65 -155t-163 -63q-60 0 -111 29.5t-80 80.5l75 42q41 -68 117 -68q54 0 92 37q39 37 39 89q0 60 -33.5 95t-94.5 35q-55 0 -96 -41l-69 37q20 186 27 340h329v-84z" />
    <glyph glyph-name="six.alt" horiz-adv-x="518" 
d="M259 320q-55 0 -89 -35t-34 -89q0 -50 36 -88q38 -36 87 -36q55 0 89 35t34 89q0 51 -37 87q-36 37 -86 37zM233 398q19 6 45 6q79 0 139 -61q61 -60 61 -145q0 -88 -66 -149q-64 -61 -155 -61q-89 0 -153 61t-64 149q0 53 35 120q23 44 104 172l133 203l76 -47
q-90 -133 -155 -248z" />
    <glyph glyph-name="seven.alt" horiz-adv-x="452" 
d="M10 664h422v-69q-144 -300 -276 -617l-87 39l87 197l108 230l64 134h-318v86z" />
    <glyph glyph-name="eight.alt" horiz-adv-x="562" 
d="M502 187q0 -82 -65 -141q-64 -58 -156 -58q-93 0 -157 58t-64 141q0 51 27 94t74 69q-82 49 -82 140q0 75 59 131q58 55 143 55t143 -55q59 -56 59 -131q0 -91 -82 -140q47 -26 74 -69t27 -94zM173 490q0 -43 31.5 -73t76.5 -30t76.5 30t31.5 73q0 42 -31.5 72t-76.5 30
t-76.5 -30t-31.5 -72zM156 187q0 -47 36 -81q37 -34 89 -34q53 0 88 34q37 34 37 81q0 48 -37 82q-35 34 -88 34q-52 0 -89 -34q-36 -35 -36 -82z" />
    <glyph glyph-name="nine.alt" horiz-adv-x="518" 
d="M259 344q55 0 89 35t34 89q0 51 -37 87q-36 37 -86 37q-55 0 -89 -35t-34 -89q0 -50 36 -88q38 -36 87 -36zM285 266q-19 -6 -45 -6q-78 0 -140 60q-60 62 -60 146q0 87 65 149q65 61 156 61q89 0 153 -61t64 -149q0 -53 -35 -120q-16 -32 -105 -173l-132 -202l-76 47
q90 133 155 248z" />
    <glyph glyph-name="zero.lf" 
d="M101 584q62 92 174 92q111 0 173 -92t62 -252q0 -161 -62 -253q-61 -91 -173 -91q-113 0 -174 91t-61 253q0 161 61 252zM378 525q-36 65 -103 65t-103 -65q-36 -64 -36 -193q0 -128 36 -193t103 -65t103 65q36 64 36 193t-36 193z" />
    <glyph glyph-name="one.lf" horiz-adv-x="344" 
d="M249 664v-664h-94v550q-7 -4 -100 -44v88q64 31 133 70h61z" />
    <glyph glyph-name="two.lf" horiz-adv-x="509" 
d="M480 84v-84h-422v85q168 175 234 274q61 88 61 141q0 41 -32.5 66.5t-76.5 25.5q-43 0 -73.5 -29.5t-31.5 -73.5l-93 19q6 74 67 120q61 48 135 48q80 0 141 -50q61 -49 61 -126q0 -82 -71 -183q-75 -106 -195 -233h296z" />
    <glyph glyph-name="three.lf" horiz-adv-x="519" 
d="M154 292v96q59 1 95 10q40 11 64.5 37.5t24.5 61.5q0 41 -31 68t-80 27q-38 0 -67.5 -19t-41.5 -53l-80 33q21 56 72 89.5t119 33.5q93 0 148 -49q57 -48 57 -129q0 -45 -22.5 -83t-60.5 -58q52 -18 84.5 -63t32.5 -101q0 -95 -64 -150t-158 -55q-68 0 -125 29t-86 82
l74 41q41 -68 130 -68q58 0 95.5 30t37.5 83q0 50 -41 82t-100 32q-48 0 -77 -7z" />
    <glyph glyph-name="four.lf" horiz-adv-x="538" 
d="M418 167v-167h-92v167h-300v101l295 396h97v-413h99v-84h-99zM326 532l-200 -281h200v281z" />
    <glyph glyph-name="five.lf" horiz-adv-x="499" 
d="M91 664h342v-84h-253q-8 -142 -12 -186q39 19 98 19q82 0 143 -59q60 -59 60 -145q0 -95 -63 -158q-62 -63 -158 -63q-62 0 -124 30q-60 32 -87 81l75 42q38 -69 124 -69q62 0 99.5 38t37.5 96q0 54 -38 88.5t-96 34.5q-63 0 -103 -42l-68 37q12 118 23 340z" />
    <glyph glyph-name="six.lf" horiz-adv-x="534" 
d="M367 701l38 -84q-106 -48 -169 -109t-87 -149q61 61 150 61q86 0 140 -62q55 -61 55 -152q0 -93 -60 -156q-60 -62 -151 -62q-109 0 -177 78q-66 78 -66 187q0 152 92 271q93 119 235 177zM279 336q-45 0 -84 -22.5t-60 -61.5q0 -76 34 -128t106 -52q55 0 89 38.5
t34 97.5q0 57 -32.5 92.5t-86.5 35.5z" />
    <glyph glyph-name="seven.lf" horiz-adv-x="452" 
d="M10 664h422v-69q-144 -300 -276 -617l-87 39l87 197l108 230l64 134h-318v86z" />
    <glyph glyph-name="eight.lf" horiz-adv-x="562" 
d="M56 183q0 112 103 167q-83 50 -83 144q0 76 57 129q58 53 148 53t148 -53q57 -53 57 -129q0 -94 -83 -144q103 -55 103 -167q0 -83 -63 -139q-64 -56 -162 -56t-162 56q-63 56 -63 139zM152 187q0 -50 37 -82.5t92 -32.5t92 32.5t37 82.5q0 47 -38 82q-37 34 -91 34
t-91 -34q-38 -35 -38 -82zM170 490q0 -43 32.5 -73t78.5 -30t78.5 30t32.5 73q0 44 -32 73t-79 29t-79 -29t-32 -73z" />
    <glyph glyph-name="nine.lf" horiz-adv-x="534" 
d="M167 -37l-38 84q106 48 169 109t87 149q-61 -61 -150 -61q-85 0 -141 62q-54 62 -54 152q0 94 60 155q60 63 151 63q110 0 176 -78q67 -77 67 -187q0 -153 -93 -271q-91 -118 -234 -177zM255 328q45 0 84 22.5t60 61.5q0 75 -35 128q-34 52 -105 52q-55 0 -89 -38.5
t-34 -97.5q0 -57 32.5 -92.5t86.5 -35.5z" />
    <glyph glyph-name="dollar.lf" 
d="M30 88l65 61q78 -80 171 -80q57 0 100 29q43 28 43 87q0 40 -30 70q-11 11 -36 23q-25 14 -39 18q-11 5 -47 18l-55 21q-20 7 -48 24q-40 24 -59.5 56.5t-22.5 86.5q0 72 50 119q50 48 129 54v95h64v-97q83 -9 164 -65l-57 -67q-59 53 -144 53q-48 0 -82 -24.5t-34 -67.5
q0 -30 27 -57q13 -11 32 -20l37 -17l44 -15l58 -21q20 -8 52 -26t48 -37q43 -45 43 -114q0 -84 -53 -138t-140 -66v-97h-64v94q-116 5 -216 100z" />
    <glyph glyph-name="Euro.lf" horiz-adv-x="650" 
d="M85 374h-75v74h90q31 104 117 166t206 62q105 0 188 -51l-43 -74q-61 39 -145 39q-81 0 -139 -37t-85 -105h272v-74h-291q-2 -38 -2 -42q0 -22 2 -40h291v-74h-273q27 -69 85 -106.5t140 -37.5q89 0 156 46l50 -70q-92 -62 -206 -62q-122 0 -207 61t-117 169h-89v74h75
q-2 34 -2 40q0 4 2 42z" />
    <glyph glyph-name="cent.lf" 
d="M440 173l45 -70q-52 -42 -130 -48v-87h-64v89q-93 13 -155 84q-60 71 -60 175q0 97 60 169q62 73 155 89v90h64v-87q67 -5 123 -42l-43 -75q-44 34 -102 34q-68 0 -116 -52t-48 -126q0 -80 48 -129q49 -49 117 -49q59 0 106 35z" />
    <glyph glyph-name="sterling.lf" 
d="M486 86v-86h-406v86h57v230h-57v84h57v54q0 98 57 159q57 63 145 63t147 -37l-39 -78q-34 31 -104 31q-115 0 -115 -165v-27h135v-84h-135v-230h258z" />
    <glyph glyph-name="yen.lf" 
d="M225 256h-170v74h149l-187 334h108l152 -279h2l147 279h106l-190 -334h148v-74h-170v-64h170v-74h-172v-118h-91v118h-172v74h170v64z" />
    <glyph glyph-name="florin.lf" 
d="M393 400v-84h-131l-41 -363q-9 -78 -47.5 -121.5t-98.5 -43.5q-36 0 -81 12l20 79q24 -7 50 -7q34 0 47.5 21.5t19.5 78.5l39 344h-80v84h89l13 111q9 79 51.5 122t111.5 43q59 0 128 -32l-36 -76q-34 24 -83 24q-41 0 -58.5 -23t-23.5 -77l-11 -92h122z" />
    <glyph glyph-name="afii61352.lf" horiz-adv-x="1129" 
d="M660 700v-700h-85l-384 522v-522h-96v700h84l385 -522v522h96zM799 660q49 52 125 52t125 -52q50 -52 50 -126t-50 -127q-49 -51 -125 -51t-125 51q-50 53 -50 127t50 126zM996 453q29 34 29 81q0 48 -29 80q-28 33 -72 33t-73 -33q-28 -31 -28 -80t28 -81q29 -32 73 -32
q43 0 72 32z" />
    <glyph glyph-name="percent.lf" horiz-adv-x="850" 
d="M377 546q0 -67 -46 -113t-113 -46q-68 0 -114 46t-46 113t46 113q47 47 114 47q66 0 113 -47q46 -46 46 -113zM219 635q-37 0 -61.5 -25t-24.5 -63t24.5 -63.5t61.5 -25.5q35 0 59 25.5t24 63.5q0 37 -24 62.5t-59 25.5zM792 153q0 -67 -46 -113t-113 -46q-68 0 -114 46
t-46 113t46 113q47 47 114 47q66 0 113 -47q46 -46 46 -113zM634 242q-37 0 -61.5 -25t-24.5 -63t24.5 -63.5t61.5 -25.5q35 0 59 25.5t24 63.5q0 37 -24 62.5t-59 25.5zM151 28l497 684l55 -40l-497 -684z" />
    <glyph glyph-name="perthousand.lf" horiz-adv-x="1236" 
d="M1178 153q0 -67 -46 -113t-113 -46q-68 0 -114 46t-46 113t46 113q47 47 114 47q66 0 113 -47q46 -46 46 -113zM1020 242q-37 0 -61.5 -25t-24.5 -63t24.5 -63.5t61.5 -25.5q35 0 59 25.5t24 63.5q0 37 -24 62.5t-59 25.5zM377 546q0 -67 -46 -113t-113 -46
q-68 0 -114 46t-46 113t46 113q47 47 114 47q66 0 113 -47q46 -46 46 -113zM219 635q-37 0 -61.5 -25t-24.5 -63t24.5 -63.5t61.5 -25.5q35 0 59 25.5t24 63.5q0 37 -24 62.5t-59 25.5zM792 153q0 -67 -46 -113t-113 -46q-68 0 -114 46t-46 113t46 113q47 47 114 47
q66 0 113 -47q46 -46 46 -113zM634 242q-37 0 -61.5 -25t-24.5 -63t24.5 -63.5t61.5 -25.5q35 0 59 25.5t24 63.5q0 37 -24 62.5t-59 25.5zM151 28l497 684l55 -40l-497 -684z" />
    <glyph glyph-name="zero.osf" horiz-adv-x="610" 
d="M118 435q80 77 187 77t186 -77q79 -76 79 -185t-79 -185q-79 -77 -186 -77t-187 77q-78 76 -78 185t78 185zM425 377q-48 51 -120 51q-71 0 -121 -51q-48 -51 -48 -127t48 -127q50 -51 121 -51q72 0 120 51q49 50 49 127t-49 127z" />
    <glyph glyph-name="one.osf" horiz-adv-x="344" 
d="M249 512v-512h-94v398q-7 -4 -100 -44v88q64 31 133 70h61z" />
    <glyph glyph-name="two.osf" horiz-adv-x="509" 
d="M141 338l-91 22q11 68 62 110t124 42q81 0 134 -44t53 -116q0 -91 -112 -179q-46 -36 -135 -89h293v-84h-409v96q19 14 56 38q42 28 58 40q51 35 87 66q66 58 66 111q0 38 -24.5 57.5t-67.5 19.5q-39 0 -64.5 -24t-29.5 -66z" />
    <glyph glyph-name="three.osf" horiz-adv-x="519" 
d="M154 128v96q59 1 95 10q40 11 64.5 37.5t24.5 61.5q0 41 -31 68t-80 27q-38 0 -67.5 -19t-41.5 -53l-80 33q21 56 72 89.5t119 33.5q93 0 148 -49q57 -48 57 -129q0 -45 -22.5 -83t-60.5 -58q52 -18 84.5 -63t32.5 -101q0 -94 -64 -149q-65 -56 -158 -56q-68 0 -125 29
t-86 82l74 41q41 -68 130 -68q58 0 95.5 30t37.5 83q0 50 -41 82t-100 32q-48 0 -77 -7z" />
    <glyph glyph-name="four.osf" horiz-adv-x="548" 
d="M533 84v-84h-94v-160h-92v160h-327v101l324 399h95v-416h94zM120 84h227v281q-128 -168 -227 -281z" />
    <glyph glyph-name="five.osf" horiz-adv-x="499" 
d="M91 500h342v-84h-253q-8 -142 -12 -186q39 19 98 19q82 0 143 -59q60 -58 60 -145q0 -95 -63 -158q-61 -63 -158 -63q-63 0 -124 31q-60 30 -87 80l75 42q38 -69 124 -69q62 0 99.5 38t37.5 96q0 54 -38 88.5t-96 34.5q-63 0 -103 -42l-68 37q12 118 23 340z" />
    <glyph glyph-name="six.osf" horiz-adv-x="534" 
d="M367 701l38 -84q-106 -48 -169 -109t-87 -149q61 61 150 61q86 0 140 -62q55 -61 55 -152q0 -93 -60 -156q-60 -62 -151 -62q-109 0 -177 78q-66 78 -66 187q0 152 92 271q93 119 235 177zM279 336q-45 0 -84 -22.5t-60 -61.5q0 -76 34 -128t106 -52q55 0 89 38.5
t34 97.5q0 57 -32.5 92.5t-86.5 35.5z" />
    <glyph glyph-name="seven.osf" horiz-adv-x="452" 
d="M10 500h422v-69q-144 -300 -276 -617l-87 39l87 197l108 230l64 134h-318v86z" />
    <glyph glyph-name="eight.osf" horiz-adv-x="562" 
d="M56 183q0 112 103 167q-83 50 -83 144q0 76 57 129q58 53 148 53t148 -53q57 -53 57 -129q0 -94 -83 -144q103 -55 103 -167q0 -83 -63 -139q-64 -56 -162 -56t-162 56q-63 56 -63 139zM152 187q0 -50 37 -82.5t92 -32.5t92 32.5t37 82.5q0 47 -38 82q-37 34 -91 34
t-91 -34q-38 -35 -38 -82zM170 490q0 -43 32.5 -73t78.5 -30t78.5 30t32.5 73q0 44 -32 73t-79 29t-79 -29t-32 -73z" />
    <glyph glyph-name="nine.osf" horiz-adv-x="534" 
d="M167 -201l-38 84q106 48 169 109t87 149q-61 -61 -150 -61q-85 0 -141 62q-54 62 -54 152q0 94 60 155q60 63 151 63q110 0 176 -78q67 -77 67 -187q0 -153 -93 -271q-91 -118 -234 -177zM255 164q45 0 84 22.5t60 61.5q0 75 -35 128q-34 52 -105 52q-55 0 -89 -38.5
t-34 -97.5q0 -57 32.5 -92.5t86.5 -35.5z" />
    <glyph glyph-name="dollar.osf" 
d="M30 88l65 61q78 -80 171 -80q57 0 100 29q43 28 43 87q0 40 -30 70q-11 11 -36 23q-25 14 -39 18q-11 5 -47 18l-55 21q-20 7 -48 24q-40 24 -59.5 56.5t-22.5 86.5q0 72 50 119q50 48 129 54v95h64v-97q83 -9 164 -65l-57 -67q-59 53 -144 53q-48 0 -82 -24.5t-34 -67.5
q0 -30 27 -57q13 -11 32 -20l37 -17l44 -15l58 -21q20 -8 52 -26t48 -37q43 -45 43 -114q0 -84 -53 -138t-140 -66v-97h-64v94q-116 5 -216 100z" />
    <glyph glyph-name="Euro.osf" horiz-adv-x="650" 
d="M85 374h-75v74h90q31 104 117 166t206 62q105 0 188 -51l-43 -74q-61 39 -145 39q-81 0 -139 -37t-85 -105h272v-74h-291q-2 -38 -2 -42q0 -22 2 -40h291v-74h-273q27 -69 85 -106.5t140 -37.5q89 0 156 46l50 -70q-92 -62 -206 -62q-122 0 -207 61t-117 169h-89v74h75
q-2 34 -2 40q0 4 2 42z" />
    <glyph glyph-name="cent.osf" 
d="M440 173l45 -70q-52 -42 -130 -48v-87h-64v89q-93 13 -155 84q-60 71 -60 175q0 97 60 169q62 73 155 89v90h64v-87q67 -5 123 -42l-43 -75q-44 34 -102 34q-68 0 -116 -52t-48 -126q0 -80 48 -129q49 -49 117 -49q59 0 106 35z" />
    <glyph glyph-name="sterling.osf" 
d="M486 86v-86h-406v86h57v230h-57v84h57v54q0 98 57 159q57 63 145 63t147 -37l-39 -78q-34 31 -104 31q-115 0 -115 -165v-27h135v-84h-135v-230h258z" />
    <glyph glyph-name="yen.osf" 
d="M225 256h-170v74h149l-187 334h108l152 -279h2l147 279h106l-190 -334h148v-74h-170v-64h170v-74h-172v-118h-91v118h-172v74h170v64z" />
    <glyph glyph-name="florin.osf" 
d="M271 400h122v-84h-131l-41 -363q-9 -78 -47.5 -121.5t-98.5 -43.5q-36 0 -81 12l20 79q24 -7 50 -7q34 0 47.5 21.5t19.5 78.5l39 344h-80v84h89l13 111q9 79 51.5 122t111.5 43q59 0 128 -32l-36 -76q-34 24 -83 24q-41 0 -58.5 -23t-23.5 -77z" />
    <glyph glyph-name="afii61352.osf" horiz-adv-x="1129" 
d="M660 700v-700h-85l-384 522v-522h-96v700h84l385 -522v522h96zM799 660q49 52 125 52t125 -52q50 -52 50 -126t-50 -127q-49 -51 -125 -51t-125 51q-50 53 -50 127t50 126zM996 453q29 34 29 81q0 48 -29 80q-28 33 -72 33t-73 -33q-28 -31 -28 -80t28 -81q29 -32 73 -32
q43 0 72 32z" />
    <glyph glyph-name="percent.osf" horiz-adv-x="850" 
d="M377 546q0 -67 -46 -113t-113 -46q-68 0 -114 46t-46 113t46 113q47 47 114 47q66 0 113 -47q46 -46 46 -113zM219 635q-37 0 -61.5 -25t-24.5 -63t24.5 -63.5t61.5 -25.5q35 0 59 25.5t24 63.5q0 37 -24 62.5t-59 25.5zM792 153q0 -67 -46 -113t-113 -46q-68 0 -114 46
t-46 113t46 113q47 47 114 47q66 0 113 -47q46 -46 46 -113zM634 242q-37 0 -61.5 -25t-24.5 -63t24.5 -63.5t61.5 -25.5q35 0 59 25.5t24 63.5q0 37 -24 62.5t-59 25.5zM151 28l497 684l55 -40l-497 -684z" />
    <glyph glyph-name="perthousand.osf" horiz-adv-x="1236" 
d="M1178 153q0 -67 -46 -113t-113 -46q-68 0 -114 46t-46 113t46 113q47 47 114 47q66 0 113 -47q46 -46 46 -113zM1020 242q-37 0 -61.5 -25t-24.5 -63t24.5 -63.5t61.5 -25.5q35 0 59 25.5t24 63.5q0 37 -24 62.5t-59 25.5zM377 546q0 -67 -46 -113t-113 -46
q-68 0 -114 46t-46 113t46 113q47 47 114 47q66 0 113 -47q46 -46 46 -113zM219 635q-37 0 -61.5 -25t-24.5 -63t24.5 -63.5t61.5 -25.5q35 0 59 25.5t24 63.5q0 37 -24 62.5t-59 25.5zM792 153q0 -67 -46 -113t-113 -46q-68 0 -114 46t-46 113t46 113q47 47 114 47
q66 0 113 -47q46 -46 46 -113zM634 242q-37 0 -61.5 -25t-24.5 -63t24.5 -63.5t61.5 -25.5q35 0 59 25.5t24 63.5q0 37 -24 62.5t-59 25.5zM151 28l497 684l55 -40l-497 -684z" />
    <glyph glyph-name="zero.slash" 
d="M101 584q62 92 174 92q111 0 173 -92t62 -252q0 -161 -62 -253q-61 -91 -173 -91q-113 0 -174 91t-61 253q0 161 61 252zM275 74q126 0 138 218h-276q11 -218 138 -218zM275 590q-127 0 -138 -218h276q-12 218 -138 218z" />
    <glyph glyph-name="zero.tf" 
d="M101 584q62 92 174 92q111 0 173 -92t62 -252q0 -161 -62 -253q-61 -91 -173 -91q-113 0 -174 91t-61 253q0 161 61 252zM378 525q-36 65 -103 65t-103 -65q-36 -64 -36 -193q0 -128 36 -193t103 -65t103 65q36 64 36 193t-36 193z" />
    <glyph glyph-name="one.tf" 
d="M113 0v84h154v474q-91 -46 -174 -79v91q110 50 197 94h71v-580h140v-84h-388z" />
    <glyph glyph-name="two.tf" 
d="M493 84v-84h-422v85q168 175 234 274q61 88 61 141q0 41 -32.5 66.5t-76.5 25.5q-43 0 -73.5 -29.5t-31.5 -73.5l-93 19q6 74 67 120q62 48 135 48q80 0 141 -50q61 -49 61 -126q0 -82 -71 -183q-75 -106 -195 -233h296z" />
    <glyph glyph-name="three.tf" 
d="M169 292v96q59 1 95 10q40 11 64.5 37.5t24.5 61.5q0 41 -31 68t-80 27q-38 0 -67.5 -19t-41.5 -53l-80 33q21 56 72 89.5t119 33.5q93 0 148 -49q57 -48 57 -129q0 -45 -22.5 -83t-60.5 -58q52 -18 84.5 -63t32.5 -101q0 -95 -64 -150t-158 -55q-68 0 -125 29t-86 82
l74 41q41 -68 130 -68q58 0 95.5 30t37.5 83q0 50 -41 82t-100 32q-48 0 -77 -7z" />
    <glyph glyph-name="four.tf" 
d="M418 167v-167h-92v167h-300v101l295 396h97v-413h99v-84h-99zM326 532l-200 -281h200v281z" />
    <glyph glyph-name="five.tf" 
d="M112 664h342v-84h-253q-7 -142 -12 -186q39 19 98 19q82 0 143 -59q60 -59 60 -145q0 -95 -63 -158q-61 -63 -158 -63q-63 0 -124 30q-60 32 -87 81l75 42q37 -69 124 -69q62 0 99.5 38t37.5 96q0 54 -38 88.5t-96 34.5q-62 0 -103 -42l-68 37q12 118 23 340z" />
    <glyph glyph-name="six.tf" 
d="M375 701l38 -84q-106 -48 -169 -109t-87 -149q61 61 150 61q86 0 140 -62q55 -61 55 -152q0 -93 -60 -156q-60 -62 -151 -62q-109 0 -177 78q-66 78 -66 187q0 152 92 271q93 119 235 177zM287 336q-45 0 -84 -22.5t-60 -61.5q0 -76 34 -128t106 -52q55 0 89 38.5
t34 97.5q0 57 -32.5 92.5t-86.5 35.5z" />
    <glyph glyph-name="seven.tf" 
d="M55 664h422v-69q-144 -300 -276 -617l-87 39l87 197l108 230l64 134h-318v86z" />
    <glyph glyph-name="eight.tf" 
d="M50 183q0 112 103 167q-83 50 -83 144q0 76 57 129q58 53 148 53t148 -53q57 -53 57 -129q0 -94 -83 -144q103 -55 103 -167q0 -83 -63 -139q-64 -56 -162 -56t-162 56q-63 56 -63 139zM146 187q0 -50 37 -82.5t92 -32.5t92 32.5t37 82.5q0 47 -38 82q-37 34 -91 34
t-91 -34q-38 -35 -38 -82zM164 490q0 -43 32.5 -73t78.5 -30t78.5 30t32.5 73q0 44 -32 73t-79 29t-79 -29t-32 -73z" />
    <glyph glyph-name="nine.tf" 
d="M175 -37l-38 84q106 48 169 109t87 149q-61 -61 -150 -61q-85 0 -141 62q-54 62 -54 152q0 94 60 155q60 63 151 63q110 0 176 -78q67 -77 67 -187q0 -153 -93 -271q-91 -118 -234 -177zM263 328q45 0 84 22.5t60 61.5q0 75 -35 128q-34 52 -105 52q-55 0 -89 -38.5
t-34 -97.5q0 -57 32.5 -92.5t86.5 -35.5z" />
    <glyph glyph-name="dollar.tf" 
d="M30 88l65 61q78 -80 171 -80q57 0 100 29q43 28 43 87q0 40 -30 70q-11 11 -36 23q-25 14 -39 18q-11 5 -47 18l-55 21q-20 7 -48 24q-40 24 -59.5 56.5t-22.5 86.5q0 72 50 119q50 48 129 54v95h64v-97q83 -9 164 -65l-57 -67q-59 53 -144 53q-48 0 -82 -24.5t-34 -67.5
q0 -30 27 -57q13 -11 32 -20l37 -17l44 -15l58 -21q20 -8 52 -26t48 -37q43 -45 43 -114q0 -84 -53 -138t-140 -66v-97h-64v94q-116 5 -216 100z" />
    <glyph glyph-name="Euro.tf" 
d="M91 374h-71v74h80q21 110 78.5 169t146.5 59q139 0 199 -138l-87 -31q-36 83 -112 83q-101 0 -129 -142h179v-74h-188q-1 -9 -1 -42q0 -32 1 -40h188v-74h-180q29 -144 130 -144q89 0 122 113l90 -25q-55 -174 -212 -174q-90 0 -148 59.5t-78 170.5h-79v74h71q-1 9 -1 40
q0 33 1 42z" />
    <glyph glyph-name="cent.tf" 
d="M440 173l45 -70q-52 -42 -130 -48v-87h-64v89q-93 13 -155 84q-60 71 -60 175q0 97 60 169q62 73 155 89v90h64v-87q67 -5 123 -42l-43 -75q-44 34 -102 34q-68 0 -116 -52t-48 -126q0 -80 48 -129q49 -49 117 -49q59 0 106 35z" />
    <glyph glyph-name="sterling.tf" 
d="M486 86v-86h-406v86h57v230h-57v84h57v54q0 98 57 159q57 63 145 63t147 -37l-39 -78q-34 31 -104 31q-115 0 -115 -165v-27h135v-84h-135v-230h258z" />
    <glyph glyph-name="yen.tf" 
d="M225 256h-170v74h149l-187 334h108l152 -279h2l147 279h106l-190 -334h148v-74h-170v-64h170v-74h-172v-118h-91v118h-172v74h170v64z" />
    <glyph glyph-name="florin.tf" 
d="M271 400h122v-84h-131l-41 -363q-9 -78 -47.5 -121.5t-98.5 -43.5q-36 0 -81 12l20 79q24 -7 50 -7q34 0 47.5 21.5t19.5 78.5l39 344h-80v84h89l13 111q9 79 51.5 122t111.5 43q59 0 128 -32l-36 -76q-34 24 -83 24q-41 0 -58.5 -23t-23.5 -77z" />
    <glyph glyph-name="afii61352.tf" horiz-adv-x="1129" 
d="M660 700v-700h-85l-384 522v-522h-96v700h84l385 -522v522h96zM799 660q49 52 125 52t125 -52q50 -52 50 -126t-50 -127q-49 -51 -125 -51t-125 51q-50 53 -50 127t50 126zM996 453q29 34 29 81q0 48 -29 80q-28 33 -72 33t-73 -33q-28 -31 -28 -80t28 -81q29 -32 73 -32
q43 0 72 32z" />
    <glyph glyph-name="percent.tf" horiz-adv-x="850" 
d="M377 546q0 -67 -46 -113t-113 -46q-68 0 -114 46t-46 113t46 113q47 47 114 47q66 0 113 -47q46 -46 46 -113zM219 635q-37 0 -61.5 -25t-24.5 -63t24.5 -63.5t61.5 -25.5q35 0 59 25.5t24 63.5q0 37 -24 62.5t-59 25.5zM792 153q0 -67 -46 -113t-113 -46q-68 0 -114 46
t-46 113t46 113q47 47 114 47q66 0 113 -47q46 -46 46 -113zM634 242q-37 0 -61.5 -25t-24.5 -63t24.5 -63.5t61.5 -25.5q35 0 59 25.5t24 63.5q0 37 -24 62.5t-59 25.5zM151 28l497 684l55 -40l-497 -684z" />
    <glyph glyph-name="perthousand.tf" horiz-adv-x="1236" 
d="M1178 153q0 -67 -46 -113t-113 -46q-68 0 -114 46t-46 113t46 113q47 47 114 47q66 0 113 -47q46 -46 46 -113zM1020 242q-37 0 -61.5 -25t-24.5 -63t24.5 -63.5t61.5 -25.5q35 0 59 25.5t24 63.5q0 37 -24 62.5t-59 25.5zM377 546q0 -67 -46 -113t-113 -46
q-68 0 -114 46t-46 113t46 113q47 47 114 47q66 0 113 -47q46 -46 46 -113zM219 635q-37 0 -61.5 -25t-24.5 -63t24.5 -63.5t61.5 -25.5q35 0 59 25.5t24 63.5q0 37 -24 62.5t-59 25.5zM792 153q0 -67 -46 -113t-113 -46q-68 0 -114 46t-46 113t46 113q47 47 114 47
q66 0 113 -47q46 -46 46 -113zM634 242q-37 0 -61.5 -25t-24.5 -63t24.5 -63.5t61.5 -25.5q35 0 59 25.5t24 63.5q0 37 -24 62.5t-59 25.5zM151 28l497 684l55 -40l-497 -684z" />
    <glyph glyph-name="zeroslash.tosf" 
d="M102 436q67 76 173 76t173 -76q67 -74 67 -186q0 -111 -67 -187q-68 -75 -173 -75t-173 75q-67 76 -67 187q0 112 67 186zM275 72q61 0 97 35.5t44 102.5h-283q17 -138 142 -138zM133 290h283q-8 66 -44.5 102t-96.5 36t-97 -36t-45 -102z" />
    <glyph glyph-name="zero.tosf" 
d="M102 436q67 76 173 76t173 -76q67 -74 67 -186q0 -111 -67 -187q-68 -75 -173 -75t-173 75q-67 76 -67 187q0 112 67 186zM382 381q-38 47 -107 47t-107 -47q-37 -46 -37 -131q0 -86 37 -132t107 -46t107 46t37 132q0 85 -37 131z" />
    <glyph glyph-name="one.tosf" 
d="M113 0v84h154v322q-91 -46 -174 -79v91q110 50 197 94h71v-428h140v-84h-388z" />
    <glyph glyph-name="two.tosf" 
d="M164 338l-91 22q11 68 62 110t124 42q82 0 135 -44t53 -116q0 -89 -94 -167q-43 -36 -144 -101h283v-84h-409v97q162 111 200 144q67 58 67 110q0 38 -24.5 57.5t-67.5 19.5q-39 0 -64.5 -24t-29.5 -66z" />
    <glyph glyph-name="three.tosf" 
d="M169 128v96q59 1 95 10q40 11 64.5 37.5t24.5 61.5q0 41 -31 68t-80 27q-38 0 -67.5 -19t-41.5 -53l-80 33q21 56 72 89.5t119 33.5q93 0 148 -49q57 -48 57 -129q0 -45 -22.5 -83t-60.5 -58q52 -18 84.5 -63t32.5 -101q0 -94 -64 -149q-65 -56 -158 -56q-68 0 -125 29
t-86 82l74 41q41 -68 130 -68q58 0 95.5 30t37.5 83q0 50 -41 82t-100 32q-48 0 -77 -7z" />
    <glyph glyph-name="four.tosf" 
d="M530 84v-84h-94v-160h-92v160h-327v101l324 399h95v-416h94zM117 84h227v281q-128 -168 -227 -281z" />
    <glyph glyph-name="five.tosf" 
d="M112 500h342v-84h-253q-7 -142 -12 -186q39 19 98 19q82 0 143 -59q60 -58 60 -145q0 -95 -63 -158q-61 -63 -158 -63q-63 0 -124 31q-60 30 -87 80l75 42q37 -69 124 -69q62 0 99.5 38t37.5 96q0 54 -38 88.5t-96 34.5q-62 0 -103 -42l-68 37q12 118 23 340z" />
    <glyph glyph-name="six.tosf" 
d="M375 701l38 -84q-106 -48 -169 -109t-87 -149q61 61 150 61q86 0 140 -62q55 -61 55 -152q0 -93 -60 -156q-60 -62 -151 -62q-109 0 -177 78q-66 78 -66 187q0 152 92 271q93 119 235 177zM287 336q-45 0 -84 -22.5t-60 -61.5q0 -76 34 -128t106 -52q55 0 89 38.5
t34 97.5q0 57 -32.5 92.5t-86.5 35.5z" />
    <glyph glyph-name="seven.tosf" 
d="M55 500h422v-69q-144 -300 -276 -617l-87 39l87 197l108 230l64 134h-318v86z" />
    <glyph glyph-name="eight.tosf" 
d="M50 183q0 112 103 167q-83 50 -83 144q0 76 57 129q58 53 148 53t148 -53q57 -53 57 -129q0 -94 -83 -144q103 -55 103 -167q0 -83 -63 -139q-64 -56 -162 -56t-162 56q-63 56 -63 139zM146 187q0 -50 37 -82.5t92 -32.5t92 32.5t37 82.5q0 47 -38 82q-37 34 -91 34
t-91 -34q-38 -35 -38 -82zM164 490q0 -43 32.5 -73t78.5 -30t78.5 30t32.5 73q0 44 -32 73t-79 29t-79 -29t-32 -73z" />
    <glyph glyph-name="nine.tosf" 
d="M175 -201l-38 84q106 48 169 109t87 149q-61 -61 -150 -61q-85 0 -141 62q-54 62 -54 152q0 94 60 155q60 63 151 63q110 0 176 -78q67 -77 67 -187q0 -153 -93 -271q-91 -118 -234 -177zM263 164q45 0 84 22.5t60 61.5q0 75 -35 128q-34 52 -105 52q-55 0 -89 -38.5
t-34 -97.5q0 -57 32.5 -92.5t86.5 -35.5z" />
    <glyph glyph-name="dollar.tosf" 
d="M30 88l65 61q78 -80 171 -80q57 0 100 29q43 28 43 87q0 40 -30 70q-11 11 -36 23q-25 14 -39 18q-11 5 -47 18l-55 21q-20 7 -48 24q-40 24 -59.5 56.5t-22.5 86.5q0 72 50 119q50 48 129 54v95h64v-97q83 -9 164 -65l-57 -67q-59 53 -144 53q-48 0 -82 -24.5t-34 -67.5
q0 -30 27 -57q13 -11 32 -20l37 -17l44 -15l58 -21q20 -8 52 -26t48 -37q43 -45 43 -114q0 -84 -53 -138t-140 -66v-97h-64v94q-116 5 -216 100z" />
    <glyph glyph-name="Euro.tosf" 
d="M91 374h-71v74h80q21 110 78.5 169t146.5 59q139 0 199 -138l-87 -31q-36 83 -112 83q-101 0 -129 -142h179v-74h-188q-1 -9 -1 -42q0 -32 1 -40h188v-74h-180q29 -144 130 -144q89 0 122 113l90 -25q-55 -174 -212 -174q-90 0 -148 59.5t-78 170.5h-79v74h71q-1 9 -1 40
q0 33 1 42z" />
    <glyph glyph-name="cent.tosf" 
d="M440 173l45 -70q-52 -42 -130 -48v-87h-64v89q-93 13 -155 84q-60 71 -60 175q0 97 60 169q62 73 155 89v90h64v-87q67 -5 123 -42l-43 -75q-44 34 -102 34q-68 0 -116 -52t-48 -126q0 -80 48 -129q49 -49 117 -49q59 0 106 35z" />
    <glyph glyph-name="sterling.tosf" 
d="M486 86v-86h-406v86h57v230h-57v84h57v54q0 98 57 159q57 63 145 63t147 -37l-39 -78q-34 31 -104 31q-115 0 -115 -165v-27h135v-84h-135v-230h258z" />
    <glyph glyph-name="yen.tosf" 
d="M225 256h-170v74h149l-187 334h108l152 -279h2l147 279h106l-190 -334h148v-74h-170v-64h170v-74h-172v-118h-91v118h-172v74h170v64z" />
    <glyph glyph-name="florin.tosf" 
d="M271 400h122v-84h-131l-41 -363q-9 -78 -47.5 -121.5t-98.5 -43.5q-36 0 -81 12l20 79q24 -7 50 -7q34 0 47.5 21.5t19.5 78.5l39 344h-80v84h89l13 111q9 79 51.5 122t111.5 43q59 0 128 -32l-36 -76q-34 24 -83 24q-41 0 -58.5 -23t-23.5 -77z" />
    <glyph glyph-name="afii61352.tosf" horiz-adv-x="1129" 
d="M660 700v-700h-85l-384 522v-522h-96v700h84l385 -522v522h96zM799 660q49 52 125 52t125 -52q50 -52 50 -126t-50 -127q-49 -51 -125 -51t-125 51q-50 53 -50 127t50 126zM996 453q29 34 29 81q0 48 -29 80q-28 33 -72 33t-73 -33q-28 -31 -28 -80t28 -81q29 -32 73 -32
q43 0 72 32z" />
    <glyph glyph-name="percent.tosf" horiz-adv-x="850" 
d="M377 546q0 -67 -46 -113t-113 -46q-68 0 -114 46t-46 113t46 113q47 47 114 47q66 0 113 -47q46 -46 46 -113zM219 635q-37 0 -61.5 -25t-24.5 -63t24.5 -63.5t61.5 -25.5q35 0 59 25.5t24 63.5q0 37 -24 62.5t-59 25.5zM792 153q0 -67 -46 -113t-113 -46q-68 0 -114 46
t-46 113t46 113q47 47 114 47q66 0 113 -47q46 -46 46 -113zM634 242q-37 0 -61.5 -25t-24.5 -63t24.5 -63.5t61.5 -25.5q35 0 59 25.5t24 63.5q0 37 -24 62.5t-59 25.5zM151 28l497 684l55 -40l-497 -684z" />
    <glyph glyph-name="perthousand.tosf" horiz-adv-x="1236" 
d="M1178 153q0 -67 -46 -113t-113 -46q-68 0 -114 46t-46 113t46 113q47 47 114 47q66 0 113 -47q46 -46 46 -113zM1020 242q-37 0 -61.5 -25t-24.5 -63t24.5 -63.5t61.5 -25.5q35 0 59 25.5t24 63.5q0 37 -24 62.5t-59 25.5zM377 546q0 -67 -46 -113t-113 -46
q-68 0 -114 46t-46 113t46 113q47 47 114 47q66 0 113 -47q46 -46 46 -113zM219 635q-37 0 -61.5 -25t-24.5 -63t24.5 -63.5t61.5 -25.5q35 0 59 25.5t24 63.5q0 37 -24 62.5t-59 25.5zM792 153q0 -67 -46 -113t-113 -46q-68 0 -114 46t-46 113t46 113q47 47 114 47
q66 0 113 -47q46 -46 46 -113zM634 242q-37 0 -61.5 -25t-24.5 -63t24.5 -63.5t61.5 -25.5q35 0 59 25.5t24 63.5q0 37 -24 62.5t-59 25.5zM151 28l497 684l55 -40l-497 -684z" />
    <glyph glyph-name="a.smcp" horiz-adv-x="553" 
d="M108 0h-98l221 570h94l218 -570h-103l-44 119h-245zM275 451h-2l-92 -251h186z" />
    <glyph glyph-name="b.smcp" horiz-adv-x="541" 
d="M227 0h-137v570h145q85 0 141 -24q86 -39 86 -130q0 -87 -92 -120q116 -33 116 -134q0 -49 -25.5 -85t-72.5 -54q-61 -23 -161 -23zM390 167q0 40 -31.5 62t-86.5 22h-91v-172h44q86 0 119 16q46 19 46 72zM371 411q0 42 -33.5 61t-105.5 19h-51v-161h54q136 0 136 81z
" />
    <glyph glyph-name="c.smcp" horiz-adv-x="557" 
d="M486 107l46 -66q-77 -53 -169 -53q-132 0 -220 82t-88 215q0 127 90 212q89 85 220 85q83 0 154 -44l-42 -69q-55 32 -113 32q-92 0 -153 -61q-60 -62 -60 -155q0 -100 58 -158t154 -58q64 0 123 38z" />
    <glyph glyph-name="d.smcp" horiz-adv-x="619" 
d="M574 288q0 -107 -52 -177t-141 -92q-72 -19 -207 -19h-84v570h80q169 0 235 -27q169 -66 169 -255zM478 281q0 129 -97 178q-60 30 -200 30v-408q98 0 151 13q146 35 146 187z" />
    <glyph glyph-name="e.smcp" horiz-adv-x="515" 
d="M440 81v-81h-350v570h350v-81h-259v-156h259v-81h-259v-171h259z" />
    <glyph glyph-name="f.smcp" horiz-adv-x="445" 
d="M390 320v-81h-209v-239h-91v570h300v-81h-209v-169h209z" />
    <glyph glyph-name="g.smcp" horiz-adv-x="649" 
d="M365 325h224v-226q-41 -53 -103 -82t-133 -29q-132 0 -220 82t-88 215q0 125 90 211q91 86 218 86q131 0 223 -102l-66 -56q-62 77 -158 77q-91 0 -151 -62q-60 -61 -60 -154q0 -100 58 -158t153 -58q90 0 148 60v117h-135v79z" />
    <glyph glyph-name="h.smcp" horiz-adv-x="664" 
d="M574 570v-570h-91v254h-302v-254h-91v570h91v-235h302v235h91z" />
    <glyph glyph-name="i.smcp" horiz-adv-x="271" 
d="M181 570v-570h-91v570h91z" />
    <glyph glyph-name="j.smcp" horiz-adv-x="333" 
d="M14 6l23 73q20 -10 46 -10q41 0 55 18q14 17 14 77v406h91v-428q0 -69 -28 -106q-36 -48 -120 -48q-41 0 -81 18z" />
    <glyph glyph-name="k.smcp" horiz-adv-x="552" 
d="M181 167v-167h-91v570h91v-282l234 282h110l-190 -222l207 -348h-108l-160 276z" />
    <glyph glyph-name="l.smcp" horiz-adv-x="439" 
d="M429 81v-81h-339v570h91v-489h248z" />
    <glyph glyph-name="m.smcp" horiz-adv-x="803" 
d="M576 570h137v-570h-91v459l-186 -459h-71l-184 458v-458h-91v570h137l172 -444h1z" />
    <glyph glyph-name="msmcp.salt" horiz-adv-x="742" 
d="M404 121h-67l-157 335v-456h-90v570h124l157 -331h1l157 331h123v-570h-89v456z" />
    <glyph glyph-name="n.smcp" horiz-adv-x="676" 
d="M586 0h-95l-310 423v-423h-91v570h94l311 -423v423h91v-570z" />
    <glyph glyph-name="o.smcp" horiz-adv-x="694" 
d="M562 495q87 -85 87 -210q0 -124 -87 -211q-88 -86 -215 -86t-215 86q-87 87 -87 211q0 125 87 210q87 87 215 87t215 -87zM494 130q59 62 59 155t-59 155q-58 61 -147 61q-90 0 -148 -61t-58 -155t58 -155t148 -61q89 0 147 61z" />
    <glyph glyph-name="p.smcp" horiz-adv-x="516" 
d="M181 213v-213h-91v570h106q85 0 113 -4q80 -12 128.5 -57t48.5 -115q0 -59 -38.5 -105.5t-100.5 -63.5q-45 -12 -148 -12h-18zM390 392q0 70 -70 89q-26 8 -111 8h-28v-195h33q86 0 117 12q59 23 59 86z" />
    <glyph glyph-name="q.smcp" horiz-adv-x="694" 
d="M641 -5l-55 -56l-88 87q-71 -38 -151 -38q-127 0 -215 86q-87 87 -87 211q0 125 87 210q87 87 215 87t215 -87q87 -85 87 -210q0 -124 -87 -211zM553 285q0 93 -59 155q-58 61 -147 61q-90 0 -148 -61t-58 -155t58 -155t148 -61q50 0 89 19l-76 77l56 56l84 -85
q53 62 53 149z" />
    <glyph glyph-name="r.smcp" horiz-adv-x="557" 
d="M90 0v570h129q141 0 204 -40t63 -129q0 -61 -36.5 -104.5t-98.5 -57.5l181 -239h-115l-169 227h-67v-227h-91zM390 396q0 56 -37 75q-38 20 -148 20h-24v-185h29q96 0 138 20.5t42 69.5z" />
    <glyph glyph-name="s.smcp" horiz-adv-x="491" 
d="M416 525l-50 -66q-62 42 -117 42q-44 0 -69.5 -19.5t-25.5 -54.5q0 -34 34 -55q20 -11 35 -17l21 -8l45 -14q63 -21 102 -52q50 -38 50 -114q0 -59 -35 -103q-64 -76 -168 -76q-116 0 -203 84l58 62q39 -36 71.5 -50.5t73.5 -14.5q47 0 77 24t30 68q5 33 -34 63
q-5 5 -50 25q-15 6 -31 11l-30 10q-61 23 -94 49q-43 35 -43 104q0 77 51 118q52 41 128 41q92 0 174 -57z" />
    <glyph glyph-name="t.smcp" horiz-adv-x="449" 
d="M414 570v-81h-144v-489h-91v489h-144v81h379z" />
    <glyph glyph-name="u.smcp" horiz-adv-x="622" 
d="M451 570h91v-303q0 -279 -233 -279q-229 0 -229 279v303h91v-313q0 -93 36 -140.5t104 -47.5t104 47.5t36 140.5v313z" />
    <glyph glyph-name="v.smcp" horiz-adv-x="541" 
d="M439 570h98l-221 -570h-94l-218 570h103l165 -451h2z" />
    <glyph glyph-name="w.smcp" horiz-adv-x="797" 
d="M687 570h95l-163 -570h-103l-115 434h-2l-124 -434h-103l-157 570h100l115 -430h1l120 430h100l114 -430h2z" />
    <glyph glyph-name="x.smcp" horiz-adv-x="558" 
d="M222 287l-212 283h116l156 -214l156 214h113l-213 -280l216 -290h-115l-161 221l-161 -221h-113z" />
    <glyph glyph-name="y.smcp" horiz-adv-x="484" 
d="M288 236v-236h-91v233l-192 337h112l127 -240h2l127 240h106z" />
    <glyph glyph-name="z.smcp" horiz-adv-x="477" 
d="M430 570v-46l-261 -443h283v-81h-407v50l258 439h-255v81h382z" />
    <glyph glyph-name="thorn.smcp" horiz-adv-x="536" 
d="M90 0v570h91v-100h15q85 0 113 -4q80 -12 128.5 -57t48.5 -115q0 -59 -38.5 -105.5t-100.5 -63.5q-45 -12 -148 -12h-18v-113h-91zM209 389h-28v-195h33q86 0 117 12q59 23 59 86q0 70 -70 89q-26 8 -111 8z" />
    <glyph glyph-name="agrave.smcp" horiz-adv-x="553" 
d="M108 0h-98l221 570h94l218 -570h-103l-44 119h-245zM275 451h-2l-92 -251h186zM343 653l-55 -42l-134 160l66 51z" />
    <glyph glyph-name="aacute.smcp" horiz-adv-x="553" 
d="M108 0h-98l221 570h94l218 -570h-103l-44 119h-245zM275 451h-2l-92 -251h186zM331 822l66 -51l-134 -160l-55 42z" />
    <glyph glyph-name="acircumflex.smcp" horiz-adv-x="553" 
d="M108 0h-98l221 570h94l218 -570h-103l-44 119h-245zM275 451h-2l-92 -251h186zM324 804l102 -157l-53 -36l-93 129l-93 -129l-55 36l104 157h88z" />
    </font>
</defs>
</svg>
