<?xml version="1.0" standalone="no"?>
<!DOCTYPE svg PUBLIC "-//W3C//DTD SVG 1.1//EN" "http://www.w3.org/Graphics/SVG/1.1/DTD/svg11.dtd" >
<svg>
<metadata>
Created by FontForge 20090622 at Thu Oct 25 08:41:01 2018
 By deploy user
Copyright (c) 2011 by Wolfgang Homola, distributed by TypeTogether. All rights reserved.
</metadata>
<defs>
<font id="Soleil-Bold" horiz-adv-x="550" >
  <font-face 
    font-family="Soleil"
    font-weight="700"
    font-stretch="normal"
    units-per-em="1000"
    panose-1="2 0 8 3 0 0 0 2 0 4"
    ascent="753"
    descent="-247"
    x-height="526"
    cap-height="700"
    bbox="-210 -321 1327 1129"
    underline-thickness="50"
    underline-position="-50"
    unicode-range="U+000D-U+FB06"
  />
<missing-glyph 
d="M313 226v-83h-85v83h85zM46 0v666h459v-666h-459zM428 592h-306v-518h306v518zM311 314v-43h-81v85q44 14 62.5 27.5t18.5 38.5q0 16 -10.5 27.5t-27.5 11.5q-38 0 -38 -44v-12h-77v10q0 49 32 81t83 32t83 -33q33 -31 33 -71t-19.5 -65t-58.5 -45z" />
    <glyph glyph-name="ff" unicode="ff" horiz-adv-x="716" 
d="M401 732l-44 -109q-34 17 -73 17q-31 0 -44 -16q-14 -20 -14 -64v-34h108v-118h-108v-408h-142v408h-57v118h57v42q0 93 38 140q43 54 148 54q66 0 131 -30zM759 732l-44 -109q-34 17 -73 17q-31 0 -44 -16q-14 -20 -14 -64v-34h131v-118h-131v-408h-142v408h-57v118h57
v42q0 93 38 140q44 54 148 54q66 0 131 -30z" />
    <glyph glyph-name="fi" unicode="fi" horiz-adv-x="638" 
d="M361 748l-22 -117q-25 9 -55 9q-31 0 -44 -16q-14 -20 -14 -64v-34h131v-118h-131v-408h-142v408h-57v118h57v42q0 93 38 140q43 54 148 54q43 0 91 -14zM569 526v-526h-142v526h142zM569 720v-121h-142v121h142z" />
    <glyph glyph-name="fl" unicode="fl" horiz-adv-x="638" 
d="M427 750h142v-750h-142v750zM361 748l-22 -117q-25 9 -55 9q-31 0 -44 -16q-14 -20 -14 -64v-34h131v-118h-131v-408h-142v408h-57v118h57v42q0 93 38 140q43 54 148 54q43 0 91 -14z" />
    <glyph glyph-name="ffi" unicode="ffi" horiz-adv-x="996" 
d="M927 526v-526h-142v526h142zM927 720v-121h-142v121h142zM401 732l-44 -109q-34 17 -73 17q-31 0 -44 -16q-14 -20 -14 -64v-34h108v-118h-108v-408h-142v408h-57v118h57v42q0 93 38 140q43 54 148 54q66 0 131 -30zM719 748l-22 -117q-25 9 -55 9q-31 0 -44 -16
q-14 -20 -14 -64v-34h131v-118h-131v-408h-142v408h-57v118h57v42q0 93 38 140q44 54 148 54q43 0 91 -14z" />
    <glyph glyph-name="ffl" unicode="ffl" horiz-adv-x="996" 
d="M785 750h142v-750h-142v750zM401 732l-44 -109q-34 17 -73 17q-31 0 -44 -16q-14 -20 -14 -64v-34h108v-118h-108v-408h-142v408h-57v118h57v42q0 93 38 140q43 54 148 54q66 0 131 -30zM719 748l-22 -117q-25 9 -55 9q-31 0 -44 -16q-14 -20 -14 -64v-34h131v-118h-131
v-408h-142v408h-57v118h57v42q0 93 38 140q44 54 148 54q43 0 91 -14z" />
    <glyph glyph-name="f_k" unicode="fk" horiz-adv-x="913" 
d="M361 748l-22 -117q-25 9 -55 9q-31 0 -44 -16q-14 -20 -14 -64v-34h131v-118h-131v-408h-142v408h-57v118h57v42q0 93 38 140q43 54 148 54q43 0 91 -14zM715 306l200 -306h-174l-121 195l-51 -59v-136h-142v750h142v-438h2l170 214h162z" />
    <glyph glyph-name="f_b" unicode="fb" horiz-adv-x="1002" 
d="M361 748l-22 -117q-25 9 -55 9q-31 0 -44 -16q-14 -20 -14 -64v-34h131v-118h-131v-408h-142v408h-57v118h57v42q0 93 38 140q43 54 148 54q43 0 91 -14zM427 0v750h142v-279q25 32 67.5 49.5t87.5 17.5q104 0 174 -81q71 -80 71 -196q0 -113 -71 -193t-175 -80
q-50 0 -94 19.5t-69 56.5l-10 -64h-123zM569 346v-179q47 -57 122 -57q64 0 98 46q35 47 35 109q0 63 -36 106q-36 45 -95 45q-82 0 -124 -70z" />
    <glyph glyph-name="f_h" unicode="fh" horiz-adv-x="976" 
d="M361 748l-22 -117q-25 9 -55 9q-31 0 -44 -16q-14 -20 -14 -64v-34h131v-118h-131v-408h-142v408h-57v118h57v42q0 93 38 140q43 54 148 54q43 0 91 -14zM427 750h142v-286q62 74 155 74q86 0 140 -69q47 -62 47 -196v-273h-142v266q0 82 -16 113q-19 37 -70 37
q-33 0 -64 -18.5t-50 -48.5v-349h-142v750z" />
    <glyph glyph-name="f_t" unicode="ft" horiz-adv-x="736" 
d="M401 732l-44 -109q-34 17 -73 17q-31 0 -44 -16q-14 -20 -14 -64v-34h108v-118h-108v-408h-142v408h-57v118h57v42q0 93 38 140q43 54 148 54q66 0 131 -30zM709 526v-118h-134v-204q0 -25 2 -45q6 -50 46 -50q27 0 57 15l44 -105q-52 -31 -125 -31q-59 0 -100 30t-56 83
q-10 31 -10 88v219h-54v118h54l22 116h120v-116h134z" />
    <glyph glyph-name="f_j" unicode="fj" horiz-adv-x="644" 
d="M361 748l-22 -117q-25 9 -55 9q-31 0 -44 -16q-14 -20 -14 -64v-34h131v-118h-131v-408h-142v408h-57v118h57v42q0 93 38 140q43 54 148 54q43 0 91 -14zM575 720v-121h-142v121h142zM433 526h142v-563q0 -86 -34 -130q-43 -60 -146 -60q-60 0 -114 22l38 113
q27 -13 61 -13q31 0 42 18.5t11 61.5v551z" />
    <glyph glyph-name="f_f_j" unicode="ffj" horiz-adv-x="1002" 
d="M401 732l-44 -109q-34 17 -73 17q-31 0 -44 -16q-14 -20 -14 -64v-34h108v-118h-108v-408h-142v408h-57v118h57v42q0 93 38 140q43 54 148 54q66 0 131 -30zM719 748l-22 -117q-25 9 -55 9q-31 0 -44 -16q-14 -20 -14 -64v-34h131v-118h-131v-408h-142v408h-57v118h57v42
q0 93 38 140q44 54 148 54q43 0 91 -14zM933 720v-121h-142v121h142zM791 526h142v-563q0 -86 -34 -130q-43 -60 -146 -60q-60 0 -114 22l38 113q27 -13 61 -13q31 0 42 18.5t11 61.5v551z" />
    <glyph glyph-name="f_f_k" unicode="ffk" horiz-adv-x="1271" 
d="M401 732l-44 -109q-34 17 -73 17q-31 0 -44 -16q-14 -20 -14 -64v-34h108v-118h-108v-408h-142v408h-57v118h57v42q0 93 38 140q43 54 148 54q66 0 131 -30zM719 748l-22 -117q-25 9 -55 9q-31 0 -44 -16q-14 -20 -14 -64v-34h131v-118h-131v-408h-142v408h-57v118h57v42
q0 93 38 140q44 54 148 54q43 0 91 -14zM1073 306l200 -306h-174l-121 195l-51 -59v-136h-142v750h142v-438h2l170 214h162z" />
    <glyph glyph-name="f_f_b" unicode="ffb" horiz-adv-x="1360" 
d="M401 732l-44 -109q-34 17 -73 17q-31 0 -44 -16q-14 -20 -14 -64v-34h108v-118h-108v-408h-142v408h-57v118h57v42q0 93 38 140q43 54 148 54q66 0 131 -30zM719 748l-22 -117q-25 9 -55 9q-31 0 -44 -16q-14 -20 -14 -64v-34h131v-118h-131v-408h-142v408h-57v118h57v42
q0 93 38 140q44 54 148 54q43 0 91 -14zM785 0v750h142v-279q25 32 67.5 49.5t87.5 17.5q104 0 174 -81q71 -80 71 -196q0 -113 -71 -193t-175 -80q-50 0 -94 19.5t-69 56.5l-10 -64h-123zM927 346v-179q47 -57 122 -57q64 0 98 46q35 47 35 109q0 63 -36 106q-36 45 -95 45
q-82 0 -124 -70z" />
    <glyph glyph-name="f_f_h" unicode="ffh" horiz-adv-x="1334" 
d="M401 732l-44 -109q-34 17 -73 17q-31 0 -44 -16q-14 -20 -14 -64v-34h108v-118h-108v-408h-142v408h-57v118h57v42q0 93 38 140q43 54 148 54q66 0 131 -30zM719 748l-22 -117q-25 9 -55 9q-31 0 -44 -16q-14 -20 -14 -64v-34h131v-118h-131v-408h-142v408h-57v118h57v42
q0 93 38 140q44 54 148 54q43 0 91 -14zM785 750h142v-286q62 74 155 74q86 0 140 -69q47 -62 47 -196v-273h-142v266q0 82 -16 113q-19 37 -70 37q-33 0 -64 -18.5t-50 -48.5v-349h-142v750z" />
    <glyph glyph-name="f_f_t" unicode="fft" horiz-adv-x="1094" 
d="M401 732l-44 -109q-34 17 -73 17q-31 0 -44 -16q-14 -20 -14 -64v-34h108v-118h-108v-408h-142v408h-57v118h57v42q0 93 38 140q43 54 148 54q66 0 131 -30zM759 732l-44 -109q-34 17 -73 17q-31 0 -44 -16q-14 -20 -14 -64v-34h108v-118h-108v-408h-142v408h-57v118h57
v42q0 93 38 140q44 54 148 54q66 0 131 -30zM1067 526v-118h-134v-204q0 -25 2 -45q6 -50 46 -50q27 0 57 15l44 -105q-52 -31 -125 -31q-59 0 -100 30t-56 83q-10 31 -10 88v219h-54v118h54l22 116h120v-116h134z" />
    <glyph glyph-name="f_iacute" unicode="f&#xed;" horiz-adv-x="638" 
d="M577 828l96 -76l-148 -176l-87 67zM569 526v-526h-142v526h142zM401 732l-44 -109q-34 17 -73 17q-31 0 -44 -16q-14 -20 -14 -64v-34h131v-118h-131v-408h-142v408h-57v118h57v42q0 93 38 140q43 54 148 54q66 0 131 -30z" />
    <glyph glyph-name="t_t" unicode="tt" horiz-adv-x="756" 
d="M346 526v-118h-129v-204q0 -25 2 -45q6 -50 46 -50q27 0 57 15l44 -105q-52 -31 -125 -31q-59 0 -100 30t-56 83q-10 31 -10 88v219h-63v118h63l22 116h120v-116h129zM729 526v-118h-134v-204q0 -25 2 -45q6 -50 46 -50q27 0 57 15l44 -105q-52 -31 -125 -31
q-59 0 -100 30t-56 83q-10 31 -10 88v219h-58v118h58l22 116h120v-116h134z" />
    <glyph glyph-name=".notdef" 
d="M313 226v-83h-85v83h85zM46 0v666h459v-666h-459zM428 592h-306v-518h306v518zM311 314v-43h-81v85q44 14 62.5 27.5t18.5 38.5q0 16 -10.5 27.5t-27.5 11.5q-38 0 -38 -44v-12h-77v10q0 49 32 81t83 32t83 -33q33 -31 33 -71t-19.5 -65t-58.5 -45z" />
    <glyph glyph-name=".null" horiz-adv-x="0" 
 />
    <glyph glyph-name="nonmarkingreturn" horiz-adv-x="333" 
 />
    <glyph glyph-name="NULL" horiz-adv-x="0" 
 />
    <glyph glyph-name="NULL" horiz-adv-x="0" 
 />
    <glyph glyph-name="CR.001" unicode="&#xd;" horiz-adv-x="500" 
 />
    <glyph glyph-name="space" unicode=" " horiz-adv-x="250" 
 />
    <glyph glyph-name="exclam" unicode="!" horiz-adv-x="327" 
d="M85 700h157v-125l-11 -336h-135l-11 336v125zM240 149v-149h-153v149h153z" />
    <glyph glyph-name="quotedbl" unicode="&#x22;" horiz-adv-x="506" 
d="M213 700l-10 -290h-128l-9 290h147zM441 700l-10 -290h-128l-10 290h148z" />
    <glyph glyph-name="numbersign" unicode="#" horiz-adv-x="597" 
d="M14 166v96h94l27 142h-64v96h83l31 166h110l-32 -166h129l32 166h110l-32 -166h81v-96h-100l-28 -142h71v-96h-89l-31 -166h-110l31 166h-129l-31 -166h-109l31 166h-75zM373 404h-128l-28 -142h128z" />
    <glyph glyph-name="dollar" unicode="$" 
d="M9 101l90 87q85 -82 158 -82q56 0 86.5 22t30.5 64q0 33 -36 60q-15 11 -54 26q-9 4 -33 12l-32 12q-66 24 -112 60q-52 44 -52 122q0 83 51 133t137 57v96h83v-98q89 -14 173 -74l-79 -97q-74 59 -144 59q-35 0 -59.5 -19t-24.5 -51q0 -22 35 -47q18 -12 53 -23
q44 -14 65 -23q76 -29 117 -65q57 -48 57 -131q0 -84 -55 -138t-145 -69v-100h-82v96q-121 8 -228 111z" />
    <glyph glyph-name="percent" unicode="%" horiz-adv-x="856" 
d="M401 535q0 -73 -52 -122q-51 -48 -124 -48t-125 48q-52 49 -52 122q0 74 52 122q52 49 125 49q74 0 124 -49q52 -48 52 -122zM225 606q-29 0 -47 -20t-18 -51t18 -50.5t47 -19.5q28 0 46 19.5t18 50.5t-18 51t-46 20zM808 165q0 -74 -52 -123q-51 -48 -124 -48
q-72 0 -125 48q-52 49 -52 123q0 73 52 121q52 49 125 49q74 0 124 -49q52 -48 52 -121zM632 235q-29 0 -47 -19.5t-18 -50.5t18 -51t47 -20q28 0 46 20t18 51t-18 50.5t-46 19.5zM144 35l498 683l71 -53l-498 -683z" />
    <glyph glyph-name="ampersand" unicode="&#x26;" horiz-adv-x="692" 
d="M419 318l285 -255l-78 -91l-120 107q-72 -91 -202 -91q-103 0 -178 66q-74 66 -74 159q0 52 28.5 99.5t81.5 80.5q-33 35 -46.5 65.5t-13.5 70.5q0 79 64 131t148 52q75 0 126.5 -39.5t71.5 -111.5l-128 -37q-12 69 -74 69q-29 0 -49.5 -19.5t-20.5 -47.5t23 -59
q21 -29 83 -84l-78 -90l-22 19q-55 -31 -55 -93q0 -47 34 -80q35 -32 82 -32q67 0 107 54l-72 66z" />
    <glyph glyph-name="quotesingle" unicode="'" horiz-adv-x="279" 
d="M214 700l-10 -290h-129l-9 290h148z" />
    <glyph glyph-name="parenleft" unicode="(" horiz-adv-x="370" 
d="M371 -76l-49 -101q-290 177 -290 484q0 302 288 482l52 -100q-202 -130 -202 -382q0 -256 201 -383z" />
    <glyph glyph-name="parenright" unicode=")" horiz-adv-x="370" 
d="M-2 689l52 100q288 -180 288 -482q0 -307 -290 -484l-49 101q201 127 201 383q0 252 -202 382z" />
    <glyph glyph-name="asterisk" unicode="*" horiz-adv-x="506" 
d="M409 645l39 -122l-127 -18l94 -90l-104 -76l-58 118l-58 -118l-104 76l94 90l-127 18l39 122l114 -60l-23 126h129l-23 -127z" />
    <glyph glyph-name="plus" unicode="+" 
d="M24 251v120h190v190h120v-190h191v-120h-191v-191h-120v191h-190z" />
    <glyph glyph-name="comma" unicode="," horiz-adv-x="250" 
d="M52 149h151l-72 -275h-135z" />
    <glyph glyph-name="hyphen" unicode="-" horiz-adv-x="447" 
d="M365 349v-118h-283v118h283z" />
    <glyph glyph-name="period" unicode="." horiz-adv-x="250" 
d="M201 149v-149h-153v149h153z" />
    <glyph glyph-name="slash" unicode="/" horiz-adv-x="405" 
d="M290 768l115 -45l-290 -783l-115 46z" />
    <glyph glyph-name="zero" unicode="0" horiz-adv-x="562" 
d="M98 585q64 91 183 91t183 -91q65 -92 65 -253t-65 -253q-64 -91 -183 -91t-183 91q-65 92 -65 253t65 253zM385 332q0 223 -104 223t-104 -223t104 -223t104 223z" />
    <glyph glyph-name="one" unicode="1" horiz-adv-x="359" 
d="M281 664v-664h-142v501q-62 -28 -94 -41v128q103 53 143 76h93z" />
    <glyph glyph-name="two" unicode="2" horiz-adv-x="524" 
d="M244 119h256v-119h-446v105q144 150 226 268q48 71 48 117q0 30 -20.5 49t-52.5 19q-35 0 -55.5 -25.5t-20.5 -68.5l-141 23q7 84 70 136q64 53 149 53q87 0 151 -50q64 -49 64 -134q0 -88 -68 -185q-43 -62 -160 -188z" />
    <glyph glyph-name="three" unicode="3" horiz-adv-x="536" 
d="M176 279v116q48 0 78 8q69 18 69 79q0 33 -23 53.5t-61 20.5q-31 0 -52.5 -17.5t-27.5 -49.5l-120 52q20 63 75 99t126 36q93 0 158 -49q67 -49 67 -129q0 -43 -22.5 -82t-59.5 -60q51 -19 81.5 -64t30.5 -100q0 -94 -69 -149q-68 -55 -171 -55q-74 0 -136 37.5
t-91 103.5l119 55q31 -76 109 -76q41 0 68 22.5t27 60.5q0 44 -33 68.5t-89 24.5q-26 0 -53 -5z" />
    <glyph glyph-name="four" unicode="4" horiz-adv-x="553" 
d="M443 163v-163h-140v163h-281v119l279 382h142v-384h93v-117h-93zM172 280h131v201l-61 -95q-53 -84 -70 -106z" />
    <glyph glyph-name="five" unicode="5" horiz-adv-x="516" 
d="M94 664h364v-119h-230q-3 -79 -10 -137q35 16 77 16q83 0 138 -61q55 -59 55 -143q0 -100 -68 -166t-167 -66q-75 0 -134 34.5t-91 97.5l119 60q27 -72 103 -72q41 0 67.5 29.5t26.5 71.5q0 43 -26 70t-69 27q-50 0 -85 -41l-92 65q16 145 22 334z" />
    <glyph glyph-name="six" unicode="6" horiz-adv-x="555" 
d="M385 708l50 -111q-185 -79 -235 -204q47 40 112 40q90 0 150 -62q60 -61 60 -151q0 -97 -65 -165q-64 -67 -166 -67q-117 0 -188 80q-70 79 -70 194q0 153 98 268q98 114 254 178zM175 259q-6 -62 23 -109q28 -45 86 -45q42 0 69 30.5t27 75.5q0 48 -28.5 76.5
t-72.5 28.5q-31 0 -60 -15.5t-44 -41.5z" />
    <glyph glyph-name="seven" unicode="7" horiz-adv-x="477" 
d="M10 664h451v-89q-157 -329 -273 -606l-127 57l85 192l95 198l62 129h-293v119z" />
    <glyph glyph-name="eight" unicode="8" horiz-adv-x="564" 
d="M421 349q50 -30 74 -68t24 -94q0 -85 -67 -142q-66 -57 -170 -57t-171 57q-66 57 -66 142q0 56 24 94t74 68q-78 49 -78 143q0 84 63 133q64 51 154 51t153 -51q64 -49 64 -133q0 -94 -78 -143zM215 131q27 -26 67 -26t67 26q27 27 27 65t-27 64q-27 27 -67 27t-67 -27
q-27 -26 -27 -64t27 -65zM225 425q22 -22 57 -22t57 22q22 23 22 57t-22 55q-22 22 -57 22t-57 -22q-22 -21 -22 -55t22 -57z" />
    <glyph glyph-name="nine" unicode="9" horiz-adv-x="555" 
d="M170 -44l-50 111q185 79 235 204q-47 -40 -112 -40q-90 0 -150 62q-60 61 -60 151q0 98 64 165t167 67q116 0 187 -80t71 -194q0 -154 -99 -269q-97 -113 -253 -177zM380 405q6 62 -23 108q-28 46 -86 46q-42 0 -69 -30.5t-27 -75.5q0 -48 28.5 -76.5t72.5 -28.5
q31 0 60 15.5t44 41.5z" />
    <glyph glyph-name="colon" unicode=":" horiz-adv-x="250" 
d="M201 526v-149h-153v149h153zM201 149v-149h-153v149h153z" />
    <glyph glyph-name="semicolon" unicode=";" horiz-adv-x="250" 
d="M52 149h151l-72 -275h-135zM199 526v-149h-152v149h152z" />
    <glyph glyph-name="less" unicode="&#x3c;" 
d="M12 264v98l525 210v-119l-351 -140l351 -140v-118z" />
    <glyph glyph-name="equal" unicode="=" 
d="M32 351v121h485v-121h-485zM32 151v120h485v-120h-485z" />
    <glyph glyph-name="greater" unicode="&#x3e;" 
d="M12 453v119l526 -210v-98l-526 -209v118l351 140z" />
    <glyph glyph-name="question" unicode="?" horiz-adv-x="545" 
d="M340 318v-79h-145v152l59 21q20 9 45 24q48 27 48 82q0 33 -20 54.5t-53 21.5q-35 0 -54.5 -22.5t-19.5 -62.5v-21h-139v17q0 92 60 149q61 58 153 58q93 0 152 -59t59 -132q0 -87 -44 -132q-40 -40 -101 -71zM344 149v-149h-153v149h153z" />
    <glyph glyph-name="at" unicode="@" horiz-adv-x="798" 
d="M502 -5l52 -86q-80 -40 -162 -40q-145 0 -246 101t-101 243q0 147 103 246q103 100 250 100q150 0 252 -90q103 -90 103 -237q0 -88 -45 -146q-45 -59 -124 -59q-76 0 -110 67q-31 -46 -105 -46q-61 0 -100 47q-38 49 -38 114q0 63 37 112q38 51 99 51q52 0 82 -35v29
h100v-150q0 -88 34 -88q24 0 39 30t15 64q0 114 -61 175.5t-177 61.5q-101 0 -170 -70q-68 -71 -68 -175t67 -174q68 -71 165 -71q55 0 109 26zM449 184v71q-27 30 -59 30q-28 0 -43.5 -22t-15.5 -55q0 -29 15.5 -50t41.5 -21q43 0 61 47z" />
    <glyph glyph-name="A" unicode="A" horiz-adv-x="689" 
d="M414 700l263 -700h-165l-45 130h-249l-47 -130h-159l286 700h116zM346 482h-1l-85 -235h167z" />
    <glyph glyph-name="B" unicode="B" horiz-adv-x="617" 
d="M78 0v700h184q121 0 190 -45q82 -52 82 -153q0 -45 -23 -80.5t-65 -54.5q54 -18 85.5 -61t31.5 -98q0 -60 -33.5 -108t-91.5 -72q-66 -28 -184 -28h-176zM301 299h-80v-179h33q86 0 116 15q40 21 40 70q0 45 -28 69.5t-81 24.5zM249 580h-28v-165h40q130 0 130 82
q0 43 -30 65q-27 18 -112 18z" />
    <glyph glyph-name="C" unicode="C" horiz-adv-x="675" 
d="M202 350q0 -105 59 -172q59 -65 161 -65q82 0 149 58l80 -104q-103 -79 -235 -79q-159 0 -263 101q-104 102 -104 261q0 154 109 257q110 105 264 105q105 0 215 -68l-69 -111q-70 54 -146 54q-95 0 -158 -69q-62 -68 -62 -168z" />
    <glyph glyph-name="D" unicode="D" horiz-adv-x="715" 
d="M273 0h-195v700h204q145 0 259 -78q58 -40 91.5 -110t33.5 -159q0 -91 -33.5 -162t-92.5 -112q-113 -79 -267 -79zM265 579h-44v-458h16q276 0 276 223q0 114 -64 174.5t-184 60.5z" />
    <glyph glyph-name="E" unicode="E" horiz-adv-x="580" 
d="M527 121v-121h-449v700h449v-121h-306v-158h306v-121h-306v-179h306z" />
    <glyph glyph-name="F" unicode="F" horiz-adv-x="503" 
d="M466 403v-121h-245v-282h-143v700h388v-121h-245v-176h245z" />
    <glyph glyph-name="G" unicode="G" horiz-adv-x="793" 
d="M584 178v105h-168v121h311v-273q-107 -143 -305 -143q-160 0 -267 101q-106 100 -106 261q0 154 109 257q110 105 264 105q176 0 294 -138l-99 -86q-85 99 -195 99q-95 0 -158 -69q-62 -68 -62 -168q0 -106 60 -172q62 -65 160 -65q94 0 162 65z" />
    <glyph glyph-name="H" unicode="H" horiz-adv-x="739" 
d="M661 700v-700h-143v300h-297v-300h-143v700h143v-279h297v279h143z" />
    <glyph glyph-name="I" unicode="I" horiz-adv-x="299" 
d="M221 700v-700h-143v700h143z" />
    <glyph glyph-name="J" unicode="J" horiz-adv-x="340" 
d="M128 700h143v-514q0 -103 -45 -151q-44 -47 -139 -47q-65 0 -131 32l45 113q35 -20 69 -20t48 21q10 17 10 69v497z" />
    <glyph glyph-name="K" unicode="K" horiz-adv-x="640" 
d="M457 700h173l-237 -283l243 -417h-167l-173 303l-75 -89v-214h-143v700h143v-287z" />
    <glyph glyph-name="L" unicode="L" horiz-adv-x="512" 
d="M508 121v-121h-430v700h143v-579h287z" />
    <glyph glyph-name="M" unicode="M" horiz-adv-x="956" 
d="M736 0v511l-209 -511h-102l-204 513v-513h-143v700h211l188 -488l195 488h207v-700h-143z" />
    <glyph glyph-name="N" unicode="N" horiz-adv-x="748" 
d="M671 700v-700h-129l-321 438v-438h-143v700h126l324 -439v439h143z" />
    <glyph glyph-name="O" unicode="O" horiz-adv-x="831" 
d="M568 181q61 68 61 169t-61 168q-60 69 -152 69q-91 0 -153 -68q-61 -67 -61 -169t61 -169q62 -68 153 -68q92 0 152 68zM416 -12q-154 0 -261 105q-106 106 -106 257t106 256q106 106 261 106q154 0 260 -106q106 -105 106 -256t-106 -257q-106 -105 -260 -105z" />
    <glyph glyph-name="P" unicode="P" horiz-adv-x="588" 
d="M78 0v700h223q47 0 91.5 -12t83.5 -36.5t63 -68t24 -100.5q0 -58 -23.5 -102t-63 -68.5t-83.5 -36.5t-92 -12h-80v-264h-143zM297 579h-76v-194h57q133 0 133 95q0 46 -31 72.5t-83 26.5z" />
    <glyph glyph-name="Q" unicode="Q" horiz-adv-x="831" 
d="M686 104l89 -88l-86 -86l-101 100q-80 -42 -172 -42q-154 0 -261 105q-106 106 -106 257t106 256q106 106 261 106q154 0 260 -106q106 -105 106 -256q0 -144 -96 -246zM404 213l87 85l94 -94q44 64 44 146q0 101 -61 168q-60 69 -152 69q-91 0 -153 -68
q-61 -67 -61 -169t61 -169q62 -68 153 -68q41 0 74 15z" />
    <glyph glyph-name="R" unicode="R" horiz-adv-x="634" 
d="M78 0v700h222q45 0 88.5 -12t82 -35.5t62 -66t23.5 -96.5q0 -73 -41.5 -122.5t-110.5 -72.5l214 -295h-180l-192 279h-25v-279h-143zM296 579h-75v-179h56q59 0 92.5 22t33.5 65q0 41 -29.5 66.5t-77.5 25.5z" />
    <glyph glyph-name="S" unicode="S" horiz-adv-x="609" 
d="M550 629l-82 -102q-74 63 -145 63q-39 0 -65 -19t-26 -51q0 -28 29 -51q6 -4 43 -21q3 0 25 -8l23 -8q50 -17 77 -30q24 -11 67 -40q74 -53 74 -157q0 -72 -42 -123q-77 -94 -223 -94q-151 0 -268 117l95 93q51 -48 88 -68t86 -20q48 0 79.5 23t31.5 66q0 44 -42 67
q-19 12 -40 21q-14 6 -53 21q-44 17 -56 22q-22 10 -50 27q-42 25 -62.5 62t-24.5 97q0 94 67 145q68 51 162 51q122 0 232 -83z" />
    <glyph glyph-name="T" unicode="T" horiz-adv-x="491" 
d="M483 700v-121h-166v-579h-143v579h-166v121h475z" />
    <glyph glyph-name="U" unicode="U" horiz-adv-x="716" 
d="M497 700h143v-370q0 -171 -69.5 -256.5t-214.5 -85.5q-280 0 -280 342v370h143v-389q0 -97 36.5 -147.5t102.5 -50.5t102.5 50.5t36.5 147.5v389z" />
    <glyph glyph-name="V" unicode="V" horiz-adv-x="674" 
d="M511 700h158l-285 -700h-117l-263 700h166l166 -481h1z" />
    <glyph glyph-name="W" unicode="W" horiz-adv-x="944" 
d="M406 700h134l120 -448h2l118 448h160l-201 -700h-142l-127 460h-2l-131 -460h-137l-196 700h160l115 -448h2z" />
    <glyph glyph-name="X" unicode="X" horiz-adv-x="708" 
d="M521 700h179l-252 -342l259 -358h-188l-169 239l-169 -239h-180l258 352l-250 348h188l161 -230z" />
    <glyph glyph-name="Y" unicode="Y" horiz-adv-x="608" 
d="M370 289v-289h-143v293l-223 407h178l121 -252h2l132 252h167z" />
    <glyph glyph-name="Z" unicode="Z" horiz-adv-x="562" 
d="M522 700v-73l-296 -506h320v-121h-513v76l295 503h-287v121h481z" />
    <glyph glyph-name="bracketleft" unicode="[" horiz-adv-x="330" 
d="M321 -48v-113h-252v908h252v-113h-121v-682h121z" />
    <glyph glyph-name="backslash" unicode="\" horiz-adv-x="405" 
d="M115 768l290 -782l-115 -46l-290 783z" />
    <glyph glyph-name="bracketright" unicode="]" horiz-adv-x="331" 
d="M261 747v-908h-252v113h121v682h-121v113h252z" />
    <glyph glyph-name="asciicircum" unicode="^" 
d="M335 696l150 -366h-130l-80 189l-80 -189h-130l150 366h120z" />
    <glyph glyph-name="underscore" unicode="_" 
d="M550 -122v-99h-550v99h550z" />
    <glyph glyph-name="grave" unicode="`" horiz-adv-x="360" 
d="M253 640l-82 -62l-147 172l96 76z" />
    <glyph glyph-name="a" unicode="a" horiz-adv-x="575" 
d="M511 316v-316h-123l-11 45q-47 -57 -143 -57q-78 0 -134 45q-55 45 -55 122q0 61 36 101q62 69 193 69q40 0 95 -11v8q0 106 -104 106q-71 0 -159 -46l-38 102q109 54 226 54q106 0 161.5 -58t55.5 -164zM369 132v97q-41 9 -72 9q-49 0 -81 -20.5t-32 -60.5q0 -32 23 -51
t57 -19q56 0 105 45z" />
    <glyph glyph-name="b" unicode="b" horiz-adv-x="644" 
d="M69 0v750h142v-279q25 32 67.5 49.5t87.5 17.5q104 0 174 -81q71 -80 71 -196q0 -113 -71 -193t-175 -80q-50 0 -94 19.5t-69 56.5l-10 -64h-123zM211 346v-179q47 -57 122 -57q64 0 98 46q35 47 35 109q0 63 -36 106q-36 45 -95 45q-82 0 -124 -70z" />
    <glyph glyph-name="c" unicode="c" horiz-adv-x="511" 
d="M413 150l76 -97q-74 -65 -189 -65q-117 0 -192 76t-75 199q0 116 76 195q77 80 195 80q105 0 185 -65l-73 -99q-45 42 -102 42q-59 0 -98 -45q-38 -44 -38 -108q0 -66 38 -110q39 -43 96 -43q61 0 101 40z" />
    <glyph glyph-name="d" unicode="d" horiz-adv-x="644" 
d="M575 750v-750h-123l-12 65q-51 -77 -162 -77q-104 0 -175 81q-70 80 -70 196q0 114 70 193q71 80 177 80q98 0 153 -63v275h142zM433 179v180q-49 57 -122 57q-64 0 -99 -47q-34 -46 -34 -108q0 -61 36 -106q38 -45 95 -45q83 0 124 69z" />
    <glyph glyph-name="e" unicode="e" horiz-adv-x="588" 
d="M547 228h-370q8 -57 43 -91.5t89 -34.5q47 0 78 18.5t59 59.5l93 -63q-46 -68 -102 -98.5t-138 -30.5q-119 0 -193 75q-73 74 -73 194q0 118 77 200q76 81 190 81q110 0 182 -69t72 -174q0 -32 -7 -67zM184 325h225q-2 47 -31 74.5t-74 27.5q-94 0 -120 -102z" />
    <glyph glyph-name="f" unicode="f" horiz-adv-x="358" 
d="M401 732l-44 -109q-34 17 -73 17q-31 0 -44 -16q-14 -20 -14 -64v-34h131v-118h-131v-408h-142v408h-57v118h57v42q0 93 38 140q43 54 148 54q66 0 131 -30z" />
    <glyph glyph-name="g" unicode="g" horiz-adv-x="640" 
d="M452 526h123v-498q0 -85 -33 -140q-32 -56 -93 -85.5t-139 -29.5q-134 0 -243 72l52 117q42 -31 92.5 -49t93.5 -18q59 0 93.5 32t34.5 92v48q-52 -67 -155 -67q-104 0 -175 78q-70 79 -70 193q0 113 70 189q71 78 177 78q48 0 91.5 -19t68.5 -55zM433 191v168
q-49 57 -122 57q-65 0 -99 -45q-34 -43 -34 -104q0 -60 36 -103q36 -42 95 -42q83 0 124 69z" />
    <glyph glyph-name="h" unicode="h" horiz-adv-x="618" 
d="M69 750h142v-286q62 74 155 74q86 0 140 -69q47 -62 47 -196v-273h-142v266q0 82 -16 113q-19 37 -70 37q-33 0 -64 -18.5t-50 -48.5v-349h-142v750z" />
    <glyph glyph-name="i" unicode="i" horiz-adv-x="280" 
d="M211 526v-526h-142v526h142zM211 720v-121h-142v121h142z" />
    <glyph glyph-name="j" unicode="j" horiz-adv-x="286" 
d="M217 720v-121h-142v121h142zM75 526h142v-563q0 -86 -34 -130q-43 -60 -146 -60q-60 0 -114 22l38 113q27 -13 61 -13q31 0 42 18.5t11 61.5v551z" />
    <glyph glyph-name="k" unicode="k" horiz-adv-x="555" 
d="M357 306l200 -306h-174l-121 195l-51 -59v-136h-142v750h142v-438h2l170 214h162z" />
    <glyph glyph-name="l" unicode="l" horiz-adv-x="280" 
d="M69 750h142v-750h-142v750z" />
    <glyph glyph-name="m" unicode="m" horiz-adv-x="928" 
d="M863 273v-273h-142v266q0 82 -16 113q-19 37 -70 37q-63 0 -103 -60q5 -48 5 -83v-273h-142v266q0 85 -16 114q-19 36 -67 36q-56 0 -101 -52v-364h-142v526h123l10 -64q60 76 152 76q45 0 87 -24.5t62 -63.5q61 88 175 88q85 0 138 -68q47 -62 47 -197z" />
    <glyph glyph-name="n" unicode="n" horiz-adv-x="618" 
d="M69 0v526h123l11 -72q60 84 163 84q86 0 140 -69q47 -62 47 -196v-273h-142v266q0 82 -16 113q-19 37 -70 37q-33 0 -64 -18.5t-50 -48.5v-349h-142z" />
    <glyph glyph-name="o" unicode="o" horiz-adv-x="617" 
d="M309 538q119 0 197 -79q78 -80 78 -196q0 -117 -78 -196t-197 -79q-120 0 -198 79t-78 196t78 196t198 79zM403 153q36 43 36 110q0 66 -36 109q-36 44 -94 44q-57 0 -95 -44q-36 -43 -36 -109t36 -109q38 -44 95 -44q58 0 94 43z" />
    <glyph glyph-name="p" unicode="p" horiz-adv-x="644" 
d="M69 -250v776h123l11 -65q25 37 70 57t93 20q104 0 174 -81q71 -80 71 -196q0 -113 -71 -193t-175 -80q-99 0 -154 63v-301h-142zM211 346v-179q47 -57 122 -57q64 0 98 46q35 47 35 109q0 63 -36 106q-36 45 -95 45q-82 0 -124 -70z" />
    <glyph glyph-name="q" unicode="q" horiz-adv-x="644" 
d="M575 526v-776h-142v305q-52 -67 -155 -67q-104 0 -175 81q-70 80 -70 196q0 114 70 193q71 80 177 80q48 0 91.5 -19t68.5 -55l12 62h123zM433 179v180q-49 57 -122 57q-64 0 -99 -47q-34 -46 -34 -108q0 -61 36 -106q38 -45 95 -45q83 0 124 69z" />
    <glyph glyph-name="r" unicode="r" horiz-adv-x="374" 
d="M69 526h123l11 -70q49 82 123 82q35 0 68 -12l-34 -124q-23 12 -50 12q-65 0 -99 -58v-356h-142v526z" />
    <glyph glyph-name="s" unicode="s" horiz-adv-x="481" 
d="M433 469l-78 -86q-50 44 -104 44q-21 0 -36 -11t-15 -29q0 -21 19 -35t64 -33q36 -15 43 -19q14 -6 39 -21q26 -16 38 -30q34 -40 34 -92q0 -83 -60 -126q-58 -43 -142 -43q-122 0 -212 90l81 84q34 -34 61.5 -48t62.5 -14q26 0 46.5 12.5t20.5 33.5q0 11 -5 20
t-16.5 16.5t-21 12.5t-28.5 13.5t-29 13.5q-67 29 -99.5 63t-32.5 92q0 76 55 118q55 43 133 43q109 0 182 -69z" />
    <glyph glyph-name="t" unicode="t" horiz-adv-x="378" 
d="M351 526v-118h-134v-204q0 -25 2 -45q6 -50 46 -50q27 0 57 15l44 -105q-52 -31 -125 -31q-59 0 -100 30t-56 83q-10 31 -10 88v219h-63v118h63l22 116h120v-116h134z" />
    <glyph glyph-name="u" unicode="u" horiz-adv-x="618" 
d="M549 526v-526h-123l-11 72q-60 -84 -163 -84q-86 0 -140 69q-47 62 -47 196v273h142v-266q0 -82 16 -113q19 -37 70 -37q33 0 64 18.5t50 48.5v349h142z" />
    <glyph glyph-name="v" unicode="v" horiz-adv-x="539" 
d="M270 202l107 324h158l-216 -526h-116l-198 526h157l106 -324h2z" />
    <glyph glyph-name="w" unicode="w" horiz-adv-x="777" 
d="M327 526h125l86 -325h3l83 325h148l-151 -526h-150l-83 301h-2l-84 -301h-153l-144 526h151l78 -326h2z" />
    <glyph glyph-name="x" unicode="x" horiz-adv-x="597" 
d="M414 526h178l-203 -262l197 -264h-182l-108 158l-112 -158h-179l208 268l-190 258h181l104 -152z" />
    <glyph glyph-name="y" unicode="y" horiz-adv-x="531" 
d="M189 31l-186 495h155l106 -313h2l108 313h154l-296 -767l-127 49z" />
    <glyph glyph-name="z" unicode="z" horiz-adv-x="483" 
d="M50 0v66l200 342h-211v118h398v-65l-202 -343h219v-118h-404z" />
    <glyph glyph-name="braceleft" unicode="{" horiz-adv-x="344" 
d="M7 250l2 107q74 18 74 123v71q0 91 54 149q55 58 144 58q18 0 54 -3v-109h-39q-82 0 -82 -119v-73q0 -106 -63 -150q63 -46 63 -151v-92q0 -120 84 -120h37v-109q-32 -4 -54 -4q-88 0 -144 59q-54 59 -54 149v103q0 44 -19.5 74t-56.5 37z" />
    <glyph glyph-name="bar" unicode="|" horiz-adv-x="324" 
d="M226 858v-1028h-128v1028h128z" />
    <glyph glyph-name="braceright" unicode="}" horiz-adv-x="344" 
d="M337 357l-2 -107q-74 -18 -74 -123v-92q0 -91 -55 -149q-54 -58 -143 -58q-18 0 -54 3v109h39q82 0 82 119v94q0 107 63 150q-63 46 -63 151v71q0 120 -84 120h-37v109q32 4 54 4q89 0 143 -59q55 -58 55 -149v-82q0 -44 19.5 -74t56.5 -37z" />
    <glyph glyph-name="asciitilde" unicode="~" 
d="M129 266l-109 -5q-2 14 -2 19q0 67 41 109t107 42q42 1 86 -22t78.5 -46t53.5 -21q17 0 28 11.5t11 30.5q0 9 -1 12l108 5q2 -14 2 -19q0 -67 -41 -109t-107 -42q-42 -1 -86 22t-78.5 46t-53.5 21q-17 0 -27.5 -11.5t-10.5 -30.5q0 -9 1 -12z" />
    <glyph glyph-name="uni00A0" unicode="&#xa0;" horiz-adv-x="250" 
 />
    <glyph glyph-name="exclamdown" unicode="&#xa1;" horiz-adv-x="327" 
d="M242 -174h-157v125l11 336h135l11 -336v-125zM87 377v149h153v-149h-153z" />
    <glyph glyph-name="cent" unicode="&#xa2;" 
d="M435 189l76 -97q-59 -52 -143 -62v-90h-84v89q-101 13 -165 88q-63 73 -63 185q0 104 63 181q63 76 165 91v91h84v-91q81 -11 143 -61l-72 -100q-47 43 -102 43q-59 0 -98 -45t-39 -109q0 -66 39 -109q39 -44 95 -44q61 0 101 40z" />
    <glyph glyph-name="sterling" unicode="&#xa3;" 
d="M508 121v-121h-436v121h54v177h-54v120h54v29q0 100 61 164q62 65 156 65q90 0 171 -48l-55 -108q-45 36 -100 36q-44 0 -69 -31.5t-25 -88.5v-18h128v-120h-128v-177h243z" />
    <glyph glyph-name="currency" unicode="&#xa4;" 
d="M56 326q0 56 29 109l-58 58l81 81l59 -58q50 29 108 29q55 0 108 -29l59 58l81 -81l-59 -58q30 -52 30 -109t-29 -109l58 -57l-81 -81l-58 58q-48 -30 -109 -30t-110 29l-57 -57l-81 81l58 57q-29 50 -29 109zM388 326q0 46 -33 79q-33 34 -80 34t-80 -33t-33 -80
q0 -46 33 -81q33 -33 80 -33t80 33q33 35 33 81z" />
    <glyph glyph-name="yen" unicode="&#xa5;" 
d="M203 257h-162v94h127l-176 314h160l126 -229h2l118 229h159l-179 -314h126v-94h-162v-56h162v-93h-162v-108h-139v108h-162v93h162v56z" />
    <glyph glyph-name="brokenbar" unicode="&#xa6;" horiz-adv-x="324" 
d="M226 204v-397h-128v397h128zM226 750v-397h-128v397h128z" />
    <glyph glyph-name="section" unicode="&#xa7;" 
d="M473 640l-83 -86q-51 45 -118 45q-28 0 -47 -13t-19 -35q0 -27 34 -45q14 -8 37 -17l21 -7l47 -15q72 -24 117 -57q57 -42 57 -116q0 -81 -84 -139q54 -42 54 -111q0 -87 -64 -135q-62 -49 -156 -49q-139 0 -243 93l84 91q70 -68 153 -68q36 0 61 15t25 42q0 31 -35 48
q-24 11 -34 14q-12 5 -46 15q-21 6 -45 14q-75 25 -112 60.5t-37 97.5q0 99 85 145q-54 47 -54 114q0 77 59 124q58 46 141 46q120 0 202 -71zM283 223l38 -12q57 24 57 73q0 26 -34 43q-16 9 -37 17l-22 8l-50 17q-54 -21 -54 -72q0 -25 22.5 -40.5t79.5 -33.5z" />
    <glyph glyph-name="dieresis" unicode="&#xa8;" horiz-adv-x="360" 
d="M131 720v-121h-143v121h143zM372 720v-121h-143v121h143z" />
    <glyph glyph-name="copyright" unicode="&#xa9;" horiz-adv-x="799" 
d="M155 89q-104 102 -104 244t104 243q105 102 250 102t249 -102q105 -100 105 -243q0 -142 -105 -244q-104 -101 -249 -101q-144 0 -250 101zM231 508q-72 -74 -72 -175t72 -175q72 -73 174 -73t174 73q72 74 72 175t-72 175q-72 73 -174 73t-174 -73zM527 474l-50 -69
q-26 22 -63 22q-39 0 -63.5 -27t-24.5 -69q0 -46 23 -71.5t65 -25.5q33 0 65 26l52 -65q-50 -46 -117 -46q-82 0 -135 50t-53 132q0 77 54 129q56 53 134 53q57 0 113 -39z" />
    <glyph glyph-name="ordfeminine" unicode="&#xaa;" horiz-adv-x="389" 
d="M72 622l-26 75q75 37 147 37q70 0 110 -37.5t40 -108.5v-202h-90l-6 27q-32 -35 -94 -35q-51 0 -86.5 29t-35.5 77q0 56 41.5 84t109.5 28q20 0 58 -5v4q-3 59 -68 59q-50 0 -100 -32zM240 471v61q-17 4 -36 4q-29 0 -48 -12t-19 -35q0 -39 47 -39q32 0 56 21z" />
    <glyph glyph-name="guillemotleft" unicode="&#xab;" horiz-adv-x="589" 
d="M301 210v115l161 168l78 -105l-127 -121l127 -120l-78 -106zM49 210v115l161 168l77 -105l-126 -121l126 -120l-77 -106z" />
    <glyph glyph-name="logicalnot" unicode="&#xac;" 
d="M18 316v120h513v-317h-120v197h-393z" />
    <glyph glyph-name="uni00AD" unicode="&#xad;" horiz-adv-x="447" 
d="M365 349v-118h-283v118h283z" />
    <glyph glyph-name="registered" unicode="&#xae;" horiz-adv-x="575" 
d="M115 304q-72 70 -72 171t72 171q73 71 173 71t173 -71q72 -70 72 -171t-72 -171q-71 -70 -173 -70t-173 70zM123 475q0 -69 48 -119q48 -49 117 -49t117 49q48 50 48 119q0 71 -48 120t-117 49t-117 -49t-48 -120zM330 455l70 -94h-80l-49 76h-4v-76h-65v234h74
q43 0 70 -19t27 -55q0 -47 -43 -66zM267 542v-47q40 0 40 23q0 14 -8.5 19t-31.5 5z" />
    <glyph glyph-name="overscore" unicode="&#xaf;" horiz-adv-x="360" 
d="M351 707v-98h-342v98h342z" />
    <glyph glyph-name="degree" unicode="&#xb0;" horiz-adv-x="462" 
d="M274 579q-18 20 -46 20t-47 -20q-18 -19 -18 -47t18 -48q19 -19 47 -19t46 19q19 20 19 48t-19 47zM343 417q-47 -47 -115 -47t-115 47t-47 115t47 115t115 47t115 -47t47 -115t-47 -115z" />
    <glyph glyph-name="plusminus" unicode="&#xb1;" 
d="M18 368v120h196v196h120v-196h197v-120h-197v-197h-120v197h-196zM18 0v120h513v-120h-513z" />
    <glyph glyph-name="twosuperior" unicode="&#xb2;" horiz-adv-x="331" 
d="M26 367v74q86 75 140 141q32 44 32 74q0 40 -37 40q-18 0 -28 -15t-10 -40l-104 13q2 54 41 87.5t97 33.5q60 0 103 -31t43 -83q0 -58 -40 -107q-51 -61 -111 -110h163v-77h-289z" />
    <glyph glyph-name="threesuperior" unicode="&#xb3;" horiz-adv-x="347" 
d="M114 536v72q3 -1 15 -1q16 0 31 4q39 11 39 42q0 19 -12.5 31t-33.5 12q-39 0 -52 -39l-80 36q15 39 51 60.5t82 21.5q61 0 105 -29t44 -77q0 -59 -57 -88q37 -12 56.5 -39t19.5 -62q0 -53 -44.5 -86.5t-111.5 -33.5q-52 0 -93.5 23t-58.5 64l80 37q22 -45 65 -45
q25 0 40.5 13.5t15.5 33.5q0 24 -19 38t-50 14q-2 0 -32 -2z" />
    <glyph glyph-name="acute" unicode="&#xb4;" horiz-adv-x="360" 
d="M239 826l96 -76l-147 -172l-82 62z" />
    <glyph glyph-name="mu" unicode="&#xb5;" 
d="M33 -250v776h142v-269q0 -57 11 -97q17 -50 75 -50q32 0 63 17.5t51 48.5v350h142v-526h-123l-11 72q-61 -84 -163 -84q-24 0 -45 7v-245h-142z" />
    <glyph glyph-name="paragraph" unicode="&#xb6;" 
d="M512 700v-875h-121v875h121zM344 700v-875h-120v445q-89 16 -142.5 70t-53.5 143q0 57 23.5 100.5t62.5 68t83 36.5t91 12h56zM224 388v190q-33 -2 -55 -28t-22 -67t22 -67t55 -28z" />
    <glyph glyph-name="middot" unicode="&#xb7;" horiz-adv-x="250" 
d="M201 394v-149h-153v149h153z" />
    <glyph glyph-name="cedilla" unicode="&#xb8;" horiz-adv-x="400" 
d="M115 21l68 -13l-27 -69h1q19 15 47 15q37 0 65 -29.5t28 -71.5q0 -43 -33 -76q-33 -34 -81 -34q-76 0 -116 70l69 33q12 -32 40 -32q16 0 26.5 10.5t10.5 26.5t-11 28t-26 12q-23 0 -37 -20l-73 37z" />
    <glyph glyph-name="onesuperior" unicode="&#xb9;" horiz-adv-x="229" 
d="M184 768v-401h-103v291q-12 -7 -56 -23v85q28 13 91 48h68z" />
    <glyph glyph-name="ordmasculine" unicode="&#xba;" horiz-adv-x="413" 
d="M74 683q52 51 132 51t131 -51q52 -51 52 -127t-52 -127q-51 -51 -131 -51t-132 51q-51 51 -51 127t51 127zM262 626q-21 27 -56 27t-56 -27t-21 -70t21 -70t56 -27t56 27t21 70t-21 70z" />
    <glyph glyph-name="guillemotright" unicode="&#xbb;" horiz-adv-x="589" 
d="M49 387l77 103l161 -165v-116l-161 -165l-77 103l126 120zM301 387l78 103l161 -165v-116l-161 -165l-78 103l127 120z" />
    <glyph glyph-name="onequarter" unicode="&#xbc;" horiz-adv-x="802" 
d="M94 35l498 683l71 -53l-498 -683zM241 700v-362h-98v258q-24 -14 -57 -26v89l80 41h75zM424 79v81l151 201h100v-204h47v-78h-47v-79h-95v79h-156zM516 157h64v91q-21 -32 -64 -91z" />
    <glyph glyph-name="onehalf" unicode="&#xbd;" horiz-adv-x="828" 
d="M165 -18l-71 53l498 683l71 -53zM86 570v89l80 41h75v-362h-98v258q-24 -14 -57 -26zM484 0v68q78 65 127 126q29 35 29 66q0 32 -34 32q-16 0 -25.5 -12t-9.5 -32l-93 15q3 49 39 77.5t91 28.5q53 0 91 -29q39 -28 39 -75q0 -48 -38 -98q-33 -41 -87 -87h135v-80h-264z
" />
    <glyph glyph-name="threequarters" unicode="&#xbe;" horiz-adv-x="880" 
d="M172 35l499 683l71 -53l-499 -683zM172 487l-1 71h8q21 0 31 3q31 7 31 36q0 15 -10.5 24.5t-28.5 9.5q-33 0 -39 -33l-77 36q12 34 45 54t74 20q55 0 93.5 -27t38.5 -70q0 -23 -13.5 -45t-34.5 -33q29 -10 47 -35.5t18 -55.5q0 -52 -41 -82q-41 -29 -97 -29
q-46 0 -82.5 20.5t-53.5 58.5l77 35q13 -37 55 -37q19 0 32 10.5t13 28.5q0 43 -61 43q-12 0 -24 -3zM502 79v81l151 201h100v-204h47v-78h-47v-79h-95v79h-156zM594 157h64v91q-21 -32 -64 -91z" />
    <glyph glyph-name="questiondown" unicode="&#xbf;" horiz-adv-x="545" 
d="M205 208v79h145v-152q-45 -16 -59 -22q-20 -8 -46 -23q-47 -28 -47 -82q0 -33 20 -54.5t53 -21.5q35 0 54.5 22.5t19.5 62.5v21h139v-17q0 -92 -61 -149q-59 -58 -152 -58t-152 59t-59 132q0 87 44 131q39 40 101 72zM201 377v149h153v-149h-153z" />
    <glyph glyph-name="Agrave" unicode="&#xc0;" horiz-adv-x="689" 
d="M414 700l263 -700h-165l-45 130h-249l-47 -130h-159l286 700h116zM346 482h-1l-85 -235h167zM420 814l-64 -81l-182 128l74 97z" />
    <glyph glyph-name="Aacute" unicode="&#xc1;" horiz-adv-x="689" 
d="M414 700l263 -700h-165l-45 130h-249l-47 -130h-159l286 700h116zM346 482h-1l-85 -235h167zM428 958l74 -97l-182 -128l-64 81z" />
    <glyph glyph-name="Acircumflex" unicode="&#xc2;" horiz-adv-x="689" 
d="M414 700l263 -700h-165l-45 130h-249l-47 -130h-159l286 700h116zM346 482h-1l-85 -235h167zM162 794l117 149h156l113 -149l-82 -60l-111 126l-112 -126z" />
    <glyph glyph-name="Atilde" unicode="&#xc3;" horiz-adv-x="689" 
d="M414 700l263 -700h-165l-45 130h-249l-47 -130h-159l286 700h116zM346 482h-1l-85 -235h167zM466 878l82 9q6 -19 6 -39q0 -46 -31.5 -74.5t-83.5 -28.5q-37 0 -86 25q-49 26 -60 26q-23 0 -25 -23q0 -6 1 -7l-81 -9q-7 21 -7 39q0 46 32 74.5t84 28.5q35 0 85 -26
q49 -25 60 -25q10 0 17.5 6t7.5 17q0 6 -1 7z" />
    <glyph glyph-name="Adieresis" unicode="&#xc4;" horiz-adv-x="689" 
d="M414 700l263 -700h-165l-45 130h-249l-47 -130h-159l286 700h116zM346 482h-1l-85 -235h167zM292 882v-120h-149v120h149zM569 882v-120h-149v120h149z" />
    <glyph glyph-name="Aring" unicode="&#xc5;" horiz-adv-x="689" 
d="M414 700l263 -700h-165l-45 130h-249l-47 -130h-159l286 700h116zM346 482h-1l-85 -235h167zM277 910q33 33 80 33t80 -33t33 -80t-33 -80t-80 -33t-80 33t-33 80t33 80zM389 863q-13 13 -32 13t-33 -13q-13 -13 -13 -33t13 -33q14 -13 33 -13t32 13q14 13 14 33t-14 33z
" />
    <glyph glyph-name="AE" unicode="&#xc6;" horiz-adv-x="1009" 
d="M956 121v-121h-449v131h-247l-88 -131h-181l516 700h449v-121h-305v-158h305v-121h-305v-179h305zM507 496l-168 -248h168v248z" />
    <glyph glyph-name="Ccedilla" unicode="&#xc7;" horiz-adv-x="675" 
d="M637 644l-69 -111q-70 54 -146 54q-95 0 -158 -69q-62 -68 -62 -168q0 -105 59 -172q59 -65 161 -65q82 0 149 58l80 -104q-103 -79 -235 -79q-25 0 -49 3l-20 -52h1q20 15 47 15q39 0 66 -29.5t27 -71.5q0 -43 -34 -76q-33 -34 -81 -34q-76 0 -115 70l69 33
q12 -32 40 -32q23 -2 32 17.5t0 39.5t-31 20q-24 0 -38 -20l-73 38l43 95q-114 33 -183 126q-68 94 -68 220q0 154 109 257q110 105 264 105q105 0 215 -68z" />
    <glyph glyph-name="Egrave" unicode="&#xc8;" horiz-adv-x="580" 
d="M527 121v-121h-449v700h449v-121h-306v-158h306v-121h-306v-179h306zM413 814l-64 -81l-182 128l74 97z" />
    <glyph glyph-name="Eacute" unicode="&#xc9;" horiz-adv-x="580" 
d="M527 121v-121h-449v700h449v-121h-306v-158h306v-121h-306v-179h306zM394 958l74 -97l-182 -128l-64 81z" />
    <glyph glyph-name="Ecircumflex" unicode="&#xca;" horiz-adv-x="580" 
d="M527 121v-121h-449v700h449v-121h-306v-158h306v-121h-306v-179h306zM115 794l117 149h156l113 -149l-82 -60l-111 126l-112 -126z" />
    <glyph glyph-name="Edieresis" unicode="&#xcb;" horiz-adv-x="580" 
d="M265 882v-120h-148v120h148zM502 882v-120h-149v120h149zM527 121v-121h-449v700h449v-121h-306v-158h306v-121h-306v-179h306z" />
    <glyph glyph-name="Igrave" unicode="&#xcc;" horiz-adv-x="299" 
d="M221 700v-700h-143v700h143zM215 814l-64 -81l-182 128l74 97z" />
    <glyph glyph-name="Iacute" unicode="&#xcd;" horiz-adv-x="299" 
d="M221 700v-700h-143v700h143zM257 958l74 -97l-182 -128l-64 81z" />
    <glyph glyph-name="Icircumflex" unicode="&#xce;" horiz-adv-x="299" 
d="M-44 794l117 149h156l113 -149l-82 -60l-111 126l-112 -126zM221 700v-700h-143v700h143z" />
    <glyph glyph-name="Idieresis" unicode="&#xcf;" horiz-adv-x="299" 
d="M108 882v-120h-149v120h149zM340 882v-120h-149v120h149zM221 700v-700h-143v700h143z" />
    <glyph glyph-name="Eth" unicode="&#xd0;" horiz-adv-x="715" 
d="M78 411v289h204q145 0 259 -78q58 -40 91.5 -110t33.5 -159q0 -91 -33.5 -162t-92.5 -112q-113 -79 -267 -79h-195v313h-67v98h67zM265 579h-44v-168h113v-98h-113v-192h16q276 0 276 223q0 114 -64 174.5t-184 60.5z" />
    <glyph glyph-name="Ntilde" unicode="&#xd1;" horiz-adv-x="748" 
d="M485 878l82 9q6 -19 6 -39q0 -46 -31.5 -74.5t-83.5 -28.5q-37 0 -86 25q-49 26 -60 26q-23 0 -25 -23q0 -6 1 -7l-81 -9q-7 21 -7 39q0 46 32 74.5t84 28.5q35 0 85 -26q49 -25 60 -25q10 0 17.5 6t7.5 17q0 6 -1 7zM671 700v-700h-129l-321 438v-438h-143v700h126
l324 -439v439h143z" />
    <glyph glyph-name="Ograve" unicode="&#xd2;" horiz-adv-x="831" 
d="M568 181q61 68 61 169t-61 168q-60 69 -152 69q-91 0 -153 -68q-61 -67 -61 -169t61 -169q62 -68 153 -68q92 0 152 68zM416 -12q-154 0 -261 105q-106 106 -106 257t106 256q106 106 261 106q154 0 260 -106q106 -105 106 -256t-106 -257q-106 -105 -260 -105zM484 814
l-64 -81l-182 128l74 97z" />
    <glyph glyph-name="Oacute" unicode="&#xd3;" horiz-adv-x="831" 
d="M568 181q61 68 61 169t-61 168q-60 69 -152 69q-91 0 -153 -68q-61 -67 -61 -169t61 -169q62 -68 153 -68q92 0 152 68zM416 -12q-154 0 -261 105q-106 106 -106 257t106 256q106 106 261 106q154 0 260 -106q106 -105 106 -256t-106 -257q-106 -105 -260 -105zM523 958
l74 -97l-182 -128l-64 81z" />
    <glyph glyph-name="Ocircumflex" unicode="&#xd4;" horiz-adv-x="831" 
d="M568 181q61 68 61 169t-61 168q-60 69 -152 69q-91 0 -153 -68q-61 -67 -61 -169t61 -169q62 -68 153 -68q92 0 152 68zM416 -12q-154 0 -261 105q-106 106 -106 257t106 256q106 106 261 106q154 0 260 -106q106 -105 106 -256t-106 -257q-106 -105 -260 -105zM224 794
l117 149h156l113 -149l-82 -60l-111 126l-112 -126z" />
    <glyph glyph-name="Otilde" unicode="&#xd5;" horiz-adv-x="831" 
d="M533 878l82 9q6 -19 6 -39q0 -46 -31.5 -74.5t-83.5 -28.5q-37 0 -86 25q-49 26 -60 26q-23 0 -25 -23q0 -6 1 -7l-81 -9q-7 21 -7 39q0 46 32 74.5t84 28.5q35 0 85 -26q49 -25 60 -25q10 0 17.5 6t7.5 17q0 6 -1 7zM568 181q61 68 61 169t-61 168q-60 69 -152 69
q-91 0 -153 -68q-61 -67 -61 -169t61 -169q62 -68 153 -68q92 0 152 68zM416 -12q-154 0 -261 105q-106 106 -106 257t106 256q106 106 261 106q154 0 260 -106q106 -105 106 -256t-106 -257q-106 -105 -260 -105z" />
    <glyph glyph-name="Odieresis" unicode="&#xd6;" horiz-adv-x="831" 
d="M568 181q61 68 61 169t-61 168q-60 69 -152 69q-91 0 -153 -68q-61 -67 -61 -169t61 -169q62 -68 153 -68q92 0 152 68zM416 -12q-154 0 -261 105q-106 106 -106 257t106 256q106 106 261 106q154 0 260 -106q106 -105 106 -256t-106 -257q-106 -105 -260 -105zM352 882
v-120h-149v120h149zM629 882v-120h-149v120h149z" />
    <glyph glyph-name="multiply" unicode="&#xd7;" 
d="M360 312l135 -135l-85 -85l-136 134l-134 -134l-85 85l135 134l-135 135l86 85l133 -134l135 134l85 -85z" />
    <glyph glyph-name="Oslash" unicode="&#xd8;" horiz-adv-x="831" 
d="M782 350q0 -151 -106 -257q-106 -105 -260 -105q-85 0 -157 34l-34 -50l-93 61l34 50q-117 107 -117 267q0 151 106 256q106 106 261 106q77 0 152 -32l31 46l93 -61l-30 -45q120 -110 120 -270zM629 350q0 86 -47 151l-250 -370q39 -18 84 -18q92 0 152 68q61 68 61 169
zM202 350q0 -84 44 -148l249 369q-36 16 -79 16q-91 0 -153 -68q-61 -67 -61 -169z" />
    <glyph glyph-name="Ugrave" unicode="&#xd9;" horiz-adv-x="716" 
d="M497 700h143v-370q0 -171 -69.5 -256.5t-214.5 -85.5q-280 0 -280 342v370h143v-389q0 -97 36.5 -147.5t102.5 -50.5t102.5 50.5t36.5 147.5v389zM423 814l-64 -81l-182 128l74 97z" />
    <glyph glyph-name="Uacute" unicode="&#xda;" horiz-adv-x="716" 
d="M497 700h143v-370q0 -171 -69.5 -256.5t-214.5 -85.5q-280 0 -280 342v370h143v-389q0 -97 36.5 -147.5t102.5 -50.5t102.5 50.5t36.5 147.5v389zM449 958l74 -97l-182 -128l-64 81z" />
    <glyph glyph-name="Ucircumflex" unicode="&#xdb;" horiz-adv-x="716" 
d="M497 700h143v-370q0 -171 -69.5 -256.5t-214.5 -85.5q-280 0 -280 342v370h143v-389q0 -97 36.5 -147.5t102.5 -50.5t102.5 50.5t36.5 147.5v389zM168 794l117 149h156l113 -149l-82 -60l-111 126l-112 -126z" />
    <glyph glyph-name="Udieresis" unicode="&#xdc;" horiz-adv-x="716" 
d="M497 700h143v-370q0 -171 -69.5 -256.5t-214.5 -85.5q-280 0 -280 342v370h143v-389q0 -97 36.5 -147.5t102.5 -50.5t102.5 50.5t36.5 147.5v389zM295 882v-120h-149v120h149zM572 882v-120h-149v120h149z" />
    <glyph glyph-name="Yacute" unicode="&#xdd;" horiz-adv-x="608" 
d="M370 289v-289h-143v293l-223 407h178l121 -252h2l132 252h167zM401 958l74 -97l-182 -128l-64 81z" />
    <glyph glyph-name="Thorn" unicode="&#xde;" horiz-adv-x="594" 
d="M78 -7v707h143v-128h80q47 0 91.5 -12t83.5 -36.5t63 -68t24 -100.5q0 -58 -23.5 -102t-63 -68.5t-83.5 -36.5t-92 -12h-80v-143h-143zM411 352q0 46 -31 72.5t-83 26.5h-76v-194h57q133 0 133 95z" />
    <glyph glyph-name="germandbls" unicode="&#xdf;" horiz-adv-x="641" 
d="M204 516v-516h-138v534q0 106 70 167t173 61q99 0 167 -55q69 -54 69 -148q0 -90 -68 -140q60 -22 94 -75t34 -122q0 -102 -72 -168t-174 -66q-49 0 -97 20l36 112q25 -13 56 -13q52 0 81.5 31.5t29.5 84.5q0 59 -37 93t-98 34q-29 0 -50 -4v111q7 -1 28 -1q40 0 69 27
t29 69q0 40 -26.5 65.5t-67.5 25.5q-108 0 -108 -127z" />
    <glyph glyph-name="agrave" unicode="&#xe0;" horiz-adv-x="575" 
d="M511 316v-316h-123l-11 45q-47 -57 -143 -57q-78 0 -134 45q-55 45 -55 122q0 61 36 101q62 69 193 69q40 0 95 -11v8q0 106 -104 106q-71 0 -159 -46l-38 102q109 54 226 54q106 0 161.5 -58t55.5 -164zM369 132v97q-41 9 -72 9q-49 0 -81 -20.5t-32 -60.5q0 -32 23 -51
t57 -19q56 0 105 45zM354 640l-82 -62l-147 172l96 76z" />
    <glyph glyph-name="aacute" unicode="&#xe1;" horiz-adv-x="575" 
d="M511 316v-316h-123l-11 45q-47 -57 -143 -57q-78 0 -134 45q-55 45 -55 122q0 61 36 101q62 69 193 69q40 0 95 -11v8q0 106 -104 106q-71 0 -159 -46l-38 102q109 54 226 54q106 0 161.5 -58t55.5 -164zM369 132v97q-41 9 -72 9q-49 0 -81 -20.5t-32 -60.5q0 -32 23 -51
t57 -19q56 0 105 45zM364 826l96 -76l-147 -172l-82 62z" />
    <glyph glyph-name="acircumflex" unicode="&#xe2;" horiz-adv-x="575" 
d="M511 316v-316h-123l-11 45q-47 -57 -143 -57q-78 0 -134 45q-55 45 -55 122q0 61 36 101q62 69 193 69q40 0 95 -11v8q0 106 -104 106q-71 0 -159 -46l-38 102q109 54 226 54q106 0 161.5 -58t55.5 -164zM369 132v97q-41 9 -72 9q-49 0 -81 -20.5t-32 -60.5q0 -32 23 -51
t57 -19q56 0 105 45zM97 631l114 168h143l112 -168l-80 -48l-105 129l-104 -129z" />
    <glyph glyph-name="atilde" unicode="&#xe3;" horiz-adv-x="575" 
d="M511 316v-316h-123l-11 45q-47 -57 -143 -57q-78 0 -134 45q-55 45 -55 122q0 61 36 101q62 69 193 69q40 0 95 -11v8q0 106 -104 106q-71 0 -159 -46l-38 102q109 54 226 54q106 0 161.5 -58t55.5 -164zM369 132v97q-41 9 -72 9q-49 0 -81 -20.5t-32 -60.5q0 -32 23 -51
t57 -19q56 0 105 45zM187 602l-81 -9q-6 19 -6 38q0 46 31.5 74.5t83.5 28.5q36 0 86 -26q49 -25 60 -25q23 0 25 23q0 6 -1 7l81 9q6 -19 6 -38q0 -46 -31.5 -74.5t-83.5 -28.5q-37 0 -86 25q-50 26 -60 26q-23 0 -25 -23q0 -6 1 -7z" />
    <glyph glyph-name="adieresis" unicode="&#xe4;" horiz-adv-x="575" 
d="M511 316v-316h-123l-11 45q-47 -57 -143 -57q-78 0 -134 45q-55 45 -55 122q0 61 36 101q62 69 193 69q40 0 95 -11v8q0 106 -104 106q-71 0 -159 -46l-38 102q109 54 226 54q106 0 161.5 -58t55.5 -164zM369 132v97q-41 9 -72 9q-49 0 -81 -20.5t-32 -60.5q0 -32 23 -51
t57 -19q56 0 105 45zM233 720v-121h-143v121h143zM474 720v-121h-143v121h143z" />
    <glyph glyph-name="aring" unicode="&#xe5;" horiz-adv-x="575" 
d="M511 316v-316h-123l-11 45q-47 -57 -143 -57q-78 0 -134 45q-55 45 -55 122q0 61 36 101q62 69 193 69q40 0 95 -11v8q0 106 -104 106q-71 0 -159 -46l-38 102q109 54 226 54q106 0 161.5 -58t55.5 -164zM369 132v97q-41 9 -72 9q-49 0 -81 -20.5t-32 -60.5q0 -32 23 -51
t57 -19q56 0 105 45zM215 609q-33 33 -33 80t33 80t80 33t80 -33t33 -80t-33 -80t-80 -33t-80 33zM263 721q-13 -13 -13 -32t13 -32t32 -13t32 13t13 32t-13 32t-32 13t-32 -13z" />
    <glyph glyph-name="ae" unicode="&#xe6;" horiz-adv-x="921" 
d="M880 228h-370q8 -57 43 -91.5t89 -34.5q47 0 78 18.5t59 59.5l93 -63q-46 -68 -102 -98.5t-138 -30.5q-120 0 -195 77q-45 -43 -92.5 -60t-110.5 -17q-78 0 -134 45q-55 45 -55 122q0 61 36 101q62 69 193 69q40 0 95 -11v8q0 106 -104 106q-71 0 -159 -46l-38 102
q109 54 226 54q114 0 167 -68q71 68 172 68q110 0 182 -69t72 -174q0 -32 -7 -67zM385 149q-13 33 -18 80q-39 9 -70 9q-49 0 -81 -20.5t-32 -60.5q0 -32 23 -51t57 -19q70 0 121 62zM517 325h225q-2 47 -31 74.5t-74 27.5q-95 0 -120 -102z" />
    <glyph glyph-name="ccedilla" unicode="&#xe7;" horiz-adv-x="511" 
d="M413 150l76 -97q-74 -65 -189 -65q-18 0 -23 1l-19 -50h1q19 15 46 15q37 0 65.5 -29.5t28.5 -71.5q0 -43 -34 -76q-33 -34 -81 -34q-76 0 -115 70l68 33q14 -32 40 -32q17 0 27.5 10.5t10.5 26.5t-11 28t-26 12q-25 0 -37 -20l-74 37l41 94q-81 27 -128 96.5t-47 164.5
q0 116 76 195q77 80 195 80q105 0 185 -65l-73 -99q-45 42 -102 42q-59 0 -98 -45q-38 -44 -38 -108q0 -66 38 -110q39 -43 96 -43q61 0 101 40z" />
    <glyph glyph-name="egrave" unicode="&#xe8;" horiz-adv-x="588" 
d="M547 228h-370q8 -57 43 -91.5t89 -34.5q47 0 78 18.5t59 59.5l93 -63q-46 -68 -102 -98.5t-138 -30.5q-119 0 -193 75q-73 74 -73 194q0 118 77 200q76 81 190 81q110 0 182 -69t72 -174q0 -32 -7 -67zM184 325h225q-2 47 -31 74.5t-74 27.5q-94 0 -120 -102zM361 640
l-82 -62l-147 172l96 76z" />
    <glyph glyph-name="eacute" unicode="&#xe9;" horiz-adv-x="588" 
d="M547 228h-370q8 -57 43 -91.5t89 -34.5q47 0 78 18.5t59 59.5l93 -63q-46 -68 -102 -98.5t-138 -30.5q-119 0 -193 75q-73 74 -73 194q0 118 77 200q76 81 190 81q110 0 182 -69t72 -174q0 -32 -7 -67zM184 325h225q-2 47 -31 74.5t-74 27.5q-94 0 -120 -102zM391 826
l96 -76l-147 -172l-82 62z" />
    <glyph glyph-name="ecircumflex" unicode="&#xea;" horiz-adv-x="588" 
d="M547 228h-370q8 -57 43 -91.5t89 -34.5q47 0 78 18.5t59 59.5l93 -63q-46 -68 -102 -98.5t-138 -30.5q-119 0 -193 75q-73 74 -73 194q0 118 77 200q76 81 190 81q110 0 182 -69t72 -174q0 -32 -7 -67zM184 325h225q-2 47 -31 74.5t-74 27.5q-94 0 -120 -102zM118 631
l114 168h143l112 -168l-80 -48l-105 129l-104 -129z" />
    <glyph glyph-name="edieresis" unicode="&#xeb;" horiz-adv-x="588" 
d="M547 228h-370q8 -57 43 -91.5t89 -34.5q47 0 78 18.5t59 59.5l93 -63q-46 -68 -102 -98.5t-138 -30.5q-119 0 -193 75q-73 74 -73 194q0 118 77 200q76 81 190 81q110 0 182 -69t72 -174q0 -32 -7 -67zM184 325h225q-2 47 -31 74.5t-74 27.5q-94 0 -120 -102zM253 720
v-121h-143v121h143zM494 720v-121h-143v121h143z" />
    <glyph glyph-name="igrave" unicode="&#xec;" horiz-adv-x="280" 
d="M211 526v-526h-142v526h142zM196 640l-82 -62l-147 172l96 76z" />
    <glyph glyph-name="iacute" unicode="&#xed;" horiz-adv-x="280" 
d="M211 526v-526h-142v526h142zM216 826l96 -76l-147 -172l-82 62z" />
    <glyph glyph-name="icircumflex" unicode="&#xee;" horiz-adv-x="280" 
d="M-45 631l114 168h143l112 -168l-80 -48l-105 129l-104 -129zM211 526v-526h-142v526h142z" />
    <glyph glyph-name="idieresis" unicode="&#xef;" horiz-adv-x="280" 
d="M105 720v-121h-143v121h143zM319 720v-121h-143v121h143zM211 526v-526h-142v526h142z" />
    <glyph glyph-name="eth" unicode="&#xf0;" horiz-adv-x="609" 
d="M236 590l-47 -87l-90 49l45 84q-36 17 -79 33l49 114l87 -39l43 80l91 -48l-41 -78q282 -158 282 -436q0 -117 -79 -196q-79 -78 -203 -78q-108 0 -185 74q-76 75 -76 176q0 105 70 171q70 67 177 67q59 0 105 -28q-50 83 -149 142zM424 327q-50 32 -111 32
q-59 0 -97 -31.5t-38 -86.5t35 -96q34 -40 87 -40q64 0 97.5 42t33.5 112q0 33 -7 68z" />
    <glyph glyph-name="ntilde" unicode="&#xf1;" horiz-adv-x="618" 
d="M237 602l-81 -9q-6 19 -6 38q0 46 31.5 74.5t83.5 28.5q36 0 86 -26q49 -25 60 -25q23 0 25 23q0 6 -1 7l81 9q6 -19 6 -38q0 -46 -31.5 -74.5t-83.5 -28.5q-37 0 -86 25q-50 26 -60 26q-23 0 -25 -23q0 -6 1 -7zM69 0v526h123l11 -72q60 84 163 84q86 0 140 -69
q47 -62 47 -196v-273h-142v266q0 82 -16 113q-19 37 -70 37q-33 0 -64 -18.5t-50 -48.5v-349h-142z" />
    <glyph glyph-name="ograve" unicode="&#xf2;" horiz-adv-x="617" 
d="M309 538q119 0 197 -79q78 -80 78 -196q0 -117 -78 -196t-197 -79q-120 0 -198 79t-78 196t78 196t198 79zM403 153q36 43 36 110q0 66 -36 109q-36 44 -94 44q-57 0 -95 -44q-36 -43 -36 -109t36 -109q38 -44 95 -44q58 0 94 43zM345 640l-82 -62l-147 172l96 76z" />
    <glyph glyph-name="oacute" unicode="&#xf3;" horiz-adv-x="617" 
d="M309 538q119 0 197 -79q78 -80 78 -196q0 -117 -78 -196t-197 -79q-120 0 -198 79t-78 196t78 196t198 79zM403 153q36 43 36 110q0 66 -36 109q-36 44 -94 44q-57 0 -95 -44q-36 -43 -36 -109t36 -109q38 -44 95 -44q58 0 94 43zM394 826l96 -76l-147 -172l-82 62z" />
    <glyph glyph-name="ocircumflex" unicode="&#xf4;" horiz-adv-x="617" 
d="M309 538q119 0 197 -79q78 -80 78 -196q0 -117 -78 -196t-197 -79q-120 0 -198 79t-78 196t78 196t198 79zM403 153q36 43 36 110q0 66 -36 109q-36 44 -94 44q-57 0 -95 -44q-36 -43 -36 -109t36 -109q38 -44 95 -44q58 0 94 43zM125 631l114 168h143l112 -168l-80 -48
l-105 129l-104 -129z" />
    <glyph glyph-name="otilde" unicode="&#xf5;" horiz-adv-x="617" 
d="M226 602l-81 -9q-6 19 -6 38q0 46 31.5 74.5t83.5 28.5q36 0 86 -26q49 -25 60 -25q23 0 25 23q0 6 -1 7l81 9q6 -19 6 -38q0 -46 -31.5 -74.5t-83.5 -28.5q-37 0 -86 25q-50 26 -60 26q-23 0 -25 -23q0 -6 1 -7zM309 538q119 0 197 -79q78 -80 78 -196q0 -117 -78 -196
t-197 -79q-120 0 -198 79t-78 196t78 196t198 79zM403 153q36 43 36 110q0 66 -36 109q-36 44 -94 44q-57 0 -95 -44q-36 -43 -36 -109t36 -109q38 -44 95 -44q58 0 94 43z" />
    <glyph glyph-name="odieresis" unicode="&#xf6;" horiz-adv-x="617" 
d="M309 538q119 0 197 -79q78 -80 78 -196q0 -117 -78 -196t-197 -79q-120 0 -198 79t-78 196t78 196t198 79zM403 153q36 43 36 110q0 66 -36 109q-36 44 -94 44q-57 0 -95 -44q-36 -43 -36 -109t36 -109q38 -44 95 -44q58 0 94 43zM260 720v-121h-143v121h143zM501 720
v-121h-143v121h143z" />
    <glyph glyph-name="divide" unicode="&#xf7;" 
d="M525 257h-501v113h501v-113zM350 187v-149h-153v149h153zM350 589v-149h-153v149h153z" />
    <glyph glyph-name="oslash" unicode="&#xf8;" horiz-adv-x="617" 
d="M309 538q60 0 114 -23l24 35l73 -48l-23 -34q87 -81 87 -205q0 -117 -78 -196t-197 -79q-66 0 -120 25l-28 -42l-73 48l28 43q-83 80 -83 201q0 117 78 196t198 79zM439 263q0 50 -22 87l-156 -231q23 -9 48 -9q57 0 93.5 43.5t36.5 109.5zM178 263q0 -46 19 -83l154 229
q-21 7 -42 7q-57 0 -95 -44q-36 -43 -36 -109z" />
    <glyph glyph-name="ugrave" unicode="&#xf9;" horiz-adv-x="618" 
d="M548 526v-526h-123l-11 72q-60 -84 -163 -84q-86 0 -140 69q-47 62 -47 196v273h142v-266q0 -82 16 -113q18 -37 70 -37q33 0 64 18.5t50 48.5v349h142zM379 640l-82 -62l-147 172l96 76z" />
    <glyph glyph-name="uacute" unicode="&#xfa;" horiz-adv-x="618" 
d="M548 526v-526h-123l-11 72q-60 -84 -163 -84q-86 0 -140 69q-47 62 -47 196v273h142v-266q0 -82 16 -113q18 -37 70 -37q33 0 64 18.5t50 48.5v349h142zM384 826l96 -76l-147 -172l-82 62z" />
    <glyph glyph-name="ucircumflex" unicode="&#xfb;" horiz-adv-x="618" 
d="M548 526v-526h-123l-11 72q-60 -84 -163 -84q-86 0 -140 69q-47 62 -47 196v273h142v-266q0 -82 16 -113q18 -37 70 -37q33 0 64 18.5t50 48.5v349h142zM126 631l114 168h143l112 -168l-80 -48l-105 129l-104 -129z" />
    <glyph glyph-name="udieresis" unicode="&#xfc;" horiz-adv-x="618" 
d="M548 526v-526h-123l-11 72q-60 -84 -163 -84q-86 0 -140 69q-47 62 -47 196v273h142v-266q0 -82 16 -113q18 -37 70 -37q33 0 64 18.5t50 48.5v349h142zM258 720v-121h-143v121h143zM499 720v-121h-143v121h143z" />
    <glyph glyph-name="yacute" unicode="&#xfd;" horiz-adv-x="531" 
d="M189 31l-186 495h155l106 -313h2l108 313h154l-296 -767l-127 49zM331 826l96 -76l-147 -172l-82 62z" />
    <glyph glyph-name="thorn" unicode="&#xfe;" horiz-adv-x="644" 
d="M69 -250v1000h142v-279q25 32 67.5 49.5t87.5 17.5q104 0 174 -81q71 -80 71 -196q0 -113 -71 -193t-175 -80q-100 0 -154 62v-300h-142zM211 346v-179q47 -57 122 -57q64 0 98 46q35 47 35 109q0 63 -36 106q-36 45 -95 45q-82 0 -124 -70z" />
    <glyph glyph-name="ydieresis" unicode="&#xff;" horiz-adv-x="531" 
d="M189 31l-186 495h155l106 -313h2l108 313h154l-296 -767l-127 49zM219 720v-121h-143v121h143zM460 720v-121h-143v121h143z" />
    <glyph glyph-name="Amacron" unicode="&#x100;" horiz-adv-x="689" 
d="M414 700l263 -700h-165l-45 130h-249l-47 -130h-159l286 700h116zM346 482h-1l-85 -235h167zM536 867v-95h-364v95h364z" />
    <glyph glyph-name="amacron" unicode="&#x101;" horiz-adv-x="575" 
d="M511 316v-316h-123l-11 45q-47 -57 -143 -57q-78 0 -134 45q-55 45 -55 122q0 61 36 101q62 69 193 69q40 0 95 -11v8q0 106 -104 106q-71 0 -159 -46l-38 102q109 54 226 54q106 0 161.5 -58t55.5 -164zM369 132v97q-41 9 -72 9q-49 0 -81 -20.5t-32 -60.5q0 -32 23 -51
t57 -19q56 0 105 45zM452 707v-98h-342v98h342z" />
    <glyph glyph-name="Abreve" unicode="&#x102;" horiz-adv-x="689" 
d="M414 700l263 -700h-165l-45 130h-249l-47 -130h-159l286 700h116zM346 482h-1l-85 -235h167zM190 897v12h104q-1 -3 -1 -13q0 -27 17 -44.5t45 -17.5t46.5 17.5t18.5 44.5q0 10 -1 13h101v-12q0 -69 -48 -112q-47 -44 -117 -44q-69 0 -118 44q-47 44 -47 112z" />
    <glyph glyph-name="abreve" unicode="&#x103;" horiz-adv-x="575" 
d="M511 316v-316h-123l-11 45q-47 -57 -143 -57q-78 0 -134 45q-55 45 -55 122q0 61 36 101q62 69 193 69q40 0 95 -11v8q0 106 -104 106q-71 0 -159 -46l-38 102q109 54 226 54q106 0 161.5 -58t55.5 -164zM369 132v97q-41 9 -72 9q-49 0 -81 -20.5t-32 -60.5q0 -32 23 -51
t57 -19q56 0 105 45zM352 767h101v-17q0 -69 -48 -117q-49 -47 -117 -47t-117 47q-48 48 -48 117v17h102q-1 -3 -1 -19q0 -28 18.5 -48.5t45.5 -20.5t46 20.5t19 48.5q0 16 -1 19z" />
    <glyph glyph-name="Aogonek" unicode="&#x104;" horiz-adv-x="689" 
d="M346 482h-1l-85 -235h167zM298 700h116l263 -700q-61 -8 -96 -32.5t-35 -59.5q0 -40 49 -40q23 0 48 13l33 -78q-48 -30 -112 -30q-58 0 -96 30t-38 77q0 40 21 72.5t59 51.5l-43 126h-249l-47 -130h-159z" />
    <glyph glyph-name="aogonek" unicode="&#x105;" horiz-adv-x="575" 
d="M368 132v97q-41 9 -71 9q-49 0 -81 -20.5t-32 -60.5q0 -32 23 -51t57 -19q54 0 104 45zM511 316v-316q-55 -12 -87 -36t-32 -56q0 -40 49 -40q25 0 48 13l33 -78q-48 -30 -112 -30q-58 0 -96 30t-38 77q0 81 110 125l-9 40q-47 -57 -143 -57q-78 0 -134 45
q-55 45 -55 122q0 61 36 101q62 69 193 69q39 0 94 -11v8q0 106 -103 106q-71 0 -159 -46l-38 102q109 54 226 54q106 0 161.5 -58t55.5 -164z" />
    <glyph glyph-name="Cacute" unicode="&#x106;" horiz-adv-x="675" 
d="M202 350q0 -105 59 -172q59 -65 161 -65q82 0 149 58l80 -104q-103 -79 -235 -79q-159 0 -263 101q-104 102 -104 261q0 154 109 257q110 105 264 105q105 0 215 -68l-69 -111q-70 54 -146 54q-95 0 -158 -69q-62 -68 -62 -168zM521 958l74 -97l-182 -128l-64 81z" />
    <glyph glyph-name="cacute" unicode="&#x107;" horiz-adv-x="511" 
d="M413 150l76 -97q-74 -65 -189 -65q-117 0 -192 76t-75 199q0 116 76 195q77 80 195 80q105 0 185 -65l-73 -99q-45 42 -102 42q-59 0 -98 -45q-38 -44 -38 -108q0 -66 38 -110q39 -43 96 -43q61 0 101 40zM395 826l96 -76l-147 -172l-82 62z" />
    <glyph glyph-name="Ccircumflex" unicode="&#x108;" horiz-adv-x="675" 
d="M202 350q0 -105 59 -172q59 -65 161 -65q82 0 149 58l80 -104q-103 -79 -235 -79q-159 0 -263 101q-104 102 -104 261q0 154 109 257q110 105 264 105q105 0 215 -68l-69 -111q-70 54 -146 54q-95 0 -158 -69q-62 -68 -62 -168zM226 794l117 149h156l113 -149l-82 -60
l-111 126l-112 -126z" />
    <glyph glyph-name="ccircumflex" unicode="&#x109;" horiz-adv-x="511" 
d="M413 150l76 -97q-74 -65 -189 -65q-117 0 -192 76t-75 199q0 116 76 195q77 80 195 80q105 0 185 -65l-73 -99q-45 42 -102 42q-59 0 -98 -45q-38 -44 -38 -108q0 -66 38 -110q39 -43 96 -43q61 0 101 40zM117 631l114 168h143l112 -168l-80 -48l-105 129l-104 -129z" />
    <glyph glyph-name="Cdotaccent" unicode="&#x10a;" horiz-adv-x="675" 
d="M202 350q0 -105 59 -172q59 -65 161 -65q82 0 149 58l80 -104q-103 -79 -235 -79q-159 0 -263 101q-104 102 -104 261q0 154 109 257q110 105 264 105q105 0 215 -68l-69 -111q-70 54 -146 54q-95 0 -158 -69q-62 -68 -62 -168zM488 882v-120h-146v120h146z" />
    <glyph glyph-name="cdotaccent" unicode="&#x10b;" horiz-adv-x="511" 
d="M413 150l76 -97q-74 -65 -189 -65q-117 0 -192 76t-75 199q0 116 76 195q77 80 195 80q105 0 185 -65l-73 -99q-45 42 -102 42q-59 0 -98 -45q-38 -44 -38 -108q0 -66 38 -110q39 -43 96 -43q61 0 101 40zM364 720v-121h-142v121h142z" />
    <glyph glyph-name="Ccaron" unicode="&#x10c;" horiz-adv-x="675" 
d="M202 350q0 -105 59 -172q59 -65 161 -65q82 0 149 58l80 -104q-103 -79 -235 -79q-159 0 -263 101q-104 102 -104 261q0 154 109 257q110 105 264 105q105 0 215 -68l-69 -111q-70 54 -146 54q-95 0 -158 -69q-62 -68 -62 -168zM612 895l-117 -149h-156l-113 149l83 60
l111 -126l112 126z" />
    <glyph glyph-name="ccaron" unicode="&#x10d;" horiz-adv-x="511" 
d="M413 150l76 -97q-74 -65 -189 -65q-117 0 -192 76t-75 199q0 116 76 195q77 80 195 80q105 0 185 -65l-73 -99q-45 42 -102 42q-59 0 -98 -45q-38 -44 -38 -108q0 -66 38 -110q39 -43 96 -43q61 0 101 40zM487 762l-114 -168h-143l-112 168l81 48l105 -129l104 129z" />
    <glyph glyph-name="Dcaron" unicode="&#x10e;" horiz-adv-x="715" 
d="M273 0h-195v700h204q145 0 259 -78q58 -40 91.5 -110t33.5 -159q0 -91 -33.5 -162t-92.5 -112q-113 -79 -267 -79zM265 579h-44v-458h16q276 0 276 223q0 114 -64 174.5t-184 60.5zM516 895l-117 -149h-156l-113 149l83 60l111 -126l112 126z" />
    <glyph glyph-name="dcaron" unicode="&#x10f;" horiz-adv-x="717" 
d="M575 750v-750h-123l-12 65q-51 -77 -162 -77q-104 0 -175 81q-70 80 -70 196q0 114 70 193q71 80 177 80q98 0 153 -63v275h142zM433 179v180q-49 57 -122 57q-64 0 -99 -47q-34 -46 -34 -108q0 -61 36 -106q38 -45 95 -45q83 0 124 69zM782 750l-57 -217h-119l44 217
h132z" />
    <glyph glyph-name="Dcroat" unicode="&#x110;" horiz-adv-x="715" 
d="M273 0h-195v313h-67v98h67v289h204q145 0 259 -78q58 -40 91.5 -110t33.5 -159q0 -91 -33.5 -162t-92.5 -112q-113 -79 -267 -79zM513 344q0 114 -64 174.5t-184 60.5h-44v-168h113v-98h-113v-192h16q276 0 276 223z" />
    <glyph glyph-name="dslash" unicode="&#x111;" horiz-adv-x="644" 
d="M575 586v-586h-123l-12 65q-51 -77 -162 -77q-104 0 -175 81q-70 80 -70 196q0 114 70 193q71 80 177 80q98 0 153 -63v111h-160v96h160v68h142v-68h68v-96h-68zM433 179v180q-49 57 -122 57q-64 0 -99 -47q-34 -46 -34 -108q0 -61 36 -106q38 -45 95 -45q83 0 124 69z
" />
    <glyph glyph-name="Emacron" unicode="&#x112;" horiz-adv-x="580" 
d="M527 121v-121h-449v700h449v-121h-306v-158h306v-121h-306v-179h306zM491 867v-95h-364v95h364z" />
    <glyph glyph-name="emacron" unicode="&#x113;" horiz-adv-x="588" 
d="M547 228h-370q8 -57 43 -91.5t89 -34.5q47 0 78 18.5t59 59.5l93 -63q-46 -68 -102 -98.5t-138 -30.5q-119 0 -193 75q-73 74 -73 194q0 118 77 200q76 81 190 81q110 0 182 -69t72 -174q0 -32 -7 -67zM184 325h225q-2 47 -31 74.5t-74 27.5q-94 0 -120 -102zM476 707
v-98h-342v98h342z" />
    <glyph glyph-name="Ebreve" unicode="&#x114;" horiz-adv-x="580" 
d="M527 121v-121h-449v700h449v-121h-306v-158h306v-121h-306v-179h306zM146 897v12h104q-1 -3 -1 -13q0 -27 17 -44.5t45 -17.5t46.5 17.5t18.5 44.5q0 10 -1 13h101v-12q0 -69 -48 -112q-47 -44 -117 -44q-69 0 -118 44q-47 44 -47 112z" />
    <glyph glyph-name="ebreve" unicode="&#x115;" horiz-adv-x="588" 
d="M547 228h-370q8 -57 43 -91.5t89 -34.5q47 0 78 18.5t59 59.5l93 -63q-46 -68 -102 -98.5t-138 -30.5q-119 0 -193 75q-73 74 -73 194q0 118 77 200q76 81 190 81q110 0 182 -69t72 -174q0 -32 -7 -67zM184 325h225q-2 47 -31 74.5t-74 27.5q-94 0 -120 -102zM367 767
h101v-17q0 -69 -48 -117q-49 -47 -117 -47t-117 47q-48 48 -48 117v17h102q-1 -3 -1 -19q0 -28 18.5 -48.5t45.5 -20.5t46 20.5t19 48.5q0 16 -1 19z" />
    <glyph glyph-name="Edotaccent" unicode="&#x116;" horiz-adv-x="580" 
d="M527 121v-121h-449v700h449v-121h-306v-158h306v-121h-306v-179h306zM384 882v-120h-146v120h146z" />
    <glyph glyph-name="edotaccent" unicode="&#x117;" horiz-adv-x="588" 
d="M547 228h-370q8 -57 43 -91.5t89 -34.5q47 0 78 18.5t59 59.5l93 -63q-46 -68 -102 -98.5t-138 -30.5q-119 0 -193 75q-73 74 -73 194q0 118 77 200q76 81 190 81q110 0 182 -69t72 -174q0 -32 -7 -67zM184 325h225q-2 47 -31 74.5t-74 27.5q-94 0 -120 -102zM370 720
v-121h-142v121h142z" />
    <glyph glyph-name="Eogonek" unicode="&#x118;" horiz-adv-x="580" 
d="M78 0v700h449v-121h-306v-158h306v-121h-306v-179h306v-121q-55 -10 -86.5 -34.5t-31.5 -57.5q0 -40 50 -40q24 0 47 13l33 -78q-47 -30 -111 -30q-58 0 -96.5 30t-38.5 77q0 81 89 120h-304z" />
    <glyph glyph-name="eogonek" unicode="&#x119;" horiz-adv-x="588" 
d="M184 325h225q-2 47 -31 74.5t-74 27.5q-94 0 -120 -102zM446 180l93 -63q-52 -75 -132 -112q-81 -38 -81 -88q0 -22 13 -35.5t37 -13.5t47 13l33 -78q-46 -30 -112 -30q-57 0 -95.5 30t-38.5 77q0 70 54 110q-105 10 -168 84t-63 183q0 118 77 200q76 81 190 81
q110 0 182 -69t72 -174q0 -32 -7 -67h-370q8 -57 43 -91.5t89 -34.5q47 0 78 18.5t59 59.5z" />
    <glyph glyph-name="Ecaron" unicode="&#x11a;" horiz-adv-x="580" 
d="M527 121v-121h-449v700h449v-121h-306v-158h306v-121h-306v-179h306zM498 895l-117 -149h-156l-113 149l83 60l111 -126l112 126z" />
    <glyph glyph-name="ecaron" unicode="&#x11b;" horiz-adv-x="588" 
d="M547 228h-370q8 -57 43 -91.5t89 -34.5q47 0 78 18.5t59 59.5l93 -63q-46 -68 -102 -98.5t-138 -30.5q-119 0 -193 75q-73 74 -73 194q0 118 77 200q76 81 190 81q110 0 182 -69t72 -174q0 -32 -7 -67zM184 325h225q-2 47 -31 74.5t-74 27.5q-94 0 -120 -102zM487 762
l-114 -168h-143l-112 168l81 48l105 -129l104 129z" />
    <glyph glyph-name="Gcircumflex" unicode="&#x11c;" horiz-adv-x="793" 
d="M584 178v105h-168v121h311v-273q-107 -143 -305 -143q-160 0 -267 101q-106 100 -106 261q0 154 109 257q110 105 264 105q176 0 294 -138l-99 -86q-85 99 -195 99q-95 0 -158 -69q-62 -68 -62 -168q0 -106 60 -172q62 -65 160 -65q94 0 162 65zM236 794l117 149h156
l113 -149l-82 -60l-111 126l-112 -126z" />
    <glyph glyph-name="gcircumflex" unicode="&#x11d;" horiz-adv-x="640" 
d="M452 526h123v-498q0 -85 -33 -140q-32 -56 -93 -85.5t-139 -29.5q-134 0 -243 72l52 117q42 -31 92.5 -49t93.5 -18q59 0 93.5 32t34.5 92v48q-52 -67 -155 -67q-104 0 -175 78q-70 79 -70 193q0 113 70 189q71 78 177 78q48 0 91.5 -19t68.5 -55zM433 191v168
q-49 57 -122 57q-65 0 -99 -45q-34 -43 -34 -104q0 -60 36 -103q36 -42 95 -42q83 0 124 69zM121 631l114 168h143l112 -168l-80 -48l-105 129l-104 -129z" />
    <glyph glyph-name="Gbreve" unicode="&#x11e;" horiz-adv-x="793" 
d="M584 178v105h-168v121h311v-273q-107 -143 -305 -143q-160 0 -267 101q-106 100 -106 261q0 154 109 257q110 105 264 105q176 0 294 -138l-99 -86q-85 99 -195 99q-95 0 -158 -69q-62 -68 -62 -168q0 -106 60 -172q62 -65 160 -65q94 0 162 65zM264 897v12h104
q-1 -3 -1 -13q0 -27 17 -44.5t45 -17.5t46.5 17.5t18.5 44.5q0 10 -1 13h101v-12q0 -69 -48 -112q-47 -44 -117 -44q-69 0 -118 44q-47 44 -47 112z" />
    <glyph glyph-name="gbreve" unicode="&#x11f;" horiz-adv-x="640" 
d="M452 526h123v-498q0 -85 -33 -140q-32 -56 -93 -85.5t-139 -29.5q-134 0 -243 72l52 117q42 -31 92.5 -49t93.5 -18q59 0 93.5 32t34.5 92v48q-52 -67 -155 -67q-104 0 -175 78q-70 79 -70 193q0 113 70 189q71 78 177 78q48 0 91.5 -19t68.5 -55zM433 191v168
q-49 57 -122 57q-65 0 -99 -45q-34 -43 -34 -104q0 -60 36 -103q36 -42 95 -42q83 0 124 69zM373 767h101v-17q0 -69 -48 -117q-49 -47 -117 -47t-117 47q-48 48 -48 117v17h102q-1 -3 -1 -19q0 -28 18.5 -48.5t45.5 -20.5t46 20.5t19 48.5q0 16 -1 19z" />
    <glyph glyph-name="Gdotaccent" unicode="&#x120;" horiz-adv-x="793" 
d="M584 178v105h-168v121h311v-273q-107 -143 -305 -143q-160 0 -267 101q-106 100 -106 261q0 154 109 257q110 105 264 105q176 0 294 -138l-99 -86q-85 99 -195 99q-95 0 -158 -69q-62 -68 -62 -168q0 -106 60 -172q62 -65 160 -65q94 0 162 65zM488 882v-120h-146v120
h146z" />
    <glyph glyph-name="gdotaccent" unicode="&#x121;" horiz-adv-x="640" 
d="M452 526h123v-498q0 -85 -33 -140q-32 -56 -93 -85.5t-139 -29.5q-134 0 -243 72l52 117q42 -31 92.5 -49t93.5 -18q59 0 93.5 32t34.5 92v48q-52 -67 -155 -67q-104 0 -175 78q-70 79 -70 193q0 113 70 189q71 78 177 78q48 0 91.5 -19t68.5 -55zM433 191v168
q-49 57 -122 57q-65 0 -99 -45q-34 -43 -34 -104q0 -60 36 -103q36 -42 95 -42q83 0 124 69zM375 720v-121h-142v121h142z" />
    <glyph glyph-name="Gcommaaccent" unicode="&#x122;" horiz-adv-x="793" 
d="M584 178v105h-168v121h311v-273q-107 -143 -305 -143q-160 0 -267 101q-106 100 -106 261q0 154 109 257q110 105 264 105q176 0 294 -138l-99 -86q-85 99 -195 99q-95 0 -158 -69q-62 -68 -62 -168q0 -106 60 -172q62 -65 160 -65q94 0 162 65zM464 -58l-55 -191h-108
l36 191h127z" />
    <glyph glyph-name="gcommaaccent" unicode="&#x123;" horiz-adv-x="640" 
d="M452 526h123v-498q0 -85 -33 -140q-32 -56 -93 -85.5t-139 -29.5q-134 0 -243 72l52 117q42 -31 92.5 -49t93.5 -18q59 0 93.5 32t34.5 92v48q-52 -67 -155 -67q-104 0 -175 78q-70 79 -70 193q0 113 70 189q71 78 177 78q48 0 91.5 -19t68.5 -55zM433 191v168
q-49 57 -122 57q-65 0 -99 -45q-34 -43 -34 -104q0 -60 36 -103q36 -42 95 -42q83 0 124 69zM243 579l56 192h109l-37 -192h-128z" />
    <glyph glyph-name="Hcircumflex" unicode="&#x124;" horiz-adv-x="739" 
d="M661 700v-700h-143v300h-297v-300h-143v700h143v-279h297v279h143zM177 794l117 149h156l113 -149l-82 -60l-111 126l-112 -126z" />
    <glyph glyph-name="hcircumflex" unicode="&#x125;" horiz-adv-x="618" 
d="M69 750h142v-286q62 74 155 74q86 0 140 -69q47 -62 47 -196v-273h-142v266q0 82 -16 113q-19 37 -70 37q-33 0 -64 -18.5t-50 -48.5v-349h-142v750zM-54 819l117 149h156l113 -149l-82 -60l-111 126l-112 -126z" />
    <glyph glyph-name="Hbar" unicode="&#x126;" horiz-adv-x="739" 
d="M661 501v-501h-143v300h-297v-300h-143v501h-85v97h85v102h143v-102h297v102h143v-102h85v-97h-85zM221 501v-80h297v80h-297z" />
    <glyph glyph-name="hbar" unicode="&#x127;" horiz-adv-x="618" 
d="M69 750h142v-68h159v-97h-159v-121q62 74 155 74q86 0 140 -69q47 -62 47 -196v-273h-142v266q0 82 -16 113q-19 37 -70 37q-33 0 -64 -18.5t-50 -48.5v-349h-142v585h-69v97h69v68z" />
    <glyph glyph-name="Itilde" unicode="&#x128;" horiz-adv-x="299" 
d="M251 878l82 9q6 -19 6 -39q0 -46 -31.5 -74.5t-83.5 -28.5q-37 0 -86 25q-49 26 -60 26q-23 0 -25 -23q0 -6 1 -7l-81 -9q-7 21 -7 39q0 46 32 74.5t84 28.5q35 0 85 -26q49 -25 60 -25q10 0 17.5 6t7.5 17q0 6 -1 7zM221 700v-700h-143v700h143z" />
    <glyph glyph-name="itilde" unicode="&#x129;" horiz-adv-x="280" 
d="M41 602l-81 -9q-6 19 -6 38q0 46 31.5 74.5t83.5 28.5q36 0 86 -26q49 -25 60 -25q23 0 25 23q0 6 -1 7l81 9q6 -19 6 -38q0 -46 -31.5 -74.5t-83.5 -28.5q-37 0 -86 25q-50 26 -60 26q-23 0 -25 -23q0 -6 1 -7zM211 526v-526h-142v526h142z" />
    <glyph glyph-name="Imacron" unicode="&#x12a;" horiz-adv-x="299" 
d="M221 700v-700h-143v700h143zM332 867v-95h-364v95h364z" />
    <glyph glyph-name="imacron" unicode="&#x12b;" horiz-adv-x="280" 
d="M211 526v-526h-142v526h142zM311 707v-98h-342v98h342z" />
    <glyph glyph-name="Ibreve" unicode="&#x12c;" horiz-adv-x="299" 
d="M-15 897v12h104q-1 -3 -1 -13q0 -27 17 -44.5t45 -17.5t46.5 17.5t18.5 44.5q0 10 -1 13h101v-12q0 -69 -48 -112q-47 -44 -117 -44q-69 0 -118 44q-47 44 -47 112zM221 700v-700h-143v700h143z" />
    <glyph glyph-name="ibreve" unicode="&#x12d;" horiz-adv-x="280" 
d="M204 767h101v-17q0 -69 -48 -117q-49 -47 -117 -47t-117 47q-48 48 -48 117v17h102q-1 -3 -1 -19q0 -28 18.5 -48.5t45.5 -20.5t46 20.5t19 48.5q0 16 -1 19zM211 526v-526h-142v526h142z" />
    <glyph glyph-name="Iogonek" unicode="&#x12e;" horiz-adv-x="299" 
d="M78 5v695h143v-700q-111 -26 -111 -92q0 -40 50 -40q24 0 47 13l33 -78q-46 -30 -111 -30q-58 0 -96.5 30t-38.5 77q0 40 22.5 73t61.5 52z" />
    <glyph glyph-name="iogonek" unicode="&#x12f;" horiz-adv-x="280" 
d="M211 720v-121h-142v121h142zM69 5v521h142v-526q-109 -25 -109 -92q0 -40 49 -40q24 0 47 13l33 -78q-47 -30 -111 -30q-58 0 -96.5 30t-38.5 77q0 40 22.5 73t61.5 52z" />
    <glyph glyph-name="Idot" unicode="&#x130;" horiz-adv-x="299" 
d="M222 882v-120h-145v120h145zM221 700v-700h-143v700h143z" />
    <glyph glyph-name="dotlessi" unicode="&#x131;" horiz-adv-x="280" 
d="M211 526v-526h-142v526h142z" />
    <glyph glyph-name="IJ" unicode="&#x132;" horiz-adv-x="674" 
d="M462 700h143v-514q0 -103 -45 -151q-44 -47 -139 -47q-65 0 -131 32l45 113q35 -20 69 -20t48 21q10 17 10 69v497zM221 700v-700h-143v700h143z" />
    <glyph glyph-name="ij" unicode="&#x133;" horiz-adv-x="566" 
d="M497 720v-121h-142v121h142zM355 526h142v-563q0 -86 -34 -130q-43 -60 -146 -60q-60 0 -114 22l38 113q27 -13 61 -13q31 0 42 18.5t11 61.5v551zM211 526v-526h-142v526h142zM211 720v-121h-142v121h142z" />
    <glyph glyph-name="Jcircumflex" unicode="&#x134;" horiz-adv-x="340" 
d="M128 700h143v-514q0 -103 -45 -151q-44 -47 -139 -47q-65 0 -131 32l45 113q35 -20 69 -20t48 21q10 17 10 69v497zM6 794l117 149h156l113 -149l-82 -60l-111 126l-112 -126z" />
    <glyph glyph-name="jcircumflex" unicode="&#x135;" horiz-adv-x="287" 
d="M75 526h143v-563q0 -86 -34 -130q-44 -60 -147 -60q-60 0 -114 22l38 112q27 -13 61 -13q31 0 42 18.5t11 61.5v552zM-39 631l114 168h143l112 -168l-80 -48l-105 129l-104 -129z" />
    <glyph glyph-name="Kcommaaccent" unicode="&#x136;" horiz-adv-x="640" 
d="M457 700h173l-237 -283l243 -417h-167l-173 303l-75 -89v-214h-143v700h143v-287zM383 -58l-55 -191h-108l36 191h127z" />
    <glyph glyph-name="kcommaaccent" unicode="&#x137;" horiz-adv-x="555" 
d="M357 306l200 -306h-174l-121 195l-51 -59v-136h-142v750h142v-438h2l170 214h162zM337 -58l-55 -191h-108l36 191h127z" />
    <glyph glyph-name="kgreenlandic" unicode="&#x138;" horiz-adv-x="555" 
d="M69 0v526h142v-214h2l170 214h162l-188 -220l200 -306h-174l-121 195l-51 -59v-136h-142z" />
    <glyph glyph-name="Lacute" unicode="&#x139;" horiz-adv-x="512" 
d="M508 121v-121h-430v700h143v-579h287zM254 958l74 -97l-182 -128l-64 81z" />
    <glyph glyph-name="lacute" unicode="&#x13a;" horiz-adv-x="280" 
d="M69 750h142v-750h-142v750zM232 1002l74 -97l-182 -128l-64 81z" />
    <glyph glyph-name="Lcommaaccent" unicode="&#x13b;" horiz-adv-x="512" 
d="M508 121v-121h-430v700h143v-579h287zM362 -58l-55 -191h-108l36 191h127z" />
    <glyph glyph-name="lcommaaccent" unicode="&#x13c;" horiz-adv-x="280" 
d="M69 750h142v-750h-142v750zM197 -58l-55 -191h-108l36 191h127z" />
    <glyph glyph-name="Lcaron" unicode="&#x13d;" horiz-adv-x="512" 
d="M492 700l-57 -217h-119l44 217h132zM508 121v-121h-430v700h143v-579h287z" />
    <glyph glyph-name="lcaron" unicode="&#x13e;" horiz-adv-x="353" 
d="M418 750l-57 -217h-119l44 217h132zM69 750h142v-750h-142v750z" />
    <glyph glyph-name="Ldot" unicode="&#x13f;" horiz-adv-x="525" 
d="M508 121v-121h-430v700h143v-579h287zM520 432v-120h-146v120h146z" />
    <glyph glyph-name="ldot" unicode="&#x140;" horiz-adv-x="408" 
d="M415 436v-120h-146v120h146zM69 750h142v-750h-142v750z" />
    <glyph glyph-name="Lslash" unicode="&#x141;" horiz-adv-x="512" 
d="M508 121v-121h-430v230l-85 -55v136l85 55v334h143v-246l141 92v-136l-141 -92v-197h287z" />
    <glyph glyph-name="lslash" unicode="&#x142;" horiz-adv-x="280" 
d="M69 750h142v-249l69 44v-138l-69 -44v-363h-142v277l-68 -44v138l68 43v336z" />
    <glyph glyph-name="Nacute" unicode="&#x143;" horiz-adv-x="748" 
d="M671 700v-700h-129l-321 438v-438h-143v700h126l324 -439v439h143zM465 958l74 -97l-182 -128l-64 81z" />
    <glyph glyph-name="nacute" unicode="&#x144;" horiz-adv-x="618" 
d="M69 0v526h123l11 -72q60 84 163 84q86 0 140 -69q47 -62 47 -196v-273h-142v266q0 82 -16 113q-19 37 -70 37q-33 0 -64 -18.5t-50 -48.5v-349h-142zM390 826l96 -76l-147 -172l-82 62z" />
    <glyph glyph-name="Ncommaaccent" unicode="&#x145;" horiz-adv-x="748" 
d="M671 700v-700h-129l-321 438v-438h-143v700h126l324 -439v439h143zM448 -58l-55 -191h-108l36 191h127z" />
    <glyph glyph-name="ncommaaccent" unicode="&#x146;" horiz-adv-x="618" 
d="M69 0v526h123l11 -72q60 84 163 84q86 0 140 -69q47 -62 47 -196v-273h-142v266q0 82 -16 113q-19 37 -70 37q-33 0 -64 -18.5t-50 -48.5v-349h-142zM363 -58l-55 -191h-108l36 191h127z" />
    <glyph glyph-name="Ncaron" unicode="&#x147;" horiz-adv-x="748" 
d="M671 700v-700h-129l-321 438v-438h-143v700h126l324 -439v439h143zM576 895l-117 -149h-156l-113 149l83 60l111 -126l112 126z" />
    <glyph glyph-name="ncaron" unicode="&#x148;" horiz-adv-x="618" 
d="M69 0v526h123l11 -72q60 84 163 84q86 0 140 -69q47 -62 47 -196v-273h-142v266q0 82 -16 113q-19 37 -70 37q-33 0 -64 -18.5t-50 -48.5v-349h-142zM514 762l-114 -168h-143l-112 168l81 48l105 -129l104 129z" />
    <glyph glyph-name="napostrophe" unicode="&#x149;" horiz-adv-x="662" 
d="M156 778l-61 -230h-122l47 230h136zM113 0v526h123l11 -72q60 84 163 84q86 0 140 -69q47 -62 47 -196v-273h-142v266q0 82 -16 113q-19 37 -70 37q-33 0 -64 -18.5t-50 -48.5v-349h-142z" />
    <glyph glyph-name="Eng" unicode="&#x14a;" horiz-adv-x="748" 
d="M671 700v-728q0 -103 -45 -151q-44 -47 -139 -47q-65 0 -131 32l45 113q35 -20 69 -20t47 21q10 17 10 69v31l-306 418v-438h-143v700h126l323 -439v439h144z" />
    <glyph glyph-name="eng" unicode="&#x14b;" horiz-adv-x="618" 
d="M69 0v526h123l11 -72q60 84 163 84q86 0 140 -69q47 -62 47 -196v-310q0 -86 -34 -130q-43 -60 -146 -60q-60 0 -114 22l38 113q27 -13 61 -13q31 0 42 18.5t11 61.5v291q0 82 -16 113q-19 37 -70 37q-33 0 -64 -18.5t-50 -48.5v-349h-142z" />
    <glyph glyph-name="Omacron" unicode="&#x14c;" horiz-adv-x="831" 
d="M568 181q61 68 61 169t-61 168q-60 69 -152 69q-91 0 -153 -68q-61 -67 -61 -169t61 -169q62 -68 153 -68q92 0 152 68zM416 -12q-154 0 -261 105q-106 106 -106 257t106 256q106 106 261 106q154 0 260 -106q106 -105 106 -256t-106 -257q-106 -105 -260 -105zM598 867
v-95h-364v95h364z" />
    <glyph glyph-name="omacron" unicode="&#x14d;" horiz-adv-x="617" 
d="M309 538q119 0 197 -79q78 -80 78 -196q0 -117 -78 -196t-197 -79q-120 0 -198 79t-78 196t78 196t198 79zM403 153q36 43 36 110q0 66 -36 109q-36 44 -94 44q-57 0 -95 -44q-36 -43 -36 -109t36 -109q38 -44 95 -44q58 0 94 43zM480 707v-98h-342v98h342z" />
    <glyph glyph-name="Obreve" unicode="&#x14e;" horiz-adv-x="831" 
d="M568 181q61 68 61 169t-61 168q-60 69 -152 69q-91 0 -153 -68q-61 -67 -61 -169t61 -169q62 -68 153 -68q92 0 152 68zM416 -12q-154 0 -261 105q-106 106 -106 257t106 256q106 106 261 106q154 0 260 -106q106 -105 106 -256t-106 -257q-106 -105 -260 -105zM251 897
v12h104q-1 -3 -1 -13q0 -27 17 -44.5t45 -17.5t46.5 17.5t18.5 44.5q0 10 -1 13h101v-12q0 -69 -48 -112q-47 -44 -117 -44q-69 0 -118 44q-47 44 -47 112z" />
    <glyph glyph-name="obreve" unicode="&#x14f;" horiz-adv-x="617" 
d="M309 538q119 0 197 -79q78 -80 78 -196q0 -117 -78 -196t-197 -79q-120 0 -198 79t-78 196t78 196t198 79zM403 153q36 43 36 110q0 66 -36 109q-36 44 -94 44q-57 0 -95 -44q-36 -43 -36 -109t36 -109q38 -44 95 -44q58 0 94 43zM373 767h101v-17q0 -69 -48 -117
q-49 -47 -117 -47t-117 47q-48 48 -48 117v17h102q-1 -3 -1 -19q0 -28 18.5 -48.5t45.5 -20.5t46 20.5t19 48.5q0 16 -1 19z" />
    <glyph glyph-name="Ohungarumlaut" unicode="&#x150;" horiz-adv-x="831" 
d="M568 181q61 68 61 169t-61 168q-60 69 -152 69q-91 0 -153 -68q-61 -67 -61 -169t61 -169q62 -68 153 -68q92 0 152 68zM416 -12q-154 0 -261 105q-106 106 -106 257t106 256q106 106 261 106q154 0 260 -106q106 -105 106 -256t-106 -257q-106 -105 -260 -105zM639 955
l74 -97l-178 -125l-64 81zM397 954l72 -93l-182 -128l-62 77z" />
    <glyph glyph-name="ohungarumlaut" unicode="&#x151;" horiz-adv-x="617" 
d="M309 538q119 0 197 -79q78 -80 78 -196q0 -117 -78 -196t-197 -79q-120 0 -198 79t-78 196t78 196t198 79zM403 153q36 43 36 110q0 66 -36 109q-36 44 -94 44q-57 0 -95 -44q-36 -43 -36 -109t36 -109q38 -44 95 -44q58 0 94 43zM299 830l95 -73l-147 -172l-80 57z
M498 823l96 -76l-144 -169l-82 62z" />
    <glyph glyph-name="OE" unicode="&#x152;" horiz-adv-x="1056" 
d="M1002 121v-121h-449v19q-69 -31 -137 -31q-154 0 -261 105q-106 106 -106 257t106 256q106 106 261 106q69 0 137 -31v19h449v-121h-305v-158h305v-121h-305v-179h305zM416 113q82 0 137 48v378q-56 48 -137 48q-91 0 -153 -68q-61 -67 -61 -169t61 -169q62 -68 153 -68z
" />
    <glyph glyph-name="oe" unicode="&#x153;" horiz-adv-x="991" 
d="M950 228h-370q8 -57 43 -91.5t89 -34.5q47 0 78 18.5t59 59.5l93 -63q-46 -68 -102 -98.5t-138 -30.5q-126 0 -196 84q-77 -84 -197 -84t-198 79t-78 196t78 196t198 79q127 0 201 -90q74 90 193 90q110 0 182 -69t72 -174q0 -32 -7 -67zM403 153q36 43 36 110
q0 66 -36 109q-36 44 -94 44q-57 0 -95 -44q-36 -43 -36 -109t36 -109q38 -44 95 -44q58 0 94 43zM587 325h225q-2 47 -31 74.5t-74 27.5q-95 0 -120 -102z" />
    <glyph glyph-name="Racute" unicode="&#x154;" horiz-adv-x="634" 
d="M78 0v700h222q45 0 88.5 -12t82 -35.5t62 -66t23.5 -96.5q0 -73 -41.5 -122.5t-110.5 -72.5l214 -295h-180l-192 279h-25v-279h-143zM296 579h-75v-179h56q59 0 92.5 22t33.5 65q0 41 -29.5 66.5t-77.5 25.5zM381 958l74 -97l-182 -128l-64 81z" />
    <glyph glyph-name="racute" unicode="&#x155;" horiz-adv-x="374" 
d="M69 526h123l11 -70q49 82 123 82q35 0 68 -12l-34 -124q-23 12 -50 12q-65 0 -99 -58v-356h-142v526zM288 826l96 -76l-147 -172l-82 62z" />
    <glyph glyph-name="Rcommaaccent" unicode="&#x156;" horiz-adv-x="634" 
d="M78 0v700h222q45 0 88.5 -12t82 -35.5t62 -66t23.5 -96.5q0 -73 -41.5 -122.5t-110.5 -72.5l214 -295h-180l-192 279h-25v-279h-143zM296 579h-75v-179h56q59 0 92.5 22t33.5 65q0 41 -29.5 66.5t-77.5 25.5zM376 -58l-55 -191h-108l36 191h127z" />
    <glyph glyph-name="rcommaaccent" unicode="&#x157;" horiz-adv-x="374" 
d="M69 526h123l11 -70q49 82 123 82q35 0 68 -12l-34 -124q-23 12 -50 12q-65 0 -99 -58v-356h-142v526zM197 -58l-55 -191h-108l36 191h127z" />
    <glyph glyph-name="Rcaron" unicode="&#x158;" horiz-adv-x="634" 
d="M78 0v700h222q45 0 88.5 -12t82 -35.5t62 -66t23.5 -96.5q0 -73 -41.5 -122.5t-110.5 -72.5l214 -295h-180l-192 279h-25v-279h-143zM296 579h-75v-179h56q59 0 92.5 22t33.5 65q0 41 -29.5 66.5t-77.5 25.5zM477 895l-117 -149h-156l-113 149l83 60l111 -126l112 126z
" />
    <glyph glyph-name="rcaron" unicode="&#x159;" horiz-adv-x="374" 
d="M69 526h123l11 -70q49 82 123 82q35 0 68 -12l-34 -124q-23 12 -50 12q-65 0 -99 -58v-356h-142v526zM414 762l-114 -168h-143l-112 168l81 48l105 -129l104 129z" />
    <glyph glyph-name="Sacute" unicode="&#x15a;" horiz-adv-x="623" 
d="M550 629l-82 -102q-74 63 -145 63q-39 0 -65 -19t-26 -51q0 -28 29 -51q6 -4 43 -21q3 0 25 -8l23 -8q50 -17 77 -30q24 -11 67 -40q74 -53 74 -157q0 -72 -42 -123q-77 -94 -223 -94q-151 0 -268 117l95 93q51 -48 88 -68t86 -20q48 0 79.5 23t31.5 66q0 44 -42 67
q-19 12 -40 21q-14 6 -53 21q-44 17 -56 22q-22 10 -50 27q-42 25 -62.5 62t-24.5 97q0 94 67 145q68 51 162 51q122 0 232 -83zM433 958l74 -97l-182 -128l-64 81z" />
    <glyph glyph-name="sacute" unicode="&#x15b;" horiz-adv-x="481" 
d="M433 469l-78 -86q-50 44 -104 44q-21 0 -36 -11t-15 -29q0 -21 19 -35t64 -33q36 -15 43 -19q14 -6 39 -21q26 -16 38 -30q34 -40 34 -92q0 -83 -60 -126q-58 -43 -142 -43q-122 0 -212 90l81 84q34 -34 61.5 -48t62.5 -14q26 0 46.5 12.5t20.5 33.5q0 11 -5 20
t-16.5 16.5t-21 12.5t-28.5 13.5t-29 13.5q-67 29 -99.5 63t-32.5 92q0 76 55 118q55 43 133 43q109 0 182 -69zM340 826l96 -76l-147 -172l-82 62z" />
    <glyph glyph-name="Scircumflex" unicode="&#x15c;" horiz-adv-x="623" 
d="M550 629l-82 -102q-74 63 -145 63q-39 0 -65 -19t-26 -51q0 -28 29 -51q6 -4 43 -21q3 0 25 -8l23 -8q50 -17 77 -30q24 -11 67 -40q74 -53 74 -157q0 -72 -42 -123q-77 -94 -223 -94q-151 0 -268 117l95 93q51 -48 88 -68t86 -20q48 0 79.5 23t31.5 66q0 44 -42 67
q-19 12 -40 21q-14 6 -53 21q-44 17 -56 22q-22 10 -50 27q-42 25 -62.5 62t-24.5 97q0 94 67 145q68 51 162 51q122 0 232 -83zM131 794l117 149h156l113 -149l-82 -60l-111 126l-112 -126z" />
    <glyph glyph-name="scircumflex" unicode="&#x15d;" horiz-adv-x="481" 
d="M433 469l-78 -86q-50 44 -104 44q-21 0 -36 -11t-15 -29q0 -21 19 -35t64 -33q36 -15 43 -19q14 -6 39 -21q26 -16 38 -30q34 -40 34 -92q0 -83 -60 -126q-58 -43 -142 -43q-122 0 -212 90l81 84q34 -34 61.5 -48t62.5 -14q26 0 46.5 12.5t20.5 33.5q0 11 -5 20
t-16.5 16.5t-21 12.5t-28.5 13.5t-29 13.5q-67 29 -99.5 63t-32.5 92q0 76 55 118q55 43 133 43q109 0 182 -69zM68 631l114 168h143l112 -168l-80 -48l-105 129l-104 -129z" />
    <glyph glyph-name="Scedilla" unicode="&#x15e;" horiz-adv-x="609" 
d="M550 629l-82 -102q-74 63 -145 63q-39 0 -65 -19t-26 -51q0 -28 29 -51q6 -4 43 -21q3 0 25 -8l23 -8q50 -17 77 -30q24 -11 67 -40q74 -53 74 -157q0 -71 -40 -120q-71 -92 -213 -97l-19 -49h1q19 15 46 15q40 0 67 -28.5t27 -72.5q0 -43 -34 -76q-33 -34 -81 -34
q-76 0 -115 70l68 33q14 -32 41 -32q23 -2 32 17.5t0 39.5t-32 20t-37 -20l-74 38l38 84q-114 16 -208 112l95 93q51 -48 88 -68t86 -20q48 0 79.5 23t31.5 66q0 44 -42 67q-19 12 -40 21q-14 6 -53 21q-44 17 -56 22q-22 10 -50 27q-42 25 -62.5 62t-24.5 97q0 95 67 144
q68 51 162 51q125 0 232 -82z" />
    <glyph glyph-name="scedilla" unicode="&#x15f;" horiz-adv-x="481" 
d="M433 469l-78 -86q-50 44 -104 44q-21 0 -36 -11t-15 -29q0 -21 19 -35t64 -33q36 -15 43 -19q14 -6 39 -21q26 -16 38 -30q34 -40 34 -92q0 -80 -56 -124q-55 -43 -137 -45l-18 -49h1q19 15 46 15q37 0 65.5 -29.5t28.5 -71.5q0 -43 -34 -76q-33 -34 -81 -34
q-76 0 -116 70l69 33q14 -32 40 -32q23 -2 32.5 17.5t0 39.5t-32.5 20q-24 0 -36 -20l-74 37l38 87q-84 17 -150 83l81 84q34 -34 61.5 -48t62.5 -14q26 0 46.5 12.5t20.5 33.5q0 11 -5 20t-16.5 16.5t-21 12.5t-28.5 13.5t-29 13.5q-67 29 -99.5 63t-32.5 92q0 76 55 118
q55 43 133 43q109 0 182 -69z" />
    <glyph glyph-name="Scaron" unicode="&#x160;" horiz-adv-x="623" 
d="M550 629l-82 -102q-74 63 -145 63q-39 0 -65 -19t-26 -51q0 -28 29 -51q6 -4 43 -21q3 0 25 -8l23 -8q50 -17 77 -30q24 -11 67 -40q74 -53 74 -157q0 -72 -42 -123q-77 -94 -223 -94q-151 0 -268 117l95 93q51 -48 88 -68t86 -20q48 0 79.5 23t31.5 66q0 44 -42 67
q-19 12 -40 21q-14 6 -53 21q-44 17 -56 22q-22 10 -50 27q-42 25 -62.5 62t-24.5 97q0 94 67 145q68 51 162 51q122 0 232 -83zM518 895l-117 -149h-156l-113 149l83 60l111 -126l112 126z" />
    <glyph glyph-name="scaron" unicode="&#x161;" horiz-adv-x="481" 
d="M433 469l-78 -86q-50 44 -104 44q-21 0 -36 -11t-15 -29q0 -21 19 -35t64 -33q36 -15 43 -19q14 -6 39 -21q26 -16 38 -30q34 -40 34 -92q0 -83 -60 -126q-58 -43 -142 -43q-122 0 -212 90l81 84q34 -34 61.5 -48t62.5 -14q26 0 46.5 12.5t20.5 33.5q0 11 -5 20
t-16.5 16.5t-21 12.5t-28.5 13.5t-29 13.5q-67 29 -99.5 63t-32.5 92q0 76 55 118q55 43 133 43q109 0 182 -69zM442 762l-114 -168h-143l-112 168l81 48l105 -129l104 129z" />
    <glyph glyph-name="uni0162" unicode="&#x162;" horiz-adv-x="491" 
d="M483 700v-121h-166v-579h-36l-24 -61h1q21 15 47 15q39 0 66 -29.5t27 -71.5q0 -43 -33 -76q-33 -34 -81 -34q-76 0 -116 70l69 33q12 -32 40 -32q23 -2 32 17.5t0 39.5t-31 20q-24 0 -38 -20l-73 38l40 91h-33v579h-166v121h475z" />
    <glyph glyph-name="uni0163" unicode="&#x163;" horiz-adv-x="378" 
d="M351 526v-118h-134v-204q0 -25 2 -45q6 -50 46 -50q27 0 57 15l44 -105q-52 -31 -125 -31q-2 0 -10 0.5t-10 0.5l-19 -50h1q19 15 47 15q37 0 65 -29.5t28 -71.5q0 -43 -33 -76q-33 -34 -81 -34q-76 0 -116 70l69 33q12 -32 40 -32q16 0 26.5 10.5t10.5 26.5t-11 28
t-26 12q-23 0 -37 -20l-73 37l43 100q-54 31 -70 93q-10 31 -10 88v219h-63v118h63l22 116h120v-116h134z" />
    <glyph glyph-name="Tcaron" unicode="&#x164;" horiz-adv-x="491" 
d="M483 700v-121h-166v-579h-143v579h-166v121h475zM439 895l-117 -149h-156l-113 149l83 60l111 -126l112 126z" />
    <glyph glyph-name="tcaron" unicode="&#x165;" horiz-adv-x="378" 
d="M351 526v-118h-134v-204q0 -25 2 -45q6 -50 46 -50q27 0 57 15l44 -105q-52 -31 -125 -31q-59 0 -100 30t-56 83q-10 31 -10 88v219h-63v118h63l22 116h120v-116h134zM430 805l-57 -217h-119l44 217h132z" />
    <glyph glyph-name="Tbar" unicode="&#x166;" horiz-adv-x="491" 
d="M483 700v-121h-166v-162h103v-114h-103v-303h-143v303h-103v114h103v162h-166v121h475z" />
    <glyph glyph-name="tbar" unicode="&#x167;" horiz-adv-x="340" 
d="M352 334v-112h-134v-18q0 -25 2 -45q6 -50 46 -50q27 0 57 15l44 -105q-51 -30 -125 -30q-60 0 -101 30t-56 82q-10 31 -10 88v33h-64v112h64v74h-63v118h63l22 116h121v-116h134v-118h-134v-74h134z" />
    <glyph glyph-name="Utilde" unicode="&#x168;" horiz-adv-x="716" 
d="M457 878l82 9q6 -19 6 -39q0 -46 -31.5 -74.5t-83.5 -28.5q-37 0 -86 25q-49 26 -60 26q-23 0 -25 -23q0 -6 1 -7l-81 -9q-7 21 -7 39q0 46 32 74.5t84 28.5q35 0 85 -26q49 -25 60 -25q10 0 17.5 6t7.5 17q0 6 -1 7zM497 700h143v-370q0 -171 -69.5 -256.5t-214.5 -85.5
q-280 0 -280 342v370h143v-389q0 -97 36.5 -147.5t102.5 -50.5t102.5 50.5t36.5 147.5v389z" />
    <glyph glyph-name="utilde" unicode="&#x169;" horiz-adv-x="618" 
d="M548 526v-526h-123l-11 72q-60 -84 -163 -84q-86 0 -140 69q-47 62 -47 196v273h142v-266q0 -82 16 -113q18 -37 70 -37q33 0 64 18.5t50 48.5v349h142zM219 602l-81 -9q-6 19 -6 38q0 46 31.5 74.5t83.5 28.5q36 0 86 -26q49 -25 60 -25q23 0 25 23q0 6 -1 7l81 9
q6 -19 6 -38q0 -46 -31.5 -74.5t-83.5 -28.5q-37 0 -86 25q-50 26 -60 26q-23 0 -25 -23q0 -6 1 -7z" />
    <glyph glyph-name="Umacron" unicode="&#x16a;" horiz-adv-x="716" 
d="M497 700h143v-370q0 -171 -69.5 -256.5t-214.5 -85.5q-280 0 -280 342v370h143v-389q0 -97 36.5 -147.5t102.5 -50.5t102.5 50.5t36.5 147.5v389zM540 867v-95h-364v95h364z" />
    <glyph glyph-name="umacron" unicode="&#x16b;" horiz-adv-x="618" 
d="M548 526v-526h-123l-11 72q-60 -84 -163 -84q-86 0 -140 69q-47 62 -47 196v273h142v-266q0 -82 16 -113q18 -37 70 -37q33 0 64 18.5t50 48.5v349h142zM478 707v-98h-342v98h342z" />
    <glyph glyph-name="Ubreve" unicode="&#x16c;" horiz-adv-x="716" 
d="M497 700h143v-370q0 -171 -69.5 -256.5t-214.5 -85.5q-280 0 -280 342v370h143v-389q0 -97 36.5 -147.5t102.5 -50.5t102.5 50.5t36.5 147.5v389zM193 897v12h104q-1 -3 -1 -13q0 -27 17 -44.5t45 -17.5t46.5 17.5t18.5 44.5q0 10 -1 13h101v-12q0 -69 -48 -112
q-47 -44 -117 -44q-69 0 -118 44q-47 44 -47 112z" />
    <glyph glyph-name="ubreve" unicode="&#x16d;" horiz-adv-x="618" 
d="M548 526v-526h-123l-11 72q-60 -84 -163 -84q-86 0 -140 69q-47 62 -47 196v273h142v-266q0 -82 16 -113q18 -37 70 -37q33 0 64 18.5t50 48.5v349h142zM372 767h101v-17q0 -69 -48 -117q-49 -47 -117 -47t-117 47q-48 48 -48 117v17h102q-1 -3 -1 -19q0 -28 18.5 -48.5
t45.5 -20.5t46 20.5t19 48.5q0 16 -1 19z" />
    <glyph glyph-name="Uring" unicode="&#x16e;" horiz-adv-x="716" 
d="M278 910q33 33 80 33t80 -33t33 -80t-33 -80t-80 -33t-80 33t-33 80t33 80zM391 863q-13 13 -33 13t-33 -13t-13 -33t13 -33t33 -13t33 13t13 33t-13 33zM497 700h143v-370q0 -171 -69.5 -256.5t-214.5 -85.5q-280 0 -280 342v370h143v-389q0 -97 36.5 -147.5
t102.5 -50.5t102.5 50.5t36.5 147.5v389z" />
    <glyph glyph-name="uring" unicode="&#x16f;" horiz-adv-x="618" 
d="M548 526v-526h-123l-11 72q-60 -84 -163 -84q-86 0 -140 69q-47 62 -47 196v273h142v-266q0 -82 16 -113q18 -37 70 -37q33 0 64 18.5t50 48.5v349h142zM228 607q-33 33 -33 80t33 80t80 33t80 -33t33 -80t-33 -80t-80 -33t-80 33zM276 719q-13 -13 -13 -32t13 -32
t32 -13t32 13t13 32t-13 32t-32 13t-32 -13z" />
    <glyph glyph-name="Uhungarumlaut" unicode="&#x170;" horiz-adv-x="716" 
d="M497 700h143v-370q0 -171 -69.5 -256.5t-214.5 -85.5q-280 0 -280 342v370h143v-389q0 -97 36.5 -147.5t102.5 -50.5t102.5 50.5t36.5 147.5v389zM571 955l74 -97l-178 -125l-64 81zM329 954l72 -93l-182 -128l-62 77z" />
    <glyph glyph-name="uhungarumlaut" unicode="&#x171;" horiz-adv-x="618" 
d="M548 526v-526h-123l-11 72q-60 -84 -163 -84q-86 0 -140 69q-47 62 -47 196v273h142v-266q0 -82 16 -113q18 -37 70 -37q33 0 64 18.5t50 48.5v349h142zM289 830l95 -73l-147 -172l-80 57zM488 823l96 -76l-144 -169l-82 62z" />
    <glyph glyph-name="Uogonek" unicode="&#x172;" horiz-adv-x="716" 
d="M497 700h143v-370q0 -269 -172 -326q-34 -11 -56 -35.5t-22 -51.5q0 -34 29 -45t67 9l33 -78q-47 -30 -111 -30q-58 0 -96 30t-38 77q0 70 53 109q-251 17 -251 341v370h143v-389q0 -97 36.5 -147.5t102.5 -50.5t102.5 50.5t36.5 147.5v389z" />
    <glyph glyph-name="uogonek" unicode="&#x173;" horiz-adv-x="618" 
d="M407 526h142v-526q-118 -27 -118 -92q0 -40 49 -40q25 0 48 13l33 -78q-48 -30 -112 -30q-58 0 -96 30t-38 77q0 84 110 125l-10 67q-60 -84 -163 -84q-86 0 -140 69q-47 62 -47 196v273h142v-266q0 -82 16 -113q19 -37 70 -37q33 0 64 18.5t50 48.5v349z" />
    <glyph glyph-name="Wcircumflex" unicode="&#x174;" horiz-adv-x="944" 
d="M406 700h134l120 -448h2l118 448h160l-201 -700h-142l-127 460h-2l-131 -460h-137l-196 700h160l115 -448h2zM280 794l117 149h156l113 -149l-82 -60l-111 126l-112 -126z" />
    <glyph glyph-name="wcircumflex" unicode="&#x175;" horiz-adv-x="777" 
d="M327 526h125l86 -325h3l83 325h148l-151 -526h-150l-83 301h-2l-84 -301h-153l-144 526h151l78 -326h2zM206 631l114 168h143l112 -168l-80 -48l-105 129l-104 -129z" />
    <glyph glyph-name="Ycircumflex" unicode="&#x176;" horiz-adv-x="608" 
d="M370 289v-289h-143v293l-223 407h178l121 -252h2l132 252h167zM112 794l117 149h156l113 -149l-82 -60l-111 126l-112 -126z" />
    <glyph glyph-name="ycircumflex" unicode="&#x177;" horiz-adv-x="531" 
d="M189 31l-186 495h155l106 -313h2l108 313h154l-296 -767l-127 49zM84 631l114 168h143l112 -168l-80 -48l-105 129l-104 -129z" />
    <glyph glyph-name="Ydieresis" unicode="&#x178;" horiz-adv-x="608" 
d="M370 289v-289h-144v295l-222 405h177l122 -252h2l132 252h167zM251 882v-120h-149v120h149zM516 882v-120h-148v120h148z" />
    <glyph glyph-name="Zacute" unicode="&#x179;" horiz-adv-x="562" 
d="M522 700v-73l-296 -506h320v-121h-513v76l295 503h-287v121h481zM363 958l74 -97l-182 -128l-64 81z" />
    <glyph glyph-name="zacute" unicode="&#x17a;" horiz-adv-x="483" 
d="M50 0v66l200 342h-211v118h398v-65l-202 -343h219v-118h-404zM294 826l96 -76l-147 -172l-82 62z" />
    <glyph glyph-name="Zdotaccent" unicode="&#x17b;" horiz-adv-x="562" 
d="M522 700v-73l-296 -506h320v-121h-513v76l295 503h-287v121h481zM341 882v-120h-146v120h146z" />
    <glyph glyph-name="zdotaccent" unicode="&#x17c;" horiz-adv-x="483" 
d="M50 0v66l200 342h-211v118h398v-65l-202 -343h219v-118h-404zM306 720v-121h-142v121h142z" />
    <glyph glyph-name="Zcaron" unicode="&#x17d;" horiz-adv-x="562" 
d="M522 700v-73l-296 -506h320v-121h-513v76l295 503h-287v121h481zM475 895l-117 -149h-156l-113 149l83 60l111 -126l112 126z" />
    <glyph glyph-name="zcaron" unicode="&#x17e;" horiz-adv-x="483" 
d="M50 0v66l200 342h-211v118h398v-65l-202 -343h219v-118h-404zM427 762l-114 -168h-143l-112 168l81 48l105 -129l104 129z" />
    <glyph glyph-name="longs" unicode="&#x17f;" horiz-adv-x="316" 
d="M372 731l-37 -106q-35 19 -70 19t-47.5 -20t-12.5 -68v-556h-139v563q0 97 43.5 148t129.5 51q64 0 133 -31z" />
    <glyph glyph-name="florin" unicode="&#x192;" 
d="M314 417h112v-119h-126l-36 -324q-10 -83 -56.5 -128.5t-119.5 -45.5q-42 0 -95 14l28 114q24 -9 51 -9q30 4 40.5 21t13.5 56l34 302h-73v119h86l10 86q10 83 57.5 128t123.5 45q74 0 151 -36l-46 -111q-46 29 -90 29q-29 0 -41.5 -18t-16.5 -59z" />
    <glyph glyph-name="Aringacute" unicode="&#x1fa;" horiz-adv-x="689" 
d="M279 896q32 32 77 32q44 0 76 -32t32 -76q0 -45 -32 -77q-31 -31 -76 -31q-46 0 -77 31t-31 77q0 45 31 76zM356 861q-18 0 -29.5 -12t-11.5 -29q0 -18 11.5 -29.5t29.5 -11.5q17 0 29 11.5t12 29.5q0 17 -12 29t-29 12zM454 1129l54 -86l-193 -111l-45 69zM414 700
l263 -700h-165l-45 130h-249l-47 -130h-159l286 700h116zM346 482h-1l-85 -235h167z" />
    <glyph glyph-name="aringacute" unicode="&#x1fb;" horiz-adv-x="575" 
d="M399 982l54 -86l-195 -115l-46 71zM221 589q-31 31 -31 76q0 44 31 75q31 32 76 32t76 -32q31 -31 31 -75q0 -45 -31 -76t-76 -31t-76 31zM268 694q-12 -12 -12 -29t12 -29t29 -12t29 12t12 29t-12 29t-29 12t-29 -12zM511 316v-316h-123l-11 45q-47 -57 -143 -57
q-78 0 -134 45q-55 45 -55 122q0 61 36 101q62 69 193 69q40 0 95 -11v8q0 106 -104 106q-71 0 -159 -46l-38 102q109 54 226 54q106 0 161.5 -58t55.5 -164zM369 132v97q-41 9 -72 9q-49 0 -81 -20.5t-32 -60.5q0 -32 23 -51t57 -19q56 0 105 45z" />
    <glyph glyph-name="AEacute" unicode="&#x1fc;" horiz-adv-x="1009" 
d="M956 121v-121h-449v131h-247l-88 -131h-181l516 700h449v-121h-305v-158h305v-121h-305v-179h305zM507 496l-168 -248h168v248zM693 958l74 -97l-182 -128l-64 81z" />
    <glyph glyph-name="aeacute" unicode="&#x1fd;" horiz-adv-x="921" 
d="M880 228h-370q8 -57 43 -91.5t89 -34.5q47 0 78 18.5t59 59.5l93 -63q-46 -68 -102 -98.5t-138 -30.5q-120 0 -195 77q-45 -43 -92.5 -60t-110.5 -17q-78 0 -134 45q-55 45 -55 122q0 61 36 101q62 69 193 69q40 0 95 -11v8q0 106 -104 106q-71 0 -159 -46l-38 102
q109 54 226 54q114 0 167 -68q71 68 172 68q110 0 182 -69t72 -174q0 -32 -7 -67zM385 149q-13 33 -18 80q-39 9 -70 9q-49 0 -81 -20.5t-32 -60.5q0 -32 23 -51t57 -19q70 0 121 62zM517 325h225q-2 47 -31 74.5t-74 27.5q-95 0 -120 -102zM541 826l96 -76l-147 -172
l-82 62z" />
    <glyph glyph-name="Oslashacute" unicode="&#x1fe;" horiz-adv-x="831" 
d="M782 350q0 -151 -106 -257q-106 -105 -260 -105q-85 0 -157 34l-34 -50l-93 61l34 50q-117 107 -117 267q0 151 106 256q106 106 261 106q77 0 152 -32l31 46l93 -61l-30 -45q120 -110 120 -270zM629 350q0 86 -47 151l-250 -370q39 -18 84 -18q92 0 152 68q61 68 61 169
zM202 350q0 -84 44 -148l249 369q-36 16 -79 16q-91 0 -153 -68q-61 -67 -61 -169zM523 958l74 -97l-182 -128l-64 81z" />
    <glyph glyph-name="oslashacute" unicode="&#x1ff;" horiz-adv-x="617" 
d="M309 538q60 0 114 -23l24 35l73 -48l-23 -34q87 -81 87 -205q0 -117 -78 -196t-197 -79q-66 0 -120 25l-28 -42l-73 48l28 43q-83 80 -83 201q0 117 78 196t198 79zM439 263q0 50 -22 87l-156 -231q23 -9 48 -9q57 0 93.5 43.5t36.5 109.5zM178 263q0 -46 19 -83l154 229
q-21 7 -42 7q-57 0 -95 -44q-36 -43 -36 -109zM394 826l96 -76l-147 -172l-82 62z" />
    <glyph glyph-name="Scommaaccent" unicode="&#x218;" horiz-adv-x="623" 
d="M550 629l-82 -102q-74 63 -145 63q-39 0 -65 -19t-26 -51q0 -28 29 -51q6 -4 43 -21q3 0 25 -8l23 -8q50 -17 77 -30q24 -11 67 -40q74 -53 74 -157q0 -72 -42 -123q-77 -94 -223 -94q-151 0 -268 117l95 93q51 -48 88 -68t86 -20q48 0 79.5 23t31.5 66q0 44 -42 67
q-19 12 -40 21q-14 6 -53 21q-44 17 -56 22q-22 10 -50 27q-42 25 -62.5 62t-24.5 97q0 94 67 145q68 51 162 51q122 0 232 -83zM338 -58l-55 -191h-108l36 191h127z" />
    <glyph glyph-name="scommaaccent" unicode="&#x219;" horiz-adv-x="481" 
d="M433 469l-78 -86q-50 44 -104 44q-21 0 -36 -11t-15 -29q0 -21 19 -35t64 -33q36 -15 43 -19q14 -6 39 -21q26 -16 38 -30q34 -40 34 -92q0 -83 -60 -126q-58 -43 -142 -43q-122 0 -212 90l81 84q34 -34 61.5 -48t62.5 -14q26 0 46.5 12.5t20.5 33.5q0 11 -5 20
t-16.5 16.5t-21 12.5t-28.5 13.5t-29 13.5q-67 29 -99.5 63t-32.5 92q0 76 55 118q55 43 133 43q109 0 182 -69zM277 -58l-55 -191h-108l36 191h127z" />
    <glyph glyph-name="uni021A" unicode="&#x21a;" horiz-adv-x="492" 
d="M483 700v-121h-166v-579h-143v579h-166v121h475zM302 -58l-55 -191h-108l36 191h127z" />
    <glyph glyph-name="uni021B" unicode="&#x21b;" horiz-adv-x="378" 
d="M351 526v-118h-134v-204q0 -25 2 -45q6 -50 46 -50q27 0 57 15l44 -105q-52 -31 -125 -31q-59 0 -100 30t-56 83q-10 31 -10 88v219h-63v118h63l22 116h120v-116h134zM254 -58l-55 -191h-108l36 191h127z" />
    <glyph glyph-name="dotlessj" unicode="&#x237;" horiz-adv-x="287" 
d="M75 526h143v-563q0 -86 -34 -130q-44 -60 -147 -60q-60 0 -114 22l38 112q27 -13 61 -13q31 0 42 18.5t11 61.5v552z" />
    <glyph glyph-name="apostrophe" unicode="&#x2bc;" horiz-adv-x="360" 
d="M99 506l41 244h145l-67 -244h-119z" />
    <glyph glyph-name="circumflex" unicode="&#x2c6;" horiz-adv-x="360" 
d="M-5 631l114 168h143l112 -168l-80 -48l-105 129l-104 -129z" />
    <glyph glyph-name="caron" unicode="&#x2c7;" horiz-adv-x="360" 
d="M364 762l-114 -168h-143l-112 168l81 48l105 -129l104 129z" />
    <glyph glyph-name="uni02C9" unicode="&#x2c9;" horiz-adv-x="360" 
d="M351 707v-98h-342v98h342z" />
    <glyph glyph-name="breve" unicode="&#x2d8;" horiz-adv-x="360" 
d="M244 767h101v-17q0 -69 -48 -117q-49 -47 -117 -47t-117 47q-48 48 -48 117v17h102q-1 -3 -1 -19q0 -28 18.5 -48.5t45.5 -20.5t46 20.5t19 48.5q0 16 -1 19z" />
    <glyph glyph-name="dotaccent" unicode="&#x2d9;" horiz-adv-x="360" 
d="M251 720v-121h-142v121h142z" />
    <glyph glyph-name="ring" unicode="&#x2da;" horiz-adv-x="360" 
d="M100 613q-33 33 -33 80t33 80t80 33t80 -33t33 -80t-33 -80t-80 -33t-80 33zM148 725q-13 -13 -13 -32t13 -32t32 -13t32 13t13 32t-13 32t-32 13t-32 -13z" />
    <glyph glyph-name="ogonek" unicode="&#x2db;" horiz-adv-x="360" 
d="M166 9l117 -2v-7q-112 -25 -112 -92q0 -40 49 -40q23 0 48 13l32 -78q-46 -30 -111 -30q-58 0 -96 30t-38 77q0 92 111 129z" />
    <glyph glyph-name="tilde" unicode="&#x2dc;" horiz-adv-x="360" 
d="M81 602l-81 -9q-6 19 -6 38q0 46 31.5 74.5t83.5 28.5q36 0 86 -26q49 -25 60 -25q23 0 25 23q0 6 -1 7l81 9q6 -19 6 -38q0 -46 -31.5 -74.5t-83.5 -28.5q-37 0 -86 25q-50 26 -60 26q-23 0 -25 -23q0 -6 1 -7z" />
    <glyph glyph-name="hungarumlaut" unicode="&#x2dd;" horiz-adv-x="360" 
d="M137 830l95 -73l-147 -172l-80 57zM336 823l96 -76l-144 -169l-82 62z" />
    <glyph glyph-name="uni0394" unicode="&#x394;" 
d="M339 577l221 -577h-571l224 577h126zM180 117h184l-92 249h-2z" />
    <glyph glyph-name="uni03A9" unicode="&#x3a9;" horiz-adv-x="794" 
d="M15 0v111h172q-68 50 -105 122.5t-37 152.5q0 146 102 236q103 90 250 90t249 -90q103 -90 103 -236q0 -80 -37 -152.5t-105 -122.5h172v-111h-341v122q75 29 118 100q44 73 44 155q0 94 -58 151q-57 58 -145 58t-146 -58q-57 -57 -57 -151q0 -82 44 -155
q43 -71 118 -100v-122h-341z" />
    <glyph glyph-name="uni03BC" unicode="&#x3bc;" 
d="M33 -250v776h142v-269q0 -57 11 -97q17 -50 75 -50q32 0 63 17.5t51 48.5v350h142v-526h-123l-11 72q-61 -84 -163 -84q-24 0 -45 7v-245h-142z" />
    <glyph glyph-name="pi" unicode="&#x3c0;" 
d="M16 411v115h532v-115h-89v-225q0 -25 1 -31q1 -51 53 -61l-53 -114q-125 30 -138 160q-1 7 -1 37v234h-109v-333q0 -40 -7 -78h-142q10 36 10 83v328h-57z" />
    <glyph glyph-name="Wgrave" unicode="&#x1e80;" horiz-adv-x="944" 
d="M406 700h134l120 -448h2l118 448h160l-201 -700h-142l-127 460h-2l-131 -460h-137l-196 700h160l115 -448h2zM553 814l-64 -81l-182 128l74 97z" />
    <glyph glyph-name="wgrave" unicode="&#x1e81;" horiz-adv-x="777" 
d="M327 526h125l86 -325h3l83 325h148l-151 -526h-150l-83 301h-2l-84 -301h-153l-144 526h151l78 -326h2zM445 640l-82 -62l-147 172l96 76z" />
    <glyph glyph-name="Wacute" unicode="&#x1e82;" horiz-adv-x="944" 
d="M406 700h134l120 -448h2l118 448h160l-201 -700h-142l-127 460h-2l-131 -460h-137l-196 700h160l115 -448h2zM580 958l74 -97l-182 -128l-64 81z" />
    <glyph glyph-name="wacute" unicode="&#x1e83;" horiz-adv-x="777" 
d="M327 526h125l86 -325h3l83 325h148l-151 -526h-150l-83 301h-2l-84 -301h-153l-144 526h151l78 -326h2zM464 826l96 -76l-147 -172l-82 62z" />
    <glyph glyph-name="Wdieresis" unicode="&#x1e84;" horiz-adv-x="944" 
d="M406 700h134l120 -448h2l118 448h160l-201 -700h-142l-127 460h-2l-131 -460h-137l-196 700h160l115 -448h2zM409 882v-120h-149v120h149zM686 882v-120h-149v120h149z" />
    <glyph glyph-name="wdieresis" unicode="&#x1e85;" horiz-adv-x="777" 
d="M327 526h125l86 -325h3l83 325h148l-151 -526h-150l-83 301h-2l-84 -301h-153l-144 526h151l78 -326h2zM341 720v-121h-143v121h143zM582 720v-121h-143v121h143z" />
    <glyph glyph-name="Ygrave" unicode="&#x1ef2;" horiz-adv-x="608" 
d="M370 289v-289h-143v293l-223 407h178l121 -252h2l132 252h167zM396 814l-64 -81l-182 128l74 97z" />
    <glyph glyph-name="ygrave" unicode="&#x1ef3;" horiz-adv-x="531" 
d="M189 31l-186 495h155l106 -313h2l108 313h154l-296 -767l-127 49zM364 640l-82 -62l-147 172l96 76z" />
    <glyph glyph-name="thinspace" unicode="&#x2009;" horiz-adv-x="125" 
 />
    <glyph glyph-name="endash" unicode="&#x2013;" horiz-adv-x="600" 
d="M550 378v-119h-500v119h500z" />
    <glyph glyph-name="emdash" unicode="&#x2014;" horiz-adv-x="900" 
d="M850 378v-119h-800v119h800z" />
    <glyph glyph-name="quoteleft" unicode="&#x2018;" horiz-adv-x="306" 
d="M122 700h135l-57 -276h-151z" />
    <glyph glyph-name="quoteright" unicode="&#x2019;" horiz-adv-x="306" 
d="M184 424h-135l57 276h151z" />
    <glyph glyph-name="quotesinglbase" unicode="&#x201a;" horiz-adv-x="306" 
d="M184 -127h-135l57 276h151z" />
    <glyph glyph-name="quotedblleft" unicode="&#x201c;" horiz-adv-x="571" 
d="M139 700h135l-57 -276h-151zM370 700h135l-57 -276h-151z" />
    <glyph glyph-name="quotedblright" unicode="&#x201d;" horiz-adv-x="571" 
d="M432 424h-135l57 276h151zM201 424h-135l57 276h151z" />
    <glyph glyph-name="quotedblbase" unicode="&#x201e;" horiz-adv-x="571" 
d="M432 -127h-135l57 276h151zM201 -127h-135l57 276h151z" />
    <glyph glyph-name="dagger" unicode="&#x2020;" horiz-adv-x="425" 
d="M270 138h-115v161l3 147l-59 -2h-41v102h41l59 -3l-3 109v48h115v-48l-3 -109l59 3h41v-102h-41l-59 2l3 -147v-161z" />
    <glyph glyph-name="daggerdbl" unicode="&#x2021;" horiz-adv-x="425" 
d="M58 332v101l99 -2v20v30v26l-99 -2v101l99 -2l-2 96h115l-2 -96l99 2v-101l-99 2v-26v-30v-20l99 2v-101l-99 2l2 -53v-143h-115v143l2 53z" />
    <glyph glyph-name="bullet" unicode="&#x2022;" horiz-adv-x="355" 
d="M77 188q-42 42 -42 101t42 101t101 42q60 0 100 -42q42 -42 42 -101t-42 -101q-40 -42 -100 -42q-59 0 -101 42z" />
    <glyph glyph-name="ellipsis" unicode="&#x2026;" horiz-adv-x="750" 
d="M207 149v-149h-152v149h152zM694 149v-149h-152v149h152zM451 149v-149h-153v149h153z" />
    <glyph glyph-name="perthousand" unicode="&#x2030;" horiz-adv-x="1248" 
d="M1200 165q0 -74 -52 -123q-52 -48 -125 -48t-125 48q-51 50 -51 123t51 121q52 49 125 49t125 -49q52 -48 52 -121zM1024 235q-29 0 -47 -19.5t-18 -50.5t18 -51t47 -20q27 0 45.5 20t18.5 51q0 30 -18.5 50t-45.5 20zM401 535q0 -73 -52 -122q-51 -48 -124 -48t-125 48
q-52 49 -52 122q0 74 52 122q52 49 125 49q74 0 124 -49q52 -48 52 -122zM225 606q-29 0 -47 -20t-18 -51t18 -50.5t47 -19.5q28 0 46 19.5t18 50.5t-18 51t-46 20zM808 165q0 -74 -52 -123q-51 -48 -124 -48q-72 0 -125 48q-52 49 -52 123q0 73 52 121q52 49 125 49
q74 0 124 -49q52 -48 52 -121zM632 235q-29 0 -47 -19.5t-18 -50.5t18 -51t47 -20q28 0 46 20t18 51t-18 50.5t-46 19.5zM144 35l498 683l71 -53l-498 -683z" />
    <glyph glyph-name="guilsinglleft" unicode="&#x2039;" horiz-adv-x="337" 
d="M49 210v115l161 168l77 -105l-126 -121l126 -120l-77 -106z" />
    <glyph glyph-name="guilsinglright" unicode="&#x203a;" horiz-adv-x="337" 
d="M49 387l77 106l161 -168v-116l-161 -168l-77 106l126 120z" />
    <glyph glyph-name="fraction" unicode="&#x2044;" horiz-adv-x="149" 
d="M-210 35l498 683l71 -53l-498 -683z" />
    <glyph glyph-name="zerosuperior" unicode="&#x2070;" horiz-adv-x="352" 
d="M176 439q52 0 52 128q0 129 -52 129q-51 0 -51 -129q0 -128 51 -128zM19 567q0 99 41 153.5t116 54.5t116.5 -55.5t41.5 -152.5t-41.5 -152t-116.5 -55t-116 55t-41 152z" />
    <glyph glyph-name="foursuperior" unicode="&#x2074;" horiz-adv-x="351" 
d="M16 464v81q76 94 168 223h107v-227h52v-77h-52v-97h-102v97h-173zM117 541h72v103q-46 -69 -72 -103z" />
    <glyph glyph-name="fivesuperior" unicode="&#x2075;" horiz-adv-x="332" 
d="M291 768v-77h-148q0 -34 -5 -76q27 13 53 13q52 0 85 -38q34 -37 34 -88q0 -62 -43 -102q-41 -40 -104 -40q-105 0 -147 82l76 38q17 -41 59 -41q23 0 37.5 15.5t14.5 37.5q0 23 -14.5 37.5t-38.5 14.5q-29 0 -47 -24l-63 43q8 72 12 205h239z" />
    <glyph glyph-name="sixsuperior" unicode="&#x2076;" horiz-adv-x="353" 
d="M239 796l31 -80q-104 -34 -132 -105q29 18 64 18q57 0 95 -37t38 -94q0 -61 -42 -99.5t-106 -38.5q-75 0 -121.5 46t-46.5 122q0 97 59 166.5t161 101.5zM124 522q0 -38 14.5 -61t42.5 -23q21 0 34.5 16t13.5 38q0 24 -14 41t-35 17q-34 0 -56 -28z" />
    <glyph glyph-name="sevensuperior" unicode="&#x2077;" horiz-adv-x="300" 
d="M5 768h286v-55q-61 -125 -163 -369l-94 44q68 156 145 302h-174v78z" />
    <glyph glyph-name="eightsuperior" unicode="&#x2078;" horiz-adv-x="357" 
d="M317 662q0 -54 -49 -85q61 -37 61 -96q0 -52 -44 -87q-43 -34 -107 -34t-107 34t-43 87q0 61 59 96q-48 31 -48 85q0 48 39.5 80.5t99.5 32.5t99.5 -32.5t39.5 -80.5zM134 486q0 -21 12.5 -35t31.5 -14t32 14t13 35q2 31 -21.5 43.5t-46.5 0t-21 -43.5zM204 684
q-10 12 -26 12t-26 -12q-10 -11 -10 -29t10 -30t26 -12t26 12t10 30t-10 29z" />
    <glyph glyph-name="ninesuperior" unicode="&#x2079;" horiz-adv-x="353" 
d="M115 339l-31 80q104 35 132 105q-28 -18 -64 -18q-57 0 -95 37t-38 94q0 61 42 99.5t106 38.5q75 0 121.5 -46t46.5 -122q0 -97 -59 -166.5t-161 -101.5zM230 613q0 38 -14.5 61t-42.5 23q-21 0 -34.5 -16t-13.5 -38q0 -24 14 -41t35 -17q34 0 56 28z" />
    <glyph glyph-name="plussuperior" unicode="&#x207a;" horiz-adv-x="341" 
d="M210 407h-80v110h-109v80h109v110h80v-110h110v-80h-110v-110z" />
    <glyph glyph-name="minussuperior" unicode="&#x207b;" horiz-adv-x="342" 
d="M24 517v80h294v-80h-294z" />
    <glyph glyph-name="equalsuperior" unicode="&#x207c;" horiz-adv-x="342" 
d="M24 581v75h294v-75h-294zM24 457v75h294v-75h-294z" />
    <glyph glyph-name="parenleftsuperior" unicode="&#x207d;" horiz-adv-x="232" 
d="M233 324l-38 -63q-177 105 -177 290q0 183 177 291l39 -63q-120 -78 -120 -228t119 -227z" />
    <glyph glyph-name="parenrightsuperior" unicode="&#x207e;" horiz-adv-x="232" 
d="M37 261l-38 63q120 76 120 227q0 149 -120 228l39 63q176 -108 176 -291q0 -185 -177 -290z" />
    <glyph glyph-name="zeroinferior" unicode="&#x2080;" horiz-adv-x="352" 
d="M176 -105q52 0 52 128q0 129 -52 129q-51 0 -51 -129q0 -128 51 -128zM19 23q0 99 41 153.5t116 54.5t116.5 -55.5t41.5 -152.5t-41.5 -152t-116.5 -55t-116 55t-41 152z" />
    <glyph glyph-name="oneinferior" unicode="&#x2081;" horiz-adv-x="229" 
d="M184 223v-401h-103v291q-12 -7 -56 -23v85q28 13 91 48h68z" />
    <glyph glyph-name="twoinferior" unicode="&#x2082;" horiz-adv-x="331" 
d="M26 -178v74q86 75 140 141q32 44 32 74q0 40 -37 40q-18 0 -28 -15.5t-10 -39.5l-104 13q2 54 41 87.5t97 33.5q60 0 103 -31t43 -83q0 -58 -40 -107q-51 -61 -111 -110h163v-77h-289z" />
    <glyph glyph-name="threeinferior" unicode="&#x2083;" horiz-adv-x="347" 
d="M114 -9v72q3 -1 15 -1q16 0 31 4q39 10 39 42q0 19 -12.5 31t-33.5 12q-39 0 -52 -39l-80 36q15 39 51 60.5t82 21.5q61 0 105 -29t44 -77q0 -60 -57 -88q37 -12 56.5 -39t19.5 -62q0 -53 -44.5 -86.5t-111.5 -33.5q-52 0 -93.5 23t-58.5 64l80 37q22 -45 65 -45
q25 0 40.5 13.5t15.5 33.5q0 24 -19 38t-50 14q-2 0 -32 -2z" />
    <glyph glyph-name="fourinferior" unicode="&#x2084;" horiz-adv-x="351" 
d="M16 -81v81q76 94 168 223h107v-227h52v-77h-52v-97h-102v97h-173zM117 -4h72v103q-46 -69 -72 -103z" />
    <glyph glyph-name="fiveinferior" unicode="&#x2085;" horiz-adv-x="332" 
d="M291 223v-77h-148q0 -34 -5 -76q27 13 53 13q52 0 85 -38q34 -37 34 -88q0 -61 -43 -101q-43 -41 -104 -41q-105 0 -147 82l76 38q17 -41 59 -41q23 0 37.5 15.5t14.5 37.5q0 23 -14.5 37.5t-38.5 14.5q-29 0 -47 -24l-63 43q8 72 12 205h239z" />
    <glyph glyph-name="sixinferior" unicode="&#x2086;" horiz-adv-x="353" 
d="M239 251l31 -80q-104 -35 -132 -105q28 18 64 18q57 0 95 -37t38 -94q0 -61 -42 -99.5t-106 -38.5q-75 0 -121.5 46t-46.5 122q0 97 59 166.5t161 101.5zM124 -23q0 -38 14.5 -61t42.5 -23q21 0 34.5 16t13.5 38q0 24 -14 41t-35 17q-34 0 -56 -28z" />
    <glyph glyph-name="seveninferior" unicode="&#x2087;" horiz-adv-x="300" 
d="M5 223h286v-55q-61 -125 -163 -369l-94 44q68 156 145 302h-174v78z" />
    <glyph glyph-name="eightinferior" unicode="&#x2088;" horiz-adv-x="357" 
d="M317 117q0 -54 -49 -85q61 -37 61 -96q0 -51 -44 -86t-107 -35q-64 0 -107 34t-43 87q0 61 59 96q-48 31 -48 85q0 48 39.5 80.5t99.5 32.5t99.5 -32.5t39.5 -80.5zM134 -59q0 -21 12.5 -35t31.5 -14t32 14t13 35q2 31 -21.5 43.5t-46.5 0t-21 -43.5zM204 139
q-10 12 -26 12t-26 -12q-10 -11 -10 -29t10 -30t26 -12t26 12t10 30t-10 29z" />
    <glyph glyph-name="nineinferior" unicode="&#x2089;" horiz-adv-x="353" 
d="M115 -206l-31 80q104 34 132 105q-28 -18 -64 -18q-57 0 -95 37t-38 94q0 61 42 99.5t106 38.5q75 0 121.5 -46t46.5 -122q0 -97 -59 -166.5t-161 -101.5zM230 68q0 38 -14.5 61t-42.5 23q-21 0 -34.5 -16t-13.5 -38q0 -24 14 -41t35 -17q34 0 56 28z" />
    <glyph glyph-name="parenleftinferior" unicode="&#x208d;" horiz-adv-x="232" 
d="M233 -221l-38 -63q-177 105 -177 290q0 183 177 291l39 -63q-120 -78 -120 -228t119 -227z" />
    <glyph glyph-name="parenrightinferior" unicode="&#x208e;" horiz-adv-x="232" 
d="M37 -284l-38 63q120 76 120 227q0 148 -120 228l39 63q176 -108 176 -291q0 -185 -177 -290z" />
    <glyph glyph-name="Euro" unicode="&#x20ac;" horiz-adv-x="650" 
d="M80 362h-66v95h85q26 71 81 122q103 97 242 97q108 0 211 -64l-61 -103q-67 53 -145 53q-125 0 -181 -105h236v-95h-265q-2 -14 -2 -30q0 -19 2 -33h265v-93h-239q27 -52 76 -78t108 -26q85 0 147 56l73 -94q-100 -76 -229 -76q-102 0 -193 55q-89 55 -127 163h-84v93h66
q-2 30 -2 33q0 4 2 30z" />
    <glyph glyph-name="afii61352" unicode="&#x2116;" horiz-adv-x="1143" 
d="M671 700v-700h-129l-321 438v-438h-143v700h126l324 -439v439h143zM804 677q52 51 132 51t131 -51q52 -51 52 -127t-52 -127q-51 -51 -131 -51t-132 51q-51 51 -51 127t51 127zM992 620q-21 27 -56 27t-56 -27t-21 -70t21 -70t56 -27t56 27t21 70t-21 70z" />
    <glyph glyph-name="trademark" unicode="&#x2122;" horiz-adv-x="983" 
d="M363 700v-85h-97v-341h-103v341h-97v85h297zM816 274v296l-121 -296h-62l-119 298v-298h-101v426h153l99 -258l103 258h150v-426h-102z" />
    <glyph glyph-name="Omega" unicode="&#x2126;" horiz-adv-x="794" 
d="M15 0v111h172q-68 50 -105 122.5t-37 152.5q0 146 102 236q103 90 250 90t249 -90q103 -90 103 -236q0 -80 -37 -152.5t-105 -122.5h172v-111h-341v122q75 29 118 100q44 73 44 155q0 94 -58 151q-57 58 -145 58t-146 -58q-57 -57 -57 -151q0 -82 44 -155
q43 -71 118 -100v-122h-341z" />
    <glyph glyph-name="onethird" unicode="&#x2153;" horiz-adv-x="831" 
d="M94 35l498 683l71 -53l-498 -683zM241 700v-362h-98v258q-24 -14 -57 -26v89l80 41h75zM569 148l-1 71h8q20 0 31 3q31 7 31 36q0 15 -10.5 24.5t-28.5 9.5q-33 0 -39 -33l-77 36q12 34 45 54t74 20q55 0 93.5 -27t38.5 -70q0 -23 -13.5 -45t-34.5 -33q29 -10 47 -35.5
t18 -55.5q0 -52 -41 -82q-41 -29 -97 -29q-46 0 -82.5 20.5t-53.5 58.5l77 35q13 -37 55 -37q19 0 32 10.5t13 28.5q0 43 -61 43q-12 0 -24 -3z" />
    <glyph glyph-name="twothirds" unicode="&#x2154;" horiz-adv-x="931" 
d="M194 35l499 683l71 -53l-499 -683zM86 339v67q85 75 127 127q29 38 29 66q0 15 -9.5 23.5t-24.5 8.5q-16 0 -25.5 -12t-9.5 -32l-93 15q2 49 38 77.5t92 28.5q51 0 91 -29q39 -29 39 -75q0 -49 -38 -98q-36 -43 -88 -87h136v-80h-264zM669 148l-1 71h8q20 0 31 3
q31 7 31 36q0 15 -10.5 24.5t-28.5 9.5q-33 0 -39 -33l-77 36q12 34 45 54t74 20q55 0 93.5 -27t38.5 -70q0 -23 -13.5 -45t-34.5 -33q29 -10 47 -35.5t18 -55.5q0 -52 -41 -82q-41 -29 -97 -29q-46 0 -82.5 20.5t-53.5 58.5l77 35q13 -37 55 -37q19 0 32 10.5t13 28.5
q0 43 -61 43q-12 0 -24 -3z" />
    <glyph glyph-name="oneeighth" unicode="&#x215b;" horiz-adv-x="841" 
d="M94 35l498 683l71 -53l-498 -683zM241 700v-362h-98v258q-24 -14 -57 -26v89l80 41h75zM761 103q0 -50 -42 -80q-41 -30 -98 -30q-56 0 -98 30q-41 30 -41 80q0 59 55 87q-44 30 -44 77q0 43 36 73t92 30t92.5 -30t36.5 -73q0 -47 -45 -77q56 -27 56 -87zM586 263
q-2 -21 16.5 -30t37 0t17.5 30q1 21 -17.5 29.5t-37 0t-16.5 -29.5zM621 66q18 0 30 11.5t12 28.5t-12 29t-30 12q-17 0 -29 -12t-12 -29t12 -28.5t29 -11.5z" />
    <glyph glyph-name="threeeighths" unicode="&#x215c;" horiz-adv-x="920" 
d="M172 35l499 683l71 -53l-499 -683zM172 487l-1 71h8q21 0 31 3q31 7 31 36q0 15 -10.5 24.5t-28.5 9.5q-33 0 -39 -33l-77 36q12 34 45 54t74 20q55 0 93.5 -27t38.5 -70q0 -23 -13.5 -45t-34.5 -33q29 -10 47 -35.5t18 -55.5q0 -52 -41 -82q-41 -29 -97 -29
q-46 0 -82.5 20.5t-53.5 58.5l77 35q13 -37 55 -37q19 0 32 10.5t13 28.5q0 43 -61 43q-12 0 -24 -3zM840 103q0 -50 -42 -80q-40 -30 -98 -30q-56 0 -98 30q-41 30 -41 80q0 59 55 87q-44 30 -44 77q0 43 36 73t92 30t92.5 -30t36.5 -73q0 -47 -45 -77q56 -27 56 -87z
M665 263q-2 -21 16.5 -30t37 0t17.5 30q1 21 -17.5 29.5t-37 0t-16.5 -29.5zM700 66q18 0 30 11.5t12 28.5t-12 29t-30 12q-17 0 -29 -12t-12 -29t12 -28.5t29 -11.5z" />
    <glyph glyph-name="fiveeighths" unicode="&#x215d;" horiz-adv-x="910" 
d="M162 35l499 683l71 -53l-499 -683zM330 700v-80h-133q-3 -40 -5 -60q20 12 48 12q47 0 77 -34q30 -35 30 -79q0 -53 -39 -91q-37 -37 -94 -37q-96 0 -134 74l77 37q13 -34 49 -34q20 0 31.5 12.5t11.5 32.5q0 19 -11.5 31t-32.5 12q-23 0 -40 -20l-63 38q8 86 12 186h216
zM830 103q0 -50 -42 -80q-40 -30 -98 -30q-56 0 -98 30q-41 30 -41 80q0 59 55 87q-44 30 -44 77q0 43 36 73t92 30t92.5 -30t36.5 -73q0 -47 -45 -77q56 -27 56 -87zM655 263q-2 -21 16.5 -30t37 0t17.5 30q1 21 -17.5 29.5t-37 0t-16.5 -29.5zM690 66q18 0 30 11.5
t12 28.5t-12 29t-30 12q-17 0 -29 -12t-12 -29t12 -28.5t29 -11.5z" />
    <glyph glyph-name="seveneighths" unicode="&#x215e;" horiz-adv-x="846" 
d="M98 35l499 683l71 -53l-499 -683zM349 700v-56q-60 -114 -150 -326l-90 39q46 109 128 263h-154v80h266zM766 103q0 -50 -42 -80q-40 -30 -98 -30q-56 0 -98 30q-41 30 -41 80q0 59 55 87q-44 30 -44 77q0 43 36 73t92 30t92.5 -30t36.5 -73q0 -47 -45 -77q56 -27 56 -87
zM591 263q-2 -21 16.5 -30t37 0t17.5 30q1 21 -17.5 29.5t-37 0t-16.5 -29.5zM626 66q18 0 30 11.5t12 28.5t-12 29t-30 12q-17 0 -29 -12t-12 -29t12 -28.5t29 -11.5z" />
    <glyph glyph-name="uni2192" unicode="&#x2192;" horiz-adv-x="972" 
d="M708 210h-649v108h649l-165 163l77 75l293 -292l-293 -292l-77 75z" />
    <glyph glyph-name="uni2194" unicode="&#x2194;" horiz-adv-x="1206" 
d="M942 210h-678l165 -163l-77 -75l-293 292l293 292l77 -75l-165 -163h678l-165 163l77 75l293 -292l-293 -292l-77 75z" />
    <glyph glyph-name="uni21D2" unicode="&#x21d2;" horiz-adv-x="1045" 
d="M704 134h-645v106h751l26 24l-26 24h-751v106h645l-88 87l76 75l294 -292l-294 -292l-76 75z" />
    <glyph glyph-name="uni21D4" unicode="&#x21d4;" horiz-adv-x="1238" 
d="M341 394h556l-88 87l76 75l294 -292l-294 -292l-76 75l88 87h-556l88 -87l-76 -75l-294 292l294 292l76 -75zM1003 288h-768l-26 -24l26 -24h768l26 24z" />
    <glyph glyph-name="uni21FD" unicode="&#x21fd;" horiz-adv-x="971" 
d="M396 210v-274l-337 328l337 327v-273h516v-108h-516zM292 181v165l-83 -82z" />
    <glyph glyph-name="uni21FE" unicode="&#x21fe;" horiz-adv-x="971" 
d="M575 591l337 -327l-337 -328v274h-516v108h516v273zM679 181l83 83l-83 82v-165z" />
    <glyph glyph-name="uni21FF" unicode="&#x21ff;" horiz-adv-x="1237" 
d="M396 210v-274l-337 328l337 327v-273h445v273l337 -327l-337 -328v274h-445zM945 181l83 83l-83 82v-165zM292 181v165l-83 -82z" />
    <glyph glyph-name="uni2200" unicode="&#x2200;" horiz-adv-x="689" 
d="M275 0l-263 700h165l45 -130h249l47 130h159l-286 -700h-116zM343 218h1l85 235h-167z" />
    <glyph glyph-name="partialdiff" unicode="&#x2202;" 
d="M25 682l46 113q484 -205 484 -531q0 -121 -80 -199q-80 -77 -204 -77q-115 0 -194 82q-80 83 -80 197q0 105 75 182q77 77 183 77q17 0 34 -4q-85 83 -264 160zM387 387q-42 21 -87 21q-72 0 -117.5 -38t-45.5 -102t39 -113q40 -48 102 -48t99 43t37 107q0 69 -27 130z
" />
    <glyph glyph-name="uni2203" unicode="&#x2203;" horiz-adv-x="580" 
d="M53 579v121h449v-700h-449v121h306v158h-306v121h306v179h-306z" />
    <glyph glyph-name="uni2204" unicode="&#x2204;" horiz-adv-x="580" 
d="M309 787l95 -25l-18 -62h116v-700h-317l-23 -82l-95 25l16 57h-30v121h65l45 158h-110v121h145l51 179h-196v121h231zM359 121v158h-94l-45 -158h139zM359 400v179h-8l-51 -179h59z" />
    <glyph glyph-name="increment" unicode="&#x2206;" horiz-adv-x="633" 
d="M377 700l268 -700h-657l271 700h118zM187 121h253l-125 346h-2z" />
    <glyph glyph-name="uni2208" unicode="&#x2208;" 
d="M501 116v-116h-130q-166 0 -249.5 69.5t-83.5 193.5t83.5 193.5t249.5 69.5h130v-116h-150q-131 0 -169 -89h319v-116h-319q38 -89 169 -89h150z" />
    <glyph glyph-name="uni2209" unicode="&#x2209;" 
d="M260 -125l-95 25l36 125q-163 58 -163 238q0 119 76.5 187.5t229.5 74.5l36 126l96 -25l-29 -100h54v-116h-87l-26 -89h113v-116h-146l-26 -89h22h150v-116h-130q-46 0 -74 4zM285 321l25 86q-97 -13 -128 -86h103zM235 143l17 62h-70q17 -40 53 -62z" />
    <glyph glyph-name="product" unicode="&#x220f;" 
d="M555 577v-116h-87v-461h-140v461h-106v-461h-139v461h-88v116h560z" />
    <glyph glyph-name="summation" unicode="&#x2211;" 
d="M237 579l182 -214l-190 -244h315v-121h-537v73l235 288l-225 265v74h503v-121h-283z" />
    <glyph glyph-name="minus" unicode="&#x2212;" 
d="M32 251v120h485v-120h-485z" />
    <glyph glyph-name="uni2215" unicode="&#x2215;" horiz-adv-x="405" 
d="M290 768l115 -45l-290 -783l-115 46z" />
    <glyph glyph-name="uni2219" unicode="&#x2219;" 
d="M351 388v-149h-153v149h153z" />
    <glyph glyph-name="radical" unicode="&#x221a;" 
d="M422 750h147l-242 -750h-131l-120 410h-80v116h197l74 -295h2z" />
    <glyph glyph-name="infinity" unicode="&#x221e;" horiz-adv-x="778" 
d="M395 324q53 57 93 82.5t84 25.5q73 0 123 -53t50 -127t-50 -127q-49 -52 -123 -52q-88 0 -189 108q-53 -57 -93 -82.5t-84 -25.5q-74 0 -123 52q-50 53 -50 129q0 73 50 126q49 52 123 52q88 0 189 -108zM471 253q61 -63 87 -63q21 0 36 19t15 44t-15 44t-36 19
q-26 0 -87 -63zM307 254q-60 62 -87 62q-21 0 -36 -18.5t-15 -43.5t15 -44.5t36 -19.5q27 0 87 64z" />
    <glyph glyph-name="uni2229" unicode="&#x2229;" 
d="M500 244v-244h-116v279q0 71 -29.5 107t-79.5 36t-79.5 -36t-29.5 -107v-279h-116v244q0 147 59 220.5t167 73.5q107 0 165.5 -73.5t58.5 -220.5z" />
    <glyph glyph-name="uni222A" unicode="&#x222a;" 
d="M50 282v244h116v-279q0 -71 29.5 -107t79.5 -36t79.5 36t29.5 107v279h116v-244q0 -147 -59 -220.5t-167 -73.5q-107 0 -165.5 73.5t-58.5 220.5z" />
    <glyph glyph-name="integral" unicode="&#x222b;" 
d="M38 -190l37 110q34 -22 63 -22q21 0 32 14q12 17 14 73l23 584q4 104 51 151q42 42 120 42q67 0 133 -31l-37 -110q-33 21 -68 21q-30 0 -42 -13q-14 -16 -17 -73l-25 -584q-5 -107 -54 -155q-40 -38 -114 -38q-50 0 -116 31z" />
    <glyph glyph-name="uni2234" unicode="&#x2234;" 
d="M204 149v-149h-153v149h153zM352 400v-149h-153v149h153zM500 149v-149h-153v149h153z" />
    <glyph glyph-name="approxequal" unicode="&#x2248;" 
d="M110 131l-81 63q21 49 61.5 77.5t91.5 28.5q40 0 98 -27q60 -27 85 -27q47 0 75 49l81 -63q-21 -50 -61 -78t-92 -28q-39 0 -99 27q-59 27 -84 27q-47 0 -75 -49zM110 331l-81 63q21 50 61 78t92 28q40 0 98 -27q60 -27 85 -27q47 0 75 48l81 -62q-21 -50 -61 -78
t-92 -28q-39 0 -99 27q-59 27 -84 27q-47 0 -75 -49z" />
    <glyph glyph-name="notequal" unicode="&#x2260;" 
d="M32 351v113h277l90 134l85 -59l-51 -75h84v-113h-160l-54 -80h214v-113h-291l-88 -130l-85 58l48 72h-69v113h145l55 80h-200z" />
    <glyph glyph-name="lessequal" unicode="&#x2264;" 
d="M12 349v98l525 209v-118l-351 -140l351 -140v-119zM12 0v113h525v-113h-525z" />
    <glyph glyph-name="greaterequal" unicode="&#x2265;" 
d="M12 538v118l525 -209v-98l-525 -210v119l351 140zM12 0v113h525v-113h-525z" />
    <glyph glyph-name="uni2282" unicode="&#x2282;" 
d="M501 116v-116h-130q-166 0 -249.5 69.5t-83.5 193.5t83.5 193.5t249.5 69.5h130v-116h-150q-88 0 -134 -40.5t-46 -106.5t46 -106.5t134 -40.5h150z" />
    <glyph glyph-name="uni2283" unicode="&#x2283;" 
d="M179 0h-130v116h150q88 0 134 40.5t46 106.5t-46 106.5t-134 40.5h-150v116h130q166 0 249.5 -69.5t83.5 -193.5t-83.5 -193.5t-249.5 -69.5z" />
    <glyph glyph-name="uni2284" unicode="&#x2284;" 
d="M260 -125l-95 25l36 125q-163 58 -163 238q0 119 76.5 187.5t229.5 74.5l36 126l96 -25l-29 -100h54v-116h-87l-85 -294h22h150v-116h-130q-46 0 -74 4zM235 143l75 264q-68 -9 -103.5 -47.5t-35.5 -96.5q0 -83 64 -120z" />
    <glyph glyph-name="uni2285" unicode="&#x2285;" 
d="M290 651l95 -25l-36 -126q163 -58 163 -237q0 -119 -77 -188t-229 -75l-36 -125l-96 25l29 100h-54v116h87l84 293q-5 1 -21 1h-150v116h130q33 0 74 -4zM315 382l-75 -264q68 9 103.5 48t35.5 97q0 79 -64 119z" />
    <glyph glyph-name="uni2286" unicode="&#x2286;" 
d="M501 307v-116h-130q-166 0 -249.5 69.5t-83.5 193.5t83.5 193.5t249.5 69.5h130v-116h-150q-88 0 -134 -40.5t-46 -106.5t46 -106.5t134 -40.5h150zM501 0h-443v116h443v-116z" />
    <glyph glyph-name="uni2287" unicode="&#x2287;" 
d="M179 191h-130v116h150q88 0 134 40.5t46 106.5t-46 106.5t-134 40.5h-150v116h130q166 0 249.5 -69.5t83.5 -193.5t-83.5 -193.5t-249.5 -69.5zM49 116h443v-116h-443v116z" />
    <glyph glyph-name="uni22C4" unicode="&#x22c4;" 
d="M485 250l-210 -325l-210 325l210 325zM275 385l-86 -135l86 -135l86 135z" />
    <glyph glyph-name="triangle" unicode="&#x25b3;" horiz-adv-x="398" 
d="M60 459l308 -173l-308 -175v348z" />
    <glyph glyph-name="lozenge" unicode="&#x25ca;" 
d="M217 0l-196 350l196 350h116l196 -350l-196 -350h-116zM274 558l-114 -208l114 -208l116 208z" />
    <glyph glyph-name="circle" unicode="&#x25cb;" horiz-adv-x="366" 
d="M78 184q-43 43 -43 105q0 61 43 104q44 44 105 44q60 0 104 -44t44 -104q0 -61 -44 -105q-43 -43 -104 -43q-62 0 -105 43z" />
    <glyph glyph-name="uni25FB" unicode="&#x25fb;" 
d="M88 27v374h374v-374h-374zM353 292h-156v-156h156v156z" />
    <glyph glyph-name="commainferior" unicode="&#xf6e1;" horiz-adv-x="164" 
d="M40 -83h96l-44 -167h-86z" />
    <glyph glyph-name="commasuperior" unicode="&#xf6e2;" horiz-adv-x="164" 
d="M40 462h96l-44 -167h-86z" />
    <glyph glyph-name="hypheninferior" unicode="&#xf6e5;" horiz-adv-x="277" 
d="M220 32v-74h-163v74h163z" />
    <glyph glyph-name="hyphensuperior" unicode="&#xf6e6;" horiz-adv-x="277" 
d="M220 577v-74h-163v74h163z" />
    <glyph glyph-name="periodinferior" unicode="&#xf6e7;" horiz-adv-x="153" 
d="M125 -84v-94h-97v94h97z" />
    <glyph glyph-name="periodsuperior" unicode="&#xf6e8;" horiz-adv-x="153" 
d="M125 461v-94h-97v94h97z" />
    <glyph glyph-name="s_t" unicode="&#xfb06;" horiz-adv-x="859" 
d="M433 469l-78 -86q-50 44 -104 44q-21 0 -36 -11t-15 -29q0 -21 19 -35t64 -33q36 -15 43 -19q14 -6 39 -21q26 -16 38 -30q34 -40 34 -92q0 -83 -60 -126q-58 -43 -142 -43q-122 0 -212 90l81 84q34 -34 61.5 -48t62.5 -14q26 0 46.5 12.5t20.5 33.5q0 11 -5 20
t-16.5 16.5t-21 12.5t-28.5 13.5t-29 13.5q-67 29 -99.5 63t-32.5 92q0 76 55 118q55 43 133 43q109 0 182 -69zM832 526v-118h-134v-204q0 -25 2 -45q6 -50 46 -50q27 0 57 15l44 -105q-52 -31 -125 -31q-59 0 -100 30t-56 83q-10 31 -10 88v219h-63v118h63l22 116h120
v-116h134z" />
    <glyph glyph-name="CR" horiz-adv-x="333" 
 />
    <glyph glyph-name="M.salt" horiz-adv-x="847" 
d="M629 469l-161 -327h-91l-159 323v-465h-140v700h172l173 -359h2l173 359h171v-700h-140v469z" />
    <glyph glyph-name="trademark.salt" horiz-adv-x="881" 
d="M413 274v426h118l95 -199l96 199h117v-426h-101v245l-80 -163h-65l-79 160v-242h-101zM363 700v-85h-97v-341h-103v341h-97v85h297z" />
    <glyph glyph-name="hyphen.case" horiz-adv-x="447" 
d="M365 404v-118h-283v118h283z" />
    <glyph glyph-name="zero.lf" horiz-adv-x="562" 
d="M98 585q64 91 183 91t183 -91q65 -92 65 -253t-65 -253q-64 -91 -183 -91t-183 91q-65 92 -65 253t65 253zM385 332q0 223 -104 223t-104 -223t104 -223t104 223z" />
    <glyph glyph-name="one.lf" horiz-adv-x="359" 
d="M281 664v-664h-142v501q-62 -28 -94 -41v128q103 53 143 76h93z" />
    <glyph glyph-name="two.lf" horiz-adv-x="524" 
d="M244 119h256v-119h-446v105q144 150 226 268q48 71 48 117q0 30 -20.5 49t-52.5 19q-35 0 -55.5 -25.5t-20.5 -68.5l-141 23q7 84 70 136q64 53 149 53q87 0 151 -50q64 -49 64 -134q0 -88 -68 -185q-43 -62 -160 -188z" />
    <glyph glyph-name="three.lf" horiz-adv-x="536" 
d="M176 279v116q48 0 78 8q69 18 69 79q0 33 -23 53.5t-61 20.5q-31 0 -52.5 -17.5t-27.5 -49.5l-120 52q20 63 75 99t126 36q93 0 158 -49q67 -49 67 -129q0 -43 -22.5 -82t-59.5 -60q51 -19 81.5 -64t30.5 -100q0 -94 -69 -149q-68 -55 -171 -55q-74 0 -136 37.5
t-91 103.5l119 55q31 -76 109 -76q41 0 68 22.5t27 60.5q0 44 -33 68.5t-89 24.5q-26 0 -53 -5z" />
    <glyph glyph-name="four.lf" horiz-adv-x="553" 
d="M443 163v-163h-140v163h-281v119l279 382h142v-384h93v-117h-93zM172 280h131v201l-61 -95q-53 -84 -70 -106z" />
    <glyph glyph-name="five.lf" horiz-adv-x="516" 
d="M94 664h364v-119h-230q-3 -79 -10 -137q35 16 77 16q83 0 138 -61q55 -59 55 -143q0 -100 -68 -166t-167 -66q-75 0 -134 34.5t-91 97.5l119 60q27 -72 103 -72q41 0 67.5 29.5t26.5 71.5q0 43 -26 70t-69 27q-50 0 -85 -41l-92 65q16 145 22 334z" />
    <glyph glyph-name="six.lf" horiz-adv-x="555" 
d="M385 708l50 -111q-185 -79 -235 -204q47 40 112 40q90 0 150 -62q60 -61 60 -151q0 -97 -65 -165q-64 -67 -166 -67q-117 0 -188 80q-70 79 -70 194q0 153 98 268q98 114 254 178zM175 259q-6 -62 23 -109q28 -45 86 -45q42 0 69 30.5t27 75.5q0 48 -28.5 76.5
t-72.5 28.5q-31 0 -60 -15.5t-44 -41.5z" />
    <glyph glyph-name="seven.lf" horiz-adv-x="477" 
d="M10 664h451v-89q-157 -329 -273 -606l-127 57l85 192l95 198l62 129h-293v119z" />
    <glyph glyph-name="eight.lf" horiz-adv-x="564" 
d="M421 349q50 -30 74 -68t24 -94q0 -85 -67 -142q-66 -57 -170 -57t-171 57q-66 57 -66 142q0 56 24 94t74 68q-78 49 -78 143q0 84 63 133q64 51 154 51t153 -51q64 -49 64 -133q0 -94 -78 -143zM215 131q27 -26 67 -26t67 26q27 27 27 65t-27 64q-27 27 -67 27t-67 -27
q-27 -26 -27 -64t27 -65zM225 425q22 -22 57 -22t57 22q22 23 22 57t-22 55q-22 22 -57 22t-57 -22q-22 -21 -22 -55t22 -57z" />
    <glyph glyph-name="nine.lf" horiz-adv-x="555" 
d="M170 -44l-50 111q185 79 235 204q-47 -40 -112 -40q-90 0 -150 62q-60 61 -60 151q0 98 64 165t167 67q116 0 187 -80t71 -194q0 -154 -99 -269q-97 -113 -253 -177zM380 405q6 62 -23 108q-28 46 -86 46q-42 0 -69 -30.5t-27 -75.5q0 -48 28.5 -76.5t72.5 -28.5
q31 0 60 15.5t44 41.5z" />
    <glyph glyph-name="dollar.lf" 
d="M9 101l90 87q85 -82 158 -82q56 0 86.5 22t30.5 64q0 33 -36 60q-15 11 -54 26q-9 4 -33 12l-32 12q-66 24 -112 60q-52 44 -52 122q0 83 51 133t137 57v96h83v-98q89 -14 173 -74l-79 -97q-74 59 -144 59q-35 0 -59.5 -19t-24.5 -51q0 -22 35 -47q18 -12 53 -23
q44 -14 65 -23q76 -29 117 -65q57 -48 57 -131q0 -84 -55 -138t-145 -69v-100h-82v96q-121 8 -228 111z" />
    <glyph glyph-name="Euro.lf" horiz-adv-x="650" 
d="M80 362h-66v95h85q26 71 81 122q103 97 242 97q108 0 211 -64l-61 -103q-67 53 -145 53q-125 0 -181 -105h236v-95h-265q-2 -14 -2 -30q0 -19 2 -33h265v-93h-239q27 -52 76 -78t108 -26q85 0 147 56l73 -94q-100 -76 -229 -76q-102 0 -193 55q-89 55 -127 163h-84v93h66
q-2 30 -2 33q0 4 2 30z" />
    <glyph glyph-name="cent.lf" 
d="M435 189l76 -97q-59 -52 -143 -62v-90h-84v89q-101 13 -165 88q-63 73 -63 185q0 104 63 181q63 76 165 91v91h84v-91q81 -11 143 -61l-72 -100q-47 43 -102 43q-59 0 -98 -45t-39 -109q0 -66 39 -109q39 -44 95 -44q61 0 101 40z" />
    <glyph glyph-name="sterling.lf" 
d="M508 121v-121h-436v121h54v177h-54v120h54v29q0 100 61 164q62 65 156 65q90 0 171 -48l-55 -108q-45 36 -100 36q-44 0 -69 -31.5t-25 -88.5v-18h128v-120h-128v-177h243z" />
    <glyph glyph-name="yen.lf" 
d="M203 257h-162v94h127l-176 314h160l126 -229h2l118 229h159l-179 -314h126v-94h-162v-56h162v-93h-162v-108h-139v108h-162v93h162v56z" />
    <glyph glyph-name="florin.lf" 
d="M314 417h112v-119h-126l-36 -324q-10 -83 -56.5 -128.5t-119.5 -45.5q-42 0 -95 14l28 114q24 -9 51 -9q30 4 40.5 21t13.5 56l34 302h-73v119h86l10 86q10 83 57.5 128t123.5 45q74 0 151 -36l-46 -111q-46 29 -90 29q-29 0 -41.5 -18t-16.5 -59z" />
    <glyph glyph-name="afii61352.lf" horiz-adv-x="1143" 
d="M671 700v-700h-129l-321 438v-438h-143v700h126l324 -439v439h143zM804 677q52 51 132 51t131 -51q52 -51 52 -127t-52 -127q-51 -51 -131 -51t-132 51q-51 51 -51 127t51 127zM992 620q-21 27 -56 27t-56 -27t-21 -70t21 -70t56 -27t56 27t21 70t-21 70z" />
    <glyph glyph-name="percent.lf" horiz-adv-x="856" 
d="M401 535q0 -73 -52 -122q-51 -48 -124 -48t-125 48q-52 49 -52 122q0 74 52 122q52 49 125 49q74 0 124 -49q52 -48 52 -122zM225 606q-29 0 -47 -20t-18 -51t18 -50.5t47 -19.5q28 0 46 19.5t18 50.5t-18 51t-46 20zM808 165q0 -74 -52 -123q-51 -48 -124 -48
q-72 0 -125 48q-52 49 -52 123q0 73 52 121q52 49 125 49q74 0 124 -49q52 -48 52 -121zM632 235q-29 0 -47 -19.5t-18 -50.5t18 -51t47 -20q28 0 46 20t18 51t-18 50.5t-46 19.5zM144 35l498 683l71 -53l-498 -683z" />
    <glyph glyph-name="perthousand.lf" horiz-adv-x="1248" 
d="M1200 165q0 -74 -52 -123q-52 -48 -125 -48t-125 48q-51 50 -51 123t51 121q52 49 125 49t125 -49q52 -48 52 -121zM1024 235q-29 0 -47 -19.5t-18 -50.5t18 -51t47 -20q27 0 45.5 20t18.5 51q0 30 -18.5 50t-45.5 20zM401 535q0 -73 -52 -122q-51 -48 -124 -48t-125 48
q-52 49 -52 122q0 74 52 122q52 49 125 49q74 0 124 -49q52 -48 52 -122zM225 606q-29 0 -47 -20t-18 -51t18 -50.5t47 -19.5q28 0 46 19.5t18 50.5t-18 51t-46 20zM808 165q0 -74 -52 -123q-51 -48 -124 -48q-72 0 -125 48q-52 49 -52 123q0 73 52 121q52 49 125 49
q74 0 124 -49q52 -48 52 -121zM632 235q-29 0 -47 -19.5t-18 -50.5t18 -51t47 -20q28 0 46 20t18 51t-18 50.5t-46 19.5zM144 35l498 683l71 -53l-498 -683z" />
    <glyph glyph-name="zero.osf" horiz-adv-x="635" 
d="M317 538q118 0 201 -79q84 -79 84 -196q0 -118 -84 -197q-84 -78 -201 -78q-116 0 -200 78q-84 79 -84 197t84 196q83 79 200 79zM317 418q-59 0 -100 -44q-40 -43 -40 -111q0 -69 40 -112t100 -43q61 0 101 43t40 112q0 68 -40 111q-41 44 -101 44z" />
    <glyph glyph-name="one.osf" horiz-adv-x="359" 
d="M281 529v-529h-142v367q-7 -4 -94 -41v128q65 32 143 75h93z" />
    <glyph glyph-name="two.osf" horiz-adv-x="521" 
d="M181 332l-141 19q1 85 61 136t147 51q90 0 148 -46q60 -47 60 -128q0 -76 -92 -159q-48 -42 -121 -86h251v-119h-438v121q132 87 194 141t62 101q0 27 -17.5 41.5t-47.5 14.5q-31 0 -50.5 -23.5t-15.5 -63.5z" />
    <glyph glyph-name="three.osf" horiz-adv-x="536" 
d="M176 141v116q48 0 78 8q69 18 69 79q0 33 -23 53.5t-61 20.5q-31 0 -52.5 -17.5t-27.5 -49.5l-120 52q20 63 75 99t126 36q93 0 158 -49q67 -49 67 -129q0 -43 -22.5 -82t-59.5 -60q51 -19 81.5 -64t30.5 -100q0 -94 -69 -149q-68 -55 -171 -55q-74 0 -136 37.5
t-91 103.5l119 55q31 -76 109 -76q41 0 68 22.5t27 60.5q0 44 -33 68.5t-89 24.5q-26 0 -53 -5z" />
    <glyph glyph-name="four.osf" horiz-adv-x="567" 
d="M551 117v-117h-82v-153h-140v153h-309v120l321 406h128v-409h82zM329 322l-157 -205h157v205z" />
    <glyph glyph-name="five.osf" horiz-adv-x="516" 
d="M94 526h364v-119h-230q-3 -79 -10 -137q35 16 77 16q83 0 138 -61q55 -59 55 -143q0 -100 -68 -166t-167 -66q-75 0 -134 34.5t-91 97.5l119 60q27 -72 103 -72q41 0 67.5 29.5t26.5 71.5q0 43 -26 70t-69 27q-50 0 -85 -41l-92 65q16 145 22 334z" />
    <glyph glyph-name="six.osf" horiz-adv-x="555" 
d="M385 708l50 -111q-185 -79 -235 -204q47 40 112 40q90 0 150 -62q60 -61 60 -151q0 -97 -65 -165q-64 -67 -166 -67q-117 0 -188 80q-70 79 -70 194q0 153 98 268q98 114 254 178zM175 259q-6 -62 23 -109q28 -45 86 -45q42 0 69 30.5t27 75.5q0 48 -28.5 76.5
t-72.5 28.5q-31 0 -60 -15.5t-44 -41.5z" />
    <glyph glyph-name="seven.osf" horiz-adv-x="477" 
d="M10 526h451v-89q-157 -329 -273 -606l-127 57l85 192l95 198l62 129h-293v119z" />
    <glyph glyph-name="eight.osf" horiz-adv-x="564" 
d="M421 349q50 -30 74 -68t24 -94q0 -85 -67 -142q-66 -57 -170 -57t-171 57q-66 57 -66 142q0 56 24 94t74 68q-78 49 -78 143q0 84 63 133q64 51 154 51t153 -51q64 -49 64 -133q0 -94 -78 -143zM215 131q27 -26 67 -26t67 26q27 27 27 65t-27 64q-27 27 -67 27t-67 -27
q-27 -26 -27 -64t27 -65zM225 425q22 -22 57 -22t57 22q22 23 22 57t-22 55q-22 22 -57 22t-57 -22q-22 -21 -22 -55t22 -57z" />
    <glyph glyph-name="nine.osf" horiz-adv-x="555" 
d="M170 -182l-50 111q185 79 235 204q-47 -40 -112 -40q-90 0 -150 62q-60 61 -60 151q0 98 64 165t167 67q116 0 187 -80t71 -194q0 -154 -99 -268q-96 -114 -253 -178zM380 267q6 62 -23 108q-28 46 -86 46q-42 0 -69 -30.5t-27 -75.5q0 -48 28.5 -76.5t72.5 -28.5
q31 0 60 15.5t44 41.5z" />
    <glyph glyph-name="dollar.osf" 
d="M9 101l90 87q85 -82 158 -82q56 0 86.5 22t30.5 64q0 33 -36 60q-15 11 -54 26q-9 4 -33 12l-32 12q-66 24 -112 60q-52 44 -52 122q0 83 51 133t137 57v96h83v-98q89 -14 173 -74l-79 -97q-74 59 -144 59q-35 0 -59.5 -19t-24.5 -51q0 -22 35 -47q18 -12 53 -23
q44 -14 65 -23q76 -29 117 -65q57 -48 57 -131q0 -84 -55 -138t-145 -69v-100h-82v96q-121 8 -228 111z" />
    <glyph glyph-name="Euro.osf" horiz-adv-x="650" 
d="M80 362h-66v95h85q26 71 81 122q103 97 242 97q108 0 211 -64l-61 -103q-67 53 -145 53q-125 0 -181 -105h236v-95h-265q-2 -14 -2 -30q0 -19 2 -33h265v-93h-239q27 -52 76 -78t108 -26q85 0 147 56l73 -94q-100 -76 -229 -76q-102 0 -193 55q-89 55 -127 163h-84v93h66
q-2 30 -2 33q0 4 2 30z" />
    <glyph glyph-name="cent.osf" 
d="M435 189l76 -97q-59 -52 -143 -62v-90h-84v89q-101 13 -165 88q-63 73 -63 185q0 104 63 181q63 76 165 91v91h84v-91q81 -11 143 -61l-72 -100q-47 43 -102 43q-59 0 -98 -45t-39 -109q0 -66 39 -109q39 -44 95 -44q61 0 101 40z" />
    <glyph glyph-name="sterling.osf" 
d="M508 121v-121h-436v121h54v177h-54v120h54v29q0 100 61 164q62 65 156 65q90 0 171 -48l-55 -108q-45 36 -100 36q-44 0 -69 -31.5t-25 -88.5v-18h128v-120h-128v-177h243z" />
    <glyph glyph-name="yen.osf" 
d="M203 257h-162v94h127l-176 314h160l126 -229h2l118 229h159l-179 -314h126v-94h-162v-56h162v-93h-162v-108h-139v108h-162v93h162v56z" />
    <glyph glyph-name="florin.osf" 
d="M314 417h112v-119h-126l-36 -324q-10 -83 -56.5 -128.5t-119.5 -45.5q-42 0 -95 14l28 114q24 -9 51 -9q30 4 40.5 21t13.5 56l34 302h-73v119h86l10 86q10 83 57.5 128t123.5 45q74 0 151 -36l-46 -111q-46 29 -90 29q-29 0 -41.5 -18t-16.5 -59z" />
    <glyph glyph-name="afii61352.osf" horiz-adv-x="1143" 
d="M671 700v-700h-129l-321 438v-438h-143v700h126l324 -439v439h143zM804 677q52 51 132 51t131 -51q52 -51 52 -127t-52 -127q-51 -51 -131 -51t-132 51q-51 51 -51 127t51 127zM992 620q-21 27 -56 27t-56 -27t-21 -70t21 -70t56 -27t56 27t21 70t-21 70z" />
    <glyph glyph-name="percent.osf" horiz-adv-x="856" 
d="M401 535q0 -73 -52 -122q-51 -48 -124 -48t-125 48q-52 49 -52 122q0 74 52 122q52 49 125 49q74 0 124 -49q52 -48 52 -122zM225 606q-29 0 -47 -20t-18 -51t18 -50.5t47 -19.5q28 0 46 19.5t18 50.5t-18 51t-46 20zM808 165q0 -74 -52 -123q-51 -48 -124 -48
q-72 0 -125 48q-52 49 -52 123q0 73 52 121q52 49 125 49q74 0 124 -49q52 -48 52 -121zM632 235q-29 0 -47 -19.5t-18 -50.5t18 -51t47 -20q28 0 46 20t18 51t-18 50.5t-46 19.5zM144 35l498 683l71 -53l-498 -683z" />
    <glyph glyph-name="perthousand.osf" horiz-adv-x="1248" 
d="M1200 165q0 -74 -52 -123q-52 -48 -125 -48t-125 48q-51 50 -51 123t51 121q52 49 125 49t125 -49q52 -48 52 -121zM1024 235q-29 0 -47 -19.5t-18 -50.5t18 -51t47 -20q27 0 45.5 20t18.5 51q0 30 -18.5 50t-45.5 20zM401 535q0 -73 -52 -122q-51 -48 -124 -48t-125 48
q-52 49 -52 122q0 74 52 122q52 49 125 49q74 0 124 -49q52 -48 52 -122zM225 606q-29 0 -47 -20t-18 -51t18 -50.5t47 -19.5q28 0 46 19.5t18 50.5t-18 51t-46 20zM808 165q0 -74 -52 -123q-51 -48 -124 -48q-72 0 -125 48q-52 49 -52 123q0 73 52 121q52 49 125 49
q74 0 124 -49q52 -48 52 -121zM632 235q-29 0 -47 -19.5t-18 -50.5t18 -51t47 -20q28 0 46 20t18 51t-18 50.5t-46 19.5zM144 35l498 683l71 -53l-498 -683z" />
    <glyph glyph-name="zero.slash" 
d="M92 585q64 91 183 91t183 -91q65 -92 65 -253t-65 -253q-64 -91 -183 -91t-183 91q-65 92 -65 253t65 253zM275 109q90 0 102 173h-205q12 -173 103 -173zM173 385h204q-12 170 -102 170t-102 -170z" />
    <glyph glyph-name="zero.tf" 
d="M92 585q64 91 183 91t183 -91q65 -92 65 -253t-65 -253q-64 -91 -183 -91t-183 91q-65 92 -65 253t65 253zM379 332q0 223 -104 223t-104 -223t104 -223t104 223z" />
    <glyph glyph-name="one.tf" 
d="M97 0v119h145v396l-163 -74v126l210 108h95v-556h142v-119h-429z" />
    <glyph glyph-name="two.tf" 
d="M246 119h256v-119h-446v105q144 150 226 268q48 71 48 117q0 30 -20.5 49t-52.5 19q-35 0 -55.5 -25.5t-20.5 -68.5l-141 23q7 84 70 136q64 53 149 53q87 0 151 -50q64 -49 64 -134q0 -88 -68 -185q-43 -62 -160 -188z" />
    <glyph glyph-name="three.tf" 
d="M170 279v116q48 0 78 8q69 18 69 79q0 33 -23 53.5t-61 20.5q-31 0 -52.5 -17.5t-27.5 -49.5l-120 52q20 63 75 99t126 36q93 0 158 -49q67 -49 67 -129q0 -43 -22.5 -82t-59.5 -60q51 -19 81.5 -64t30.5 -100q0 -94 -69 -149q-68 -55 -171 -55q-74 0 -136 37.5
t-91 103.5l119 55q31 -76 109 -76q41 0 68 22.5t27 60.5q0 44 -33 68.5t-89 24.5q-26 0 -53 -5z" />
    <glyph glyph-name="four.tf" 
d="M434 163v-163h-140v163h-281v119l279 382h142v-384h93v-117h-93zM163 280h131v201l-61 -95q-53 -84 -70 -106z" />
    <glyph glyph-name="five.tf" 
d="M101 664h364v-119h-230q-3 -79 -10 -137q35 16 77 16q83 0 138 -61q55 -59 55 -143q0 -100 -68 -166q-67 -66 -167 -66q-75 0 -134 34.5t-91 97.5l119 60q27 -72 103 -72q41 0 67.5 29.5t26.5 71.5q0 43 -26 70t-69 27q-50 0 -85 -41l-92 65q16 145 22 334z" />
    <glyph glyph-name="six.tf" 
d="M382 708l50 -111q-185 -79 -235 -204q47 40 112 40q90 0 150 -62q60 -61 60 -151q0 -97 -65 -165q-64 -67 -166 -67q-117 0 -188 80q-70 79 -70 194q0 153 98 268q98 114 254 178zM172 259q-6 -62 23 -109q29 -45 86 -45q42 0 69 30.5t27 75.5q0 48 -28.5 76.5
t-72.5 28.5q-31 0 -60 -15.5t-44 -41.5z" />
    <glyph glyph-name="seven.tf" 
d="M50 664h451v-89q-157 -329 -273 -606l-127 57l85 192l95 198l62 129h-293v119z" />
    <glyph glyph-name="eight.tf" 
d="M414 349q50 -30 74 -68t24 -94q0 -85 -67 -142q-66 -57 -170 -57q-103 0 -171 57q-66 57 -66 142q0 56 24 94t74 68q-78 49 -78 143q0 84 63 133q65 51 154 51q90 0 153 -51q64 -49 64 -133q0 -94 -78 -143zM208 131q27 -26 67 -26t67 26q27 27 27 65t-27 64
q-27 27 -67 27t-67 -27q-27 -26 -27 -64t27 -65zM218 425q22 -22 57 -22t57 22q22 23 22 57t-22 55q-22 22 -57 22t-57 -22q-22 -21 -22 -55t22 -57z" />
    <glyph glyph-name="nine.tf" 
d="M168 -44l-50 111q185 79 235 204q-47 -40 -112 -40q-90 0 -150 62q-60 61 -60 151q0 98 64 165t167 67q116 0 187 -80t71 -194q0 -154 -99 -269q-97 -113 -253 -177zM378 405q6 62 -23 108q-28 46 -86 46q-42 0 -69 -30.5t-27 -75.5q0 -48 28.5 -76.5t72.5 -28.5
q31 0 60 15.5t44 41.5z" />
    <glyph glyph-name="dollar.tf" 
d="M9 101l90 87q85 -82 158 -82q56 0 86.5 22t30.5 64q0 33 -36 60q-15 11 -54 26q-9 4 -33 12l-32 12q-66 24 -112 60q-52 44 -52 122q0 83 51 133t137 57v96h83v-98q89 -14 173 -74l-79 -97q-74 59 -144 59q-35 0 -59.5 -19t-24.5 -51q0 -22 35 -47q18 -12 53 -23
q44 -14 65 -23q76 -29 117 -65q57 -48 57 -131q0 -84 -55 -138t-145 -69v-100h-82v96q-121 8 -228 111z" />
    <glyph glyph-name="Euro.tf" 
d="M79 362h-63v95h75q45 220 235 220q75 0 131 -40t77 -111l-111 -39q-12 32 -37.5 51t-56.5 19q-73 0 -95 -100h133v-95h-144v-31v-32h144v-93h-134q22 -97 96 -97q36 0 64.5 27t39.5 71l113 -37q-54 -182 -220 -182q-94 0 -153.5 56.5t-81.5 161.5h-75v93h63v32v31z" />
    <glyph glyph-name="cent.tf" 
d="M435 189l76 -97q-59 -52 -143 -62v-90h-84v89q-101 13 -165 88q-63 73 -63 185q0 104 63 181q63 76 165 91v91h84v-91q81 -11 143 -61l-72 -100q-47 43 -102 43q-59 0 -98 -45t-39 -109q0 -66 39 -109q39 -44 95 -44q61 0 101 40z" />
    <glyph glyph-name="sterling.tf" 
d="M508 121v-121h-436v121h54v177h-54v120h54v29q0 100 61 164q62 65 156 65q90 0 171 -48l-55 -108q-45 36 -100 36q-44 0 -69 -31.5t-25 -88.5v-18h128v-120h-128v-177h243z" />
    <glyph glyph-name="yen.tf" 
d="M203 257h-162v94h127l-176 314h160l126 -229h2l118 229h159l-179 -314h126v-94h-162v-56h162v-93h-162v-108h-139v108h-162v93h162v56z" />
    <glyph glyph-name="florin.tf" 
d="M314 417h112v-119h-126l-36 -324q-10 -83 -56.5 -128.5t-119.5 -45.5q-42 0 -95 14l28 114q24 -9 51 -9q30 4 40.5 21t13.5 56l34 302h-73v119h86l10 86q10 83 57.5 128t123.5 45q74 0 151 -36l-46 -111q-46 29 -90 29q-29 0 -41.5 -18t-16.5 -59z" />
    <glyph glyph-name="afii61352.tf" horiz-adv-x="1143" 
d="M671 700v-700h-129l-321 438v-438h-143v700h126l324 -439v439h143zM804 677q52 51 132 51t131 -51q52 -51 52 -127t-52 -127q-51 -51 -131 -51t-132 51q-51 51 -51 127t51 127zM992 620q-21 27 -56 27t-56 -27t-21 -70t21 -70t56 -27t56 27t21 70t-21 70z" />
    <glyph glyph-name="percent.tf" horiz-adv-x="856" 
d="M401 535q0 -73 -52 -122q-51 -48 -124 -48t-125 48q-52 49 -52 122q0 74 52 122q52 49 125 49q74 0 124 -49q52 -48 52 -122zM225 606q-29 0 -47 -20t-18 -51t18 -50.5t47 -19.5q28 0 46 19.5t18 50.5t-18 51t-46 20zM808 165q0 -74 -52 -123q-51 -48 -124 -48
q-72 0 -125 48q-52 49 -52 123q0 73 52 121q52 49 125 49q74 0 124 -49q52 -48 52 -121zM632 235q-29 0 -47 -19.5t-18 -50.5t18 -51t47 -20q28 0 46 20t18 51t-18 50.5t-46 19.5zM144 35l498 683l71 -53l-498 -683z" />
    <glyph glyph-name="perthousand.tf" horiz-adv-x="1248" 
d="M1200 165q0 -74 -52 -123q-52 -48 -125 -48t-125 48q-51 50 -51 123t51 121q52 49 125 49t125 -49q52 -48 52 -121zM1024 235q-29 0 -47 -19.5t-18 -50.5t18 -51t47 -20q27 0 45.5 20t18.5 51q0 30 -18.5 50t-45.5 20zM401 535q0 -73 -52 -122q-51 -48 -124 -48t-125 48
q-52 49 -52 122q0 74 52 122q52 49 125 49q74 0 124 -49q52 -48 52 -122zM225 606q-29 0 -47 -20t-18 -51t18 -50.5t47 -19.5q28 0 46 19.5t18 50.5t-18 51t-46 20zM808 165q0 -74 -52 -123q-51 -48 -124 -48q-72 0 -125 48q-52 49 -52 123q0 73 52 121q52 49 125 49
q74 0 124 -49q52 -48 52 -121zM632 235q-29 0 -47 -19.5t-18 -50.5t18 -51t47 -20q28 0 46 20t18 51t-18 50.5t-46 19.5zM144 35l498 683l71 -53l-498 -683z" />
    <glyph glyph-name="zeroslash.tosf" 
d="M93 461q68 77 182 77t182 -77q67 -76 67 -198q0 -123 -67 -199t-182 -76t-182 76t-67 199q0 122 67 198zM275 108q83 0 101 105h-203q8 -50 34.5 -77.5t67.5 -27.5zM275 418q-41 0 -67 -27t-34 -76h202q-19 103 -101 103z" />
    <glyph glyph-name="zero.tosf" 
d="M93 461q68 77 182 77t182 -77q67 -76 67 -198q0 -123 -67 -199t-182 -76t-182 76t-67 199q0 122 67 198zM353 377q-27 41 -78 41q-50 0 -79 -41q-27 -41 -27 -114t27 -114q29 -41 79 -41q51 0 78 41q28 40 28 114t-28 114z" />
    <glyph glyph-name="one.tosf" 
d="M97 0v120h145v249q-65 -32 -163 -74v126q117 55 210 108h95v-409h142v-120h-429z" />
    <glyph glyph-name="two.tosf" 
d="M188 332l-141 19q1 85 61 136t147 51q90 0 148 -46q60 -47 60 -128q0 -76 -92 -159q-48 -42 -121 -86h251v-119h-438v121q132 87 194 141t62 101q0 27 -17.5 41.5t-47.5 14.5q-31 0 -50.5 -23.5t-15.5 -63.5z" />
    <glyph glyph-name="three.tosf" 
d="M170 141v116q48 0 78 8q69 18 69 79q0 33 -23 53.5t-61 20.5q-31 0 -52.5 -17.5t-27.5 -49.5l-120 52q20 63 75 99t126 36q93 0 158 -49q67 -49 67 -129q0 -43 -22.5 -82t-59.5 -60q51 -19 81.5 -64t30.5 -100q0 -94 -69 -149q-68 -55 -171 -55q-74 0 -136 37.5
t-91 103.5l119 55q31 -76 109 -76q41 0 68 22.5t27 60.5q0 44 -33 68.5t-89 24.5q-26 0 -53 -5z" />
    <glyph glyph-name="four.tosf" 
d="M542 117v-117h-82v-153h-140v153h-309v120l321 406h128v-409h82zM320 322l-157 -205h157v205z" />
    <glyph glyph-name="five.tosf" 
d="M101 526h364v-119h-230q-3 -79 -10 -137q35 16 77 16q83 0 138 -61q55 -59 55 -143q0 -100 -68 -166q-67 -66 -167 -66q-75 0 -134 34.5t-91 97.5l119 60q27 -72 103 -72q41 0 67.5 29.5t26.5 71.5q0 43 -26 70t-69 27q-50 0 -85 -41l-92 65q16 145 22 334z" />
    <glyph glyph-name="six.tosf" 
d="M382 708l50 -111q-185 -79 -235 -204q47 40 112 40q90 0 150 -62q60 -61 60 -151q0 -97 -65 -165q-64 -67 -166 -67q-117 0 -188 80q-70 79 -70 194q0 153 98 268q98 114 254 178zM172 259q-6 -62 23 -109q29 -45 86 -45q42 0 69 30.5t27 75.5q0 48 -28.5 76.5
t-72.5 28.5q-31 0 -60 -15.5t-44 -41.5z" />
    <glyph glyph-name="seven.tosf" 
d="M50 526h451v-89q-157 -329 -273 -606l-127 57l85 192l95 198l62 129h-293v119z" />
    <glyph glyph-name="eight.tosf" 
d="M414 349q50 -30 74 -68t24 -94q0 -85 -67 -142q-66 -57 -170 -57q-103 0 -171 57q-66 57 -66 142q0 56 24 94t74 68q-78 49 -78 143q0 84 63 133q65 51 154 51q90 0 153 -51q64 -49 64 -133q0 -94 -78 -143zM208 131q27 -26 67 -26t67 26q27 27 27 65t-27 64
q-27 27 -67 27t-67 -27q-27 -26 -27 -64t27 -65zM218 425q22 -22 57 -22t57 22q22 23 22 57t-22 55q-22 22 -57 22t-57 -22q-22 -21 -22 -55t22 -57z" />
    <glyph glyph-name="nine.tosf" 
d="M168 -182l-50 111q185 79 235 204q-47 -40 -112 -40q-90 0 -150 62q-60 61 -60 151q0 98 64 165t167 67q116 0 187 -80t71 -194q0 -154 -99 -268q-96 -114 -253 -178zM378 267q6 62 -23 108q-28 46 -86 46q-42 0 -69 -30.5t-27 -75.5q0 -48 28.5 -76.5t72.5 -28.5
q31 0 60 15.5t44 41.5z" />
    <glyph glyph-name="dollar.tosf" 
d="M9 101l90 87q85 -82 158 -82q56 0 86.5 22t30.5 64q0 33 -36 60q-15 11 -54 26q-9 4 -33 12l-32 12q-66 24 -112 60q-52 44 -52 122q0 83 51 133t137 57v96h83v-98q89 -14 173 -74l-79 -97q-74 59 -144 59q-35 0 -59.5 -19t-24.5 -51q0 -22 35 -47q18 -12 53 -23
q44 -14 65 -23q76 -29 117 -65q57 -48 57 -131q0 -84 -55 -138t-145 -69v-100h-82v96q-121 8 -228 111z" />
    <glyph glyph-name="Euro.tosf" 
d="M79 362h-63v95h75q45 220 235 220q75 0 131 -40t77 -111l-111 -39q-12 32 -37.5 51t-56.5 19q-73 0 -95 -100h133v-95h-144v-31v-32h144v-93h-134q22 -97 96 -97q36 0 64.5 27t39.5 71l113 -37q-54 -182 -220 -182q-94 0 -153.5 56.5t-81.5 161.5h-75v93h63v32v31z" />
    <glyph glyph-name="cent.tosf" 
d="M435 189l76 -97q-59 -52 -143 -62v-90h-84v89q-101 13 -165 88q-63 73 -63 185q0 104 63 181q63 76 165 91v91h84v-91q81 -11 143 -61l-72 -100q-47 43 -102 43q-59 0 -98 -45t-39 -109q0 -66 39 -109q39 -44 95 -44q61 0 101 40z" />
    <glyph glyph-name="sterling.tosf" 
d="M508 121v-121h-436v121h54v177h-54v120h54v29q0 100 61 164q62 65 156 65q90 0 171 -48l-55 -108q-45 36 -100 36q-44 0 -69 -31.5t-25 -88.5v-18h128v-120h-128v-177h243z" />
    <glyph glyph-name="yen.tosf" 
d="M203 257h-162v94h127l-176 314h160l126 -229h2l118 229h159l-179 -314h126v-94h-162v-56h162v-93h-162v-108h-139v108h-162v93h162v56z" />
    <glyph glyph-name="florin.tosf" 
d="M314 417h112v-119h-126l-36 -324q-10 -83 -56.5 -128.5t-119.5 -45.5q-42 0 -95 14l28 114q24 -9 51 -9q30 4 40.5 21t13.5 56l34 302h-73v119h86l10 86q10 83 57.5 128t123.5 45q74 0 151 -36l-46 -111q-46 29 -90 29q-29 0 -41.5 -18t-16.5 -59z" />
    <glyph glyph-name="afii61352.tosf" horiz-adv-x="1143" 
d="M671 700v-700h-129l-321 438v-438h-143v700h126l324 -439v439h143zM804 677q52 51 132 51t131 -51q52 -51 52 -127t-52 -127q-51 -51 -131 -51t-132 51q-51 51 -51 127t51 127zM992 620q-21 27 -56 27t-56 -27t-21 -70t21 -70t56 -27t56 27t21 70t-21 70z" />
    <glyph glyph-name="percent.tosf" horiz-adv-x="856" 
d="M401 535q0 -73 -52 -122q-51 -48 -124 -48t-125 48q-52 49 -52 122q0 74 52 122q52 49 125 49q74 0 124 -49q52 -48 52 -122zM225 606q-29 0 -47 -20t-18 -51t18 -50.5t47 -19.5q28 0 46 19.5t18 50.5t-18 51t-46 20zM808 165q0 -74 -52 -123q-51 -48 -124 -48
q-72 0 -125 48q-52 49 -52 123q0 73 52 121q52 49 125 49q74 0 124 -49q52 -48 52 -121zM632 235q-29 0 -47 -19.5t-18 -50.5t18 -51t47 -20q28 0 46 20t18 51t-18 50.5t-46 19.5zM144 35l498 683l71 -53l-498 -683z" />
    <glyph glyph-name="perthousand.tosf" horiz-adv-x="1248" 
d="M1200 165q0 -74 -52 -123q-52 -48 -125 -48t-125 48q-51 50 -51 123t51 121q52 49 125 49t125 -49q52 -48 52 -121zM1024 235q-29 0 -47 -19.5t-18 -50.5t18 -51t47 -20q27 0 45.5 20t18.5 51q0 30 -18.5 50t-45.5 20zM401 535q0 -73 -52 -122q-51 -48 -124 -48t-125 48
q-52 49 -52 122q0 74 52 122q52 49 125 49q74 0 124 -49q52 -48 52 -122zM225 606q-29 0 -47 -20t-18 -51t18 -50.5t47 -19.5q28 0 46 19.5t18 50.5t-18 51t-46 20zM808 165q0 -74 -52 -123q-51 -48 -124 -48q-72 0 -125 48q-52 49 -52 123q0 73 52 121q52 49 125 49
q74 0 124 -49q52 -48 52 -121zM632 235q-29 0 -47 -19.5t-18 -50.5t18 -51t47 -20q28 0 46 20t18 51t-18 50.5t-46 19.5zM144 35l498 683l71 -53l-498 -683z" />
    <glyph glyph-name="germandbls.cap" horiz-adv-x="1218" 
d="M550 629l-82 -102q-74 63 -145 63q-39 0 -65 -19t-26 -51q0 -28 29 -51q6 -4 43 -21q3 0 25 -8l23 -8q50 -17 77 -30q24 -11 67 -40q74 -53 74 -157q0 -72 -42 -123q-77 -94 -223 -94q-151 0 -268 117l95 93q51 -48 88 -68t86 -20q48 0 79.5 23t31.5 66q0 44 -42 67
q-19 12 -40 21q-14 6 -53 21q-44 17 -56 22q-22 10 -50 27q-42 25 -62.5 62t-24.5 97q0 94 67 145q68 51 162 51q122 0 232 -83zM1159 629l-82 -102q-74 63 -145 63q-39 0 -65 -19t-26 -51q0 -28 29 -51q6 -4 43 -21q3 0 25 -8l23 -8q50 -17 77 -30q24 -11 67 -40
q74 -53 74 -157q0 -72 -42 -123q-77 -94 -223 -94q-151 0 -268 117l95 93q51 -48 88 -68t86 -20q48 0 79.5 23t31.5 66q0 44 -42 67q-19 12 -40 21q-14 6 -53 21q-44 17 -56 22q-22 10 -50 27q-42 25 -62.5 62t-24.5 97q0 94 67 145t162 51q122 0 232 -83z" />
    <glyph glyph-name="idotaccent" horiz-adv-x="280" 
d="M211 526v-526h-142v526h142zM211 720v-121h-142v121h142z" />
    <glyph glyph-name="s_p" horiz-adv-x="1125" 
d="M433 469l-78 -86q-50 44 -104 44q-21 0 -36 -11t-15 -29q0 -21 19 -35t64 -33q36 -15 43 -19q14 -6 39 -21q26 -16 38 -30q34 -40 34 -92q0 -83 -60 -126q-58 -43 -142 -43q-122 0 -212 90l81 84q34 -34 61.5 -48t62.5 -14q26 0 46.5 12.5t20.5 33.5q0 11 -5 20
t-16.5 16.5t-21 12.5t-28.5 13.5t-29 13.5q-67 29 -99.5 63t-32.5 92q0 76 55 118q55 43 133 43q109 0 182 -69zM550 -250v776h123l11 -65q25 37 70 57t93 20q103 0 174 -81q71 -80 71 -196q0 -113 -71 -193t-175 -80q-98 0 -154 63v-301h-142zM692 346v-179q48 -57 122 -57
q64 0 98 46q35 47 35 109q0 63 -36 106q-36 45 -95 45q-82 0 -124 -70z" />
    <glyph glyph-name="c_t" horiz-adv-x="909" 
d="M882 526v-118h-134v-204q0 -25 2 -45q6 -50 46 -50q27 0 57 15l44 -105q-52 -31 -125 -31q-59 0 -100 30t-56 83q-10 31 -10 88v219h-63v118h63l22 116h120v-116h134zM413 150l76 -97q-74 -65 -189 -65q-117 0 -192 76t-75 199q0 116 76 195q77 80 195 80q105 0 185 -65
l-73 -99q-45 42 -102 42q-59 0 -98 -45q-38 -44 -38 -108q0 -66 38 -110q39 -43 96 -43q61 0 101 40z" />
    <glyph glyph-name="c_h" horiz-adv-x="1129" 
d="M413 150l76 -97q-74 -65 -189 -65q-117 0 -192 76t-75 199q0 116 76 195q77 80 195 80q105 0 185 -65l-73 -99q-45 42 -102 42q-59 0 -98 -45q-38 -44 -38 -108q0 -66 38 -110q39 -43 96 -43q61 0 101 40zM580 750h142v-286q62 74 155 74q86 0 140 -69q47 -62 47 -196
v-273h-142v266q0 82 -16 113q-18 37 -70 37q-33 0 -64 -18.5t-50 -48.5v-349h-142v750z" />
    <glyph glyph-name="c_k" horiz-adv-x="1066" 
d="M868 306l200 -306h-174l-121 195l-51 -59v-136h-142v750h142v-438h2l170 214h162zM413 150l76 -97q-74 -65 -189 -65q-117 0 -192 76t-75 199q0 116 76 195q77 80 195 80q105 0 185 -65l-73 -99q-45 42 -102 42q-59 0 -98 -45q-38 -44 -38 -108q0 -66 38 -110
q39 -43 96 -43q61 0 101 40z" />
    <glyph glyph-name="T_h" horiz-adv-x="1109" 
d="M483 700v-121h-166v-579h-143v579h-166v121h475zM560 750h142v-286q62 74 155 74q86 0 140 -69q47 -62 47 -196v-273h-142v266q0 82 -16 113q-18 37 -70 37q-33 0 -64 -18.5t-50 -48.5v-349h-142v750z" />
    <glyph glyph-name="a.sup" horiz-adv-x="349" 
d="M312 551v-184h-85l-5 23q-32 -30 -84 -30q-49 0 -81 26t-32 71q0 51 37.5 76t100.5 25q30 0 51 -4v5q0 24 -15.5 38t-43.5 14q-47 0 -90 -30l-25 68q65 35 134 35q64 0 101 -34t37 -99zM214 443v57q-16 3 -30 3q-60 0 -60 -42q0 -36 44 -36q24 0 46 18z" />
    <glyph glyph-name="b.sup" horiz-adv-x="387" 
d="M39 367v449h100v-172q36 40 91 40q62 0 100 -48q38 -47 38 -113q0 -65 -39 -115q-39 -48 -105 -48q-54 0 -94 37l-4 -30h-87zM139 570v-103q24 -27 60 -27q31 0 49 24t18 59q0 34 -18 57.5t-48 23.5q-40 0 -61 -34z" />
    <glyph glyph-name="c.sup" horiz-adv-x="309" 
d="M243 464l54 -62q-44 -42 -113 -42t-118 44q-47 44 -47 118q0 69 47 116q47 46 119 46q66 0 113 -44l-53 -62q-26 26 -55 26q-31 0 -50 -24t-19 -59q0 -34 19 -57.5t49 -23.5q29 0 54 24z" />
    <glyph glyph-name="d.sup" horiz-adv-x="387" 
d="M349 367h-89l-4 36q-31 -43 -94 -43t-104 47q-39 48 -39 115q0 65 39 113q40 49 102 49q51 0 89 -34v168h100v-451zM249 473v105q-26 26 -61 26q-30 0 -48.5 -23.5t-18.5 -59.5q0 -35 18.5 -58t46.5 -23q40 0 63 33z" />
    <glyph glyph-name="e.sup" horiz-adv-x="352" 
d="M258 476l63 -43q-51 -73 -142 -73q-70 0 -115 44t-45 114q0 71 46 118q47 48 115 48q63 0 108 -42q45 -40 45 -103q0 -15 -5 -40h-208q8 -65 66 -65q44 0 72 42zM123 559h108q-2 23 -16.5 37.5t-35.5 14.5q-43 0 -56 -52z" />
    <glyph glyph-name="f.sup" horiz-adv-x="223" 
d="M16 603v73h32v35q0 114 112 114q44 0 87 -21l-28 -68q-17 12 -40 12q-18 0 -24.5 -9t-6.5 -32v-31h74v-73h-74v-236h-100v236h-32z" />
    <glyph glyph-name="g.sup" horiz-adv-x="386" 
d="M260 676h89v-301q0 -72 -44 -110t-116 -38q-81 0 -149 43l34 74q52 -40 108 -40q31 0 49 17.5t18 49.5v31q-35 -35 -87 -35q-64 0 -104 46q-39 47 -39 113q0 64 39 111q41 47 102 47q57 0 94 -40zM249 480v98q-26 26 -61 26q-30 0 -48.5 -22t-18.5 -57t18.5 -56.5
t46.5 -21.5q40 0 63 33z" />
    <glyph glyph-name="h.sup" horiz-adv-x="378" 
d="M39 816h100v-176q41 44 90 44q112 0 112 -145v-172h-100v163q0 29 -6 48q-6 26 -35 26q-32 0 -61 -36v-201h-100v449z" />
    <glyph glyph-name="i.sup" horiz-adv-x="178" 
d="M139 676v-309h-100v309h100zM139 795v-75h-100v75h100z" />
    <glyph glyph-name="j.sup" horiz-adv-x="185" 
d="M-41 241l24 72q16 -10 33 -10q30 0 30 40v333h100v-337q0 -58 -28 -85t-87 -27q-35 0 -72 14zM146 795v-75h-100v75h100z" />
    <glyph glyph-name="k.sup" horiz-adv-x="341" 
d="M39 816h100v-246h1l83 106h111l-110 -129l118 -180h-120l-64 104l-19 -23v-81h-100v449z" />
    <glyph glyph-name="l.sup" horiz-adv-x="178" 
d="M39 816h100v-449h-100v449z" />
    <glyph glyph-name="m.sup" horiz-adv-x="555" 
d="M139 579v-212h-100v309h88l4 -37q41 45 87 45q62 0 90 -46q45 46 100 46q111 0 111 -145v-172h-100v163q1 34 -6.5 52.5t-33.5 21.5q-27 0 -53 -27q3 -18 3 -38v-172h-100v163q1 34 -6.5 52.5t-33.5 21.5q-25 0 -50 -25z" />
    <glyph glyph-name="n.sup" horiz-adv-x="378" 
d="M139 568v-201h-100v309h88l5 -44q45 52 96 52q113 0 113 -145v-172h-100v164q0 29 -6 48q-6 25 -35 25q-32 0 -61 -36z" />
    <glyph glyph-name="o.sup" horiz-adv-x="372" 
d="M353 522q0 -69 -47 -116q-46 -46 -120 -46q-75 0 -121 46t-46 116q0 68 47 115t120 47t120 -47t47 -115zM251 522q0 36 -18 60t-47 24t-47 -24q-17 -27 -18 -60t18 -60t47 -24q30 0 47.5 23.5t17.5 60.5z" />
    <glyph glyph-name="p.sup" horiz-adv-x="387" 
d="M39 224v452h88l5 -36q32 44 93 44q63 0 103 -48q40 -47 40 -114q0 -65 -40 -114q-39 -48 -101 -48q-52 0 -88 33v-169h-100zM139 570v-104q23 -26 60 -26q30 0 48.5 23.5t18.5 59.5q0 35 -18.5 58t-46.5 23q-40 0 -62 -34z" />
    <glyph glyph-name="q.sup" horiz-adv-x="387" 
d="M260 676h88v-452h-100v175q-36 -39 -92 -39q-62 0 -100 47q-37 47 -37 114q0 65 38 114q39 49 105 49q53 0 93 -37zM248 473v104q-25 27 -61 27q-45 2 -61 -48q-15 -49 9 -88q18 -30 51 -28q40 0 62 33z" />
    <glyph glyph-name="r.sup" horiz-adv-x="240" 
d="M139 568v-201h-100v309h88l4 -38q30 46 73 46q22 0 47 -11l-22 -78q-14 8 -33 8q-34 0 -57 -35z" />
    <glyph glyph-name="s.sup" horiz-adv-x="292" 
d="M266 641l-49 -57q-27 27 -61 27q-24 0 -24 -22q0 -7 5.5 -12.5t11.5 -8.5t19 -8.5t21 -9.5q78 -33 78 -88q0 -48 -35 -75t-89 -27q-75 0 -130 54l53 58q39 -39 74 -39q28 0 28 21q0 6 -2.5 10.5t-9.5 9t-12.5 7.5t-16.5 8t-17 8q-38 16 -56 35.5t-18 51.5q0 46 33.5 73
t82.5 27q68 0 114 -43z" />
    <glyph glyph-name="t.sup" horiz-adv-x="237" 
d="M202 448l28 -67q-39 -21 -80 -21q-105 0 -105 118v125h-35v73h40l14 70h81v-70h76v-73h-76v-115q0 -18 1 -25.5t6 -15t16 -9.5q15 0 34 10z" />
    <glyph glyph-name="u.sup" horiz-adv-x="378" 
d="M239 475v201h100v-309h-88l-5 44q-45 -52 -96 -52q-113 0 -113 145v172h100v-164q0 -28 5 -49q8 -24 36 -24q32 0 61 36z" />
    <glyph glyph-name="v.sup" horiz-adv-x="330" 
d="M112 676l51 -172h2l52 172h110l-126 -309h-83l-115 309h109z" />
    <glyph glyph-name="w.sup" horiz-adv-x="467" 
d="M272 367l-39 155h-1l-39 -155h-106l-84 309h106l38 -169h2l42 169h87l41 -169h2l40 169h103l-88 -309h-104z" />
    <glyph glyph-name="x.sup" horiz-adv-x="368" 
d="M126 524l-113 152h123l53 -80l55 80h121l-120 -155l115 -154h-123l-55 83l-58 -83h-121z" />
    <glyph glyph-name="y.sup" horiz-adv-x="326" 
d="M110 676l52 -168h2l53 168h107l-174 -450l-89 33l49 130l-107 287h107z" />
    <glyph glyph-name="z.sup" horiz-adv-x="294" 
d="M29 367v42l112 194h-118v73h246v-40l-116 -196h125v-73h-249z" />
    <glyph glyph-name="minusinferior" horiz-adv-x="342" 
d="M24 -28v80h294v-80h-294z" />
    <glyph glyph-name="plusinferior" horiz-adv-x="341" 
d="M210 -138h-80v110h-109v80h109v110h80v-110h110v-80h-110v-110z" />
    <glyph glyph-name="equalinferior" horiz-adv-x="342" 
d="M24 36v75h294v-75h-294zM24 -88v75h294v-75h-294z" />
    <glyph glyph-name="a.sinf" horiz-adv-x="349" 
d="M312 6v-184h-85l-5 23q-32 -30 -84 -30q-49 0 -81 26t-32 71q0 51 37.5 76t100.5 25q30 0 51 -4v5q0 24 -15.5 38t-43.5 14q-47 0 -90 -30l-25 68q65 35 134 35q64 0 101 -34t37 -99zM214 -102v57q-16 3 -30 3q-60 0 -60 -42q0 -36 44 -36q24 0 46 18z" />
    <glyph glyph-name="b.sinf" horiz-adv-x="387" 
d="M39 -178v449h100v-172q36 40 91 40q62 0 100 -48q38 -47 38 -113t-39 -114q-39 -49 -105 -49q-54 0 -94 37l-4 -30h-87zM139 25v-103q24 -27 60 -27q31 0 49 24t18 59q0 34 -18 57.5t-48 23.5q-40 0 -61 -34z" />
    <glyph glyph-name="c.sinf" horiz-adv-x="309" 
d="M243 -81l54 -62q-44 -42 -113 -42t-118 44q-47 44 -47 118q0 69 47 116q47 46 119 46q66 0 113 -44l-53 -62q-26 26 -55 26q-31 0 -50 -24t-19 -59q0 -34 19 -57.5t49 -23.5q29 0 54 24z" />
    <glyph glyph-name="d.sinf" horiz-adv-x="387" 
d="M349 -178h-89l-4 36q-31 -43 -94 -43q-64 0 -104 48q-39 47 -39 114q0 65 39 113q40 49 102 49q51 0 89 -34v168h100v-451zM249 -72v105q-26 26 -61 26q-30 0 -48.5 -23.5t-18.5 -59.5q0 -35 18.5 -58t46.5 -23q40 0 63 33z" />
    <glyph glyph-name="e.sinf" horiz-adv-x="353" 
d="M259 -69l63 -43q-51 -73 -142 -73q-70 0 -115 44t-45 114q0 71 46 118q46 48 115 48q63 0 108 -42q45 -41 45 -103q0 -15 -5 -40h-208q8 -65 66 -65q43 0 72 42zM124 14h108q-2 23 -16.5 37.5t-35.5 14.5q-43 0 -56 -52z" />
    <glyph glyph-name="f.sinf" horiz-adv-x="223" 
d="M16 58v73h32v35q0 114 112 114q44 0 87 -21l-28 -68q-17 12 -40 12q-18 0 -24.5 -9t-6.5 -32v-31h74v-73h-74v-236h-100v236h-32z" />
    <glyph glyph-name="g.sinf" horiz-adv-x="385" 
d="M260 131h89v-301q0 -72 -44 -110t-116 -38q-81 0 -149 43l34 74q52 -40 108 -40q31 0 49 17.5t18 49.5v31q-35 -35 -87 -35q-63 0 -104 47q-39 47 -39 112t39 111q41 47 102 47q57 0 94 -40zM249 -65v98q-26 26 -61 26q-30 0 -48.5 -22t-18.5 -57t18.5 -56.5t46.5 -21.5
q40 0 63 33z" />
    <glyph glyph-name="h.sinf" horiz-adv-x="378" 
d="M39 271h100v-176q41 44 90 44q112 0 112 -145v-172h-100v163q0 29 -6 48q-6 26 -35 26q-32 0 -61 -36v-201h-100v449z" />
    <glyph glyph-name="i.sinf" horiz-adv-x="178" 
d="M139 131v-309h-100v309h100zM139 250v-75h-100v75h100z" />
    <glyph glyph-name="j.sinf" horiz-adv-x="185" 
d="M-41 -304l24 72q16 -10 33 -10q30 0 30 40v333h100v-337q0 -58 -28 -85t-87 -27q-35 0 -72 14zM146 250v-75h-100v75h100z" />
    <glyph glyph-name="k.sinf" horiz-adv-x="341" 
d="M39 271h100v-246h1l83 106h111l-110 -129l118 -180h-120l-64 104l-19 -23v-81h-100v449z" />
    <glyph glyph-name="l.sinf" horiz-adv-x="178" 
d="M39 271h100v-449h-100v449z" />
    <glyph glyph-name="m.sinf" horiz-adv-x="555" 
d="M139 34v-212h-100v309h88l4 -37q41 45 87 45q62 0 90 -46q45 46 100 46q111 0 111 -145v-172h-100v163q1 34 -6.5 52.5t-33.5 21.5q-27 0 -53 -27q3 -18 3 -38v-172h-100v163q1 34 -6.5 52.5t-33.5 21.5q-25 0 -50 -25z" />
    <glyph glyph-name="n.sinf" horiz-adv-x="378" 
d="M139 23v-201h-100v309h88l5 -44q45 52 96 52q113 0 113 -145v-172h-100v164q0 29 -6 48q-6 25 -35 25q-32 0 -61 -36z" />
    <glyph glyph-name="o.sinf" horiz-adv-x="372" 
d="M353 -23q0 -69 -47 -116q-46 -46 -120 -46q-75 0 -121 46t-46 116q0 68 47 115t120 47t120 -47t47 -115zM251 -23q0 36 -18 60t-47 24t-47 -24q-17 -27 -18 -60t18 -60t47 -24q30 0 47.5 23.5t17.5 60.5z" />
    <glyph glyph-name="p.sinf" horiz-adv-x="387" 
d="M39 -321v452h88l5 -36q32 44 93 44q63 0 103 -48q40 -47 40 -114q0 -66 -40 -113q-39 -49 -101 -49q-52 0 -88 33v-169h-100zM139 25v-104q23 -26 60 -26q30 0 48.5 23.5t18.5 59.5q0 35 -18.5 58t-46.5 23q-40 0 -62 -34z" />
    <glyph glyph-name="q.sinf" horiz-adv-x="387" 
d="M261 131h88v-452h-100v175q-36 -39 -92 -39q-63 0 -100 48q-37 46 -37 113q0 65 38 114q39 49 105 49q53 0 93 -37zM249 -72v104q-25 27 -61 27q-45 2 -61 -48q-15 -49 9 -88q18 -30 51 -28q39 0 62 33z" />
    <glyph glyph-name="r.sinf" horiz-adv-x="240" 
d="M139 23v-201h-100v309h88l4 -38q30 46 73 46q22 0 47 -11l-22 -78q-14 8 -33 8q-34 0 -57 -35z" />
    <glyph glyph-name="s.sinf" horiz-adv-x="292" 
d="M266 96l-49 -57q-27 27 -61 27q-24 0 -24 -22q0 -7 5.5 -12.5t11.5 -8.5t19 -8.5t21 -9.5q78 -33 78 -88q0 -49 -35 -75.5t-89 -26.5q-75 0 -130 54l53 58q39 -39 74 -39q28 0 28 21q0 6 -2.5 10.5t-9.5 9t-12.5 7.5t-16.5 8t-17 8q-38 16 -56 35.5t-18 51.5
q0 46 33.5 73t82.5 27q68 0 114 -43z" />
    <glyph glyph-name="t.sinf" horiz-adv-x="237" 
d="M202 -97l28 -67q-39 -21 -80 -21q-105 0 -105 118v125h-35v73h40l14 70h81v-70h76v-73h-76v-115q0 -18 1 -25.5t6 -15t16 -9.5q15 0 34 10z" />
    <glyph glyph-name="u.sinf" horiz-adv-x="378" 
d="M239 -70v201h100v-309h-88l-5 44q-45 -52 -96 -52q-113 0 -113 145v172h100v-164q0 -28 5 -48q7 -25 36 -25q32 0 61 36z" />
    <glyph glyph-name="v.sinf" horiz-adv-x="330" 
d="M112 131l51 -172h2l52 172h110l-126 -309h-83l-115 309h109z" />
    <glyph glyph-name="w.sinf" horiz-adv-x="467" 
d="M272 -178l-39 155h-1l-39 -155h-106l-84 309h106l38 -169h2l42 169h87l41 -169h2l40 169h103l-88 -309h-104z" />
    <glyph glyph-name="x.sinf" horiz-adv-x="368" 
d="M126 -21l-113 152h123l53 -80l55 80h121l-120 -155l115 -154h-123l-55 83l-58 -83h-121z" />
    <glyph glyph-name="y.sinf" horiz-adv-x="326" 
d="M110 131l52 -168h2l53 168h107l-174 -450l-89 33l49 130l-107 287h107z" />
    <glyph glyph-name="z.sinf" horiz-adv-x="294" 
d="M29 -178v42l112 194h-118v73h246v-40l-116 -196h125v-73h-249z" />
    <glyph glyph-name="zero.num" horiz-adv-x="339" 
d="M170 626q-47 0 -47 -106q0 -107 47 -107q46 0 46 107q0 106 -46 106zM315 520q0 -88 -38.5 -138.5t-106.5 -50.5q-69 0 -107.5 50.5t-38.5 138.5t38.5 138t107.5 50q68 0 106.5 -50.5t38.5 -137.5z" />
    <glyph glyph-name="one.num" horiz-adv-x="256" 
d="M199 700v-362h-98v258q-29 -15 -57 -26v89l80 41h75z" />
    <glyph glyph-name="two.num" horiz-adv-x="321" 
d="M36 339v67q85 75 127 127q29 38 29 66q0 15 -9.5 23.5t-24.5 8.5q-16 0 -25.5 -12t-9.5 -32l-93 15q2 49 38 77.5t92 28.5q51 0 91 -29q39 -29 39 -75q0 -49 -38 -98q-36 -43 -88 -87h136v-80h-264z" />
    <glyph glyph-name="three.num" horiz-adv-x="326" 
d="M108 487l-1 71h8q21 0 31 3q31 7 31 36q0 15 -10.5 24.5t-28.5 9.5q-33 0 -39 -33l-77 36q12 34 45 54t74 20q55 0 93.5 -27t38.5 -70q0 -23 -13.5 -45t-34.5 -33q29 -10 47 -35.5t18 -55.5q0 -52 -41 -82q-41 -29 -97 -29q-46 0 -82.5 20.5t-53.5 58.5l77 35
q13 -37 55 -37q19 0 32 10.5t13 28.5q0 43 -61 43q-12 0 -24 -3z" />
    <glyph glyph-name="four.num" horiz-adv-x="331" 
d="M21 418v81l151 201h101v-204h46v-78h-46v-79h-96v79h-156zM114 496h63v91q-34 -52 -63 -91z" />
    <glyph glyph-name="five.num" horiz-adv-x="315" 
d="M268 700v-80h-133q-3 -40 -5 -60q20 12 48 12q47 0 77 -34q30 -35 30 -79q0 -53 -39 -91q-37 -37 -94 -37q-96 0 -134 74l77 37q13 -34 49 -34q27 -1 38.5 22t0 46t-39.5 20q-24 0 -39 -20l-64 38q8 86 12 186h216z" />
    <glyph glyph-name="six.num" horiz-adv-x="336" 
d="M226 725l31 -75q-90 -30 -119 -93q23 16 54 16q52 0 86 -33t34 -84q0 -56 -37.5 -90.5t-95.5 -34.5q-69 0 -112 42t-43 109q0 88 54 150.5t148 92.5zM122 476q0 -68 50 -68q20 0 31 13t11 33q0 22 -12.5 34.5t-32.5 12.5q-31 0 -47 -25z" />
    <glyph glyph-name="seven.num" horiz-adv-x="284" 
d="M272 700v-56q-60 -114 -150 -326l-90 39q46 109 128 263h-154v80h266z" />
    <glyph glyph-name="eight.num" horiz-adv-x="351" 
d="M315 441q0 -50 -42 -80q-41 -30 -98 -30q-56 0 -98 30q-41 30 -41 80q0 59 55 87q-44 30 -44 77q0 43 36 73t92 30t92.5 -30t36.5 -73q0 -47 -45 -77q56 -27 56 -87zM140 601q-2 -21 16.5 -30t37 0t17.5 30q1 21 -17.5 29.5t-37 0t-16.5 -29.5zM175 404q18 0 30 11.5
t12 28.5t-12 29t-30 12q-17 0 -29 -12t-12 -29t12 -28.5t29 -11.5z" />
    <glyph glyph-name="nine.num" horiz-adv-x="336" 
d="M110 314l-31 75q90 30 119 93q-23 -16 -54 -16q-52 0 -86 33t-34 84q0 56 37.5 90.5t95.5 34.5q69 0 112 -42t43 -109q0 -88 -54 -150.5t-148 -92.5zM214 563q0 68 -50 68q-20 0 -31 -13t-11 -33q0 -22 12.5 -34.5t32.5 -12.5q31 0 47 25z" />
    <glyph glyph-name="parenleft.ordn" horiz-adv-x="260" 
d="M259 334l-42 -69q-195 119 -195 323q0 205 194 322l44 -69q-134 -84 -134 -253t133 -254z" />
    <glyph glyph-name="parenright.ordn" horiz-adv-x="260" 
d="M43 265l-43 69q134 86 134 254q0 169 -134 253l43 69q195 -118 195 -322q0 -203 -195 -323z" />
    <glyph glyph-name="hyphen.ordn" horiz-adv-x="308" 
d="M245 616v-81h-182v81h182z" />
    <glyph glyph-name="comma.ordn" horiz-adv-x="181" 
d="M44 488h105l-49 -185h-93z" />
    <glyph glyph-name="period.ordn" horiz-adv-x="173" 
d="M140 488v-103h-107v103h107z" />
    <glyph glyph-name="minus.ordn" horiz-adv-x="381" 
d="M28 551v86h324v-86h-324z" />
    <glyph glyph-name="plus.ordn" horiz-adv-x="377" 
d="M232 428h-87v123h-123v86h123v123h87v-123h123v-86h-123v-123z" />
    <glyph glyph-name="equal.ordn" horiz-adv-x="381" 
d="M28 621v82h324v-82h-324zM28 485v82h324v-82h-324z" />
    <glyph glyph-name="a.ordn" horiz-adv-x="389" 
d="M72 622l-26 75q75 37 147 37q70 0 110 -37.5t40 -108.5v-202h-90l-6 27q-32 -35 -94 -35q-51 0 -86.5 29t-35.5 77q0 56 41.5 84t109.5 28q20 0 58 -5v4q-3 59 -68 59q-50 0 -100 -32zM240 471v61q-17 4 -36 4q-29 0 -48 -12t-19 -35q0 -39 47 -39q32 0 56 21z" />
    <glyph glyph-name="b.ordn" horiz-adv-x="434" 
d="M49 386v500h104v-199q41 47 104 47q71 0 111 -52q42 -52 42 -125t-43 -126q-44 -53 -116 -53q-59 0 -106 42l-3 -34h-93zM153 612v-121q32 -32 72 -32q52 -2 71 54q18 53 -6 100q-21 42 -64 40q-47 0 -73 -41z" />
    <glyph glyph-name="c.ordn" horiz-adv-x="342" 
d="M328 687l-53 -65q-28 31 -64 31q-37 0 -59.5 -28.5t-22.5 -69.5q0 -42 22.5 -69t58.5 -27q32 0 63 28l56 -63q-49 -46 -124 -46q-79 0 -131 48q-51 49 -51 130q0 78 52 127q52 51 131 51q75 0 122 -47z" />
    <glyph glyph-name="d.ordn" horiz-adv-x="434" 
d="M281 693v193h104v-500h-93l-5 40q-39 -48 -109 -48q-69 0 -112 51q-43 52 -43 126q0 73 43 125q44 54 114 54q57 0 101 -41zM281 499v121q-30 33 -72 33q-50 2 -70.5 -47.5t0 -99t68.5 -47.5q47 0 74 40z" />
    <glyph glyph-name="e.ordn" horiz-adv-x="391" 
d="M287 505l69 -47q-59 -80 -156 -80q-78 0 -127 48q-50 50 -50 127t51 129t127 52q69 0 118 -46q49 -45 49 -113q0 -16 -5 -44h-230q4 -34 23 -53.5t51 -19.5q48 0 80 47zM137 597h121q-2 26 -18 42.5t-41 16.5q-48 0 -62 -59z" />
    <glyph glyph-name="f.ordn" horiz-adv-x="245" 
d="M20 650v76h38v43q0 125 120 125q47 0 95 -23l-30 -71q-22 13 -46 13q-20 0 -27.5 -10.5t-7.5 -35.5v-41h83v-76h-83v-264h-104v264h-38z" />
    <glyph glyph-name="g.ordn" horiz-adv-x="430" 
d="M285 688l8 38h92v-328q0 -79 -48 -121t-127 -42q-85 0 -164 47l37 77q58 -43 119 -43q36 0 57.5 19.5t21.5 55.5v36q-41 -41 -103 -41q-68 0 -112 50q-43 50 -43 123q0 70 43 122q44 53 114 53q62 0 105 -46zM281 507v113q-30 33 -72 33q-49 2 -69.5 -45.5t-0.5 -95
t68 -45.5q49 0 74 40z" />
    <glyph glyph-name="h.ordn" horiz-adv-x="426" 
d="M49 386v500h104v-206q47 54 104 54q123 0 123 -159v-189h-104v185q0 31 -6 54q-7 28 -40 28q-41 0 -77 -46v-221h-104z" />
    <glyph glyph-name="i.ordn" horiz-adv-x="202" 
d="M49 386v340h104v-340h-104zM49 776v82h104v-82h-104z" />
    <glyph glyph-name="j.ordn" horiz-adv-x="201" 
d="M48 361v365h104v-369q0 -122 -125 -122q-41 0 -80 15l27 76q16 -10 36 -10q22 0 30 11t8 34zM48 776v82h104v-82h-104z" />
    <glyph glyph-name="k.ordn" horiz-adv-x="375" 
d="M49 386v500h104v-283l98 123h120l-122 -143l128 -197h-126l-71 118l-27 -33v-85h-104z" />
    <glyph glyph-name="l.ordn" horiz-adv-x="202" 
d="M49 386v500h104v-500h-104z" />
    <glyph glyph-name="m.ordn" horiz-adv-x="633" 
d="M49 386v340h93l5 -50q52 58 110 58q70 0 97 -63q51 63 111 63q122 0 122 -159v-189h-104v185q0 31 -6 54q-7 28 -39 28q-33 0 -70 -43q2 -14 2 -35v-189h-104v185q0 25 -2 39t-11.5 27.5t-28.5 15.5q-33 0 -71 -44v-223h-104z" />
    <glyph glyph-name="n.ordn" horiz-adv-x="426" 
d="M49 386v340h93l5 -52q52 60 110 60q123 0 123 -159v-189h-104v185q0 31 -6 54q-7 28 -40 28q-41 0 -77 -46v-221h-104z" />
    <glyph glyph-name="o.ordn" horiz-adv-x="413" 
d="M74 683q52 51 132 51t131 -51q52 -51 52 -127t-52 -127q-51 -51 -131 -51t-132 51q-51 51 -51 127t51 127zM262 626q-21 27 -56 27t-56 -27t-21 -70t21 -70t56 -27t56 27t21 70t-21 70z" />
    <glyph glyph-name="p.ordn" horiz-adv-x="434" 
d="M49 220v506h93l4 -41q42 49 109 49q69 0 112 -52q43 -50 43 -125q0 -74 -43 -126q-44 -53 -114 -53q-57 0 -100 40v-198h-104zM153 612v-121q32 -32 72 -32q52 -2 71 54q18 53 -6 100q-21 42 -64 40q-47 0 -73 -41z" />
    <glyph glyph-name="q.ordn" horiz-adv-x="434" 
d="M288 691l4 35h93v-506h-104v205q-44 -47 -105 -47q-69 0 -111 52t-42 125t43 125q44 54 117 54q59 0 105 -43zM281 499v121q-30 33 -72 33q-50 2 -70.5 -47.5t0 -99t68.5 -47.5q47 0 74 40z" />
    <glyph glyph-name="r.ordn" horiz-adv-x="270" 
d="M49 386v340h93l5 -53q37 61 86 61q23 0 48 -12l-25 -79q-18 9 -33 9q-39 0 -70 -49v-217h-104z" />
    <glyph glyph-name="s.ordn" horiz-adv-x="325" 
d="M17 436l51 61q44 -45 91 -45q36 0 36 27q0 12 -15 21l-15 9l-20.5 10t-19.5 9q-41 19 -61.5 41.5t-20.5 58.5q0 49 36.5 77.5t90.5 28.5q75 0 122 -45l-48 -60q-40 31 -73 31t-33 -24q0 -10 15 -20l14 -8q32 -12 40 -16q42 -19 63 -41.5t21 -58.5q0 -53 -38.5 -83.5
t-95.5 -30.5q-82 0 -140 58z" />
    <glyph glyph-name="t.ordn" horiz-adv-x="253" 
d="M10 650v76h42l15 78h83v-78h84v-76h-84v-131q0 -19 1 -28.5t7 -17.5t18 -10q20 0 37 11l31 -74q-43 -22 -86 -22q-112 0 -112 130v142h-36z" />
    <glyph glyph-name="u.ordn" horiz-adv-x="426" 
d="M46 537v189h104v-185q0 -31 6 -54q7 -28 40 -28q41 0 77 46v221h104v-340h-93l-5 52q-53 -60 -110 -60q-123 0 -123 159z" />
    <glyph glyph-name="v.ordn" horiz-adv-x="386" 
d="M132 386l-128 340h116l73 -234h1l73 234h115l-136 -340h-114z" />
    <glyph glyph-name="w.ordn" horiz-adv-x="529" 
d="M99 386l-95 340h113l43 -207h1l46 207h115l44 -207h2l44 207h113l-104 -340h-109l-47 194h-1l-47 -194h-118z" />
    <glyph glyph-name="x.ordn" horiz-adv-x="404" 
d="M132 557l-120 169h131l65 -101l63 101h130l-124 -166l124 -174h-131l-68 107l-68 -107h-130z" />
    <glyph glyph-name="y.ordn" horiz-adv-x="383" 
d="M135 376l-132 350h116l72 -231h2l73 231h113l-196 -513l-95 36z" />
    <glyph glyph-name="z.ordn" horiz-adv-x="329" 
d="M28 650v76h269v-43l-129 -221h140v-76h-273v46l126 218h-133z" />
    <glyph glyph-name="zero.denom" horiz-adv-x="339" 
d="M170 287q-47 0 -47 -106q0 -107 47 -107q46 0 46 107q0 106 -46 106zM315 181q0 -88 -38.5 -138.5t-106.5 -50.5q-69 0 -107.5 50.5t-38.5 138.5t38.5 138t107.5 50q68 0 106.5 -50.5t38.5 -137.5z" />
    <glyph glyph-name="one.denom" horiz-adv-x="256" 
d="M199 362v-362h-98v258q-29 -15 -57 -26v89l80 41h75z" />
    <glyph glyph-name="two.denom" horiz-adv-x="321" 
d="M36 0v67q85 75 127 127q29 38 29 66q0 15 -9.5 23.5t-24.5 8.5q-16 0 -25.5 -12t-9.5 -32l-93 15q2 49 38 77.5t92 28.5q51 0 91 -29q39 -28 39 -75q0 -49 -38 -98q-36 -43 -88 -87h136v-80h-264z" />
    <glyph glyph-name="three.denom" horiz-adv-x="326" 
d="M108 148l-1 71h8q21 0 31 3q31 7 31 36q0 15 -10.5 24.5t-28.5 9.5q-33 0 -39 -33l-77 36q12 34 45 54t74 20q55 0 93.5 -27t38.5 -70q0 -23 -13.5 -45t-34.5 -33q29 -10 47 -35.5t18 -55.5q0 -52 -41 -82q-41 -29 -97 -29q-46 0 -82.5 20.5t-53.5 58.5l77 35
q13 -37 55 -37q19 0 32 10.5t13 28.5q0 43 -61 43q-12 0 -24 -3z" />
    <glyph glyph-name="four.denom" horiz-adv-x="331" 
d="M21 79v81l151 201h101v-204h46v-78h-46v-79h-96v79h-156zM114 157h63v91q-34 -52 -63 -91z" />
    <glyph glyph-name="five.denom" horiz-adv-x="315" 
d="M268 361v-80h-133q-3 -40 -5 -60q20 12 48 12q47 0 77 -34q30 -35 30 -79q0 -53 -39 -91q-37 -37 -94 -37q-96 0 -134 74l77 37q13 -34 49 -34q27 -1 38.5 22t0 46t-39.5 20q-24 0 -39 -20l-64 38q8 85 12 186h216z" />
    <glyph glyph-name="six.denom" horiz-adv-x="336" 
d="M226 386l31 -75q-90 -30 -119 -93q23 16 54 16q52 0 86 -33t34 -84q0 -56 -37.5 -90.5t-95.5 -34.5q-69 0 -112 42t-43 109q0 88 54 150.5t148 92.5zM122 137q0 -68 50 -68q20 0 31 13t11 33q0 22 -12.5 34.5t-32.5 12.5q-31 0 -47 -25z" />
    <glyph glyph-name="seven.denom" horiz-adv-x="284" 
d="M272 361v-56q-60 -114 -150 -326l-90 39q46 109 128 263h-154v80h266z" />
    <glyph glyph-name="eight.denom" horiz-adv-x="351" 
d="M315 102q0 -50 -42 -80q-41 -30 -98 -30q-56 0 -98 30q-41 30 -41 80q0 60 55 87q-44 30 -44 77q0 43 36 73t92 30t92.5 -30t36.5 -73q0 -47 -45 -77q56 -27 56 -87zM140 262q-2 -21 16.5 -30t37 0t17.5 30q1 21 -17.5 29.5t-37 0t-16.5 -29.5zM175 65q18 0 30 11.5
t12 28.5t-12 29t-30 12q-17 0 -29 -12t-12 -29t12 -28.5t29 -11.5z" />
    <glyph glyph-name="nine.denom" horiz-adv-x="336" 
d="M110 -25l-31 75q90 30 119 93q-23 -16 -54 -16q-52 0 -86 33t-34 84q0 56 37.5 90.5t95.5 34.5q69 0 112 -42t43 -109q0 -88 -54 -150.5t-148 -92.5zM214 224q0 68 -50 68q-20 0 -31 -13t-11 -33q0 -22 12.5 -34.5t32.5 -12.5q31 0 47 25z" />
    <glyph glyph-name="onefifth" horiz-adv-x="833" 
d="M94 35l498 683l71 -53l-498 -683zM735 361v-80h-133q-3 -41 -5 -60q19 12 48 12q47 0 77.5 -33.5t30.5 -79.5q0 -54 -39 -92q-39 -36 -95 -36q-96 0 -134 74l77 37q13 -34 49 -34q20 0 32 13t12 32q0 18 -12 30.5t-32 12.5q-23 0 -40 -20l-63 38q7 75 11 186h216z
M241 700v-362h-98v258q-24 -14 -57 -26v89l80 41h75z" />
    <glyph glyph-name="twofifths" horiz-adv-x="933" 
d="M194 35l499 683l71 -53l-499 -683zM835 361v-80h-133l-4 -60q20 12 47 12q47 0 77.5 -33.5t30.5 -79.5q0 -54 -39 -92q-38 -36 -94 -36q-96 0 -134 74l77 37q13 -34 49 -34q20 0 31.5 13t11.5 32q0 18 -12 30.5t-32 12.5q-23 0 -40 -20l-63 38q7 75 11 186h216zM86 339
v67q85 75 127 127q29 38 29 66q0 15 -9.5 23.5t-24.5 8.5q-16 0 -25.5 -12t-9.5 -32l-93 15q2 49 38 77.5t92 28.5q51 0 91 -29q39 -29 39 -75q0 -49 -38 -98q-36 -43 -88 -87h136v-80h-264z" />
    <glyph glyph-name="threefifths" horiz-adv-x="911" 
d="M172 35l499 683l71 -53l-499 -683zM814 361v-80h-133q-3 -41 -5 -60q20 12 48 12q47 0 77 -34q30 -35 30 -79q0 -54 -39 -92q-38 -36 -94 -36q-96 0 -134 74l77 37q13 -34 49 -34q20 0 31.5 12.5t11.5 32.5q0 19 -12 31t-32 12q-23 0 -40 -20l-63 38q8 85 12 186h216z
M172 487l-1 71h8q21 0 31 3q31 7 31 36q0 15 -10.5 24.5t-28.5 9.5q-33 0 -39 -33l-77 36q12 34 45 54t74 20q55 0 93.5 -27t38.5 -70q0 -23 -13.5 -45t-34.5 -33q29 -10 47 -35.5t18 -55.5q0 -52 -41 -82q-41 -29 -97 -29q-46 0 -82.5 20.5t-53.5 58.5l77 35q13 -37 55 -37
q19 0 32 10.5t13 28.5q0 43 -61 43q-12 0 -24 -3z" />
    <glyph glyph-name="fourfifths" horiz-adv-x="945" 
d="M206 35l499 683l70 -53l-498 -683zM847 361v-80h-133l-4 -60q20 12 47 12q47 0 77.5 -33.5t30.5 -79.5q0 -54 -39 -92q-38 -36 -94 -36q-96 0 -134 74l76 37q13 -34 50 -34q20 0 31.5 13t11.5 32q0 18 -12 30.5t-32 12.5q-23 0 -40 -20l-63 38q7 75 11 186h216zM80 418
v81l151 201h100v-204h47v-78h-47v-79h-95v79h-156zM172 496h64v91q-21 -32 -64 -91z" />
    <glyph glyph-name="onesixth" horiz-adv-x="826" 
d="M94 35l498 683l71 -53l-498 -683zM241 700v-362h-98v258q-24 -14 -57 -26v89l80 41h75zM660 386l30 -75q-91 -30 -119 -93q25 16 55 16q52 0 86 -33t34 -84q0 -56 -38 -90.5t-96 -34.5q-69 0 -111.5 41.5t-42.5 109.5q0 88 54 150.5t148 92.5zM555 137q0 -68 51 -68
q20 0 31 13t11 33q0 21 -12.5 33.5t-33.5 12.5q-30 0 -47 -24z" />
    <glyph glyph-name="fivesixths" horiz-adv-x="894" 
d="M162 35l499 683l71 -53l-499 -683zM330 700v-80h-133q-3 -40 -5 -60q20 12 48 12q47 0 77 -34q30 -35 30 -79q0 -53 -39 -91q-37 -37 -94 -37q-96 0 -134 74l77 37q13 -34 49 -34q20 0 31.5 12.5t11.5 32.5q0 19 -11.5 31t-32.5 12q-23 0 -40 -20l-63 38q8 86 12 186h216
zM728 386l31 -75q-90 -30 -119 -93q25 16 55 16q52 0 85.5 -33t33.5 -84q0 -56 -37.5 -90.5t-95.5 -34.5q-69 0 -112 42t-43 109q0 88 54 150.5t148 92.5zM624 137q0 -68 50 -68q20 0 31.5 13t11.5 33q0 21 -12.5 33.5t-33.5 12.5q-31 0 -47 -24z" />
    <glyph glyph-name="oneseventh" horiz-adv-x="859" 
d="M94 35l498 683l71 -53l-498 -683zM241 700v-362h-98v258q-24 -14 -57 -26v89l80 41h75zM779 361v-56q-60 -114 -150 -326l-89 39q49 113 128 263h-155v80h266z" />
    <glyph glyph-name="twosevenths" horiz-adv-x="959" 
d="M194 35l499 683l71 -53l-499 -683zM86 339v67q85 75 127 127q29 38 29 66q0 15 -9.5 23.5t-24.5 8.5q-16 0 -25.5 -12t-9.5 -32l-93 15q2 49 38 77.5t92 28.5q51 0 91 -29q39 -29 39 -75q0 -49 -38 -98q-36 -43 -88 -87h136v-80h-264zM879 361v-56q-55 -105 -149 -326
l-90 39q49 113 128 263h-154v80h265z" />
    <glyph glyph-name="threesevenths" horiz-adv-x="938" 
d="M172 35l499 683l71 -53l-499 -683zM858 361v-56q-60 -114 -150 -326l-90 39q49 113 128 263h-154v80h266zM172 487l-1 71h8q21 0 31 3q31 7 31 36q0 15 -10.5 24.5t-28.5 9.5q-33 0 -39 -33l-77 36q12 34 45 54t74 20q55 0 93.5 -27t38.5 -70q0 -23 -13.5 -45t-34.5 -33
q29 -10 47 -35.5t18 -55.5q0 -52 -41 -82q-41 -29 -97 -29q-46 0 -82.5 20.5t-53.5 58.5l77 35q13 -37 55 -37q19 0 32 10.5t13 28.5q0 43 -61 43q-12 0 -24 -3z" />
    <glyph glyph-name="foursevenths" horiz-adv-x="971" 
d="M206 35l499 683l70 -53l-498 -683zM891 361v-56q-55 -105 -149 -326l-90 39q49 113 128 263h-154v80h265zM80 418v81l151 201h100v-204h47v-78h-47v-79h-95v79h-156zM172 496h64v91q-21 -32 -64 -91z" />
    <glyph glyph-name="fivesevenths" horiz-adv-x="928" 
d="M162 35l499 683l71 -53l-499 -683zM330 700v-80h-133q-3 -40 -5 -60q20 12 48 12q47 0 77 -34q30 -35 30 -79q0 -53 -39 -91q-37 -37 -94 -37q-96 0 -134 74l77 37q13 -34 49 -34q20 0 31.5 12.5t11.5 32.5q0 19 -11.5 31t-32.5 12q-23 0 -40 -20l-63 38q8 86 12 186h216
zM848 361v-56q-60 -114 -150 -326l-90 39q49 113 128 263h-154v80h266z" />
    <glyph glyph-name="sixsevenths" horiz-adv-x="947" 
d="M182 35l499 683l71 -53l-499 -683zM282 725l31 -75q-90 -30 -119 -93q23 16 54 16q52 0 86 -33t34 -84q0 -56 -37.5 -90.5t-95.5 -34.5q-69 0 -112 42t-43 109q0 88 54 150.5t148 92.5zM178 476q0 -68 50 -68q20 0 31 13t11 33q0 22 -12.5 34.5t-32.5 12.5q-31 0 -47 -25
zM867 361v-56q-55 -105 -149 -326l-90 39q49 113 128 263h-154v80h265z" />
    <glyph glyph-name="oneninth" horiz-adv-x="858" 
d="M94 35l498 683l71 -53l-498 -683zM241 700v-362h-98v258q-24 -14 -57 -26v89l80 41h75zM576 -25l-30 75q89 28 118 93q-26 -17 -54 -17q-52 0 -86 33.5t-34 84.5q0 54 38 89.5t95 35.5q70 0 112.5 -42t42.5 -110q0 -87 -54 -149.5t-148 -92.5zM681 223v1q0 68 -51 68
q-20 0 -31 -13t-11 -33q0 -22 13 -34.5t33 -12.5q29 0 47 24z" />
    <glyph glyph-name="twoninths" horiz-adv-x="939" 
d="M188 35l498 683l71 -53l-498 -683zM80 339v67q85 75 127 127q28 34 28 66t-33 32q-16 0 -25.5 -12t-9.5 -32l-93 15q2 49 38 77.5t91 28.5q52 0 92 -29q39 -29 39 -75q0 -48 -39 -98q-31 -42 -87 -87h135v-80h-263zM670 -25l-30 75q89 28 118 93q-26 -17 -54 -17
q-52 0 -86 33.5t-34 84.5q0 54 38 89.5t95 35.5q70 0 112.5 -42t42.5 -110q0 -87 -54 -149.5t-148 -92.5zM775 223v1q0 68 -51 68q-20 0 -31 -13t-11 -33q0 -22 13 -34.5t33 -12.5q29 0 47 24z" />
    <glyph glyph-name="fourninths" horiz-adv-x="949" 
d="M198 35l498 683l71 -53l-499 -683zM680 -25l-31 75q90 28 119 93q-26 -17 -55 -17q-52 0 -85.5 33.5t-33.5 84.5q0 54 38 89.5t95 35.5q69 0 112 -42t43 -110q0 -87 -54 -149.5t-148 -92.5zM785 223v1q0 68 -51 68q-20 0 -31 -13t-11 -33q0 -21 13 -34t32 -13q29 0 48 24
zM71 418v81l151 201h100v-204h47v-78h-47v-79h-95v79h-156zM163 496h64v91q-21 -32 -64 -91z" />
    <glyph glyph-name="fiveninths" horiz-adv-x="908" 
d="M156 35l498 683l71 -53l-498 -683zM639 -25l-31 75q89 28 118 93q-23 -17 -54 -17q-52 0 -86 33.5t-34 84.5q0 56 38 90.5t96 34.5q69 0 111.5 -42t42.5 -110q0 -87 -54 -149.5t-147 -92.5zM743 223v1q0 68 -50 68q-20 0 -31.5 -13t-11.5 -33q0 -22 13 -34.5t33 -12.5
q29 0 47 24zM324 700v-80h-133q-3 -40 -5 -60q20 12 48 12q47 0 77 -34q30 -35 30 -79q0 -53 -39 -91q-37 -37 -94 -37q-96 0 -134 74l77 37q13 -34 49 -34q20 0 31.5 12.5t11.5 32.5q0 19 -11.5 31t-32.5 12q-23 0 -40 -20l-63 38q8 86 12 186h216z" />
    <glyph glyph-name="sevenninths" horiz-adv-x="847" 
d="M95 35l499 683l71 -53l-499 -683zM578 -25l-31 75q90 28 119 93q-26 -17 -55 -17q-52 0 -85.5 33.5t-33.5 84.5q0 54 38 89.5t95 35.5q69 0 112 -42t43 -110q0 -87 -54 -149.5t-148 -92.5zM682 223v1q0 68 -50 68q-20 0 -31.5 -13.5t-11.5 -32.5q0 -22 12.5 -34.5
t33.5 -12.5q29 0 47 24zM346 700v-56q-60 -114 -150 -326l-90 39q46 109 128 263h-154v80h266z" />
    <glyph glyph-name="eightninths" horiz-adv-x="918" 
d="M166 35l498 683l71 -53l-498 -683zM648 -25l-30 75q89 28 118 93q-23 -17 -54 -17q-52 0 -86 33.5t-34 84.5q0 56 38 90.5t96 34.5q69 0 111.5 -42t42.5 -110q0 -87 -54 -149.5t-148 -92.5zM753 223v1q0 68 -51 68q-20 0 -31 -13t-11 -33q0 -22 13 -34.5t33 -12.5
q29 0 47 24zM347 441q0 -50 -42 -80q-41 -30 -98 -30q-56 0 -98 30q-41 30 -41 80q0 59 55 87q-44 30 -44 77q0 43 36 73t92 30t92.5 -30t36.5 -73q0 -47 -45 -77q56 -27 56 -87zM172 601q-2 -21 16.5 -30t37 0t17.5 30q1 21 -17.5 29.5t-37 0t-16.5 -29.5zM207 404
q18 0 30 11.5t12 28.5t-12 29t-30 12q-17 0 -29 -12t-12 -29t12 -28.5t29 -11.5z" />
    <glyph glyph-name="commaaccent" horiz-adv-x="360" 
d="M241 -58l-55 -191h-108l36 191h127z" />
    <glyph glyph-name="revcommaaccent" horiz-adv-x="360" 
d="M101 579l56 192h109l-37 -192h-128z" />
    <glyph glyph-name="tilde.cap" horiz-adv-x="360" 
d="M278 878l82 9q6 -19 6 -39q0 -46 -31.5 -74.5t-83.5 -28.5q-37 0 -86 25q-49 26 -60 26q-23 0 -25 -23q0 -6 1 -7l-81 -9q-7 21 -7 39q0 46 32 74.5t84 28.5q35 0 85 -26q49 -25 60 -25q10 0 17.5 6t7.5 17q0 6 -1 7z" />
    <glyph glyph-name="ring.cap" horiz-adv-x="360" 
d="M100 910q33 33 80 33t80 -33t33 -80t-33 -80t-80 -33t-80 33t-33 80t33 80zM213 863q-13 13 -33 13t-33 -13t-13 -33t13 -33t33 -13t33 13t13 33t-13 33z" />
    <glyph glyph-name="circumflex.cap" horiz-adv-x="360" 
d="M-14 794l117 149h156l113 -149l-82 -60l-111 126l-112 -126z" />
    <glyph glyph-name="acute.cap" horiz-adv-x="360" 
d="M267 958l74 -97l-182 -128l-64 81z" />
    <glyph glyph-name="grave.cap" horiz-adv-x="360" 
d="M257 814l-64 -81l-182 128l74 97z" />
    <glyph glyph-name="dieresis.cap" horiz-adv-x="360" 
d="M116 882v-120h-149v120h149zM393 882v-120h-149v120h149z" />
    <glyph glyph-name="caron.cap" horiz-adv-x="360" 
d="M372 895l-117 -149h-156l-113 149l83 60l111 -126l112 126z" />
    <glyph glyph-name="macron.cap" horiz-adv-x="360" 
d="M362 867v-95h-364v95h364z" />
    <glyph glyph-name="dotaccent.cap" horiz-adv-x="360" 
d="M253 882v-120h-146v120h146z" />
    <glyph glyph-name="cedilla.cap" horiz-adv-x="360" 
d="M134 21l68 -12l-28 -70h1q21 15 47 15q39 0 66 -29.5t27 -71.5q0 -43 -33 -76q-33 -34 -81 -34q-76 0 -116 70l69 33q12 -32 40 -32q23 -2 32 17.5t0 39.5t-31 20q-24 0 -38 -20l-73 38z" />
    <glyph glyph-name="hungarumlaut.cap" horiz-adv-x="360" 
d="M383 955l74 -97l-178 -125l-64 81zM141 954l72 -93l-182 -128l-62 77z" />
    <glyph glyph-name="commaaccent.cap" horiz-adv-x="360" 
d="M241 -58l-55 -191h-108l36 191h127z" />
    <glyph glyph-name="breve.cap" horiz-adv-x="360" 
d="M15 897v12h104q-1 -3 -1 -13q0 -27 17 -44.5t45 -17.5t46.5 17.5t18.5 44.5q0 10 -1 13h101v-12q0 -69 -48 -112q-47 -44 -117 -44q-69 0 -118 44q-47 44 -47 112z" />
    <glyph glyph-name="caron.alt" horiz-adv-x="360" 
d="M243 750l-57 -217h-119l44 217h132z" />
    <glyph glyph-name="ogonek.cap" horiz-adv-x="360" 
d="M166 9l117 -2v-7q-112 -25 -112 -92q0 -40 49 -40q23 0 48 13l32 -78q-46 -30 -111 -30q-58 0 -96 30t-38 77q0 92 111 129z" />
    <glyph glyph-name="square" horiz-adv-x="388" 
d="M328 155h-268v268h268v-268z" />
    <glyph glyph-name="square.open" horiz-adv-x="388" 
d="M328 155h-268v268h268v-268zM250 345h-112v-112h112v112z" />
    <glyph glyph-name="circle.open" horiz-adv-x="366" 
d="M78 184q-43 43 -43 105q0 61 43 104q44 44 105 44q60 0 104 -44t44 -104q0 -61 -44 -105q-43 -43 -104 -43q-62 0 -105 43zM139 332q-18 -18 -18 -43t18 -44q19 -18 44 -18t43 18q19 19 19 44t-19 43q-18 19 -43 19t-44 -19z" />
    <glyph glyph-name="doublecircle" horiz-adv-x="366" 
d="M81 181q-42 43 -42 102t42 101q43 43 102 43t101 -43q43 -42 43 -101t-43 -102q-42 -42 -101 -42t-102 42zM144 244q-16 16 -16 39t16 39t39 16t39 -16t16 -39t-16 -39t-39 -16t-39 16zM107 359q-32 -32 -32 -76t32 -76t76 -32t76 32t32 76t-32 76t-76 32t-76 -32z" />
    <glyph glyph-name="triangle.left" horiz-adv-x="398" 
d="M338 459v-348l-308 175z" />
    <glyph glyph-name="raute" horiz-adv-x="356" 
d="M30 276l148 236l148 -236l-148 -236z" />
    <glyph glyph-name="triangleWhiteLeft" horiz-adv-x="512" 
d="M30 285l422 246v-492zM355 363l-138 -78l138 -79v157z" />
    <glyph glyph-name="triangleWhiteRight" horiz-adv-x="542" 
d="M482 285l-422 -246v492zM157 363v-157l138 79z" />
    <glyph glyph-name="arrow.right" horiz-adv-x="1000" 
d="M614 725l367 -365l-367 -364l-96 93l207 204h-685v135h685l-207 204z" />
    <glyph glyph-name="arrow.left" horiz-adv-x="1000" 
d="M503 89l-96 -93l-367 364l367 365l96 -93l-207 -204h685v-135h-685z" />
    <glyph glyph-name="arrow.up" horiz-adv-x="900" 
d="M85 474l365 367l364 -367l-93 -96l-204 207v-685h-135v685l-204 -207z" />
    <glyph glyph-name="arrow.down" horiz-adv-x="900" 
d="M721 344l93 -96l-364 -367l-365 367l93 96l204 -207v685h135v-685z" />
    <glyph glyph-name="arrow.leftup" horiz-adv-x="1000" 
d="M376 560l485 -484l-96 -96l-484 484l2 -289h-134l-1 518l518 -1v-134z" />
    <glyph glyph-name="arrow.rightup" horiz-adv-x="1000" 
d="M719 464l-484 -484l-96 96l485 484l-290 -2v134l518 1l-1 -518h-134z" />
    <glyph glyph-name="arrowleft.down" horiz-adv-x="1000" 
d="M281 229l484 484l96 -96l-485 -484l290 2v-134l-518 -1l1 518h134z" />
    <glyph glyph-name="arrowright.down" horiz-adv-x="1000" 
d="M624 133l-485 484l96 96l484 -484l-2 289h134l1 -518l-518 1v134z" />
    <glyph glyph-name="arrowright.alt" horiz-adv-x="523" 
d="M158 499l285 -212l-285 -212l-78 109l156 103l-156 103z" />
    <glyph glyph-name="arrowleft.alt" horiz-adv-x="523" 
d="M443 184l-78 -109l-285 212l285 212l78 -109l-156 -103z" />
    <glyph glyph-name="arrowup.alt" horiz-adv-x="584" 
d="M80 194l212 285l212 -285l-109 -78l-103 156l-103 -156z" />
    <glyph glyph-name="arrowdown.alt" horiz-adv-x="584" 
d="M504 381l-212 -286l-212 286l109 78l103 -156l103 156z" />
    <glyph glyph-name="arrowleftup.alt" horiz-adv-x="512" 
d="M264 96l-132 -22l-52 352l352 -52l-22 -132l-183 37z" />
    <glyph glyph-name="arrowrightup.alt" horiz-adv-x="512" 
d="M80 374l352 52l-52 -352l-132 22l37 183l-183 -37z" />
    <glyph glyph-name="arrowleftdown.alt" horiz-adv-x="512" 
d="M432 126l-352 -52l52 352l132 -22l-37 -183l183 37z" />
    <glyph glyph-name="arrowrightdown.alt" horiz-adv-x="512" 
d="M248 404l132 22l52 -352l-352 52l22 132l183 -37z" />
    <glyph glyph-name="arrowlong.left" horiz-adv-x="1216" 
d="M275 318h871v-108h-871l165 -163l-76 -75l-294 292l294 292l76 -75z" />
    <glyph glyph-name="arrowlong.right" horiz-adv-x="1216" 
d="M941 210h-871v108h871l-165 163l76 75l294 -292l-294 -292l-76 75z" />
    <glyph glyph-name="arrowlong.up" horiz-adv-x="724" 
d="M416 652v-871h-108v871l-163 -165l-75 76l292 294l292 -294l-75 -76z" />
    <glyph glyph-name="arrowlong.down" horiz-adv-x="724" 
d="M308 -48v871h108v-871l163 165l75 -76l-292 -294l-292 294l75 76z" />
    <glyph glyph-name="arrowlong.leftup" horiz-adv-x="940" 
d="M254 592l616 -615l-77 -77l-616 616l2 -232l-107 1l-2 414l415 -1v-107z" />
    <glyph glyph-name="arrowlong.leftdown" horiz-adv-x="940" 
d="M177 83l616 616l77 -77l-616 -615l231 1v-107l-415 -1l2 414l107 1z" />
    <glyph glyph-name="arrowlong.rightup" horiz-adv-x="940" 
d="M763 516l-616 -616l-77 77l616 615l-231 -1v107l415 1l-2 -414l-107 -1z" />
    <glyph glyph-name="arrowlong.rightdown" horiz-adv-x="940" 
d="M686 7l-616 615l77 77l616 -616l-2 232l107 -1l2 -414l-415 1v107z" />
    <glyph glyph-name="ornm1" horiz-adv-x="666" 
d="M240 390q0 -19 15 -34h-201q-21 -1 -29.5 16.5t0 35t29.5 16.5h200q-14 -14 -14 -34zM437 122h-104q13 13 13 32q0 26 -22 39q22 14 22 39t-22 39q22 13 22 39q0 19 -14 33h63v13h-107q-21 -1 -29.5 16.5t0 35t29.5 16.5h149q20 0 35 -30q17 -30 40 -30h114v-197h-114
q-24 0 -41 -21q-15 -21 -34 -24zM300 122h-81q-19 -2 -27 15t0 34t27 15h81q20 0 28 -16t0 -32t-28 -16zM300 200h-81q-19 -2 -27 15t0 34t27 15h81q20 0 28 -16t0 -32t-28 -16zM300 278h-81q-19 -2 -27 15t0 34t27 15h81q20 0 28 -16t0 -32t-28 -16z" />
    <glyph glyph-name="ornm2" horiz-adv-x="666" 
d="M426 390q0 20 -14 34h200q21 1 29.5 -16.5t0 -35t-29.5 -16.5h-201q15 15 15 34zM333 122h-104q-18 3 -35 24q-15 21 -40 21h-114v197h114q24 0 39 30q17 30 36 30h149q21 1 29.5 -16.5t0 -35t-29.5 -16.5h-107v-13h63q-14 -14 -14 -33q0 -26 22 -39q-22 -14 -22 -39
t22 -39q-22 -13 -22 -39q0 -19 13 -32zM366 186h81q19 2 27 -15t0 -34t-27 -15h-81q-20 0 -28 16t0 32t28 16zM366 264h81q19 2 27 -15t0 -34t-27 -15h-81q-20 0 -28 16t0 32t28 16zM366 342h81q19 2 27 -15t0 -34t-27 -15h-81q-20 0 -28 16t0 32t28 16z" />
    <glyph glyph-name="ornm3" horiz-adv-x="1099" 
d="M679 742l-31 -154l-61 12l31 154zM519 444v157h62v-157h-62zM421 -232l31 154l61 -12l-31 -154zM581 66v-157h-62v157h62zM1037 126l-154 31l12 61l154 -31zM739 286h157v-62h-157v62zM63 384l154 -31l-12 -61l-154 31zM361 224h-157v62h157v-62zM986 509l-131 -87
l-34 51l130 88zM662 411l111 111l44 -44l-111 -111zM114 1l131 87l34 -51l-130 -88zM438 99l-111 -111l-44 44l111 111zM804 -181l-87 131l51 34l88 -130zM706 143l111 -111l-44 -44l-111 111zM296 691l87 -131l-51 -34l-88 130zM394 367l-111 111l44 44l111 -111zM852 659
l-87 -132l-51 34l86 132zM592 442l59 145l57 -23l-58 -145zM248 -149l87 132l51 -34l-86 -132zM508 68l-59 -145l-57 23l58 145zM954 -47l-132 87l34 51l132 -86zM737 213l145 -59l-23 -57l-145 58zM146 557l132 -87l-34 -51l-132 86zM363 297l-145 59l23 57l145 -58z
M486 755l30 -155l-61 -11l-29 155zM450 419l-58 145l57 23l59 -145zM614 -245l-30 155l61 11l29 -155zM650 91l58 -145l-57 -23l-59 145zM1050 319l-155 -30l-11 61l155 29zM714 355l145 58l23 -57l-145 -59zM50 191l155 30l11 -61l-155 -29zM386 155l-145 -58l-23 57
l145 59z" />
    <glyph glyph-name="ornm4" horiz-adv-x="1163" 
d="M385 69q-79 79 -79 190t79 190t190 79t190 -79t79 -190t-79 -190t-190 -79t-190 79zM442 392q-55 -55 -55 -133t55 -133t133 -55t133 55t55 133t-55 133t-133 55t-133 -55zM536 220q-15 16 -15 39t15 38q16 16 39 16t38 -16q16 -15 16 -38t-16 -39q-15 -15 -38 -15
t-39 15zM518 316q-24 -24 -24 -57t24 -57t57 -24t57 24t24 57t-24 57t-57 24t-57 -24zM461 145q-47 47 -47 114t47 114t114 47t114 -47t47 -114t-47 -114t-114 -47t-114 47zM188 220q-16 16 -16 39t16 38q16 16 38 16t38 -16q16 -15 16 -38t-16 -39q-16 -15 -38 -15t-38 15z
M66 220q-16 16 -16 39t16 38q16 16 38 16t38 -16q16 -15 16 -38t-16 -39q-16 -15 -38 -15t-38 15zM1020 220q-15 16 -15 39t15 38q16 16 39 16t38 -16q16 -15 16 -38t-16 -39q-15 -15 -38 -15t-39 15zM898 220q-15 16 -15 39t15 38q16 16 39 16t38 -16q16 -15 16 -38
t-16 -39q-15 -15 -38 -15t-39 15zM536 646q16 16 39 16t38 -16q16 -16 16 -38t-16 -38q-15 -16 -38 -16t-39 16q-15 16 -15 38t15 38zM536 768q16 16 39 16t38 -16q16 -16 16 -38t-16 -38q-15 -16 -38 -16t-39 16q-15 16 -15 38t15 38zM536 -174q16 16 39 16t38 -16
q16 -16 16 -38t-16 -38q-15 -16 -38 -16t-39 16q-15 16 -15 38t15 38zM536 -52q16 16 39 16t38 -16q16 -16 16 -38t-16 -38q-15 -16 -38 -16t-39 16q-15 16 -15 38t15 38zM128 456q-15 16 -15 39t15 38q16 16 39 16t38 -16q16 -15 16 -38t-16 -39q-15 -15 -38 -15t-39 15z
M234 394q-15 16 -15 39t15 38q16 16 39 16t38 -16q16 -15 16 -38t-16 -39q-15 -15 -38 -15t-39 15zM848 40q-15 16 -15 38t15 38q16 16 39 16t38 -16q16 -16 16 -38t-16 -38q-15 -16 -38 -16t-39 16zM954 -22q-15 16 -15 38t15 38q16 16 39 16t38 -16q16 -16 16 -38t-16 -38
q-15 -16 -38 -16t-39 16zM128 -15q-15 15 -15 38t15 38q16 16 39 16t38 -16q16 -15 16 -38t-16 -38q-15 -16 -38 -16t-39 16zM234 46q-15 16 -15 39t15 38q16 16 39 16t38 -16q16 -15 16 -38t-16 -39q-15 -15 -38 -15t-39 15zM838 394q-15 16 -15 39t15 38q16 16 39 16
t38 -16q16 -15 16 -38t-16 -39q-15 -15 -38 -15t-39 15zM944 456q-15 16 -15 39t15 38q16 16 39 16t38 -16q16 -15 16 -38t-16 -39q-15 -15 -38 -15t-39 15zM300 628q-15 16 -15 39t15 38q16 16 39 16t38 -16q16 -15 16 -38t-16 -39q-15 -15 -38 -15t-39 15zM362 522
q-16 16 -16 39t16 38q16 16 38 16t38 -16q16 -15 16 -38t-16 -39q-16 -15 -38 -15t-38 15zM718 -91q-15 15 -15 38t15 39q16 15 39 15t38 -15q16 -16 16 -39t-16 -38q-15 -16 -38 -16t-39 16zM780 -197q-16 15 -16 38t16 39q16 15 38 15t38 -15q16 -16 16 -39t-16 -38
q-16 -16 -38 -16t-38 16zM300 -187q-15 15 -15 38t15 39q16 15 39 15t38 -15q16 -16 16 -39t-16 -38q-15 -16 -38 -16t-39 16zM362 -81q-16 15 -16 38t16 39q16 15 38 15t38 -15q16 -16 16 -39t-16 -38q-16 -16 -38 -16t-38 16zM712 522q-16 16 -16 39t16 38q16 16 38 16
t38 -16q16 -15 16 -38t-16 -39q-16 -15 -38 -15t-38 15zM772 628q-15 16 -15 39t15 38q16 16 39 16t38 -16q16 -15 16 -38t-16 -39q-15 -15 -38 -15t-39 15z" />
    <glyph glyph-name="ornm5" horiz-adv-x="1056" 
d="M309 416l-83 83l62 62l83 -84q13 10 17 11l-87 217l81 32l87 -216q12 3 15 3v118h88v-118q8 0 19 -4l92 214l79 -35l-91 -213q8 -3 14 -9l83 84l62 -62l-83 -83l10 -17l217 87l32 -82l-216 -87q3 -4 3 -15h119v-87h-119q-1 -7 -4 -20l214 -91l-35 -79l-213 90l-8 -13
l83 -83l-62 -62l-83 83q-4 -4 -17 -12l87 -216l-82 -32l-87 216l-14 -3v-118h-88v118q-4 0 -7.5 1t-7.5 2t-5 1l-91 -214l-79 35l90 212q-4 2 -13 10l-83 -83l-62 62l83 83q-10 10 -12 16l-215 -87l-32 82l215 87q-3 12 -3 15h-118v87h118q1 7 4 20l-213 92l34 79l212 -91z
M395 392q-55 -55 -55 -133t55 -133t133 -55t133 55t55 133t-55 133t-133 55t-133 -55zM490 220q-16 16 -16 39t16 38q16 16 38 16t38 -16q16 -15 16 -38t-16 -39q-16 -15 -38 -15t-38 15zM471 316q-24 -24 -24 -57t24 -57t57 -24t57 24t24 57t-24 57t-57 24t-57 -24z
M414 145q-47 47 -47 114t47 114t114 47t114 -47t47 -114t-47 -114t-114 -47t-114 47z" />
    <glyph glyph-name="ornm6" horiz-adv-x="1096" 
d="M391 40l-164 -164l-61 62l164 164q-7 7 -12 16l-216 -87l-32 81l215 87l-3 16h-232v87h232q0 1 1.5 6t2 8.5t0.5 5.5l-213 92l34 79l214 -90l9 13l-164 164l61 61l164 -164l17 12l-87 215l81 33l87 -216q15 3 16 3v233h87v-233q8 0 19 -4l92 214l79 -35l-89 -214
q3 -1 12 -8l164 164l62 -61l-164 -164l11 -18l216 88l32 -81l-215 -87l3 -16h232v-87h-232q-1 -5 -2 -12l-2 -7l213 -92l-34 -79l-214 89q-2 -6 -8 -12l164 -164l-62 -62l-164 164l-17 -12l88 -215l-82 -33l-87 216l-15 -3v-233h-87v233q-2 0 -21 4l-90 -214l-79 35l89 213z
M415 392q-55 -55 -55 -133t55 -133t133 -55t133 55t55 133t-55 133t-133 55t-133 -55zM491 316q-24 -24 -24 -57t24 -57t57 -24t57 24t24 57t-24 57t-57 24t-57 -24zM434 145q-47 47 -47 114t47 114t114 47t114 -47t47 -114t-47 -114t-114 -47t-114 47z" />
    <glyph glyph-name="ornm7" horiz-adv-x="1069" 
d="M344 69q-79 79 -79 190t79 190t190 79t190 -79t79 -190t-79 -190t-190 -79t-190 79zM401 392q-55 -55 -55 -133t55 -133t133 -55t133 55t55 133t-55 133t-133 55t-133 -55zM496 220q-16 16 -16 39t16 38q16 16 38 16t38 -16q16 -15 16 -38t-16 -39q-16 -15 -38 -15
t-38 15zM477 316q-24 -24 -24 -57t24 -57t57 -24t57 24t24 57t-24 57t-57 24t-57 -24zM420 145q-47 47 -47 114t47 114t114 47t114 -47t47 -114t-47 -114t-114 -47t-114 47zM115 16q-65 113 -65 243t65 242q64 112 176 177q113 65 243 65t242 -65q112 -64 177 -177
q65 -112 65 -242t-65 -243q-65 -112 -177 -176q-112 -65 -242 -65t-243 65q-111 65 -176 176zM249 544q-119 -119 -119 -285t119 -285t285 -119t285 119t119 285t-119 285t-285 119t-285 -119zM268 -7q-111 111 -111 266t111 266t266 111t266 -111t111 -266t-111 -266
t-266 -111t-266 111zM325 468q-87 -87 -87 -209t87 -209t209 -87t209 87t87 209t-87 209t-209 87t-209 -87z" />
    <glyph glyph-name="ornm8" horiz-adv-x="1106" 
d="M596 41v-296h-86v288l-108 -267l-80 32l111 275l-210 -210l-62 62l201 201l-262 -111l-34 81l273 116h-296v86h288l-267 108l32 80l275 -112l-210 211l62 62l201 -201l-111 262l81 34l116 -274v297h86v-288l108 267l80 -32l-112 -276l211 211l62 -62l-201 -201l262 111
l34 -81l-274 -116h297v-86h-288l267 -108l-32 -80l-276 111l211 -210l-62 -62l-201 201l111 -262l-81 -34zM424 383q-53 -53 -53 -128q0 -74 53 -129q55 -53 129 -53q75 0 128 53q54 54 54 129t-54 128q-53 54 -128 54t-129 -54z" />
    <glyph glyph-name="ornm9" horiz-adv-x="600" 
d="M50 500h500v-500h-500v500z" />
    <glyph glyph-name="zero.alt" horiz-adv-x="562" 
d="M98 585q64 91 183 91t183 -91q65 -92 65 -253t-65 -253q-64 -91 -183 -91t-183 91q-65 92 -65 253t65 253zM385 332q0 223 -104 223t-104 -223t104 -223t104 223z" />
    <glyph glyph-name="one.alt" horiz-adv-x="359" 
d="M45 460v128q103 53 143 76h93v-664h-142v501q-38 -18 -50 -22z" />
    <glyph glyph-name="two.alt" horiz-adv-x="522" 
d="M182 461l-141 16q-1 89 63 144t154 55q92 0 153 -51q62 -50 62 -137q0 -89 -59 -172q-66 -93 -169 -197h252v-119h-434v107q126 131 213 255q53 74 53 127q0 30 -20.5 48.5t-50.5 18.5q-37 0 -57.5 -25.5t-18.5 -69.5z" />
    <glyph glyph-name="three.alt" horiz-adv-x="519" 
d="M173 281l-73 100l170 166h-225v117h419v-96l-168 -158q81 -3 131 -62q49 -58 49 -136q0 -96 -69 -160q-67 -64 -167 -64q-70 0 -126.5 35.5t-86.5 97.5l108 57q37 -70 101 -70q40 0 68 29t28 70q0 42 -27 71t-68 29q-38 0 -64 -26z" />
    <glyph glyph-name="four.alt" horiz-adv-x="554" 
d="M24 280l293 384h126v-386h94v-117h-94v-161h-140v161h-279v119zM174 278h129v180q-61 -92 -129 -180z" />
    <glyph glyph-name="five.alt" horiz-adv-x="508" 
d="M89 664h359v-117h-230q-9 -123 -11 -138q35 18 79 18q86 0 138 -61q52 -59 52 -148q0 -98 -67 -164t-169 -66q-70 0 -127 35.5t-86 97.5l108 57q36 -70 101 -70q40 0 68 28.5t28 69.5q0 44 -26 72.5t-69 28.5q-49 0 -79 -40l-96 62q19 187 27 335z" />
    <glyph glyph-name="six.alt" horiz-adv-x="530" 
d="M177 205q0 -42 25 -69.5t64 -27.5q37 0 62.5 28t25.5 69q0 40 -25 68t-63 28t-63.5 -28t-25.5 -68zM281 415q13 3 27 3q76 0 132 -63q57 -61 57 -148q0 -91 -69 -156q-68 -63 -164 -63t-163 64q-68 65 -68 156q0 56 35 120q23 44 104 172l133 203l115 -68z" />
    <glyph glyph-name="seven.alt" horiz-adv-x="472" 
d="M10 664h445v-94q-118 -247 -266 -602l-129 58q53 124 242 519h-292v119z" />
    <glyph glyph-name="eight.alt" horiz-adv-x="549" 
d="M136 351q-33 18 -53 53.5t-20 79.5q0 81 61 136q62 56 150 56t150 -56t62 -136q0 -44 -20 -79.5t-53 -53.5q42 -21 65.5 -62t23.5 -94q0 -88 -66 -148q-65 -59 -162 -59q-95 0 -162 59q-65 60 -65 148q0 53 23.5 94t65.5 62zM205 481q0 -33 20 -55.5t49 -22.5t49.5 22.5
t20.5 55.5q0 32 -20.5 54.5t-49.5 22.5t-49 -22.5t-20 -54.5zM215 259q-24 -26 -24 -63t24 -64q24 -26 59 -26t59 26q25 26 25 64t-25 64q-24 26 -59 26t-59 -27z" />
    <glyph glyph-name="nine.alt" horiz-adv-x="530" 
d="M264 556q-38 0 -63 -28t-25 -68q0 -41 25 -69t63 -28t63 28q24 31 25 69t-24.5 68.5t-63.5 27.5zM110 29l139 220q-12 -2 -28 -2q-76 0 -132 62q-56 64 -56 149q0 91 68 154q68 64 165 64q96 0 163 -64q68 -65 68 -156q0 -52 -35 -120q-16 -32 -105 -173l-132 -202z" />
    <glyph glyph-name="a.smcp" horiz-adv-x="608" 
d="M163 0h-154l238 595h126l227 -595h-158l-39 107h-202zM302 393h-2l-58 -170h118z" />
    <glyph glyph-name="b.smcp" horiz-adv-x="574" 
d="M73 0v595h177q84 0 143 -24q105 -41 105 -146q0 -81 -74 -114q45 -15 71 -51t26 -82q0 -112 -121 -155q-67 -23 -158 -23h-169zM286 247h-71v-130h31q63 0 91 11q35 15 35 55q0 30 -23 47t-63 17zM252 477h-37v-119h37q103 0 103 58q0 33 -24 47t-79 14z" />
    <glyph glyph-name="c.smcp" horiz-adv-x="585" 
d="M483 151l72 -99q-82 -64 -190 -64q-142 0 -236 86q-92 86 -92 223q0 132 95 221t233 89q94 0 182 -58l-63 -105q-61 45 -121 45q-77 0 -128 -54t-51 -138q0 -88 48 -139.5t131 -51.5q65 0 120 45z" />
    <glyph glyph-name="d.smcp" horiz-adv-x="631" 
d="M74 0v595h105q166 0 238 -28q85 -34 133 -101.5t48 -165.5q0 -113 -58 -186q-59 -73 -150 -95q-80 -19 -208 -19h-108zM217 477v-359q67 2 114 12q120 28 120 163q0 117 -79 157q-52 25 -155 27z" />
    <glyph glyph-name="e.smcp" horiz-adv-x="530" 
d="M469 118v-118h-395v595h395v-118h-252v-114h252v-118h-252v-127h252z" />
    <glyph glyph-name="f.smcp" horiz-adv-x="462" 
d="M420 351v-118h-203v-233h-143v595h346v-118h-203v-126h203z" />
    <glyph glyph-name="g.smcp" horiz-adv-x="684" 
d="M350 355h273v-241q-42 -58 -110.5 -92t-144.5 -34q-139 0 -233 85t-94 224q0 132 95 221t232 89q125 0 229 -95l-83 -93q-63 70 -147 70q-77 0 -128 -54t-51 -138q0 -87 49.5 -139t129.5 -52q67 0 116 41v92h-133v116z" />
    <glyph glyph-name="h.smcp" horiz-adv-x="671" 
d="M597 595v-595h-143v248h-237v-248h-143v595h143v-229h237v229h143z" />
    <glyph glyph-name="i.smcp" horiz-adv-x="291" 
d="M217 595v-595h-143v595h143z" />
    <glyph glyph-name="j.smcp" horiz-adv-x="341" 
d="M124 166v429h143v-436q0 -84 -46 -127q-44 -44 -117 -44q-47 0 -122 29l42 108q35 -19 58 -19q25 0 34 12q8 13 8 48z" />
    <glyph glyph-name="k.smcp" horiz-adv-x="593" 
d="M217 177v-177h-143v595h143v-235l190 235h166l-202 -238l213 -357h-167l-142 246z" />
    <glyph glyph-name="l.smcp" horiz-adv-x="467" 
d="M459 118v-118h-385v595h143v-477h242z" />
    <glyph glyph-name="m.smcp" horiz-adv-x="857" 
d="M572 595h211v-595h-143v394l-154 -394h-119l-150 395v-395h-143v595h214l141 -382h2z" />
    <glyph glyph-name="msmcp.salt" horiz-adv-x="805" 
d="M446 104h-89l-144 306v-410h-139v595h191l137 -303h1l138 303h190v-595h-139v411z" />
    <glyph glyph-name="n.smcp" horiz-adv-x="685" 
d="M611 0h-134l-263 358v-358h-140v595h133l264 -357v357h140v-595z" />
    <glyph glyph-name="o.smcp" horiz-adv-x="716" 
d="M129 517q91 90 229 90t229 -90q92 -90 92 -220t-92 -220q-92 -89 -229 -89t-229 89q-92 90 -92 220t92 220zM483 435q-49 54 -125 54t-125 -54q-49 -53 -49 -138t49 -138q50 -53 125 -53t125 53q49 53 49 138t-49 138z" />
    <glyph glyph-name="p.smcp" horiz-adv-x="538" 
d="M74 0v595h131q85 0 113 -4q83 -12 139 -62q57 -49 57 -126q0 -63 -43 -114t-112 -71q-39 -11 -124 -13h-18v-205h-143zM240 477h-23v-154h21q55 1 79 9q50 17 50 70q0 54 -49 69q-22 6 -78 6z" />
    <glyph glyph-name="q.smcp" horiz-adv-x="716" 
d="M677 17l-87 -88l-90 90q-63 -31 -142 -31q-137 0 -229 89q-92 90 -92 220t92 220q91 90 229 90t229 -90q92 -90 92 -220q0 -115 -78 -204zM338 182l87 88l79 -80q28 49 28 107q0 85 -49 138q-49 54 -125 54t-125 -54q-49 -53 -49 -138t49 -138q50 -53 125 -53q24 0 48 7z
" />
    <glyph glyph-name="r.smcp" horiz-adv-x="603" 
d="M74 0v595h173q128 0 197.5 -46.5t69.5 -138.5q0 -56 -32 -101t-87 -66l183 -243h-180l-159 220h-22v-220h-143zM241 477h-24v-139h14q70 0 103 14.5t33 52.5q0 42 -27.5 57t-98.5 15z" />
    <glyph glyph-name="s.smcp" horiz-adv-x="538" 
d="M470 537l-73 -98q-59 50 -122 50q-28 0 -46 -13.5t-18 -36.5q0 -20 17 -35q16 -14 30.5 -20.5t57.5 -20.5q63 -24 92 -41q72 -42 77 -140q0 -88 -71 -141t-158 -53q-121 0 -228 98l82 94q42 -40 73.5 -57t71.5 -17q35 0 59 19t24 51q0 22 -18 38q-19 18 -34 23
q-11 5 -57 22q-82 30 -121.5 68.5t-39.5 104.5q0 82 59 129q58 46 144 46q105 0 199 -70z" />
    <glyph glyph-name="t.smcp" horiz-adv-x="471" 
d="M447 595v-118h-140v-477h-143v477h-140v118h423z" />
    <glyph glyph-name="u.smcp" horiz-adv-x="648" 
d="M72 280v315h143v-328q0 -161 109 -161t109 161v328h143v-315q0 -292 -254 -292q-250 0 -250 292z" />
    <glyph glyph-name="v.smcp" horiz-adv-x="599" 
d="M441 595h154l-238 -595h-126l-227 595h158l140 -384h2z" />
    <glyph glyph-name="w.smcp" horiz-adv-x="859" 
d="M696 595h151l-176 -595h-139l-102 386h-2l-110 -386h-144l-162 595h153l92 -361h2l99 361h144l97 -361h2z" />
    <glyph glyph-name="x.smcp" horiz-adv-x="639" 
d="M231 300l-221 294h177l137 -186l133 186h172l-221 -293l227 -301h-177l-142 192l-138 -192h-174z" />
    <glyph glyph-name="y.smcp" horiz-adv-x="554" 
d="M346 241v-241h-143v249l-199 346h170l106 -203h2l105 203h163z" />
    <glyph glyph-name="z.smcp" horiz-adv-x="508" 
d="M466 595v-70l-240 -407h262v-118h-451v69l240 408h-237v118h426z" />
    <glyph glyph-name="thorn.smcp" horiz-adv-x="555" 
d="M74 0v595h143v-97q76 0 101 -4q83 -12 139 -62q57 -50 57 -126q0 -63 -43 -114t-112 -71q-39 -11 -124 -13h-18v-108h-143zM240 380h-23v-154h21q55 1 79 9q50 17 50 70q0 54 -49 69q-22 6 -78 6z" />
    </font>
</defs>
</svg>
